<svg width="117" height="93" viewBox="0 0 117 93" fill="none" xmlns="http://www.w3.org/2000/svg">
<g clip-path="url(#clip0)">
<path d="M39.6125 66.6394C39.5946 66.6118 39.5753 66.5857 39.5569 66.559C40.6168 65.9412 41.4094 64.9477 41.8253 63.65C42.3257 62.0904 42.1364 60.4943 41.318 59.3864C41.2976 59.3583 41.2752 59.3302 41.2529 59.3016C42.208 58.6636 42.8758 57.6977 43.1685 56.4636C43.3454 55.7161 43.6346 53.8276 42.5225 52.3805C43.4975 51.7395 44.1887 50.7662 44.4849 49.5395C44.8571 47.9977 44.5664 46.4332 43.7067 45.3485C43.0011 44.4609 41.9545 43.9723 40.7599 43.9723H30.5879C31.6275 42.1416 33.0949 39.3868 33.4348 37.8702C33.4348 37.8593 33.4392 37.8485 33.4412 37.8376C34.2075 33.9015 32.7212 29.3313 29.8276 26.724C28.067 25.1373 26.0659 24.5654 24.1935 25.1136C22.7186 25.5456 21.8524 26.3054 21.5453 27.4375C21.2969 28.3541 21.4827 29.3274 21.6795 30.3579C22.005 32.0609 22.3752 33.9908 20.9083 36.1947C19.5169 38.2893 14.3042 43.4127 11.91 45.7252C11.7636 45.6644 11.6065 45.6332 11.4478 45.6334H2.81078C2.49448 45.6334 2.19113 45.7581 1.96747 45.98C1.74381 46.202 1.61816 46.5029 1.61816 46.8168C1.61816 47.1306 1.74381 47.4316 1.96747 47.6535C2.19113 47.8755 2.49448 48.0001 2.81078 48.0001H10.2542V59.0965C10.2542 59.4104 10.3799 59.7113 10.6035 59.9333C10.8272 60.1552 11.1305 60.2799 11.4468 60.2799C11.7631 60.2799 12.0665 60.1552 12.2901 59.9333C12.5138 59.7113 12.6395 59.4104 12.6395 59.0965V48.293C14.2227 46.7828 21.1085 40.155 22.8801 37.4905C24.8762 34.4927 24.3719 31.8518 24.0016 29.924C23.857 29.1651 23.7199 28.4487 23.8277 28.0503C23.8585 27.9374 23.94 27.6371 24.8613 27.3674C26.2776 26.9528 27.584 27.8763 28.2359 28.464C30.1874 30.2218 31.8034 33.8463 31.1226 37.3796C30.7509 38.9988 28.3989 43.0966 27.5209 44.5438C27.4129 44.7218 27.3545 44.9251 27.3517 45.1328C27.3488 45.3406 27.4016 45.5454 27.5047 45.7262C27.6077 45.9071 27.7573 46.0576 27.9382 46.1623C28.1191 46.267 28.3247 46.3222 28.5341 46.3223H40.7584C41.2335 46.3223 41.5898 46.48 41.8477 46.805C42.2507 47.3113 42.3824 48.1707 42.1831 48.9942C41.7508 50.7864 39.9649 50.9265 39.2185 50.9053H39.1817C39.1422 50.9051 39.1027 50.9069 39.0634 50.9107L39.0396 50.9141C39.0088 50.9181 38.978 50.922 38.9482 50.9279C38.9357 50.9279 38.9233 50.9344 38.9109 50.9373C38.886 50.9432 38.8612 50.9487 38.8368 50.9561C38.8224 50.9605 38.8085 50.9659 38.7946 50.9708C38.7727 50.9782 38.7509 50.9856 38.7295 50.994C38.7081 51.0024 38.7002 51.0078 38.6853 51.0147C38.6704 51.0216 38.6465 51.032 38.6276 51.0418C38.6087 51.0517 38.5988 51.0591 38.5844 51.0675C38.57 51.0759 38.5486 51.0877 38.5312 51.099C38.5138 51.1104 38.5039 51.1188 38.49 51.1286C38.4761 51.1385 38.4567 51.1518 38.4403 51.1641C38.4239 51.1765 38.4145 51.1873 38.4015 51.1986C38.3886 51.21 38.3712 51.2243 38.3568 51.2381C38.3424 51.2519 38.333 51.2632 38.321 51.2756C38.3091 51.2879 38.2937 51.3037 38.2808 51.3189C38.2679 51.3342 38.2584 51.3471 38.2475 51.3614C38.2365 51.3757 38.2236 51.3909 38.2122 51.4067C38.2008 51.4225 38.1923 51.4378 38.1824 51.456C38.1724 51.4743 38.162 51.4871 38.1526 51.5053C38.1431 51.5236 38.1347 51.5393 38.1262 51.5546C38.1178 51.5699 38.1088 51.5867 38.1019 51.6039C38.0949 51.6212 38.087 51.6409 38.0795 51.6597C38.0721 51.6784 38.0661 51.6922 38.0606 51.709C38.0552 51.7257 38.0487 51.7489 38.0432 51.7686C38.0378 51.7883 38.0333 51.8017 38.0293 51.8179C38.0254 51.8342 38.0214 51.8598 38.0179 51.8805C38.0144 51.9013 38.0114 51.9146 38.009 51.9298C38.0065 51.9451 38.0055 51.9718 38.004 51.993C38.0025 52.0142 38.0005 52.0255 38 52.0423V52.0477C38 52.0502 38 52.0521 38 52.0541C38 52.0738 38 52.0931 38 52.1123C38 52.1315 38 52.1498 38 52.168C38 52.1862 38.005 52.2094 38.0075 52.2306C38.01 52.2518 38.0119 52.2671 38.0149 52.2849C38.0179 52.3026 38.0239 52.3253 38.0288 52.3455C38.0338 52.3657 38.0363 52.381 38.0413 52.3978C38.0462 52.4145 38.0542 52.4372 38.0611 52.4569C38.0681 52.4767 38.0716 52.4905 38.078 52.5062C38.0845 52.522 38.0949 52.5437 38.1034 52.5625C38.1118 52.5812 38.1173 52.5945 38.1252 52.6118C38.1332 52.629 38.1451 52.6468 38.1551 52.6645C38.165 52.6823 38.1724 52.6956 38.1819 52.7104C38.1913 52.7252 38.2047 52.7424 38.2162 52.7597C38.2276 52.7769 38.2366 52.7898 38.248 52.804C38.2594 52.8183 38.2728 52.8331 38.2857 52.8474C38.2987 52.8617 38.3091 52.876 38.322 52.8889C38.3349 52.9017 38.3494 52.9155 38.3633 52.9283C38.3772 52.9411 38.3901 52.9544 38.404 52.9668C38.4179 52.9791 38.4333 52.9904 38.4482 53.0018C38.4631 53.0131 38.4781 53.0259 38.4935 53.0368C38.5089 53.0476 38.5248 53.057 38.5402 53.0669C38.5556 53.0767 38.5725 53.0881 38.5899 53.0979C38.6073 53.1078 38.6237 53.1152 38.6396 53.1241C38.6555 53.1329 38.6733 53.1418 38.6893 53.1497C38.7052 53.1576 38.726 53.1645 38.7444 53.1719C38.7628 53.1793 38.7787 53.1857 38.7941 53.1921C38.8095 53.1985 38.8334 53.2034 38.8532 53.2089C38.8731 53.2143 38.8885 53.2192 38.9069 53.2236C38.9253 53.2281 38.9486 53.2315 38.9695 53.235C38.9904 53.2384 39.0053 53.2419 39.0232 53.2444C39.0411 53.2468 39.0669 53.2483 39.0893 53.2498C39.1116 53.2513 39.1221 53.2532 39.139 53.2537H39.1514C39.8585 53.268 40.3544 53.451 40.6258 53.7961C41.0427 54.3286 41.0104 55.2782 40.8558 55.9291C40.4687 57.5636 39.0291 57.8683 37.8902 57.8353H37.8658C37.8529 57.8353 37.841 57.8353 37.8281 57.8353C37.8047 57.8353 37.7814 57.8353 37.758 57.8387L37.7128 57.8441C37.6884 57.8471 37.6631 57.8505 37.6402 57.855L37.5965 57.8648C37.5732 57.8703 37.5508 57.8757 37.5279 57.8826C37.5051 57.8895 37.4966 57.8925 37.4812 57.8979C37.4658 57.9033 37.4405 57.9117 37.4206 57.9201C37.4007 57.9285 37.3868 57.9349 37.3709 57.9428C37.355 57.9506 37.3366 57.958 37.3212 57.9669L37.2666 57.9975C37.2526 58.0064 37.2382 58.0142 37.2248 58.0231C37.2114 58.032 37.187 58.0488 37.1687 58.0626C37.1503 58.0764 37.1448 58.0793 37.1339 58.0882C37.1145 58.103 37.0966 58.1188 37.0782 58.1375L37.0489 58.1641C37.031 58.1814 37.0141 58.1991 36.9992 58.2179L36.9739 58.2455C36.9575 58.2647 36.9421 58.2844 36.9272 58.3042C36.9192 58.3145 36.9113 58.3244 36.9038 58.3347C36.8894 58.3549 36.8765 58.3757 36.8635 58.3964L36.8422 58.4314C36.8303 58.4521 36.8198 58.4733 36.8094 58.4945C36.8029 58.5073 36.796 58.5201 36.79 58.5334C36.7811 58.5546 36.7726 58.5758 36.7647 58.5975C36.7587 58.6118 36.7532 58.6266 36.7483 58.6414C36.7433 58.6562 36.7353 58.6838 36.7299 58.705C36.7244 58.7262 36.7204 58.7376 36.717 58.7543C36.7135 58.7711 36.7085 58.7957 36.7055 58.8165C36.7025 58.8372 36.6991 58.8529 36.6971 58.8712C36.6951 58.8894 36.6931 58.9116 36.6921 58.9323C36.6911 58.953 36.6891 58.9604 36.6886 58.9747C36.6886 58.9806 36.6886 58.9866 36.6886 58.992C36.6886 58.9974 36.6886 59.0028 36.6886 59.0088C36.6886 59.0226 36.6886 59.0364 36.6886 59.0502C36.6886 59.0714 36.6886 59.0921 36.6921 59.1128C36.6956 59.1335 36.6966 59.1498 36.6991 59.1685C36.7016 59.1872 36.704 59.2089 36.708 59.2292C36.712 59.2494 36.7165 59.2656 36.7204 59.2839C36.7244 59.3021 36.7299 59.3228 36.7358 59.3416C36.7418 59.3603 36.7473 59.3776 36.7537 59.3953C36.7602 59.4131 36.7662 59.4318 36.7736 59.4496C36.7811 59.4673 36.789 59.4846 36.7975 59.5018C36.8059 59.5191 36.8129 59.5358 36.8218 59.5511C36.8307 59.5664 36.8407 59.5847 36.8506 59.6004C36.8606 59.6162 36.8695 59.6325 36.8795 59.6497C36.8894 59.667 36.9013 59.6813 36.9127 59.699C36.9242 59.7168 36.9346 59.7286 36.9465 59.7434C36.9585 59.7582 36.9709 59.772 36.9833 59.7863C36.9957 59.8006 37.0087 59.8144 37.0216 59.8277C37.0345 59.841 37.0484 59.8539 37.0618 59.8667C37.0752 59.8795 37.0901 59.8928 37.1046 59.9046C37.119 59.9165 37.1334 59.9278 37.1483 59.9392C37.1632 59.9505 37.1786 59.9628 37.1945 59.9737L37.2412 60.0038C37.2576 60.0141 37.274 60.024 37.2909 60.0338L37.3406 60.0595C37.358 60.0679 37.3754 60.0767 37.3933 60.0846L37.4464 60.1058L37.5006 60.125C37.5195 60.1315 37.5389 60.1364 37.5578 60.1418C37.5766 60.1472 37.5945 60.1517 37.6134 60.1556C37.6323 60.1596 37.6532 60.1635 37.673 60.1665C37.6929 60.1694 37.7113 60.1729 37.7307 60.1753C37.7501 60.1778 37.7709 60.1788 37.7913 60.1803C37.8117 60.1818 37.8201 60.1832 37.8345 60.1837H37.8658C38.5993 60.1837 39.1176 60.3809 39.4063 60.7754C39.7696 61.2685 39.8337 62.119 39.5693 62.9449C39.0227 64.6489 37.6447 64.9723 36.5803 64.9383H36.5644C36.5391 64.9383 36.5147 64.9383 36.4889 64.9383C36.4764 64.9383 36.4635 64.9383 36.4511 64.9383C36.4173 64.9413 36.384 64.9457 36.3517 64.9511H36.3408C36.1541 64.9838 35.9781 65.0606 35.8276 65.175C35.6771 65.2894 35.5566 65.4381 35.4761 65.6084L35.4697 65.6212C35.4582 65.6474 35.4478 65.6735 35.4379 65.6996C35.4334 65.711 35.4289 65.7223 35.4254 65.7336C35.418 65.7548 35.4125 65.7765 35.4066 65.7982C35.4006 65.8199 35.3966 65.8327 35.3927 65.8505C35.3887 65.8682 35.3857 65.887 35.3822 65.9057C35.3787 65.9245 35.3748 65.9476 35.3723 65.9688C35.3723 65.9738 35.3723 65.9787 35.3723 65.9836C35.3723 65.9979 35.3723 66.0117 35.3723 66.0255C35.3723 66.0393 35.3688 66.0561 35.3688 66.0714C35.3688 66.0768 35.3688 66.0822 35.3688 66.0877C35.3688 66.1089 35.3688 66.1296 35.3688 66.1503C35.3688 66.171 35.3688 66.1873 35.3688 66.2055C35.3688 66.2237 35.3738 66.2474 35.3767 66.2676C35.3797 66.2878 35.3812 66.3041 35.3847 66.3219C35.3882 66.3396 35.3932 66.3603 35.3976 66.3796C35.4021 66.3988 35.4066 66.417 35.412 66.4348C35.4175 66.4525 35.4235 66.4698 35.4294 66.4875C35.4354 66.5053 35.4423 66.525 35.4498 66.5432C35.4573 66.5615 35.4642 66.5758 35.4712 66.5925C35.4781 66.6093 35.4881 66.6295 35.4975 66.6478C35.5069 66.666 35.5149 66.6779 35.5233 66.6931C35.5318 66.7084 35.5437 66.7281 35.5546 66.7449C35.5656 66.7617 35.575 66.774 35.5855 66.7888C35.5959 66.8036 35.6083 66.8208 35.6207 66.8381C35.6332 66.8554 35.6451 66.8662 35.6575 66.8805C35.6699 66.8948 35.6819 66.9091 35.6948 66.9224C35.7077 66.9357 35.7231 66.9495 35.7375 66.9628C35.7519 66.9762 35.7634 66.9875 35.7768 66.9993C35.7902 67.0112 35.8086 67.0245 35.8265 67.0368C35.8444 67.0491 35.8543 67.0585 35.8687 67.0684C35.8831 67.0782 35.9025 67.0905 35.9184 67.1014C35.9343 67.1122 35.9487 67.1206 35.9646 67.1295C35.9805 67.1384 35.9989 67.1472 36.0143 67.1561C36.0297 67.165 36.0486 67.1734 36.064 67.1813C36.0794 67.1892 36.0978 67.1951 36.1137 67.2015C36.1296 67.2079 36.1529 67.2168 36.1728 67.2232C36.1927 67.2296 36.2056 67.2325 36.2225 67.237C36.2394 67.2414 36.2653 67.2493 36.2876 67.2542C36.31 67.2592 36.3204 67.2602 36.3373 67.2631C36.3542 67.2661 36.3825 67.271 36.4054 67.274H36.4198C36.9808 67.3321 37.3833 67.5451 37.6169 67.9066C37.9021 68.3503 37.9364 69.0115 37.7083 69.6816C37.3028 70.8709 36.55 72.0315 32.2844 72.0315H20.1291C16.1318 72.0315 12.8859 69.7999 12.3299 69.3951V67.1808C12.3299 66.8669 12.2042 66.5659 11.9806 66.344C11.7569 66.1221 11.4536 65.9974 11.1373 65.9974C10.821 65.9974 10.5176 66.1221 10.2939 66.344C10.0703 66.5659 9.94464 66.8669 9.94464 67.1808V71.4443H2.81078C2.49448 71.4443 2.19113 71.569 1.96747 71.7909C1.74381 72.0128 1.61816 72.3138 1.61816 72.6276C1.61816 72.9415 1.74381 73.2425 1.96747 73.4644C2.19113 73.6863 2.49448 73.811 2.81078 73.811H11.1363C11.4526 73.811 11.7559 73.6863 11.9796 73.4644C12.2032 73.2425 12.3289 72.9415 12.3289 72.6276V72.1839C13.9777 73.1246 16.7977 74.3765 20.1306 74.3765H32.2903C35.416 74.3765 38.7683 73.9057 39.9534 70.432C40.4166 69.0736 40.2923 67.6916 39.6125 66.6394Z" fill="#3090E2"/>
<path d="M115.409 26.8823C114.399 25.1867 112.96 23.7818 111.236 22.8061C109.511 21.8304 107.56 21.3177 105.574 21.3185H55.4407C53.8713 21.3169 52.3184 21.6369 50.8793 22.2585C49.4403 22.8801 48.1462 23.7898 47.078 24.9307C46.9588 25.0544 46.8657 25.2004 46.8039 25.3601C46.742 25.5199 46.7128 25.6902 46.7178 25.8612C46.7229 26.0322 46.7621 26.2005 46.8332 26.3564C46.9043 26.5123 47.0059 26.6526 47.1321 26.7692C47.2583 26.8858 47.4066 26.9764 47.5684 27.0357C47.7301 27.0949 47.9021 27.1218 48.0744 27.1146C48.2467 27.1074 48.4158 27.0663 48.572 26.9938C48.7282 26.9212 48.8683 26.8186 48.9842 26.6919C49.8063 25.8078 50.805 25.1033 51.9166 24.623C53.0282 24.1428 54.2283 23.8975 55.4407 23.9027H105.574C106.733 23.902 107.88 24.128 108.951 24.5676C110.021 25.0072 110.994 25.6519 111.813 26.4648C112.632 27.2776 113.282 28.2427 113.725 29.3049C114.168 30.3671 114.396 31.5055 114.395 32.655V60.3967C114.397 61.684 114.111 62.9556 113.56 64.1206C113.008 65.2856 112.203 66.3151 111.203 67.1354C110.937 67.3542 110.77 67.6689 110.738 68.0101C110.706 68.3513 110.812 68.6911 111.033 68.9548C111.253 69.2185 111.57 69.3845 111.914 69.4162C112.258 69.4479 112.601 69.3428 112.866 69.1239C114.161 68.0615 115.203 66.7281 115.917 65.2194C116.632 63.7106 117.002 62.0638 117 60.3967V32.655C117.001 30.6241 116.451 28.6302 115.409 26.8823Z" fill="#3090E2"/>
<path d="M96.2455 31.1063H46.1147C44.4676 31.1059 42.84 31.459 41.3434 32.1414C39.8468 32.8238 38.5167 33.8193 37.4443 35.0597C37.2261 35.3205 37.1199 35.656 37.1487 35.9938C37.1774 36.3316 37.3387 36.6446 37.5979 36.8655C37.857 37.0864 38.1933 37.1973 38.5341 37.1745C38.875 37.1517 39.1932 36.9969 39.4201 36.7435C40.2481 35.7857 41.275 35.0169 42.4306 34.4899C43.5861 33.9629 44.8429 33.6902 46.1147 33.6905H96.2455C101.109 33.6905 105.066 37.6167 105.066 42.4428V70.1845C105.066 75.0106 101.109 78.9369 96.2455 78.9369H93.8384C93.562 78.9353 93.2924 79.0217 93.0691 79.1834L93.0602 79.1898C93.0492 79.1977 93.0388 79.2061 93.0284 79.2145L93.0095 79.2288L92.9886 79.247L92.9608 79.2707L92.9499 79.281L92.9146 79.3145V79.317C92.7325 79.498 92.6089 79.7287 92.5598 79.9797L90.6004 89.6999L71.8251 79.105H71.8211L71.7714 79.0779L71.7645 79.0744L71.7148 79.0503L71.7068 79.0463L71.6571 79.0261L71.6452 79.0217L71.601 79.0059L71.5821 78.9995L71.5458 78.9891L71.5175 78.9807L71.4902 78.9743L71.4529 78.966L71.4335 78.962L71.3868 78.9536H71.3744C71.3565 78.9507 71.3386 78.9487 71.3207 78.9467H71.3127L71.2546 78.9428H71.2472H71.189H46.1147C44.337 78.9447 42.6007 78.4104 41.136 77.4108C40.851 77.2173 40.5002 77.144 40.1607 77.2071C39.8213 77.2702 39.521 77.4646 39.3259 77.7473C39.1309 78.0301 39.057 78.3782 39.1206 78.715C39.1842 79.0518 39.3801 79.3498 39.6651 79.5433C41.5634 80.8356 43.8125 81.5253 46.1147 81.521H70.8367L90.8797 92.8309C91.0588 92.932 91.2595 92.9895 91.4654 92.9987C91.6713 93.0078 91.8764 92.9683 92.064 92.8835C92.2515 92.7986 92.416 92.6708 92.544 92.5105C92.672 92.3503 92.7598 92.1621 92.8003 91.9616L94.9048 81.521H96.2464C99.2766 81.5209 102.183 80.3265 104.325 78.2005C106.468 76.0745 107.672 73.1911 107.672 70.1845V42.4428C107.672 40.9541 107.376 39.4799 106.802 38.1045C106.228 36.729 105.386 35.4793 104.326 34.4266C103.265 33.3739 102.005 32.5388 100.619 31.9691C99.2326 31.3995 97.7469 31.1063 96.2464 31.1063H96.2455Z" fill="#3090E2"/>
<path d="M48.4182 46.2172H58.0843C58.4296 46.2172 58.7608 46.0811 59.005 45.8389C59.2491 45.5966 59.3863 45.268 59.3863 44.9254C59.3863 44.5828 59.2491 44.2542 59.005 44.0119C58.7608 43.7697 58.4296 43.6336 58.0843 43.6336H48.4182C48.0729 43.6336 47.7417 43.7697 47.4975 44.0119C47.2534 44.2542 47.1162 44.5828 47.1162 44.9254C47.1162 45.268 47.2534 45.5966 47.4975 45.8389C47.7417 46.0811 48.0729 46.2172 48.4182 46.2172Z" fill="#3090E2"/>
<path d="M70.5786 43.636H66.7468C66.4015 43.636 66.0703 43.7722 65.8262 44.0144C65.582 44.2567 65.4448 44.5853 65.4448 44.9279C65.4448 45.2705 65.582 45.5991 65.8262 45.8413C66.0703 46.0836 66.4015 46.2197 66.7468 46.2197H70.5786C70.9239 46.2197 71.255 46.0836 71.4992 45.8413C71.7433 45.5991 71.8805 45.2705 71.8805 44.9279C71.8805 44.5853 71.7433 44.2567 71.4992 44.0144C71.255 43.7722 70.9239 43.636 70.5786 43.636Z" fill="#3090E2"/>
<path d="M93.8254 43.636H78.2419C77.8966 43.636 77.5654 43.7722 77.3213 44.0144C77.0771 44.2567 76.9399 44.5853 76.9399 44.9279C76.9399 45.2705 77.0771 45.5991 77.3213 45.8413C77.5654 46.0836 77.8966 46.2197 78.2419 46.2197H93.8254C94.1707 46.2197 94.5019 46.0836 94.7461 45.8413C94.9902 45.5991 95.1274 45.2705 95.1274 44.9279C95.1274 44.5853 94.9902 44.2567 94.7461 44.0144C94.5019 43.7722 94.1707 43.636 93.8254 43.636Z" fill="#3090E2"/>
<path d="M48.4181 58.0986H64.4146C64.7556 58.092 65.0803 57.9529 65.3191 57.7113C65.5579 57.4698 65.6916 57.1449 65.6916 56.8065C65.6916 56.4681 65.5579 56.1433 65.3191 55.9017C65.0803 55.6601 64.7556 55.521 64.4146 55.5144H48.4181C48.0772 55.521 47.7524 55.6601 47.5136 55.9017C47.2749 56.1433 47.1411 56.4681 47.1411 56.8065C47.1411 57.1449 47.2749 57.4698 47.5136 57.7113C47.7524 57.9529 48.0772 58.092 48.4181 58.0986Z" fill="#3090E2"/>
<path d="M69.2764 56.8067C69.2765 57.1494 69.4138 57.478 69.658 57.7202C69.9023 57.9625 70.2335 58.0986 70.5788 58.0986H83.073C83.4139 58.092 83.7387 57.9529 83.9775 57.7113C84.2162 57.4698 84.35 57.1449 84.35 56.8065C84.35 56.4681 84.2162 56.1433 83.9775 55.9017C83.7387 55.6601 83.4139 55.521 83.073 55.5144H70.5788C70.2334 55.5144 69.9021 55.6506 69.6578 55.8929C69.4136 56.1353 69.2764 56.464 69.2764 56.8067Z" fill="#3090E2"/>
<path d="M93.8253 58.0985C93.9984 58.1019 94.1705 58.071 94.3315 58.0075C94.4924 57.9441 94.639 57.8495 94.7626 57.7292C94.8863 57.6089 94.9845 57.4653 95.0516 57.3069C95.1186 57.1484 95.1532 56.9783 95.1532 56.8065C95.1532 56.6347 95.1186 56.4645 95.0516 56.3061C94.9845 56.1477 94.8863 56.0041 94.7626 55.8838C94.639 55.7635 94.4924 55.6689 94.3315 55.6054C94.1705 55.542 93.9984 55.5111 93.8253 55.5144H89.7366C89.5634 55.5111 89.3913 55.542 89.2304 55.6054C89.0694 55.6689 88.9229 55.7635 88.7992 55.8838C88.6756 56.0041 88.5773 56.1477 88.5103 56.3061C88.4432 56.4645 88.4087 56.6347 88.4087 56.8065C88.4087 56.9783 88.4432 57.1484 88.5103 57.3069C88.5773 57.4653 88.6756 57.6089 88.7992 57.7292C88.9229 57.8495 89.0694 57.9441 89.2304 58.0075C89.3913 58.071 89.5634 58.1019 89.7366 58.0985H93.8253Z" fill="#3090E2"/>
<path d="M48.5319 67.3958C48.1909 67.4024 47.8662 67.5414 47.6274 67.783C47.3886 68.0246 47.2549 68.3494 47.2549 68.6878C47.2549 69.0262 47.3886 69.3511 47.6274 69.5927C47.8662 69.8342 48.1909 69.9733 48.5319 69.9799H52.7533C53.0942 69.9733 53.419 69.8342 53.6577 69.5927C53.8965 69.3511 54.0303 69.0262 54.0303 68.6878C54.0303 68.3494 53.8965 68.0246 53.6577 67.783C53.419 67.5414 53.0942 67.4024 52.7533 67.3958H48.5319Z" fill="#3090E2"/>
<path d="M59.0841 67.3958C58.7432 67.4024 58.4184 67.5414 58.1797 67.783C57.9409 68.0246 57.8071 68.3494 57.8071 68.6878C57.8071 69.0262 57.9409 69.3511 58.1797 69.5927C58.4184 69.8342 58.7432 69.9733 59.0841 69.9799H74.7437C75.0847 69.9733 75.4094 69.8342 75.6482 69.5927C75.887 69.3511 76.0207 69.0262 76.0207 68.6878C76.0207 68.3494 75.887 68.0246 75.6482 67.783C75.4094 67.5414 75.0847 67.4024 74.7437 67.3958H59.0841Z" fill="#3090E2"/>
<path d="M79.6074 68.6876C79.6076 69.0303 79.7448 69.3589 79.989 69.6012C80.2333 69.8436 80.5645 69.9798 80.9099 69.9799H93.9417C94.2827 69.9733 94.6074 69.8342 94.8462 69.5927C95.085 69.3511 95.2187 69.0262 95.2187 68.6878C95.2187 68.3494 95.085 68.0246 94.8462 67.783C94.6074 67.5414 94.2827 67.4024 93.9417 67.3958H80.9074C80.5625 67.3964 80.2319 67.5328 79.9882 67.775C79.7445 68.0171 79.6076 68.3453 79.6074 68.6876Z" fill="#3090E2"/>
<path d="M44.6994 16.8105C44.8562 16.8111 45.0116 16.7809 45.1566 16.7217C45.3016 16.6624 45.4333 16.5753 45.5442 16.4653L51.5963 10.4603C51.8203 10.238 51.9462 9.93651 51.9462 9.62212C51.9462 9.30773 51.8203 9.00622 51.5963 8.78391C51.3722 8.5616 51.0683 8.43671 50.7515 8.43671C50.4346 8.43671 50.1308 8.5616 49.9067 8.78391L43.8557 14.7884C43.6883 14.9539 43.5742 15.165 43.528 15.395C43.4817 15.6249 43.5053 15.8633 43.5958 16.0799C43.6863 16.2965 43.8397 16.4815 44.0363 16.6115C44.233 16.7415 44.4641 16.8106 44.7004 16.81L44.6994 16.8105Z" fill="#3090E2"/>
<path d="M14.9044 16.4634C15.1285 16.6857 15.4324 16.8106 15.7492 16.8106C16.0661 16.8106 16.3699 16.6857 16.594 16.4634C16.818 16.2411 16.9439 15.9395 16.9439 15.6252C16.9439 15.3108 16.818 15.0093 16.594 14.7869L10.5404 8.78341C10.3164 8.56111 10.0125 8.43622 9.69566 8.43622C9.37881 8.43622 9.07494 8.56111 8.85089 8.78341C8.62684 9.00572 8.50098 9.30723 8.50098 9.62162C8.50098 9.93601 8.62684 10.2375 8.85089 10.4598L14.9044 16.4634Z" fill="#3090E2"/>
<path d="M10.9458 29.9891C10.9458 29.6752 10.8201 29.3742 10.5965 29.1523C10.3728 28.9304 10.0694 28.8057 9.75314 28.8057H1.19262C0.876317 28.8057 0.57297 28.9304 0.34931 29.1523C0.125651 29.3742 0 29.6752 0 29.9891C0 30.3029 0.125651 30.6039 0.34931 30.8258C0.57297 31.0477 0.876317 31.1724 1.19262 31.1724H9.75215C9.90885 31.1725 10.064 31.142 10.2089 31.0826C10.3537 31.0232 10.4853 30.9361 10.5961 30.8262C10.707 30.7163 10.7949 30.5858 10.8549 30.4421C10.9149 30.2985 10.9458 30.1445 10.9458 29.9891Z" fill="#3090E2"/>
<path d="M30.2239 10.8607C30.5402 10.8607 30.8435 10.736 31.0672 10.5141C31.2908 10.2922 31.4165 9.99119 31.4165 9.67734V1.18335C31.4165 0.869506 31.2908 0.568517 31.0672 0.346595C30.8435 0.124674 30.5402 0 30.2239 0C29.9076 0 29.6042 0.124674 29.3806 0.346595C29.1569 0.568517 29.0313 0.869506 29.0313 1.18335V9.67635C29.0311 9.83184 29.0619 9.98582 29.1217 10.1295C29.1816 10.2732 29.2695 10.4038 29.3802 10.5137C29.491 10.6237 29.6225 10.711 29.7672 10.7705C29.912 10.8301 30.0672 10.8607 30.2239 10.8607Z" fill="#3090E2"/>
</g>
<defs>
<clipPath id="clip0">
<rect width="117" height="93" fill="white"/>
</clipPath>
</defs>
</svg>
