<svg width="251" height="77" viewBox="0 0 251 77" fill="none" xmlns="http://www.w3.org/2000/svg">
<path d="M90.667 18.2369C90.1758 15.4646 89.4352 12.7421 88.4542 10.1027C87.5119 7.44163 86.3305 4.87114 84.9245 2.42262C84.4237 1.57819 83.673 0.909622 82.7759 0.509005C81.8787 0.108387 80.8792 -0.00456656 79.9151 0.185704C77.1643 0.76327 74.46 1.54265 71.824 2.51751C69.173 3.45451 66.5955 4.5874 64.113 5.90677C63.2524 6.37865 62.5594 7.10514 62.1291 7.98637C61.6988 8.8676 61.5524 9.8603 61.7101 10.828C62.1989 13.6009 62.9396 16.3235 63.9229 18.9622C64.8554 21.6217 66.0301 24.1902 67.4323 26.6355C67.9317 27.4799 68.6809 28.149 69.5767 28.5508C70.4726 28.9526 71.4711 29.0673 72.4349 28.8792C75.1857 28.2986 77.89 27.517 80.526 26.5406C83.1784 25.6015 85.758 24.4687 88.2438 23.1513C89.1069 22.6828 89.8033 21.9587 90.2373 21.0786C90.6713 20.1985 90.8214 19.2057 90.667 18.2369Z" fill="#F72A16"/>
<path d="M120.988 4.99846C118.41 3.87532 115.754 2.94191 113.04 2.20571C110.328 1.42878 107.562 0.853295 104.765 0.483961C103.791 0.368492 102.804 0.557399 101.941 1.02471C101.078 1.49203 100.381 2.21481 99.946 3.09369C98.7289 5.64108 97.7451 8.29327 97.0069 11.0178C96.2219 13.7288 95.688 16.5061 95.4117 19.3147C95.3175 20.2956 95.5342 21.2813 96.0311 22.1327C96.528 22.984 97.28 23.6581 98.1812 24.0597C100.757 25.1773 103.411 26.104 106.123 26.8321C108.835 27.6044 111.601 28.1754 114.397 28.5403C115.373 28.6629 116.363 28.4771 117.227 28.009C118.092 27.5409 118.787 26.814 119.217 25.9305C120.441 23.3854 121.427 20.7328 122.163 18.0064C122.949 15.2996 123.487 12.5271 123.771 9.72309C123.854 8.74482 123.631 7.76506 123.132 6.91887C122.634 6.07267 121.885 5.40171 120.988 4.99846Z" fill="#FABC22"/>
<path d="M157.229 18.2374C156.741 15.4643 156 12.7416 155.016 10.1032C154.073 7.44211 152.892 4.87162 151.486 2.4231C150.986 1.57993 150.236 0.912205 149.34 0.511663C148.445 0.111121 147.447 -0.00257904 146.483 0.186187C140.981 1.37903 135.664 3.3032 130.675 5.90726C129.814 6.37914 129.121 7.10563 128.691 7.98686C128.26 8.86809 128.114 9.86078 128.272 10.8285C128.761 13.6013 129.501 16.324 130.485 18.9627C131.427 21.6217 132.608 24.1899 134.014 26.636C134.514 27.4816 135.264 28.1516 136.162 28.5535C137.059 28.9553 138.059 29.0693 139.024 28.8797C141.772 28.2998 144.474 27.5182 147.108 26.5411C149.761 25.6033 152.341 24.4705 154.826 23.1518C155.685 22.6803 156.377 21.9549 156.807 21.0751C157.238 20.1952 157.385 19.204 157.229 18.2374Z" fill="#06C92E"/>
<path d="M187.578 4.99846C182.394 2.78405 176.938 1.26599 171.355 0.483961C170.38 0.368492 169.393 0.557399 168.53 1.02471C167.667 1.49203 166.97 2.21481 166.535 3.09369C165.318 5.64108 164.334 8.29327 163.596 11.0178C162.815 13.7296 162.281 16.5066 162.001 19.3147C161.913 20.2947 162.132 21.2779 162.628 22.128C163.125 22.9781 163.873 23.6531 164.77 24.0597C167.345 25.1842 170 26.1177 172.712 26.8524C175.418 27.6167 178.177 28.1809 180.966 28.5403C181.942 28.6619 182.931 28.4756 183.795 28.0076C184.659 27.5396 185.355 26.8133 185.786 25.9305C187.004 23.3837 187.988 20.7314 188.725 18.0064C189.497 15.2983 190.022 12.5258 190.293 9.72308C190.381 8.75243 190.167 7.77824 189.682 6.93292C189.196 6.0876 188.461 5.41217 187.578 4.99846Z" fill="#00C2FC"/>
<path d="M7.13535 70.865C7.13808 71.0874 7.09623 71.3081 7.01226 71.5141C6.92829 71.7201 6.80389 71.9073 6.6464 72.0645C6.4889 72.2218 6.30149 72.346 6.09519 72.4299C5.8889 72.5138 5.66789 72.5556 5.44517 72.5528H2.60107C2.37807 72.5576 2.15645 72.5167 1.94984 72.4328C1.74322 72.3489 1.55598 72.2236 1.39962 72.0648C1.24055 71.9086 1.11514 71.7216 1.03109 71.5153C0.947048 71.309 0.906143 71.0877 0.910893 70.865V63.5848C0.906143 63.3621 0.947048 63.1408 1.03109 62.9345C1.11514 62.7282 1.24055 62.5412 1.39962 62.385C1.55598 62.2262 1.74322 62.101 1.94984 62.017C2.15645 61.9331 2.37807 61.8922 2.60107 61.897H3.49027C3.90906 61.3357 4.25356 60.7229 4.51524 60.0736C4.82283 59.3156 5.07465 58.5363 5.26869 57.7418C5.47233 56.9012 5.64881 56.0268 5.77778 55.1252C5.90675 54.2237 6.00856 53.3222 6.06966 52.4138L6.24614 49.7973C6.26729 49.3401 6.46712 48.9093 6.80274 48.5975C6.96383 48.4393 7.1548 48.3147 7.36456 48.2309C7.57432 48.1472 7.79867 48.1059 8.02455 48.1095H20.521C20.7437 48.1067 20.9647 48.1485 21.171 48.2324C21.3773 48.3162 21.5647 48.4405 21.7222 48.5977C21.8797 48.755 22.0041 48.9422 22.0881 49.1482C22.172 49.3542 22.2139 49.5749 22.2112 49.7973V61.897H23.8538C24.0765 61.8943 24.2975 61.936 24.5038 62.0199C24.7101 62.1038 24.8975 62.228 25.055 62.3853C25.2125 62.5425 25.3369 62.7297 25.4209 62.9357C25.5049 63.1417 25.5467 63.3624 25.544 63.5848V70.865C25.5467 71.0874 25.5049 71.3081 25.4209 71.5141C25.3369 71.7201 25.2125 71.9073 25.055 72.0645C24.8975 72.2218 24.7101 72.346 24.5038 72.4299C24.2975 72.5138 24.0765 72.5556 23.8538 72.5528H21.0097C20.787 72.5556 20.566 72.5138 20.3597 72.4299C20.1534 72.346 19.966 72.2218 19.8085 72.0645C19.651 71.9073 19.5266 71.7201 19.4426 71.5141C19.3586 71.3081 19.3168 71.0874 19.3195 70.865V68.1129H7.10141L7.13535 70.865ZM15.5387 54.3457H12.5588L12.4502 55.1456C12.3004 56.5606 12.0186 57.9585 11.6085 59.3211C11.3348 60.2263 10.9446 61.0921 10.4478 61.897H15.5183L15.5387 54.3457Z" fill="white"/>
<path d="M34.2119 60.3447C34.499 61.2451 35.131 61.9956 35.97 62.4325C36.8694 62.8959 37.8701 63.1288 38.882 63.1104C39.5361 63.1154 40.1897 63.0701 40.8369 62.9748C41.4014 62.8864 41.9546 62.7363 42.4863 62.5274C42.7997 62.4133 43.1303 62.3537 43.4638 62.3512C43.7873 62.3316 44.1093 62.4089 44.3887 62.5731C44.668 62.7374 44.8919 62.9811 45.0318 63.2731L45.7106 64.6898C45.8294 64.9396 45.8897 65.2131 45.887 65.4896C45.9011 65.7845 45.8338 66.0776 45.6926 66.337C45.5514 66.5964 45.3416 66.8121 45.0861 66.9606C43.9926 67.5891 42.8091 68.0463 41.5768 68.3163C40.4574 68.523 39.3212 68.6251 38.1828 68.6213C36.654 68.6434 35.1338 68.3885 33.6961 67.8689C32.4254 67.4208 31.2673 66.7027 30.3017 65.7641C29.336 64.8255 28.5858 63.6888 28.1029 62.4325C27.5686 61.061 27.3035 59.5997 27.3223 58.1282C27.3142 56.7346 27.5794 55.3529 28.1029 54.0611C28.6045 52.8141 29.3446 51.6767 30.2818 50.7125C31.2408 49.7275 32.3974 48.956 33.6757 48.4484C35.1022 47.8806 36.627 47.5996 38.1625 47.6215C39.4179 47.6194 40.6629 47.8492 41.8347 48.2993C42.9792 48.7261 44.0285 49.3733 44.9232 50.2041C45.8202 51.0385 46.5484 52.0372 47.0681 53.146C47.6093 54.3614 47.8802 55.6796 47.8623 57.0097C47.8786 57.6896 47.84 58.3696 47.7469 59.0433C47.6692 59.4 47.473 59.7201 47.1903 59.9516C46.9376 60.2107 46.5951 60.3635 46.2332 60.3786L34.2119 60.3447ZM41.1966 55.898C41.1811 55.1866 40.8861 54.5098 40.3753 54.0136C40.0537 53.7092 39.6722 53.4748 39.255 53.3254C38.8378 53.1761 38.3941 53.115 37.952 53.146C37.0404 53.0764 36.1319 53.3151 35.3727 53.8238C34.741 54.3636 34.2711 55.0674 34.0151 55.8574L41.1966 55.898Z" fill="white"/>
<path d="M57.115 68.113C56.8923 68.1158 56.6713 68.074 56.465 67.9901C56.2587 67.9063 56.0713 67.782 55.9138 67.6248C55.7563 67.4675 55.6319 67.2803 55.5479 67.0743C55.4639 66.8683 55.4221 66.6476 55.4248 66.4252V54.7932H51.3521C51.1299 54.7941 50.9097 54.7511 50.7043 54.6666C50.4988 54.5821 50.3121 54.4578 50.155 54.3009C49.9979 54.144 49.8734 53.9575 49.7888 53.7524C49.7041 53.5472 49.661 53.3273 49.6619 53.1054V49.8178C49.661 49.5959 49.7041 49.376 49.7888 49.1708C49.8734 48.9656 49.9979 48.7792 50.155 48.6223C50.3121 48.4654 50.4988 48.3411 50.7043 48.2566C50.9097 48.1721 51.1299 48.1291 51.3521 48.1299H66.1836C66.4063 48.1272 66.6273 48.169 66.8336 48.2529C67.0399 48.3367 67.2273 48.4609 67.3848 48.6182C67.5423 48.7755 67.6667 48.9627 67.7506 49.1687C67.8346 49.3747 67.8765 49.5954 67.8737 49.8178V53.1054C67.8765 53.3278 67.8346 53.5485 67.7506 53.7545C67.6667 53.9605 67.5423 54.1477 67.3848 54.305C67.2273 54.4622 67.0399 54.5865 66.8336 54.6703C66.6273 54.7542 66.4063 54.796 66.1836 54.7932H62.1109V66.4252C62.1136 66.6476 62.0717 66.8683 61.9878 67.0743C61.9038 67.2803 61.7794 67.4675 61.6219 67.6248C61.4644 67.782 61.277 67.9063 61.0707 67.9901C60.8644 68.074 60.6434 68.1158 60.4207 68.113H57.115Z" fill="white"/>
<path d="M84.0626 54.6105C83.1191 54.1149 82.0738 53.8435 81.008 53.8175C80.4765 53.8178 79.9488 53.9071 79.4468 54.0818C78.9448 54.2637 78.4836 54.5424 78.0893 54.902C77.6683 55.2819 77.3288 55.7431 77.0914 56.2577C76.8275 56.8431 76.6977 57.48 76.7113 58.1218C76.7014 58.7524 76.8386 59.3767 77.1118 59.9452C77.3653 60.4573 77.713 60.9172 78.1368 61.3009C78.546 61.6678 79.0202 61.9552 79.5351 62.1483C80.0413 62.3355 80.5768 62.4318 81.1166 62.433C82.225 62.4108 83.3038 62.0721 84.2255 61.4568C84.5904 61.1978 85.0267 61.0581 85.4744 61.0569C85.7415 61.0569 86.0046 61.1217 86.2411 61.2457C86.4775 61.3697 86.6803 61.5491 86.832 61.7687L88.1896 63.5921C88.4201 63.899 88.544 64.2727 88.5425 64.6563C88.5522 64.9306 88.4956 65.2032 88.3774 65.4509C88.2593 65.6987 88.0831 65.9144 87.8638 66.0798C86.7556 67.0191 85.4699 67.7268 84.0829 68.1608C82.9787 68.4749 81.8371 68.6391 80.689 68.6489C79.1226 68.6695 77.5649 68.4148 76.0868 67.8964C74.78 67.4375 73.5827 66.7128 72.5707 65.768C71.5928 64.8327 70.8328 63.6941 70.3443 62.433C69.81 61.0615 69.545 59.6001 69.5637 58.1286C69.5555 56.7369 69.8135 55.3565 70.324 54.0615C70.8134 52.8147 71.5446 51.6767 72.4757 50.7129C73.4291 49.7369 74.5726 48.9664 75.8357 48.4489C77.2022 47.8866 78.6681 47.6053 80.146 47.6219C81.3569 47.6101 82.5656 47.7305 83.7503 47.9811C84.963 48.2783 86.1126 48.7902 87.1442 49.4928C87.4308 49.6411 87.6725 49.8632 87.8444 50.1361C88.0162 50.409 88.112 50.7228 88.1217 51.045C88.1207 51.3455 88.0283 51.6386 87.857 51.8856L86.5673 54.0208C86.4212 54.2936 86.2026 54.5208 85.9355 54.6775C85.6684 54.8341 85.3633 54.9142 85.0536 54.9088C84.7011 54.9085 84.3565 54.8048 84.0626 54.6105Z" fill="white"/>
<path d="M99.0022 58.5625V66.4256C99.0049 66.648 98.9631 66.8687 98.8791 67.0747C98.7951 67.2808 98.6707 67.4679 98.5132 67.6252C98.3557 67.7825 98.1683 67.9067 97.962 67.9905C97.7557 68.0744 97.5347 68.1162 97.312 68.1135H94.0199C93.7972 68.1162 93.5762 68.0744 93.3699 67.9905C93.1636 67.9067 92.9762 67.7825 92.8187 67.6252C92.6612 67.4679 92.5368 67.2808 92.4528 67.0747C92.3688 66.8687 92.327 66.648 92.3297 66.4256V49.8182C92.327 49.5958 92.3688 49.3751 92.4528 49.1691C92.5368 48.9631 92.6612 48.776 92.8187 48.6187C92.9762 48.4614 93.1636 48.3372 93.3699 48.2533C93.5762 48.1695 93.7972 48.1277 94.0199 48.1304H97.2984C97.5211 48.1277 97.7422 48.1695 97.9484 48.2533C98.1547 48.3372 98.3422 48.4614 98.4997 48.6187C98.6571 48.776 98.7815 48.9631 98.8655 49.1691C98.9495 49.3751 98.9913 49.5958 98.9886 49.8182V56.834L104.147 49.2421C104.389 48.9126 104.699 48.6396 105.057 48.4422C105.416 48.2361 105.824 48.1285 106.238 48.1304H109.347C109.581 48.1241 109.815 48.1688 110.03 48.2612C110.246 48.3537 110.439 48.4917 110.596 48.6659C110.894 48.9556 111.074 49.3456 111.1 49.7603C111.127 50.175 110.998 50.5846 110.738 50.9096L106.028 57.1255L108.207 60.1013C108.765 60.9945 109.613 61.6693 110.609 62.0128C111.126 62.0768 111.606 62.3161 111.967 62.6907C112.227 63.1327 112.343 63.6442 112.3 64.1548V66.8662C112.297 67.2296 112.156 67.5784 111.906 67.8423C111.664 68.1224 111.333 68.3113 110.969 68.3778L110.29 68.4388C110.08 68.4388 109.856 68.4388 109.612 68.4388C109.053 68.4347 108.496 68.3757 107.949 68.2626C107.34 68.1188 106.756 67.8906 106.211 67.5847C105.576 67.2282 104.993 66.7856 104.48 66.2697C103.823 65.6136 103.236 64.8912 102.729 64.1141L99.0022 58.5625Z" fill="white"/>
<path d="M131.551 68.113C131.33 68.113 131.111 68.0692 130.907 67.9842C130.703 67.8991 130.518 67.7744 130.363 67.6174C130.207 67.4604 130.085 67.2742 130.002 67.0695C129.919 66.8649 129.878 66.6458 129.881 66.4252V57.6876L123.5 67.0013C123.278 67.3156 122.999 67.5867 122.679 67.8012C122.357 68.0135 121.978 68.1223 121.593 68.113H117.765C117.542 68.1157 117.321 68.0739 117.115 67.9901C116.908 67.9062 116.721 67.782 116.563 67.6247C116.406 67.4675 116.282 67.2803 116.198 67.0743C116.114 66.8683 116.072 66.6476 116.074 66.4252V49.8178C116.072 49.5954 116.114 49.3747 116.198 49.1687C116.282 48.9626 116.406 48.7755 116.563 48.6182C116.721 48.4609 116.908 48.3367 117.115 48.2529C117.321 48.169 117.542 48.1272 117.765 48.1299H121.057C121.279 48.1272 121.5 48.169 121.707 48.2529C121.913 48.3367 122.1 48.4609 122.258 48.6182C122.415 48.7755 122.54 48.9626 122.624 49.1687C122.708 49.3747 122.75 49.5954 122.747 49.8178V58.5621L129.107 49.2416C129.32 48.9349 129.581 48.6647 129.881 48.4417C130.194 48.2269 130.567 48.1176 130.947 48.1299H134.816C135.039 48.1264 135.26 48.1678 135.466 48.2516C135.673 48.3355 135.86 48.4601 136.017 48.618C136.176 48.7741 136.302 48.9611 136.386 49.1675C136.47 49.3738 136.511 49.5951 136.506 49.8178V66.4252C136.511 66.6479 136.47 66.8692 136.386 67.0755C136.302 67.2818 136.176 67.4688 136.017 67.625C135.86 67.7829 135.673 67.9075 135.466 67.9913C135.26 68.0752 135.039 68.1166 134.816 68.113H131.551Z" fill="white"/>
<path d="M156.896 68.1132C156.673 68.1159 156.452 68.0741 156.246 67.9903C156.04 67.9064 155.852 67.7822 155.695 67.6249C155.537 67.4676 155.413 67.2805 155.329 67.0744C155.245 66.8684 155.203 66.6477 155.206 66.4253V57.6878L148.846 67.0151C148.623 67.3293 148.345 67.6004 148.024 67.8149C147.701 68.0281 147.319 68.137 146.932 68.1267H143.11C142.886 68.1295 142.664 68.0873 142.457 68.0026C142.25 67.9179 142.062 67.7925 141.904 67.6337C141.746 67.475 141.622 67.2862 141.539 67.0786C141.456 66.871 141.415 66.6489 141.42 66.4253V49.8179C141.417 49.5955 141.459 49.3748 141.543 49.1688C141.627 48.9628 141.751 48.7756 141.909 48.6184C142.066 48.4611 142.254 48.3369 142.46 48.253C142.666 48.1691 142.887 48.1274 143.11 48.1301H146.402C146.625 48.1274 146.846 48.1691 147.052 48.253C147.258 48.3369 147.446 48.4611 147.603 48.6184C147.761 48.7756 147.885 48.9628 147.969 49.1688C148.053 49.3748 148.095 49.5955 148.092 49.8179V58.5622L154.453 49.2418C154.671 48.9328 154.939 48.6624 155.247 48.4419C155.572 48.2204 155.96 48.1109 156.353 48.1301H160.222C160.444 48.1283 160.665 48.1707 160.87 48.255C161.076 48.3393 161.262 48.4636 161.419 48.6208C161.576 48.778 161.7 48.9648 161.783 49.1704C161.867 49.376 161.908 49.5961 161.906 49.8179V66.4253C161.908 66.6472 161.867 66.8673 161.783 67.0729C161.7 67.2784 161.576 67.4653 161.419 67.6224C161.262 67.7796 161.076 67.904 160.87 67.9883C160.665 68.0725 160.444 68.115 160.222 68.1132H156.896ZM155.919 39.3858C156.292 39.3577 156.668 39.4103 157.019 39.5402C157.371 39.67 157.69 39.874 157.955 40.1382C158.422 40.6787 158.665 41.377 158.634 42.0904C158.62 42.6841 158.456 43.2645 158.157 43.7777C157.858 44.2909 157.433 44.7202 156.923 45.0255C155.783 45.8163 154.086 46.214 151.832 46.2185C149.339 46.2185 147.554 45.8209 146.477 45.0255C145.985 44.7089 145.579 44.276 145.295 43.7652C145.011 43.2544 144.857 42.6815 144.848 42.0972C144.818 41.3841 145.061 40.6865 145.527 40.145C145.784 39.88 146.097 39.6747 146.443 39.5435C146.789 39.4124 147.16 39.3585 147.529 39.3858C148.131 39.3345 148.732 39.5031 149.219 39.8603C149.578 40.1842 149.839 40.6022 149.973 41.0669C150.102 41.4402 150.316 41.7788 150.597 42.0565C150.768 42.2006 150.966 42.3094 151.179 42.3769C151.392 42.4444 151.616 42.4691 151.839 42.4497C152.042 42.4674 152.247 42.4414 152.439 42.3736C152.631 42.3058 152.806 42.1977 152.952 42.0565C153.207 41.7671 153.403 41.4309 153.529 41.0669C153.663 40.6022 153.924 40.1842 154.283 39.8603C154.752 39.5091 155.334 39.3404 155.919 39.3858Z" fill="white"/>
<path d="M182.33 66.4253C182.333 66.6477 182.291 66.8685 182.207 67.0745C182.123 67.2805 181.999 67.4676 181.841 67.6249C181.684 67.7822 181.496 67.9064 181.29 67.9903C181.084 68.0741 180.863 68.1159 180.64 68.1132H177.348C177.125 68.1159 176.904 68.0741 176.698 67.9903C176.492 67.9064 176.304 67.7822 176.147 67.6249C175.989 67.4676 175.865 67.2805 175.781 67.0745C175.697 66.8685 175.655 66.6477 175.658 66.4253V49.818C175.655 49.5956 175.697 49.3748 175.781 49.1688C175.865 48.9628 175.989 48.7757 176.147 48.6184C176.304 48.4611 176.492 48.3369 176.698 48.253C176.904 48.1692 177.125 48.1274 177.348 48.1301H180.504C180.899 48.1375 181.287 48.2333 181.639 48.4105C181.992 48.5876 182.3 48.8416 182.541 49.1537L187.659 54.9222L192.37 49.1943C192.619 48.8869 192.919 48.6254 193.259 48.4216C193.594 48.2246 193.977 48.1237 194.365 48.1301H197.345C197.568 48.1274 197.789 48.1692 197.995 48.253C198.201 48.3369 198.389 48.4611 198.546 48.6184C198.704 48.7757 198.828 48.9628 198.912 49.1688C198.996 49.3748 199.038 49.5956 199.035 49.818V66.4253C199.038 66.6477 198.996 66.8685 198.912 67.0745C198.828 67.2805 198.704 67.4676 198.546 67.6249C198.389 67.7822 198.201 67.9064 197.995 67.9903C197.789 68.0741 197.568 68.1159 197.345 68.1132H194.053C193.83 68.1159 193.609 68.0741 193.403 67.9903C193.197 67.9064 193.009 67.7822 192.852 67.6249C192.694 67.4676 192.57 67.2805 192.486 67.0745C192.402 66.8685 192.36 66.6477 192.363 66.4253V58.2911L188.582 62.5548C188.44 62.722 188.263 62.8564 188.064 62.9489C187.865 63.0413 187.648 63.0896 187.428 63.0903C187.212 63.0918 186.999 63.0492 186.801 62.9653C186.602 62.8814 186.423 62.7578 186.274 62.6023L182.317 58.2911L182.33 66.4253Z" fill="white"/>
<path d="M219.412 68.113C219.189 68.1157 218.968 68.0739 218.762 67.9901C218.556 67.9062 218.368 67.782 218.211 67.6247C218.053 67.4675 217.929 67.2803 217.845 67.0743C217.761 66.8683 217.719 66.6476 217.722 66.4252V57.6876L211.334 67.0013C211.112 67.3156 210.833 67.5867 210.513 67.8012C210.192 68.0135 209.813 68.1223 209.427 68.113H205.599C205.376 68.1157 205.155 68.0739 204.949 67.9901C204.742 67.9062 204.555 67.782 204.398 67.6247C204.24 67.4675 204.116 67.2803 204.032 67.0743C203.948 66.8683 203.906 66.6476 203.909 66.4252V49.8178C203.906 49.5954 203.948 49.3747 204.032 49.1687C204.116 48.9626 204.24 48.7755 204.398 48.6182C204.555 48.4609 204.742 48.3367 204.949 48.2529C205.155 48.169 205.376 48.1272 205.599 48.1299H208.891C209.114 48.1272 209.335 48.169 209.541 48.2529C209.747 48.3367 209.935 48.4609 210.092 48.6182C210.25 48.7755 210.374 48.9626 210.458 49.1687C210.542 49.3747 210.584 49.5954 210.581 49.8178V58.5621L216.941 49.2416C217.162 48.9327 217.433 48.6625 217.742 48.4417C218.055 48.2269 218.428 48.1176 218.808 48.1299H222.677C222.9 48.1272 223.121 48.169 223.327 48.2529C223.533 48.3367 223.721 48.4609 223.878 48.6182C224.036 48.7755 224.16 48.9626 224.244 49.1687C224.328 49.3747 224.37 49.5954 224.367 49.8178V66.4252C224.37 66.6476 224.328 66.8683 224.244 67.0743C224.16 67.2803 224.036 67.4675 223.878 67.6247C223.721 67.782 223.533 67.9062 223.327 67.9901C223.121 68.0739 222.9 68.1157 222.677 68.113H219.412Z" fill="white"/>
<path d="M235.954 75.3121C235.957 75.5345 235.915 75.7552 235.831 75.9612C235.747 76.1672 235.623 76.3544 235.465 76.5117C235.308 76.6689 235.12 76.7932 234.914 76.877C234.708 76.9609 234.487 77.0027 234.264 76.9999H230.972C230.749 77.0027 230.528 76.9609 230.322 76.877C230.116 76.7932 229.928 76.6689 229.771 76.5117C229.613 76.3544 229.489 76.1672 229.405 75.9612C229.321 75.7552 229.279 75.5345 229.282 75.3121V49.8181C229.279 49.5957 229.321 49.375 229.405 49.1689C229.489 48.9629 229.613 48.7758 229.771 48.6185C229.928 48.4612 230.116 48.337 230.322 48.2531C230.528 48.1693 230.749 48.1275 230.972 48.1302H234.488C234.682 48.1265 234.874 48.1619 235.054 48.2342C235.233 48.3064 235.396 48.4142 235.533 48.5509C235.67 48.6876 235.778 48.8504 235.85 49.0297C235.923 49.209 235.958 49.4011 235.954 49.5944C236.621 48.9988 237.389 48.5261 238.221 48.198C239.267 47.7785 240.387 47.5733 241.513 47.5947C242.776 47.5831 244.026 47.842 245.179 48.3539C246.264 48.8429 247.225 49.5705 247.989 50.4824C248.781 51.4441 249.391 52.5421 249.788 53.7225C250.229 55.0327 250.447 56.4074 250.433 57.7896C250.444 59.24 250.181 60.6795 249.659 62.033C249.162 63.3082 248.422 64.4753 247.48 65.4697C246.52 66.4651 245.365 67.252 244.086 67.7812C242.683 68.3581 241.177 68.6441 239.66 68.6217C238.979 68.6238 238.298 68.5739 237.624 68.4726C237.037 68.3858 236.463 68.2288 235.914 68.0048L235.954 75.3121ZM235.954 61.6805C236.388 61.9482 236.859 62.1493 237.353 62.277C237.915 62.3964 238.489 62.4487 239.063 62.4329C239.666 62.482 240.271 62.3892 240.831 62.162C241.391 61.9348 241.89 61.5795 242.287 61.1246C242.995 60.2212 243.365 59.0991 243.333 57.9523C243.364 56.886 243.01 55.8441 242.335 55.0172C241.972 54.611 241.521 54.2925 241.016 54.0858C240.512 53.8791 239.967 53.7897 239.423 53.8242C238.75 53.8505 238.091 54.0231 237.492 54.3298C236.893 54.6366 236.368 55.0701 235.954 55.6001V61.6805Z" fill="white"/>
</svg>
