<svg width="1440" height="632" viewBox="0 0 1440 632" fill="none" xmlns="http://www.w3.org/2000/svg">
<g clip-path="url(#clip0)">
<g opacity="0.16" clip-path="url(#clip1)">
<path d="M1386.1 380.1C1379.1 379.4 1372.3 382.9 1369 389.2C1365.3 396.1 1366.7 404.4 1370.6 410.9C1371.4 410 1372.2 409.1 1373 408.2C1367.7 405 1359 408.5 1354.6 411.6C1349.2 415.4 1344.9 421.4 1348.1 428C1351.1 434.3 1357.8 436.6 1364.3 436.9C1375.7 437.5 1387.5 436.3 1398.9 435.9C1399.7 435.9 1400.4 435.2 1400.6 434.4C1404 418.2 1408.5 384.8 1386.1 380.1C1383.7 379.6 1383 383.3 1385.4 383.8C1405 387.9 1399.8 419.9 1396.9 433.7C1397.5 433.2 1398 432.7 1398.6 432.2C1391.6 432.5 1384.6 432.7 1377.6 433C1371.1 433.2 1363 434.6 1356.9 431.7C1350.4 428.6 1348.9 421.8 1354.2 416.7C1357.7 413.3 1366.3 408.5 1371.2 411.6C1372.9 412.6 1374.4 410.3 1373.6 408.9C1367.8 399 1371.3 382.4 1385.4 383.8C1387.8 384 1388.5 380.3 1386.1 380.1Z" fill="#1770D9"/>
</g>
<g opacity="0.12">
<path d="M1481.75 68.301C1477.43 65.4082 1472.7 64.3261 1467.83 66.6387C1468.71 67.2043 1469.65 67.8459 1470.61 68.3465C1471.57 57.9247 1458.81 50.5374 1452.09 60.2224C1453.19 60.7341 1454.35 61.3219 1455.44 61.8336C1458.12 48.4971 1449.9 34.8702 1435.68 33.6087C1422.22 32.4787 1411.63 44.413 1413.85 57.6388C1415.03 57.1636 1416.19 56.8294 1417.36 56.3542C1412.67 48.3955 1402.61 37.3902 1392.34 41.6891C1382.22 45.8581 1381.5 57.788 1386.07 66.3757C1386.98 65.5963 1387.83 64.7409 1388.74 63.9616C1380.76 58.1555 1369.35 56.1939 1364.54 66.8801C1360.51 75.713 1365.68 83.9221 1373.98 87.4835C1379.83 89.8583 1386.53 90.3148 1392.74 90.6619C1400.57 91.2072 1408.39 91.8934 1416.22 92.4387C1434.05 93.9126 1452.59 95.442 1470.39 93.6511C1476.82 93.0225 1484.16 90.8335 1486.93 84.3847C1489.61 78.2828 1486.47 72.29 1481.75 68.301C1479.88 66.7358 1477.86 69.9103 1479.72 71.4755C1483.38 74.5298 1485.75 79.6101 1482.99 84.0741C1480.88 87.4545 1476.86 88.9117 1473.26 89.6212C1465.48 91.1369 1457.08 90.5473 1449.29 90.501C1432.85 90.201 1416.73 88.7192 1400.45 87.3673C1390.86 86.6129 1373.71 88.2423 1368.19 78.232C1365.95 74.2257 1366.8 68.7606 1369.98 65.3929C1375.07 60.1196 1381.76 63.4829 1386.72 67.1361C1388.26 68.321 1390.26 66.3505 1389.39 64.722C1385.69 57.7628 1385.83 46.0705 1395.86 44.7323C1403.53 43.7045 1410.64 52.4919 1414.09 58.2249C1415.15 60.0816 1417.93 59.0235 1417.6 56.9404C1415.83 46.0907 1424.74 36.5072 1435.58 37.5024C1447.13 38.5532 1454.12 49.8133 1451.97 60.8513C1451.6 62.879 1454.04 64.3475 1455.32 62.4625C1460.04 55.67 1467.49 61.9307 1466.92 68.34C1466.73 69.8148 1468.43 70.7289 1469.69 70.0478C1473.23 68.3403 1476.69 69.4635 1479.79 71.5515C1481.67 72.8347 1483.7 69.6602 1481.75 68.301Z" fill="#1770D9"/>
</g>
<path d="M1327.73 343.201C1324.13 340.601 1317.63 344.301 1314.33 345.801C1310.03 347.801 1305.73 349.901 1301.53 352.301C1302.33 352.301 1303.03 352.401 1303.83 352.401C1298.93 348.701 1283.73 336.901 1278.33 344.501C1274.73 349.601 1278.63 358.201 1280.33 363.301C1281.83 367.601 1282.33 367.401 1279.13 370.401C1276.23 373.201 1272.93 375.701 1269.93 378.501C1267.43 380.901 1262.33 386.101 1266.73 389.301C1270.63 392.101 1278.13 389.301 1282.23 388.201C1284.53 387.601 1286.83 386.901 1289.13 386.201C1287.43 386.701 1287.83 385.001 1288.13 386.201C1288.23 386.701 1288.63 387.201 1288.83 387.601C1289.53 389.101 1290.23 390.501 1291.03 392.001C1292.73 395.201 1295.93 403.301 1300.53 403.301C1305.03 403.301 1305.73 395.101 1306.33 392.001C1307.23 386.601 1307.73 381.201 1308.03 375.801C1307.33 376.301 1306.63 376.801 1305.83 377.301C1310.03 378.101 1314.33 378.701 1318.63 379.101C1322.13 379.501 1329.13 381.001 1332.23 378.601C1338.23 374.001 1320.73 363.501 1317.73 361.501C1317.83 362.401 1317.93 363.301 1318.03 364.101C1320.53 361.001 1322.93 357.701 1325.03 354.301C1326.73 351.601 1330.23 346.701 1327.93 343.501C1326.53 341.501 1323.43 343.701 1324.83 345.701C1326.03 347.401 1320.53 354.401 1319.63 355.601C1318.23 357.701 1316.63 359.701 1315.03 361.701C1314.43 362.401 1314.43 363.801 1315.33 364.301C1317.93 366.001 1320.43 367.801 1322.83 369.701C1324.63 371.101 1326.43 372.501 1328.03 374.101C1328.63 374.701 1329.33 376.501 1330.03 375.501C1329.83 375.801 1328.53 375.801 1328.13 375.801C1320.83 375.501 1313.63 374.801 1306.43 373.501C1305.53 373.301 1304.33 374.001 1304.23 375.001C1304.03 378.101 1303.73 381.301 1303.43 384.401C1303.03 388.501 1303.03 394.801 1300.73 398.401C1299.93 399.701 1300.63 399.301 1299.83 398.901C1299.13 398.601 1298.43 397.201 1297.93 396.601C1296.23 394.201 1294.93 391.601 1293.63 388.901C1292.73 387.101 1291.63 382.901 1289.33 382.401C1286.33 381.801 1281.23 384.501 1278.43 385.201C1276.03 385.801 1273.43 386.501 1270.83 386.401C1267.13 386.301 1269.53 384.001 1271.13 382.301C1275.23 378.001 1280.63 374.801 1284.23 370.101C1287.03 366.501 1283.03 360.701 1281.83 356.801C1281.23 354.601 1278.83 347.801 1281.53 346.101C1283.63 344.801 1287.83 347.201 1289.63 348.101C1293.63 350.101 1297.43 352.501 1301.03 355.201C1301.73 355.701 1302.53 355.701 1303.33 355.301C1306.33 353.601 1309.33 352.101 1312.43 350.601C1314.23 349.701 1323.03 344.701 1324.93 346.101C1327.33 347.501 1329.73 344.601 1327.73 343.201Z" fill="#1770D9" fill-opacity="0.13"/>
<path d="M1373.69 189.758C1352.21 165.802 1309.03 175.684 1297.13 204.812C1289.7 223.093 1297.35 243.798 1312.99 255.074C1330.17 267.446 1354.43 265.424 1370.12 251.455C1387.71 235.7 1388.73 207.609 1373.69 189.758C1372.1 187.957 1369.53 190.606 1371.12 192.506C1383.73 207.504 1383.77 231.351 1370.36 245.859C1357.16 260.18 1334.28 263.991 1317.58 253.652C1302.13 244.191 1293.52 224.529 1300.09 207.098C1304.87 194.466 1316.55 185.461 1329.3 181.733C1344.29 177.34 1360.42 180.631 1371.12 192.406C1372.71 194.307 1375.38 191.565 1373.69 189.758Z" fill="#1770D9" fill-opacity="0.12"/>
<path d="M1328.72 235.398C1341.1 242.667 1361 231.862 1358.71 216.794C1358.36 214.368 1354.79 215.452 1355.14 217.778C1357.01 229.815 1339.71 237.573 1330.52 232.102C1328.4 230.87 1326.59 234.166 1328.72 235.398Z" fill="#1770D9" fill-opacity="0.12"/>
<path d="M1325.3 222.465C1325.12 222.153 1325.78 221.192 1326.09 221.11C1326.6 220.941 1327.07 221.371 1327.45 221.695C1329.15 223.402 1331.83 220.66 1330.03 218.947C1328.42 217.346 1325.96 216.694 1323.97 217.976C1321.99 219.257 1320.61 222.278 1322.08 224.372C1323.46 226.46 1326.68 224.553 1325.3 222.465Z" fill="#1770D9" fill-opacity="0.12"/>
<path d="M1346.51 209.836C1346.23 209.519 1346.89 208.557 1347.3 208.382C1347.82 208.213 1348.29 208.643 1348.67 208.966C1350.37 210.673 1353.04 207.931 1351.24 206.218C1349.64 204.617 1347.17 203.966 1345.19 205.247C1343.21 206.528 1341.82 209.549 1343.3 211.643C1344.67 213.731 1347.89 211.824 1346.51 209.836Z" fill="#1770D9" fill-opacity="0.12"/>
<path d="M1305.25 170.244C1307.16 173.466 1309.17 176.695 1311.07 180.017C1312.34 182.099 1315.57 180.192 1314.29 178.11C1312.38 174.888 1310.38 171.659 1308.48 168.337C1307.3 166.261 1304.08 168.168 1305.25 170.244Z" fill="#1770D9" fill-opacity="0.12"/>
<path d="M1361.25 263.737C1363.16 266.959 1365.16 270.187 1367.07 273.51C1368.34 275.591 1371.56 273.685 1370.29 271.603C1368.38 268.38 1366.37 265.152 1364.47 261.83C1363.2 259.748 1359.98 261.655 1361.25 263.737Z" fill="#1770D9" fill-opacity="0.12"/>
<path d="M1287.14 253.393C1290.37 251.486 1293.59 249.48 1296.92 247.579C1299 246.304 1297.09 243.081 1295.01 244.357C1291.79 246.264 1288.56 248.27 1285.24 250.171C1283.16 251.446 1285.06 254.669 1287.14 253.393Z" fill="#1770D9" fill-opacity="0.12"/>
<path d="M1380.64 197.396C1383.86 195.489 1387.09 193.483 1390.41 191.582C1392.49 190.307 1390.58 187.084 1388.5 188.36C1385.28 190.266 1382.05 192.273 1378.73 194.174C1376.65 195.449 1378.55 198.672 1380.64 197.396Z" fill="#1770D9" fill-opacity="0.12"/>
<path d="M1279 208.011C1282.65 208.936 1286.3 209.861 1290.05 210.791C1292.42 211.337 1293.34 207.786 1290.97 207.141C1287.22 206.21 1283.57 205.286 1279.92 204.361C1277.55 203.815 1276.63 207.466 1279 208.011Z" fill="#1770D9" fill-opacity="0.12"/>
<path d="M1384.67 234.612C1388.32 235.537 1391.97 236.461 1395.72 237.392C1398.09 237.938 1399.01 234.387 1396.65 233.741C1393 232.817 1389.35 231.892 1385.6 230.962C1383.23 230.416 1382.31 233.966 1384.67 234.612Z" fill="#1770D9" fill-opacity="0.12"/>
<path d="M1324.91 279.648C1325.84 275.997 1326.76 272.347 1327.69 268.597C1328.24 266.226 1324.69 265.307 1324.04 267.672C1323.12 271.323 1322.19 274.973 1321.26 278.723C1320.72 281.094 1324.37 282.019 1324.91 279.648Z" fill="#1770D9" fill-opacity="0.12"/>
<path d="M1351.51 173.975C1352.44 170.324 1353.36 166.674 1354.29 162.924C1354.84 160.553 1351.29 159.634 1350.64 161.999C1349.72 165.649 1348.79 169.3 1347.86 173.05C1347.32 175.421 1350.87 176.34 1351.51 173.975Z" fill="#1770D9" fill-opacity="0.12"/>
<path d="M1288.68 185.761C1291.64 188.046 1294.71 190.337 1297.67 192.623C1299.59 194.042 1302.16 191.394 1300.25 189.875C1297.28 187.589 1294.21 185.298 1291.25 183.013C1289.33 181.593 1286.76 184.241 1288.68 185.761Z" fill="#1770D9" fill-opacity="0.12"/>
<path d="M1375.3 251.872C1378.27 254.157 1381.33 256.449 1384.3 258.734C1386.22 260.154 1388.78 257.506 1386.87 255.986C1383.91 253.701 1380.84 251.409 1377.87 249.124C1375.96 247.704 1373.39 250.353 1375.3 251.872Z" fill="#1770D9" fill-opacity="0.12"/>
<path d="M1302.66 269.971C1304.95 267.005 1307.24 263.94 1309.52 260.974C1310.94 259.057 1308.29 256.49 1306.78 258.401C1304.49 261.367 1302.2 264.433 1299.91 267.399C1298.49 269.316 1301.14 271.982 1302.66 269.971Z" fill="#1770D9" fill-opacity="0.12"/>
<path d="M1368.77 183.346C1371.06 180.38 1373.35 177.314 1375.63 174.348C1377.05 172.431 1374.41 169.864 1372.89 171.775C1370.6 174.741 1368.31 177.807 1366.02 180.773C1364.6 182.69 1367.25 185.257 1368.77 183.346Z" fill="#1770D9" fill-opacity="0.12"/>
<path d="M1278.21 230.806C1281.94 230.333 1285.68 229.76 1289.42 229.287C1291.75 228.929 1291.77 225.223 1289.35 225.576C1285.61 226.049 1281.87 226.522 1278.14 226.994C1275.81 227.353 1275.78 231.158 1278.21 230.806Z" fill="#1770D9" fill-opacity="0.12"/>
<path d="M1386.19 216.271C1389.93 215.798 1393.67 215.225 1397.41 214.752C1399.73 214.394 1399.76 210.688 1397.33 211.041C1393.6 211.514 1389.86 212.086 1386.12 212.559C1383.8 212.818 1383.77 216.523 1386.19 216.271Z" fill="#1770D9" fill-opacity="0.12"/>
<path d="M1347.7 280.541C1347.23 276.805 1346.65 273.063 1346.18 269.327C1345.82 267.001 1342.12 266.975 1342.47 269.401C1342.94 273.136 1343.52 276.878 1343.99 280.614C1344.25 282.934 1348.06 282.867 1347.7 280.541Z" fill="#1770D9" fill-opacity="0.12"/>
<path d="M1333.17 172.452C1332.7 168.716 1332.13 164.974 1331.65 161.239C1331.29 158.912 1327.59 158.886 1327.94 161.312C1328.41 165.048 1328.99 168.79 1329.46 172.526C1329.72 174.846 1333.42 174.872 1333.17 172.452Z" fill="#1770D9" fill-opacity="0.12"/>
<g opacity="0.12">
<path d="M1477.75 566.301C1473.43 563.408 1468.7 562.326 1463.83 564.639C1464.71 565.204 1465.65 565.846 1466.61 566.346C1467.57 555.925 1454.81 548.537 1448.09 558.222C1449.19 558.734 1450.35 559.322 1451.44 559.834C1454.12 546.497 1445.9 532.87 1431.68 531.609C1418.22 530.479 1407.63 542.413 1409.85 555.639C1411.03 555.164 1412.19 554.829 1413.36 554.354C1408.67 546.395 1398.61 535.39 1388.34 539.689C1378.22 543.858 1377.5 555.788 1382.07 564.376C1382.98 563.596 1383.83 562.741 1384.74 561.962C1376.76 556.155 1365.35 554.194 1360.54 564.88C1356.51 573.713 1361.68 581.922 1369.98 585.483C1375.83 587.858 1382.53 588.315 1388.74 588.662C1396.57 589.207 1404.39 589.893 1412.22 590.439C1430.05 591.913 1448.59 593.442 1466.39 591.651C1472.82 591.022 1480.16 588.833 1482.93 582.385C1485.61 576.283 1482.47 570.29 1477.75 566.301C1475.88 564.736 1473.86 567.91 1475.72 569.475C1479.38 572.53 1481.75 577.61 1478.99 582.074C1476.88 585.454 1472.86 586.912 1469.26 587.621C1461.48 589.137 1453.08 588.547 1445.29 588.501C1428.85 588.201 1412.73 586.719 1396.45 585.367C1386.86 584.613 1369.71 586.242 1364.19 576.232C1361.95 572.226 1362.8 566.761 1365.98 563.393C1371.07 558.12 1377.76 561.483 1382.72 565.136C1384.26 566.321 1386.26 564.35 1385.39 562.722C1381.69 555.763 1381.83 544.071 1391.86 542.732C1399.53 541.705 1406.64 550.492 1410.09 556.225C1411.15 558.082 1413.93 557.023 1413.6 554.94C1411.83 544.091 1420.74 534.507 1431.58 535.502C1443.13 536.553 1450.12 547.813 1447.97 558.851C1447.6 560.879 1450.04 562.348 1451.32 560.462C1456.04 553.67 1463.49 559.931 1462.92 566.34C1462.73 567.815 1464.43 568.729 1465.69 568.048C1469.23 566.34 1472.69 567.464 1475.79 569.552C1477.67 570.835 1479.7 567.66 1477.75 566.301Z" fill="#1770D9"/>
</g>
</g>
<defs>
<clipPath id="clip0">
<rect width="1440" height="632" fill="white"/>
</clipPath>
<clipPath id="clip1">
<rect width="56.4" height="57.1" fill="white" transform="translate(1347 380)"/>
</clipPath>
</defs>
</svg>
