<svg width="1440" height="632" viewBox="0 0 1440 632" fill="none" xmlns="http://www.w3.org/2000/svg">
<g clip-path="url(#clip0)">
<path d="M88.7273 531.201C85.1273 528.601 78.6273 532.301 75.3273 533.801C71.0273 535.801 66.7273 537.901 62.5273 540.301C63.3273 540.301 64.0273 540.401 64.8273 540.401C59.9273 536.701 44.7273 524.901 39.3273 532.501C35.7273 537.601 39.6273 546.201 41.3273 551.301C42.8273 555.601 43.3273 555.401 40.1273 558.401C37.2273 561.201 33.9273 563.701 30.9273 566.501C28.4273 568.901 23.3273 574.101 27.7273 577.301C31.6273 580.101 39.1273 577.301 43.2273 576.201C45.5273 575.601 47.8273 574.901 50.1273 574.201C48.4273 574.701 48.8273 573.001 49.1273 574.201C49.2273 574.701 49.6273 575.201 49.8273 575.601C50.5273 577.101 51.2273 578.501 52.0273 580.001C53.7273 583.201 56.9273 591.301 61.5273 591.301C66.0273 591.301 66.7273 583.101 67.3273 580.001C68.2273 574.601 68.7273 569.201 69.0273 563.801C68.3273 564.301 67.6273 564.801 66.8273 565.301C71.0273 566.101 75.3273 566.701 79.6273 567.101C83.1273 567.501 90.1273 569.001 93.2273 566.601C99.2273 562.001 81.7273 551.501 78.7273 549.501C78.8273 550.401 78.9273 551.301 79.0273 552.101C81.5273 549.001 83.9273 545.701 86.0273 542.301C87.7273 539.601 91.2273 534.701 88.9273 531.501C87.5273 529.501 84.4273 531.701 85.8273 533.701C87.0273 535.401 81.5273 542.401 80.6273 543.601C79.2273 545.701 77.6273 547.701 76.0273 549.701C75.4273 550.401 75.4273 551.801 76.3273 552.301C78.9273 554.001 81.4273 555.801 83.8273 557.701C85.6273 559.101 87.4273 560.501 89.0273 562.101C89.6273 562.701 90.3273 564.501 91.0273 563.501C90.8273 563.801 89.5273 563.801 89.1273 563.801C81.8273 563.501 74.6273 562.801 67.4273 561.501C66.5273 561.301 65.3273 562.001 65.2273 563.001C65.0273 566.101 64.7273 569.301 64.4273 572.401C64.0273 576.501 64.0273 582.801 61.7273 586.401C60.9273 587.701 61.6273 587.301 60.8273 586.901C60.1273 586.601 59.4273 585.201 58.9273 584.601C57.2273 582.201 55.9273 579.601 54.6273 576.901C53.7273 575.101 52.6273 570.901 50.3273 570.401C47.3273 569.801 42.2273 572.501 39.4273 573.201C37.0273 573.801 34.4273 574.501 31.8273 574.401C28.1273 574.301 30.5273 572.001 32.1273 570.301C36.2273 566.001 41.6273 562.801 45.2273 558.101C48.0273 554.501 44.0273 548.701 42.8273 544.801C42.2273 542.601 39.8273 535.801 42.5273 534.101C44.6273 532.801 48.8273 535.201 50.6273 536.101C54.6273 538.101 58.4273 540.501 62.0273 543.201C62.7273 543.701 63.5273 543.701 64.3273 543.301C67.3273 541.601 70.3273 540.101 73.4273 538.601C75.2273 537.701 84.0273 532.701 85.9273 534.101C88.3273 535.501 90.7273 532.601 88.7273 531.201Z" fill="#1770D9" fill-opacity="0.13"/>
<path d="M142.461 287.528C120.983 263.573 77.7994 273.455 65.8991 302.583C58.4693 320.863 66.1196 341.569 81.7604 352.845C98.9372 365.216 123.206 363.194 138.888 349.225C156.483 333.47 157.499 305.38 142.461 287.528C140.868 285.728 138.301 288.376 139.888 290.276C152.496 305.274 152.541 329.121 139.13 343.63C125.931 357.951 103.056 361.761 86.3558 351.423C70.9045 341.962 62.2888 322.299 68.8651 304.868C73.6452 292.236 85.3166 283.232 98.068 279.503C113.064 275.111 129.193 278.401 139.894 290.177C141.481 292.077 144.154 289.335 142.461 287.528Z" fill="#1770D9" fill-opacity="0.12"/>
<path d="M97.4906 333.168C109.87 340.438 129.767 329.632 127.482 314.564C127.13 312.138 123.557 313.222 123.916 315.549C125.784 327.585 108.478 335.343 99.2952 329.872C97.1665 328.64 95.3619 331.936 97.4906 333.168Z" fill="#1770D9" fill-opacity="0.12"/>
<path d="M94.0738 320.236C93.8925 319.924 94.5524 318.962 94.858 318.881C95.3693 318.712 95.8439 319.142 96.2249 319.465C97.9238 321.172 100.596 318.43 98.7974 316.717C97.1921 315.116 94.7273 314.465 92.7454 315.746C90.7635 317.028 89.3765 320.049 90.8514 322.142C92.2265 324.23 95.4489 322.323 94.0738 320.236Z" fill="#1770D9" fill-opacity="0.12"/>
<path d="M115.285 307.607C115.003 307.289 115.663 306.328 116.075 306.152C116.586 305.983 117.061 306.413 117.442 306.737C119.141 308.444 121.813 305.702 120.014 303.989C118.409 302.388 115.944 301.736 113.962 303.018C111.98 304.299 110.593 307.32 112.068 309.414C113.443 311.502 116.666 309.595 115.285 307.607Z" fill="#1770D9" fill-opacity="0.12"/>
<path d="M74.0246 268.014C75.9314 271.237 77.9381 274.465 79.8388 277.787C81.1141 279.869 84.3365 277.962 83.0612 275.881C81.1544 272.658 79.1477 269.43 77.247 266.107C76.0715 264.032 72.8491 265.939 74.0246 268.014Z" fill="#1770D9" fill-opacity="0.12"/>
<path d="M130.022 361.507C131.929 364.729 133.935 367.958 135.836 371.28C137.111 373.362 140.334 371.455 139.059 369.373C137.152 366.151 135.145 362.922 133.244 359.6C131.969 357.518 128.747 359.425 130.022 361.507Z" fill="#1770D9" fill-opacity="0.12"/>
<path d="M55.9149 351.164C59.1373 349.257 62.3658 347.25 65.6881 345.35C67.7698 344.074 65.863 340.852 63.7812 342.127C60.5588 344.034 57.3303 346.041 54.0081 347.941C51.9263 349.217 53.8332 352.439 55.9149 351.164Z" fill="#1770D9" fill-opacity="0.12"/>
<path d="M149.408 295.167C152.63 293.26 155.859 291.253 159.181 289.352C161.262 288.077 159.356 284.855 157.274 286.13C154.051 288.037 150.823 290.044 147.501 291.944C145.419 293.22 147.326 296.442 149.408 295.167Z" fill="#1770D9" fill-opacity="0.12"/>
<path d="M47.77 305.782C51.4203 306.707 55.0707 307.631 58.8209 308.562C61.192 309.108 62.1104 305.557 59.7454 304.911C55.9953 303.981 52.3449 303.056 48.6945 302.132C46.3234 301.586 45.3989 305.236 47.77 305.782Z" fill="#1770D9" fill-opacity="0.12"/>
<path d="M153.443 332.382C157.094 333.307 160.744 334.232 164.494 335.162C166.865 335.708 167.784 332.157 165.419 331.512C161.768 330.587 158.118 329.663 154.368 328.732C151.997 328.186 151.078 331.737 153.443 332.382Z" fill="#1770D9" fill-opacity="0.12"/>
<path d="M93.6823 377.418C94.6069 373.768 95.5315 370.118 96.4621 366.367C97.0079 363.996 93.4573 363.078 92.8118 365.443C91.8872 369.093 90.9626 372.744 90.032 376.494C89.4862 378.865 93.1366 379.789 93.6823 377.418Z" fill="#1770D9" fill-opacity="0.12"/>
<path d="M120.283 271.745C121.207 268.095 122.132 264.444 123.063 260.694C123.608 258.323 120.058 257.405 119.412 259.77C118.488 263.42 117.563 267.07 116.632 270.821C116.087 273.192 119.637 274.11 120.283 271.745Z" fill="#1770D9" fill-opacity="0.12"/>
<path d="M57.446 283.531C60.412 285.817 63.4779 288.108 66.4439 290.393C68.3608 291.813 70.9273 289.165 69.0165 287.645C66.0504 285.36 62.9846 283.068 60.0186 280.783C58.1017 279.363 55.5352 282.012 57.446 283.531Z" fill="#1770D9" fill-opacity="0.12"/>
<path d="M144.072 349.643C147.038 351.928 150.104 354.219 153.07 356.505C154.987 357.924 157.553 355.276 155.642 353.757C152.676 351.471 149.611 349.18 146.645 346.894C144.728 345.475 142.161 348.123 144.072 349.643Z" fill="#1770D9" fill-opacity="0.12"/>
<path d="M71.432 367.742C73.7173 364.776 76.0088 361.71 78.2941 358.744C79.7138 356.827 77.0655 354.261 75.546 356.172C73.2607 359.138 70.9693 362.203 68.6839 365.169C67.2643 367.086 69.9064 369.753 71.432 367.742Z" fill="#1770D9" fill-opacity="0.12"/>
<path d="M137.543 281.116C139.829 278.15 142.12 275.084 144.405 272.118C145.825 270.201 143.177 267.635 141.657 269.546C139.372 272.512 137.081 275.578 134.795 278.544C133.376 280.461 136.024 283.027 137.543 281.116Z" fill="#1770D9" fill-opacity="0.12"/>
<path d="M46.9767 328.576C50.7125 328.103 54.4545 327.531 58.1903 327.058C60.5165 326.699 60.5428 322.994 58.1167 323.346C54.3809 323.819 50.6451 324.292 46.9092 324.765C44.583 325.124 44.5506 328.929 46.9767 328.576Z" fill="#1770D9" fill-opacity="0.12"/>
<path d="M154.965 314.041C158.701 313.568 162.443 312.996 166.179 312.523C168.505 312.164 168.532 308.459 166.105 308.811C162.37 309.284 158.628 309.857 154.892 310.33C152.572 310.589 152.546 314.294 154.965 314.041Z" fill="#1770D9" fill-opacity="0.12"/>
<path d="M116.47 378.311C115.998 374.575 115.425 370.833 114.952 367.098C114.593 364.771 110.888 364.745 111.241 367.171C111.714 370.907 112.286 374.649 112.759 378.385C113.018 380.705 116.829 380.637 116.47 378.311Z" fill="#1770D9" fill-opacity="0.12"/>
<path d="M101.942 270.223C101.469 266.487 100.896 262.745 100.423 259.009C100.065 256.683 96.3594 256.657 96.7119 259.083C97.1847 262.818 97.7574 266.56 98.2302 270.296C98.4891 272.616 102.194 272.643 101.942 270.223Z" fill="#1770D9" fill-opacity="0.12"/>
<g opacity="0.12">
<path d="M61.7457 152.301C57.4338 149.408 52.6958 148.326 47.8325 150.639C48.71 151.204 49.6526 151.846 50.6062 152.346C51.5682 141.925 38.8148 134.537 32.0946 144.222C33.1892 144.734 34.3487 145.322 35.4433 145.834C38.1242 132.497 29.9048 118.87 15.6763 117.609C2.21775 116.479 -8.36776 128.413 -6.14578 141.639C-4.97352 141.164 -3.81235 140.829 -2.64009 140.354C-7.33349 132.395 -17.3906 121.39 -27.659 125.689C-37.7753 129.858 -38.5013 141.788 -33.9283 150.376C-33.0158 149.596 -32.1683 148.741 -31.2558 147.962C-39.2395 142.155 -50.6466 140.194 -55.4595 150.88C-59.4883 159.713 -54.3181 167.922 -46.0159 171.483C-40.1738 173.858 -33.4714 174.315 -27.257 174.662C-19.4267 175.207 -11.6076 175.893 -3.77733 176.439C14.0518 177.913 32.5858 179.442 50.3882 177.651C56.8213 177.022 64.1574 174.833 66.9346 168.385C69.6135 162.283 66.4677 156.29 61.7457 152.301C59.8828 150.736 57.8598 153.91 59.7226 155.475C63.3834 158.53 65.7498 163.61 62.987 168.074C60.8768 171.454 56.861 172.912 53.2587 173.621C45.4791 175.137 37.0849 174.547 29.2863 174.501C12.8544 174.201 -3.27185 172.719 -19.5501 171.367C-29.1371 170.613 -46.2884 172.242 -51.8134 162.232C-54.0516 158.226 -53.1959 152.761 -50.0228 149.393C-44.9265 144.12 -38.2401 147.483 -33.2788 151.136C-31.7407 152.321 -29.7415 150.35 -30.6063 148.722C-34.3145 141.763 -34.1746 130.071 -24.1392 128.732C-16.4689 127.705 -9.35815 136.492 -5.90819 142.225C-4.84849 144.082 -2.06992 143.023 -2.4025 140.94C-4.1731 130.091 4.73791 120.507 15.5827 121.502C27.1324 122.553 34.1195 133.813 31.9742 144.851C31.6018 146.879 34.0397 148.348 35.3229 146.462C40.0422 139.67 47.4937 145.931 46.9184 152.34C46.7314 153.815 48.4327 154.729 49.6921 154.048C53.2311 152.34 56.6891 153.464 59.7876 155.552C61.6726 156.835 63.6956 153.66 61.7457 152.301Z" fill="#1770D9"/>
</g>
</g>
<defs>
<clipPath id="clip0">
<rect width="1440" height="632" fill="white"/>
</clipPath>
</defs>
</svg>
