<svg width="1440" height="1428" viewBox="0 0 1440 1428" fill="none" xmlns="http://www.w3.org/2000/svg">
<g clip-path="url(#clip0)">
<g opacity="0.16">
<path d="M1426.03 213.274C1424.92 206.328 1419.79 200.649 1412.86 199.07C1405.24 197.258 1397.58 200.733 1392.29 206.166C1393.37 206.709 1394.44 207.253 1395.52 207.796C1397.25 201.854 1391.64 194.338 1387.52 190.877C1382.47 186.628 1375.57 184.006 1370.01 188.787C1364.68 193.298 1364.17 200.364 1365.54 206.724C1367.88 217.899 1372.06 229 1375.36 239.918C1375.56 240.692 1376.42 241.189 1377.24 241.178C1393.78 240.322 1427.22 236.131 1426.03 213.274C1425.9 210.826 1422.14 211.096 1422.27 213.544C1423.32 233.54 1391.06 236.697 1376.97 237.422C1377.61 237.874 1378.22 238.23 1378.86 238.682C1376.78 231.991 1374.8 225.275 1372.72 218.585C1370.86 212.352 1367.44 204.879 1368.68 198.241C1370.01 191.164 1376.2 187.975 1382.49 191.795C1386.67 194.309 1393.51 201.395 1391.77 206.925C1391.24 208.824 1393.84 209.686 1394.99 208.555C1403.08 200.416 1420.02 199.555 1422.27 213.544C1422.7 215.915 1426.45 215.646 1426.03 213.274Z" fill="#1770D9"/>
</g>
<g opacity="0.16">
<path d="M95.0306 690.274C93.9172 683.328 88.7946 677.649 81.8602 676.07C74.2435 674.258 66.5775 677.733 61.2909 683.166C62.3656 683.709 63.4402 684.253 64.5149 684.796C66.2531 678.854 60.6447 671.338 56.5226 667.877C51.468 663.628 44.5679 661.006 39.0057 665.787C33.6823 670.298 33.1722 677.364 34.5444 683.724C36.8796 694.899 41.0573 706 44.3593 716.918C44.5638 717.692 45.4196 718.189 46.2441 718.178C62.7749 717.322 96.2151 713.131 95.0306 690.274C94.9002 687.826 91.1442 688.096 91.2746 690.544C92.3231 710.54 60.0574 713.697 45.9746 714.422C46.6115 714.874 47.2227 715.23 47.8595 715.682C45.7794 708.991 43.796 702.275 41.7159 695.585C39.8603 689.352 36.4355 681.879 37.6791 675.241C39.0138 668.164 45.2041 664.975 51.4899 668.795C55.6719 671.309 62.5115 678.395 60.7676 683.925C60.2356 685.824 62.8427 686.686 63.9916 685.555C72.0792 677.416 89.0223 676.555 91.2746 690.544C91.695 692.915 95.451 692.646 95.0306 690.274Z" fill="#1770D9"/>
</g>
<g opacity="0.16">
<path d="M1447.03 725.274C1445.92 718.328 1440.79 712.649 1433.86 711.07C1426.24 709.258 1418.58 712.733 1413.29 718.166C1414.37 718.709 1415.44 719.253 1416.52 719.796C1418.25 713.854 1412.64 706.338 1408.52 702.877C1403.47 698.628 1396.57 696.006 1391.01 700.787C1385.68 705.298 1385.17 712.364 1386.54 718.724C1388.88 729.899 1393.06 741 1396.36 751.918C1396.56 752.692 1397.42 753.189 1398.24 753.178C1414.78 752.322 1448.22 748.131 1447.03 725.274C1446.9 722.826 1443.14 723.096 1443.27 725.544C1444.32 745.54 1412.06 748.697 1397.97 749.422C1398.61 749.874 1399.22 750.23 1399.86 750.682C1397.78 743.991 1395.8 737.275 1393.72 730.585C1391.86 724.352 1388.44 716.879 1389.68 710.241C1391.01 703.164 1397.2 699.975 1403.49 703.795C1407.67 706.309 1414.51 713.395 1412.77 718.925C1412.24 720.824 1414.84 721.686 1415.99 720.555C1424.08 712.416 1441.02 711.555 1443.27 725.544C1443.7 727.915 1447.45 727.646 1447.03 725.274Z" fill="#1770D9"/>
</g>
<g opacity="0.16">
<path d="M110.031 1341.27C108.917 1334.33 103.795 1328.65 96.8602 1327.07C89.2435 1325.26 81.5775 1328.73 76.2909 1334.17C77.3656 1334.71 78.4402 1335.25 79.5149 1335.8C81.2531 1329.85 75.6447 1322.34 71.5226 1318.88C66.468 1314.63 59.5679 1312.01 54.0057 1316.79C48.6823 1321.3 48.1722 1328.36 49.5444 1334.72C51.8796 1345.9 56.0573 1357 59.3593 1367.92C59.5638 1368.69 60.4196 1369.19 61.2441 1369.18C77.7749 1368.32 111.215 1364.13 110.031 1341.27C109.9 1338.83 106.144 1339.1 106.275 1341.54C107.323 1361.54 75.0574 1364.7 60.9746 1365.42C61.6115 1365.87 62.2227 1366.23 62.8595 1366.68C60.7794 1359.99 58.796 1353.28 56.7159 1346.58C54.8603 1340.35 51.4355 1332.88 52.6791 1326.24C54.0138 1319.16 60.2041 1315.97 66.4899 1319.79C70.6719 1322.31 77.5115 1329.4 75.7676 1334.93C75.2356 1336.82 77.8427 1337.69 78.9916 1336.55C87.0792 1328.42 104.022 1327.55 106.275 1341.54C106.695 1343.92 110.451 1343.65 110.031 1341.27Z" fill="#1770D9"/>
</g>
<g opacity="0.16">
<path d="M1370.23 341.867C1365.69 341.557 1361.36 343.961 1359.35 348.105C1357.1 352.646 1358.17 357.988 1360.83 362.114C1361.33 361.515 1361.83 360.916 1362.33 360.318C1358.83 358.355 1353.27 360.798 1350.49 362.894C1347.07 365.463 1344.41 369.433 1346.62 373.639C1348.69 377.654 1353.07 379.005 1357.28 379.066C1364.67 379.222 1372.28 378.204 1379.65 377.712C1380.17 377.696 1380.61 377.228 1380.72 376.707C1382.59 366.155 1384.82 344.451 1370.23 341.867C1368.67 341.593 1368.29 344.001 1369.85 344.276C1382.62 346.528 1379.91 367.341 1378.31 376.329C1378.69 375.994 1379 375.66 1379.38 375.324C1374.86 375.661 1370.33 375.934 1365.81 376.271C1361.61 376.533 1356.4 377.605 1352.39 375.853C1348.12 373.98 1347.01 369.61 1350.34 366.202C1352.53 363.93 1358 360.649 1361.23 362.554C1362.35 363.167 1363.28 361.648 1362.73 360.758C1358.77 354.471 1360.7 343.658 1369.85 344.276C1371.41 344.356 1371.79 341.948 1370.23 341.867Z" fill="#1770D9"/>
</g>
<g opacity="0.16">
<path d="M688.229 1136.87C683.686 1136.56 679.357 1138.96 677.351 1143.11C675.098 1147.65 676.173 1152.99 678.83 1157.11C679.329 1156.52 679.828 1155.92 680.327 1155.32C676.832 1153.36 671.275 1155.8 668.491 1157.89C665.074 1160.46 662.415 1164.43 664.62 1168.64C666.69 1172.65 671.072 1174.01 675.284 1174.07C682.673 1174.22 690.284 1173.2 697.653 1172.71C698.17 1172.7 698.609 1172.23 698.722 1171.71C700.591 1161.15 702.82 1139.45 688.229 1136.87C686.666 1136.59 686.289 1139 687.852 1139.28C700.618 1141.53 697.908 1162.34 696.313 1171.33C696.691 1170.99 697.005 1170.66 697.383 1170.32C692.859 1170.66 688.334 1170.93 683.811 1171.27C679.609 1171.53 674.396 1172.6 670.39 1170.85C666.121 1168.98 665.011 1164.61 668.336 1161.2C670.531 1158.93 675.998 1155.65 679.232 1157.55C680.353 1158.17 681.276 1156.65 680.73 1155.76C676.774 1149.47 678.7 1138.66 687.852 1139.28C689.409 1139.36 689.787 1136.95 688.229 1136.87Z" fill="#1770D9"/>
</g>
<g opacity="0.16">
<path d="M1384.23 872.867C1379.69 872.557 1375.36 874.961 1373.35 879.105C1371.1 883.646 1372.17 888.988 1374.83 893.114C1375.33 892.515 1375.83 891.916 1376.33 891.318C1372.83 889.355 1367.27 891.798 1364.49 893.894C1361.07 896.463 1358.41 900.433 1360.62 904.639C1362.69 908.654 1367.07 910.005 1371.28 910.066C1378.67 910.222 1386.28 909.204 1393.65 908.712C1394.17 908.696 1394.61 908.228 1394.72 907.707C1396.59 897.155 1398.82 875.451 1384.23 872.867C1382.67 872.593 1382.29 875.001 1383.85 875.276C1396.62 877.528 1393.91 898.341 1392.31 907.329C1392.69 906.994 1393 906.66 1393.38 906.324C1388.86 906.661 1384.33 906.934 1379.81 907.271C1375.61 907.533 1370.4 908.605 1366.39 906.853C1362.12 904.98 1361.01 900.61 1364.34 897.202C1366.53 894.93 1372 891.649 1375.23 893.554C1376.35 894.167 1377.28 892.648 1376.73 891.758C1372.77 885.471 1374.7 874.658 1383.85 875.276C1385.41 875.356 1385.79 872.948 1384.23 872.867Z" fill="#1770D9"/>
</g>
<g opacity="0.14">
<path d="M907.11 230.626C907.705 227.027 907.076 223.397 909.325 220.137C911.188 217.549 914.105 215.818 917.087 214.723C923.683 212.202 931.113 212.935 937.061 216.726C940.371 218.815 943.251 222.002 944.126 225.972C944.915 229.651 943.654 233.131 942.739 236.631C941.278 242.161 940.961 247.696 944.668 252.462C945.923 254.085 948.248 251.993 947.074 250.395C941.023 242.698 949.294 233.393 947.108 224.877C945.214 217.684 938.608 212.895 931.819 210.954C925.591 209.188 918.538 210.07 912.805 213.212C910.043 214.727 907.533 216.85 905.94 219.698C904.093 223.083 904.641 226.687 904.022 230.368C903.662 232.368 906.856 232.572 907.11 230.626Z" fill="#1770D9"/>
<path d="M914.686 248.394C922.474 252.495 914.706 264.422 913.657 270.609C912.633 276.716 913.449 283.132 916.821 288.409C925.151 301.218 941.342 297.288 953.326 293.014C966.102 288.459 978.665 279.789 981.715 265.775C984.84 251.52 974.986 239.644 966.808 229.171C963.833 225.162 958.14 220.834 953.244 224.677C950.939 226.424 950.304 229.307 949.744 231.949C948.745 236.567 947.198 240.398 943.239 243.213C941.64 244.387 943.707 246.792 945.306 245.618C949.054 242.914 951.343 238.962 952.373 234.529C953.033 231.566 953.106 228.508 956.083 227.147C960.379 225.23 963.364 229.77 965.657 232.862C973.244 242.974 982.525 254.143 977.951 267.682C973.477 280.9 960.347 287.721 947.876 291.579C941.56 293.483 934.843 295.261 928.295 293.395C921.505 291.454 917.396 285.155 916.6 278.393C915.627 270.783 919.419 264.835 920.928 257.735C921.928 253.117 920.928 248.14 916.469 245.781C914.644 244.86 912.861 247.473 914.686 248.394Z" fill="#1770D9"/>
<path d="M916.318 227.071L916.423 227.016C917.16 226.63 917.54 225.692 917.178 224.875C916.792 224.138 915.854 223.758 915.037 224.119L914.932 224.175C914.195 224.561 913.815 225.499 914.176 226.316C914.618 227.158 915.476 227.513 916.318 227.071Z" fill="#1770D9"/>
<path d="M971.894 241.937C971.121 247.242 965.025 248.158 960.905 249.514C957.682 250.534 954.735 252.079 952.064 254.152C947.72 257.639 944.89 262.478 945.505 268.128C946.961 280.114 959.681 289.01 970.826 282.626C972.56 281.582 971.23 278.791 969.416 279.809C956.14 287.378 941.5 268.551 952.613 257.756C957.388 253.171 963.203 252.871 968.811 250.131C972.129 248.524 974.363 245.876 974.983 242.196C975.262 240.17 972.174 239.911 971.894 241.937Z" fill="#1770D9"/>
<path d="M918.146 233.628C914.581 232.076 912.178 228.773 907.987 229.227C905.44 229.489 903.691 231.145 902.158 232.956C900.861 234.576 899.754 236.431 898.457 238.051C896.799 240.263 894.764 240.861 892.829 242.547C890.74 244.448 890.712 247.08 892.322 249.255C896.994 255.729 906.828 252.986 912.476 249.554C917.337 246.668 926.396 238.225 918.387 233.703C916.827 232.776 915.199 235.174 916.784 236.02C918.8 237.177 917.88 240.411 916.848 242.026C916.127 243.209 914.739 244.273 913.666 245.171C911.181 247.213 908.339 248.704 905.247 249.588C902.841 250.246 899.978 250.674 897.597 249.843C895.079 248.882 893.048 246.928 895.728 243.979C896.144 243.492 897.332 243.071 897.883 242.714C901.08 240.366 902.516 236.324 905.387 233.61C909.275 229.893 913.194 234.548 917.16 236.225C918.931 237.041 919.861 234.339 918.146 233.628Z" fill="#1770D9"/>
</g>
<g opacity="0.14">
<path d="M1372.11 1200.63C1372.7 1197.03 1372.08 1193.4 1374.32 1190.14C1376.19 1187.55 1379.1 1185.82 1382.09 1184.72C1388.68 1182.2 1396.11 1182.93 1402.06 1186.73C1405.37 1188.81 1408.25 1192 1409.13 1195.97C1409.92 1199.65 1408.65 1203.13 1407.74 1206.63C1406.28 1212.16 1405.96 1217.7 1409.67 1222.46C1410.92 1224.09 1413.25 1221.99 1412.07 1220.39C1406.02 1212.7 1414.29 1203.39 1412.11 1194.88C1410.21 1187.68 1403.61 1182.9 1396.82 1180.95C1390.59 1179.19 1383.54 1180.07 1377.8 1183.21C1375.04 1184.73 1372.53 1186.85 1370.94 1189.7C1369.09 1193.08 1369.64 1196.69 1369.02 1200.37C1368.66 1202.37 1371.86 1202.57 1372.11 1200.63Z" fill="#1770D9"/>
<path d="M1379.69 1218.39C1387.47 1222.5 1379.71 1234.42 1378.66 1240.61C1377.63 1246.72 1378.45 1253.13 1381.82 1258.41C1390.15 1271.22 1406.34 1267.29 1418.33 1263.01C1431.1 1258.46 1443.67 1249.79 1446.72 1235.77C1449.84 1221.52 1439.99 1209.64 1431.81 1199.17C1428.83 1195.16 1423.14 1190.83 1418.24 1194.68C1415.94 1196.42 1415.3 1199.31 1414.74 1201.95C1413.74 1206.57 1412.2 1210.4 1408.24 1213.21C1406.64 1214.39 1408.71 1216.79 1410.31 1215.62C1414.05 1212.91 1416.34 1208.96 1417.37 1204.53C1418.03 1201.57 1418.11 1198.51 1421.08 1197.15C1425.38 1195.23 1428.36 1199.77 1430.66 1202.86C1438.24 1212.97 1447.53 1224.14 1442.95 1237.68C1438.48 1250.9 1425.35 1257.72 1412.88 1261.58C1406.56 1263.48 1399.84 1265.26 1393.29 1263.4C1386.51 1261.45 1382.4 1255.16 1381.6 1248.39C1380.63 1240.78 1384.42 1234.83 1385.93 1227.73C1386.93 1223.12 1385.93 1218.14 1381.47 1215.78C1379.64 1214.86 1377.86 1217.47 1379.69 1218.39Z" fill="#1770D9"/>
<path d="M1381.32 1197.07L1381.42 1197.02C1382.16 1196.63 1382.54 1195.69 1382.18 1194.87C1381.79 1194.14 1380.85 1193.76 1380.04 1194.12L1379.93 1194.17C1379.2 1194.56 1378.81 1195.5 1379.18 1196.32C1379.62 1197.16 1380.48 1197.51 1381.32 1197.07Z" fill="#1770D9"/>
<path d="M1436.89 1211.94C1436.12 1217.24 1430.02 1218.16 1425.9 1219.51C1422.68 1220.53 1419.73 1222.08 1417.06 1224.15C1412.72 1227.64 1409.89 1232.48 1410.51 1238.13C1411.96 1250.11 1424.68 1259.01 1435.83 1252.63C1437.56 1251.58 1436.23 1248.79 1434.42 1249.81C1421.14 1257.38 1406.5 1238.55 1417.61 1227.76C1422.39 1223.17 1428.2 1222.87 1433.81 1220.13C1437.13 1218.52 1439.36 1215.88 1439.98 1212.2C1440.26 1210.17 1437.17 1209.91 1436.89 1211.94Z" fill="#1770D9"/>
<path d="M1383.15 1203.63C1379.58 1202.08 1377.18 1198.77 1372.99 1199.23C1370.44 1199.49 1368.69 1201.14 1367.16 1202.96C1365.86 1204.58 1364.75 1206.43 1363.46 1208.05C1361.8 1210.26 1359.76 1210.86 1357.83 1212.55C1355.74 1214.45 1355.71 1217.08 1357.32 1219.26C1361.99 1225.73 1371.83 1222.99 1377.48 1219.55C1382.34 1216.67 1391.4 1208.22 1383.39 1203.7C1381.83 1202.78 1380.2 1205.17 1381.78 1206.02C1383.8 1207.18 1382.88 1210.41 1381.85 1212.03C1381.13 1213.21 1379.74 1214.27 1378.67 1215.17C1376.18 1217.21 1373.34 1218.7 1370.25 1219.59C1367.84 1220.25 1364.98 1220.67 1362.6 1219.84C1360.08 1218.88 1358.05 1216.93 1360.73 1213.98C1361.14 1213.49 1362.33 1213.07 1362.88 1212.71C1366.08 1210.37 1367.52 1206.32 1370.39 1203.61C1374.28 1199.89 1378.19 1204.55 1382.16 1206.23C1383.93 1207.04 1384.86 1204.34 1383.15 1203.63Z" fill="#1770D9"/>
</g>
<g opacity="0.14">
<path d="M42.1103 539.626C42.7047 536.027 42.0758 532.397 44.3248 529.137C46.1882 526.549 49.1049 524.818 52.0872 523.723C58.6832 521.202 66.1134 521.935 72.0615 525.726C75.3716 527.815 78.2512 531.002 79.126 534.972C79.9153 538.651 78.6541 542.131 77.7387 545.631C76.2782 551.161 75.9607 556.696 79.6685 561.462C80.9228 563.085 83.2477 560.993 82.0736 559.395C76.0229 551.698 84.2942 542.393 82.1082 533.877C80.2138 526.684 73.6083 521.895 66.8191 519.954C60.5914 518.188 53.5382 519.07 47.8049 522.212C45.0434 523.727 42.533 525.85 40.9405 528.698C39.0927 532.083 39.6413 535.687 39.0219 539.368C38.6622 541.368 41.8558 541.572 42.1103 539.626Z" fill="#1770D9"/>
<path d="M49.6863 557.394C57.4745 561.495 49.7061 573.422 48.6571 579.609C47.6331 585.716 48.4491 592.132 51.8213 597.409C60.1513 610.218 76.3419 606.288 88.3262 602.014C101.102 597.459 113.666 588.789 116.715 574.774C119.84 560.52 109.986 548.644 101.808 538.171C98.8329 534.162 93.1401 529.834 88.2444 533.677C85.9394 535.423 85.3044 538.306 84.7446 540.949C83.7447 545.567 82.1979 549.398 78.2391 552.213C76.6406 553.387 78.7075 555.792 80.3061 554.618C84.0544 551.913 86.3431 547.962 87.3731 543.529C88.0331 540.566 88.1064 537.508 91.0835 536.147C95.3788 534.229 98.3645 538.77 100.657 541.862C108.244 551.974 117.525 563.143 112.951 576.682C108.477 589.9 95.3467 596.721 82.8759 600.579C76.5602 602.483 69.8434 604.261 63.2949 602.395C56.5056 600.454 52.3959 594.155 51.5996 587.393C50.6274 579.783 54.4189 573.835 55.9286 566.735C56.9284 562.117 55.9277 557.139 51.4694 554.781C49.644 553.86 47.8609 556.473 49.6863 557.394Z" fill="#1770D9"/>
<path d="M51.3174 536.071L51.4227 536.016C52.1594 535.63 52.5398 534.692 52.1784 533.875C51.7919 533.138 50.8542 532.758 50.0372 533.119L49.932 533.174C49.1952 533.561 48.8148 534.499 49.1763 535.316C49.618 536.158 50.4755 536.513 51.3174 536.071Z" fill="#1770D9"/>
<path d="M106.894 550.937C106.121 556.242 100.025 557.158 95.9049 558.514C92.6819 559.534 89.735 561.079 87.0642 563.152C82.7197 566.639 79.8901 571.478 80.5052 577.128C81.9614 589.114 94.6806 598.01 105.826 591.626C107.56 590.582 106.23 587.791 104.416 588.809C91.1402 596.378 76.4998 577.551 87.6128 566.756C92.3877 562.171 98.203 561.871 103.811 559.131C107.129 557.524 109.363 554.876 109.983 551.196C110.262 549.17 107.174 548.911 106.894 550.937Z" fill="#1770D9"/>
<path d="M53.1464 542.628C49.5809 541.076 47.1775 537.773 42.9867 538.227C40.44 538.489 38.6914 540.145 37.1584 541.956C35.861 543.576 34.7541 545.431 33.4567 547.051C31.7986 549.263 29.7636 549.861 27.8294 551.547C25.74 553.448 25.7116 556.08 27.3222 558.255C31.9935 564.729 41.828 561.986 47.476 558.554C52.3371 555.668 61.3961 547.225 53.3871 542.703C51.8273 541.776 50.1995 544.174 51.7842 545.02C53.8003 546.177 52.8798 549.411 51.848 551.026C51.1268 552.209 49.7388 553.273 48.6665 554.171C46.1811 556.213 43.3394 557.704 40.2468 558.588C37.8408 559.246 34.9784 559.674 32.5966 558.843C30.0793 557.882 28.0477 555.928 30.728 552.979C31.1438 552.492 32.3317 552.071 32.883 551.714C36.0801 549.366 37.5164 545.324 40.3874 542.61C44.2755 538.893 48.1938 543.548 52.1603 545.225C53.9305 546.041 54.8614 543.339 53.1464 542.628Z" fill="#1770D9"/>
</g>
<g opacity="0.14">
<path d="M64.6746 904.599C58.9397 895.493 45.3363 887.251 34.2557 888.758C23.3971 890.238 13.2247 902.714 20.5747 912.939C24.6 918.552 30.8975 922.01 36.8531 925.238C41.8091 927.997 47.192 930.165 53.0356 929.31C65.3551 927.615 69.9912 915.149 64.6746 904.599C63.6831 902.643 60.5736 904.173 61.6591 906.163C66.7705 916.107 60.4937 927.232 48.6947 926.03C40.9968 925.254 30.6062 918.712 25.3762 913.195C15.899 903.261 27.2932 891.229 38.5966 892.037C46.4568 892.659 57.2832 899.466 61.531 906.223C62.7788 908.059 65.7943 906.495 64.6746 904.599Z" fill="#1770D9"/>
<path d="M44.5006 929.081C48.7991 933.941 53.8923 938.665 60.6077 939.509C67.9554 940.37 73.9689 935.533 78.3505 930.209C88.1215 918.545 92.2612 902.174 86.1919 887.84C79.9258 872.582 64.6131 862.018 48.4738 859.877C32.3003 857.831 17.334 866.224 9.0244 880.015C5.2155 886.398 1.44131 895.028 4.46753 902.512C7.33993 909.833 15.0983 913.077 22.2583 915.041C24.3943 915.604 25.3675 912.34 23.2314 911.777C15.2854 909.634 6.47598 905.476 6.85815 895.932C7.21492 887.338 13.1164 878.417 19.2152 872.759C32.1984 860.453 51.4642 860.432 66.1785 869.715C80.8927 878.998 89.2525 896.4 83.8314 913.369C81.3728 921.306 75.8729 930.586 68.3299 934.654C59.89 939.142 52.336 932.992 46.9948 926.902C45.6188 925.125 43.0563 927.492 44.5006 929.081Z" fill="#1770D9"/>
<path d="M39.4094 860.52C35.5028 851.653 23.0962 845.974 14.6395 852.264C7.21649 857.76 5.59611 869.832 11.9627 876.614C13.5009 878.237 16.0634 875.87 14.5252 874.247C9.48319 868.797 10.9331 858.365 17.4595 854.459C24.4044 850.28 33.5045 855.395 36.3938 862.084C37.2572 864.1 40.2727 862.536 39.4094 860.52Z" fill="#1770D9"/>
<path d="M20.2142 869.718C18.9492 867.343 18.171 864.507 20.2551 862.285C22.5357 859.815 26.1241 860.481 27.5943 863.462C28.5517 865.512 31.6014 863.854 30.6098 861.898C28.4814 857.507 23.0474 856.064 18.9557 858.833C14.6675 861.85 14.8738 867.139 17.1047 871.248C18.1902 873.238 21.2997 871.708 20.2142 869.718Z" fill="#1770D9"/>
<path d="M86.7828 894.119C95.4373 893.434 103.094 900.472 101.208 909.469C99.433 917.867 91.4026 920.056 83.9609 919.161C81.7224 918.88 81.6293 922.357 83.8678 922.638C93.5479 923.815 103.594 919.592 104.771 908.741C105.939 898.207 97.111 889.999 86.8418 890.736C84.6547 890.899 84.5616 894.376 86.7828 894.119Z" fill="#1770D9"/>
<path d="M87.9125 901.552C90.8515 901.662 94.4403 903.498 93.3646 907.044C92.528 909.932 89.4953 910.958 86.8383 910.95C84.5913 910.985 84.5323 914.368 86.7451 914.427C91.333 914.392 96.2706 911.93 96.9102 906.949C97.5582 901.652 92.773 898.424 87.9715 898.169C85.7928 898.015 85.6997 901.492 87.9125 901.552Z" fill="#1770D9"/>
<path d="M39.9636 891.789C38.3087 902.785 50.69 909.412 59.1892 902.712C60.966 901.336 58.5988 898.774 56.822 900.15C50.296 905.226 42.127 899.598 43.3468 891.848C43.7821 889.772 40.3389 889.585 39.9636 891.789Z" fill="#1770D9"/>
<path d="M45.1007 901.955C42.6325 905.527 40.1643 909.099 37.696 912.671C36.4149 914.439 39.3373 916.352 40.6525 914.49C43.1208 910.918 45.589 907.346 48.0572 903.774C49.2444 901.971 46.2879 900.152 45.1007 901.955Z" fill="#1770D9"/>
<path d="M28.6639 906.197C30.8959 914.987 42.4739 920.897 50.9915 919.417C53.1529 919.032 52.4515 915.691 50.1961 916.042C43.6178 917.163 33.7232 912.184 32.0384 905.401C31.4313 903.266 28.1508 904.095 28.6639 906.197Z" fill="#1770D9"/>
<path d="M40.8498 882.323C40.7217 882.383 40.6277 882.349 40.4996 882.408C39.5769 882.605 39.0133 883.571 39.21 884.493C39.4067 885.416 40.3723 885.98 41.2949 885.783C41.4231 885.723 41.5171 885.757 41.6452 885.697C42.5679 885.501 43.1315 884.535 42.9348 883.613C42.6441 882.656 41.7725 882.126 40.8498 882.323Z" fill="#1770D9"/>
<path d="M61.4691 897.902C63.3661 899.123 65.1852 896.166 63.2882 894.945C61.4511 893.852 59.632 896.808 61.4691 897.902Z" fill="#1770D9"/>
<path d="M11.3633 907.252C-2.83447 914.116 -17.3396 921.825 -23.9145 936.992C-24.7599 939.025 -21.496 939.999 -20.6507 937.965C-14.4173 923.738 -0.245163 916.652 12.9275 910.267C14.9777 909.31 13.4135 906.294 11.3633 907.252Z" fill="#1770D9"/>
<path d="M56.6688 937.758C56.6552 952.436 56.4198 968.31 46.3924 980.094C44.9234 981.795 47.2905 984.357 48.7596 982.657C59.5984 970.104 60.2267 953.734 60.2058 937.98C60.1113 935.605 56.634 935.512 56.6688 937.758Z" fill="#1770D9"/>
<path d="M-1.96057 959.439C-0.220511 947.623 -6.65653 936.347 -19.7025 936.82C-33.0047 937.413 -41.3653 951.93 -43.9513 963.439C-45.2485 969.351 -45.2386 974.888 -41.6406 979.919C-38.1622 984.694 -32.3516 988.614 -26.3113 988.681C-13.12 988.686 -4.29023 970.828 -2.00319 959.849C-1.53381 957.679 -4.89168 956.672 -5.26707 958.876C-7.01644 967.497 -12.9938 980.433 -21.545 984.348C-27.4053 987.007 -33.865 983.702 -37.7961 979.294C-42.0349 974.562 -41.6603 968.846 -40.1751 963.002C-37.9047 953.826 -31.1924 941.795 -20.9062 940.426C-9.1592 938.842 -3.79994 948.982 -5.30968 959.286C-5.68507 961.49 -2.3018 961.549 -1.96057 959.439Z" fill="#1770D9"/>
<path d="M21.0085 975.871C29.3201 970.273 40.1106 970.151 44.513 980.582C48.7958 990.756 40.443 1002.62 32.9689 1008.84C28.698 1012.39 24.3243 1015.06 18.5315 1014.02C12.5849 1012.82 6.68032 1008.86 5.80734 1002.48C4.9688 997.174 8.23975 991.979 10.8872 987.621C13.7311 983.016 17.1305 978.931 21.4271 975.598C23.2038 974.222 20.8025 971.753 19.0599 973.035C10.2104 979.821 -2.2338 995.621 3.68119 1007.45C6.38227 1012.9 12.3294 1016.45 18.2504 1017.43C24.4533 1018.51 29.3567 1016.14 34.1402 1012.35C43.3826 1005.07 52.931 991.088 47.6567 978.958C42.4422 966.955 29.4985 965.976 19.5725 972.796C17.6078 974.104 19.172 977.119 21.0085 975.871Z" fill="#1770D9"/>
<path d="M19.7306 990.515C22.6179 989.011 26.4796 988.925 29.1457 990.957C33.1448 994.007 30.8137 999.543 27.6105 1002.21C24.8259 1004.6 17.5731 1007.29 14.8723 1003.01C12.2313 998.856 16.2539 992.763 19.7306 990.515C21.533 989.362 20.0029 986.252 18.1664 987.5C13.0154 990.842 8.37809 998.626 11.8226 1004.67C15.1133 1010.54 24.0751 1009.01 28.6196 1005.87C33.4886 1002.43 37.1008 995.125 32.8448 989.854C29.4178 985.524 22.8818 985.064 18.1664 987.5C16.2101 988.491 17.7402 991.601 19.7306 990.515Z" fill="#1770D9"/>
<path d="M-14.6338 982.604C-7.01266 983.883 -1.08241 988.06 3.98529 993.731C5.52352 995.354 8.05187 993.081 6.54779 991.364C1.07846 985.334 -5.53538 980.696 -13.6606 979.34C-15.865 978.964 -16.8382 982.228 -14.6338 982.604Z" fill="#1770D9"/>
<path d="M6.42384 901.52C-10.2357 903.446 -27.9274 912.02 -40.6205 922.942C-50.8877 931.872 -57.5984 950.926 -42.2437 958.74C-40.2785 959.773 -38.4594 956.816 -40.4247 955.783C-47.7901 952.043 -49.5522 943.423 -46.6064 936.194C-43.5923 928.778 -36.8782 923.769 -30.2835 919.675C-18.8283 912.453 -6.42452 906.427 7.15937 904.766C9.34649 904.604 8.51697 901.323 6.42384 901.52Z" fill="#1770D9"/>
<path d="M65.5886 938.978C70.1025 951.152 68.4316 966.291 67.0164 978.97C66.2321 985.814 64.8756 993.939 60.7675 999.681C55.6431 1006.76 47.3643 1006.41 39.76 1004.5C37.624 1003.93 36.6166 1007.29 38.7868 1007.76C45.1009 1009.42 52.2265 1010.3 58.172 1006.82C65.1169 1002.64 67.8488 993.955 69.3763 986.531C71.1256 977.91 71.4909 968.999 71.6938 960.242C71.9654 952.467 71.4424 944.829 68.6981 937.448C67.903 935.244 64.8534 936.902 65.5886 938.978Z" fill="#1770D9"/>
<path d="M15.1919 911.941C9.24701 917.761 2.93515 925.469 2.04014 934.081C1.19622 941.967 6.5377 949.227 12.6559 953.472C18.7741 957.717 26.7371 959.227 33.708 956.44C42.4045 953.004 48.0495 943.032 51.9605 935.196C52.8998 933.197 50.0373 931.412 49.004 933.377C45.9639 939.401 42.2747 946.041 37.0642 950.425C31.0422 955.578 22.5669 955.477 15.996 951.6C9.51905 947.757 3.83578 940.266 5.85017 932.38C7.4889 925.527 12.7161 919.34 17.5591 914.504C19.0881 912.931 16.7209 910.369 15.1919 911.941Z" fill="#1770D9"/>
<path d="M42.963 894.369C43.707 897.299 45.3223 899.588 47.7064 901.519C49.1334 902.569 50.9869 900.689 50.1408 899.211C49.7476 898.537 48.799 897.341 49.0722 896.589C48.6195 896.956 48.2607 897.358 47.808 897.725C47.5517 897.845 48.5004 899.041 48.4321 899.229C48.6627 898.887 48.9872 898.579 49.252 898.144C49.6878 898.408 50.0637 898.545 50.4995 898.81C50.8413 899.04 51.149 899.365 51.5847 899.63C51.5249 899.502 51.5249 899.502 51.4651 899.373C51.1919 900.125 51.0126 900.911 50.7394 901.663C51.6022 901.338 52.5334 900.826 53.3448 900.056C53.456 900.629 53.5672 901.201 53.7126 901.68C54.0885 901.816 54.1484 901.944 53.9604 901.876C53.6527 901.551 53.4732 901.167 53.1656 900.842C53.2254 900.971 53.2853 901.099 53.2511 901.193C53.456 900.629 53.5669 900.031 53.7377 899.561C53.7036 899.655 53.5754 899.715 53.5413 899.809C52.1063 901.415 54.3795 903.943 55.9084 902.371C57.7021 900.363 56.0185 898.262 53.6093 898.45C51.6443 898.587 48.834 900.758 51.2181 902.688C53.0468 904.098 56.2502 902.602 55.8396 900.218C55.3945 896.758 51.1656 897.562 49.0471 898.708C48.2441 899.161 47.8684 900.194 48.3214 900.997C50.1334 904.209 55.7543 901.038 53.8825 897.698C51.7713 893.846 44.7493 897.359 47.9198 900.639C48.9026 901.741 50.8334 901.697 51.5336 900.356C52.2681 898.92 51.3107 896.87 50.3279 895.768C49.3793 894.572 47.2602 893.377 45.9534 894.923C44.6124 896.564 46.0911 899.229 46.9373 900.707C47.7487 899.938 48.5602 899.169 49.3717 898.4C47.731 897.059 46.731 895.419 46.1837 893.411C45.7304 891.438 42.3559 892.233 42.963 894.369Z" fill="#1770D9"/>
</g>
<g opacity="0.63">
<path d="M850.478 231.871C852.212 227.782 847.158 222.269 844.962 219.385C842.055 215.638 839.051 211.913 835.776 208.352C835.954 209.132 836.013 209.837 836.191 210.617C838.708 205.016 846.829 187.572 838.218 183.998C832.445 181.623 824.929 187.339 820.335 190.132C816.476 192.551 816.783 192.994 813.146 190.542C809.771 188.337 806.599 185.676 803.202 183.375C800.306 181.471 794.101 177.656 791.96 182.658C790.098 187.083 794.497 193.772 796.482 197.525C797.579 199.633 798.773 201.72 799.967 203.807C799.101 202.26 800.848 202.272 799.744 202.832C799.279 203.04 798.881 203.542 798.535 203.826C797.229 204.842 796.02 205.836 794.735 206.95C791.994 209.319 784.809 214.241 785.832 218.726C786.834 223.113 794.984 221.971 798.14 221.866C803.605 221.542 808.98 220.828 814.312 219.919C813.669 219.347 813.025 218.776 812.36 218.107C812.515 222.38 812.886 226.706 813.453 230.987C813.842 234.488 813.937 241.647 816.967 244.135C822.787 248.961 829.129 229.563 830.412 226.193C829.557 226.491 828.701 226.789 827.944 227.064C831.522 228.812 835.274 230.417 839.056 231.708C842.066 232.765 847.622 235.087 850.23 232.132C851.868 230.322 849.034 227.79 847.395 229.6C846.005 231.148 837.957 227.343 836.587 226.733C834.228 225.835 831.922 224.72 829.616 223.606C828.8 223.176 827.435 223.488 827.148 224.477C826.069 227.39 824.87 230.228 823.552 232.99C822.588 235.057 821.623 237.123 820.42 239.039C819.968 239.757 818.369 240.84 819.5 241.3C819.163 241.172 818.873 239.905 818.784 239.515C817.453 232.331 816.533 225.156 816.198 217.847C816.193 216.925 815.243 215.911 814.246 216.036C811.179 216.531 807.993 216.95 804.904 217.348C800.818 217.87 794.676 219.272 790.654 217.83C789.209 217.34 789.754 217.933 789.966 217.064C790.103 216.315 791.312 215.321 791.786 214.7C793.747 212.509 795.993 210.663 798.336 208.795C799.891 207.517 803.741 205.51 803.716 203.156C803.634 200.098 799.867 195.726 798.561 193.152C797.442 190.946 796.181 188.567 795.7 186.01C794.974 182.38 797.751 184.208 799.764 185.39C804.868 188.43 809.19 192.983 814.573 195.447C818.706 197.376 823.47 192.185 827.006 190.148C829.017 189.073 835.112 185.22 837.371 187.474C839.105 189.232 837.7 193.861 837.223 195.816C836.163 200.161 834.669 204.4 832.838 208.51C832.506 209.304 832.684 210.084 833.252 210.775C835.577 213.321 837.707 215.912 839.859 218.601C841.137 220.155 847.97 227.622 847.028 229.786C846.197 232.437 849.558 234.132 850.478 231.871Z" fill="#1770D9" fill-opacity="0.13"/>
</g>
<g opacity="0.63">
<path d="M100.478 439.871C102.212 435.782 97.1582 430.269 94.9616 427.385C92.0549 423.638 89.0507 419.913 85.7763 416.352C85.9543 417.132 86.0126 417.837 86.1906 418.617C88.7075 413.016 96.8294 395.572 88.2184 391.998C82.4452 389.623 74.9286 395.339 70.3347 398.132C66.4763 400.551 66.7826 400.994 63.1457 398.542C59.7706 396.337 56.599 393.676 53.2016 391.375C50.3055 389.471 44.1011 385.656 41.9604 390.658C40.0984 395.083 44.497 401.772 46.4818 405.525C47.5785 407.633 48.7728 409.72 49.967 411.807C49.1013 410.26 50.8477 410.272 49.7445 410.832C49.2793 411.04 48.8808 411.542 48.5354 411.826C47.2287 412.842 46.0196 413.836 44.7352 414.95C41.9937 417.319 34.8088 422.241 35.8324 426.726C36.8337 431.113 44.9839 429.971 48.1397 429.866C53.6046 429.542 58.9805 428.828 64.3118 427.919C63.6686 427.347 63.0254 426.776 62.3599 426.107C62.5145 430.38 62.8864 434.706 63.4532 438.987C63.8421 442.488 63.9373 449.647 66.9669 452.135C72.7867 456.961 79.1294 437.563 80.4117 434.193C79.5565 434.491 78.7014 434.789 77.9437 435.064C81.5222 436.812 85.2735 438.417 89.0556 439.708C92.0662 440.765 97.6221 443.087 100.23 440.132C101.868 438.322 99.0338 435.79 97.3955 437.6C96.0051 439.148 87.9568 435.343 86.5866 434.733C84.2277 433.835 81.9218 432.72 79.6159 431.606C78.8 431.176 77.4351 431.488 77.1479 432.477C76.069 435.39 74.8705 438.228 73.5521 440.99C72.5878 443.057 71.6234 445.123 70.4195 447.039C69.9681 447.757 68.369 448.84 69.4997 449.3C69.1627 449.172 68.8734 447.905 68.7844 447.515C67.4525 440.331 66.5329 433.156 66.1981 425.847C66.1929 424.925 65.2434 423.911 64.2462 424.036C61.1794 424.531 57.9929 424.95 54.9039 425.348C50.8176 425.87 44.6756 427.272 40.6541 425.83C39.2086 425.34 39.7544 425.933 39.9663 425.064C40.1031 424.315 41.3122 423.321 41.7859 422.7C43.7474 420.509 45.993 418.663 48.336 416.795C49.8906 415.517 53.7406 413.51 53.7162 411.156C53.6336 408.098 49.8665 403.726 48.561 401.152C47.442 398.946 46.181 396.567 45.7 394.01C44.9742 390.38 47.7505 392.208 49.7639 393.39C54.8684 396.43 59.1898 400.983 64.573 403.447C68.7058 405.376 73.4703 400.185 77.0055 398.148C79.0169 397.073 85.1124 393.22 87.3705 395.474C89.1052 397.232 87.7 401.861 87.2231 403.816C86.1633 408.161 84.669 412.4 82.8378 416.51C82.506 417.304 82.6841 418.084 83.252 418.775C85.577 421.321 87.7069 423.912 89.8591 426.601C91.1371 428.155 97.9699 435.622 97.0277 437.786C96.1969 440.437 99.5582 442.132 100.478 439.871Z" fill="#1770D9" fill-opacity="0.13"/>
</g>
<g opacity="0.63">
<path d="M1356.48 695.871C1358.21 691.782 1353.16 686.269 1350.96 683.385C1348.05 679.638 1345.05 675.913 1341.78 672.352C1341.95 673.132 1342.01 673.837 1342.19 674.617C1344.71 669.016 1352.83 651.572 1344.22 647.998C1338.45 645.623 1330.93 651.339 1326.33 654.132C1322.48 656.551 1322.78 656.994 1319.15 654.542C1315.77 652.337 1312.6 649.676 1309.2 647.375C1306.31 645.471 1300.1 641.656 1297.96 646.658C1296.1 651.083 1300.5 657.772 1302.48 661.525C1303.58 663.633 1304.77 665.72 1305.97 667.807C1305.1 666.26 1306.85 666.272 1305.74 666.832C1305.28 667.04 1304.88 667.542 1304.54 667.826C1303.23 668.842 1302.02 669.836 1300.74 670.95C1297.99 673.319 1290.81 678.241 1291.83 682.726C1292.83 687.113 1300.98 685.971 1304.14 685.866C1309.6 685.542 1314.98 684.828 1320.31 683.919C1319.67 683.347 1319.03 682.776 1318.36 682.107C1318.51 686.38 1318.89 690.706 1319.45 694.987C1319.84 698.488 1319.94 705.647 1322.97 708.135C1328.79 712.961 1335.13 693.563 1336.41 690.193C1335.56 690.491 1334.7 690.789 1333.94 691.064C1337.52 692.812 1341.27 694.417 1345.06 695.708C1348.07 696.765 1353.62 699.087 1356.23 696.132C1357.87 694.322 1355.03 691.79 1353.4 693.6C1352.01 695.148 1343.96 691.343 1342.59 690.733C1340.23 689.835 1337.92 688.72 1335.62 687.606C1334.8 687.176 1333.44 687.488 1333.15 688.477C1332.07 691.39 1330.87 694.228 1329.55 696.99C1328.59 699.057 1327.62 701.123 1326.42 703.039C1325.97 703.757 1324.37 704.84 1325.5 705.3C1325.16 705.172 1324.87 703.905 1324.78 703.515C1323.45 696.331 1322.53 689.156 1322.2 681.847C1322.19 680.925 1321.24 679.911 1320.25 680.036C1317.18 680.531 1313.99 680.95 1310.9 681.348C1306.82 681.87 1300.68 683.272 1296.65 681.83C1295.21 681.34 1295.75 681.933 1295.97 681.064C1296.1 680.315 1297.31 679.321 1297.79 678.7C1299.75 676.509 1301.99 674.663 1304.34 672.795C1305.89 671.517 1309.74 669.51 1309.72 667.156C1309.63 664.098 1305.87 659.726 1304.56 657.152C1303.44 654.946 1302.18 652.567 1301.7 650.01C1300.97 646.38 1303.75 648.208 1305.76 649.39C1310.87 652.43 1315.19 656.983 1320.57 659.447C1324.71 661.376 1329.47 656.185 1333.01 654.148C1335.02 653.073 1341.11 649.22 1343.37 651.474C1345.11 653.232 1343.7 657.861 1343.22 659.816C1342.16 664.161 1340.67 668.4 1338.84 672.51C1338.51 673.304 1338.68 674.084 1339.25 674.775C1341.58 677.321 1343.71 679.912 1345.86 682.601C1347.14 684.155 1353.97 691.622 1353.03 693.786C1352.2 696.437 1355.56 698.132 1356.48 695.871Z" fill="#1770D9" fill-opacity="0.13"/>
</g>
<path d="M93.0695 816.122C94.2317 813.381 90.8442 809.685 89.3718 807.753C87.4234 805.241 85.4098 802.744 83.2149 800.357C83.3342 800.88 83.3733 801.353 83.4926 801.875C85.1797 798.121 90.6238 786.428 84.8518 784.033C80.9821 782.441 75.9437 786.272 72.8645 788.144C70.2782 789.766 70.4834 790.063 68.0457 788.419C65.7833 786.941 63.6574 785.158 61.3802 783.615C59.4389 782.339 55.2801 779.782 53.8452 783.135C52.5971 786.101 55.5455 790.584 56.8759 793.1C57.611 794.513 58.4115 795.912 59.212 797.31C58.6317 796.274 59.8023 796.282 59.0628 796.657C58.751 796.797 58.4839 797.133 58.2524 797.323C57.3765 798.004 56.566 798.671 55.7051 799.417C53.8675 801.005 49.0515 804.305 49.7376 807.311C50.4088 810.251 55.8718 809.486 57.9872 809.416C61.6503 809.198 65.2537 808.72 68.8273 808.11C68.3962 807.727 67.965 807.345 67.5189 806.896C67.6226 809.76 67.8718 812.66 68.2518 815.529C68.5124 817.876 68.5763 822.675 70.607 824.342C74.508 827.577 78.7595 814.575 79.6191 812.316C79.0458 812.516 78.4726 812.715 77.9647 812.9C80.3634 814.071 82.8779 815.148 85.413 816.013C87.431 816.721 91.1552 818.277 92.9033 816.297C94.0015 815.084 92.1014 813.386 91.0032 814.599C90.0713 815.637 84.6765 813.087 83.7581 812.678C82.1769 812.076 80.6313 811.329 79.0856 810.582C78.5387 810.294 77.6238 810.503 77.4313 811.165C76.7082 813.118 75.9048 815.02 75.0211 816.872C74.3747 818.257 73.7283 819.642 72.9213 820.927C72.6187 821.408 71.5468 822.134 72.3047 822.442C72.0788 822.356 71.8849 821.507 71.8253 821.245C70.9325 816.43 70.3161 811.621 70.0917 806.722C70.0882 806.104 69.4517 805.424 68.7833 805.508C66.7277 805.839 64.5917 806.121 62.5212 806.387C59.7822 806.737 55.6652 807.677 52.9695 806.711C52.0007 806.382 52.3665 806.779 52.5086 806.197C52.6002 805.695 53.4107 805.029 53.7282 804.612C55.043 803.143 56.5482 801.906 58.1187 800.654C59.1608 799.797 61.7414 798.452 61.7251 796.874C61.6697 794.824 59.1446 791.894 58.2696 790.169C57.5195 788.69 56.6743 787.095 56.3518 785.381C55.8653 782.948 57.7263 784.174 59.0759 784.966C62.4974 787.004 65.394 790.055 69.0024 791.707C71.7726 793 74.9663 789.521 77.3359 788.155C78.6841 787.435 82.7699 784.852 84.2835 786.363C85.4463 787.541 84.5044 790.644 84.1847 791.954C83.4743 794.867 82.4727 797.708 81.2452 800.463C81.0229 800.995 81.1422 801.518 81.5229 801.981C83.0813 803.688 84.509 805.425 85.9516 807.227C86.8082 808.269 91.3883 813.274 90.7568 814.724C90.1998 816.502 92.4529 817.638 93.0695 816.122Z" fill="#1770D9" fill-opacity="0.13"/>
<path d="M451.558 230.62C452.72 227.879 449.333 224.184 447.86 222.251C445.912 219.739 443.898 217.242 441.703 214.855C441.823 215.378 441.862 215.851 441.981 216.373C443.668 212.619 449.112 200.926 443.34 198.531C439.47 196.939 434.432 200.77 431.353 202.642C428.766 204.264 428.972 204.561 426.534 202.917C424.272 201.439 422.146 199.656 419.868 198.113C417.927 196.837 413.768 194.28 412.333 197.633C411.085 200.599 414.034 205.082 415.364 207.598C416.099 209.011 416.9 210.41 417.7 211.808C417.12 210.772 418.291 210.78 417.551 211.155C417.239 211.295 416.972 211.631 416.741 211.821C415.865 212.502 415.054 213.169 414.193 213.915C412.356 215.503 407.54 218.803 408.226 221.809C408.897 224.75 414.36 223.984 416.475 223.914C420.139 223.696 423.742 223.218 427.316 222.608C426.884 222.225 426.453 221.843 426.007 221.394C426.111 224.258 426.36 227.158 426.74 230.028C427.001 232.374 427.065 237.173 429.095 238.84C432.996 242.075 437.248 229.073 438.107 226.814C437.534 227.014 436.961 227.213 436.453 227.398C438.852 228.57 441.366 229.646 443.901 230.511C445.919 231.219 449.643 232.776 451.392 230.795C452.49 229.582 450.59 227.884 449.492 229.097C448.56 230.135 443.165 227.585 442.246 227.176C440.665 226.574 439.12 225.827 437.574 225.08C437.027 224.792 436.112 225.001 435.92 225.664C435.196 227.616 434.393 229.518 433.509 231.37C432.863 232.755 432.217 234.14 431.41 235.425C431.107 235.906 430.035 236.632 430.793 236.94C430.567 236.854 430.373 236.005 430.314 235.744C429.421 230.928 428.804 226.119 428.58 221.22C428.576 220.602 427.94 219.922 427.272 220.006C425.216 220.337 423.08 220.619 421.009 220.885C418.27 221.235 414.153 222.175 411.458 221.209C410.489 220.88 410.855 221.278 410.997 220.695C411.088 220.193 411.899 219.527 412.216 219.11C413.531 217.641 415.036 216.404 416.607 215.152C417.649 214.295 420.23 212.95 420.213 211.372C420.158 209.322 417.633 206.392 416.758 204.667C416.008 203.188 415.163 201.593 414.84 199.879C414.354 197.446 416.215 198.672 417.564 199.464C420.986 201.502 423.882 204.553 427.491 206.205C430.261 207.498 433.455 204.019 435.824 202.653C437.172 201.933 441.258 199.35 442.772 200.861C443.935 202.039 442.993 205.142 442.673 206.452C441.963 209.365 440.961 212.206 439.734 214.961C439.511 215.493 439.63 216.016 440.011 216.479C441.57 218.186 442.997 219.923 444.44 221.725C445.297 222.767 449.877 227.772 449.245 229.223C448.688 231 450.941 232.136 451.558 230.62Z" fill="#1770D9" fill-opacity="0.13"/>
<path d="M61.3874 160.977C39.9097 137.021 -3.27407 146.904 -15.1744 176.031C-22.6042 194.312 -14.9539 215.018 0.686931 226.293C17.8637 238.665 42.1324 236.643 57.8144 222.674C75.409 206.919 76.4257 178.828 61.3874 160.977C59.7943 159.176 57.2279 161.825 58.8148 163.725C71.4228 178.723 71.4671 202.57 58.0565 217.078C44.8576 231.399 21.9823 235.21 5.28232 224.871C-10.169 215.41 -18.7847 195.748 -12.2084 178.317C-7.42834 165.685 4.2431 156.681 16.9945 152.952C31.9906 148.559 48.1198 151.85 58.8209 163.625C60.4079 165.526 63.0803 162.784 61.3874 160.977Z" fill="#1770D9" fill-opacity="0.12"/>
<path d="M16.4176 206.617C28.797 213.886 48.6937 203.081 46.4092 188.013C46.0567 185.587 42.4839 186.671 42.8425 188.997C44.7112 201.034 27.4054 208.792 18.2222 203.321C16.0935 202.089 14.2889 205.385 16.4176 206.617Z" fill="#1770D9" fill-opacity="0.12"/>
<path d="M13.0006 193.684C12.8193 193.373 13.4792 192.411 13.7847 192.33C14.296 192.161 14.7707 192.59 15.1516 192.914C16.8506 194.621 19.5229 191.879 17.7242 190.166C16.1189 188.565 13.6541 187.913 11.6722 189.195C9.69025 190.476 8.30325 193.497 9.77817 195.591C11.1533 197.679 14.3757 195.772 13.0006 193.684Z" fill="#1770D9" fill-opacity="0.12"/>
<path d="M34.211 181.056C33.9299 180.738 34.5898 179.776 35.0013 179.601C35.5126 179.432 35.9872 179.862 36.3682 180.186C38.0671 181.892 40.7395 179.151 38.9407 177.438C37.3355 175.837 34.8706 175.185 32.8887 176.466C30.9068 177.748 29.5198 180.769 30.9947 182.863C32.3698 184.95 35.5922 183.044 34.211 181.056Z" fill="#1770D9" fill-opacity="0.12"/>
<path d="M-7.04893 141.463C-5.14209 144.685 -3.13543 147.914 -1.23469 151.236C0.0406045 153.318 3.26302 151.411 1.98772 149.329C0.0808805 146.107 -1.92578 142.878 -3.82652 139.556C-5.002 137.481 -8.22441 139.387 -7.04893 141.463Z" fill="#1770D9" fill-opacity="0.12"/>
<path d="M48.9481 234.956C50.855 238.178 52.8616 241.407 54.7624 244.729C56.0377 246.811 59.2601 244.904 57.9848 242.822C56.0779 239.6 54.0713 236.371 52.1705 233.049C50.8952 230.967 47.6728 232.874 48.9481 234.956Z" fill="#1770D9" fill-opacity="0.12"/>
<path d="M68.3344 168.615C71.5568 166.709 74.7853 164.702 78.1075 162.801C80.1892 161.526 78.2824 158.303 76.2007 159.579C72.9783 161.486 69.7497 163.492 66.4275 165.393C64.3458 166.668 66.2526 169.891 68.3344 168.615Z" fill="#1770D9" fill-opacity="0.12"/>
<path d="M72.37 205.831C76.0204 206.756 79.6708 207.68 83.4209 208.611C85.792 209.157 86.7105 205.606 84.3455 204.961C80.6951 204.036 77.0448 203.111 73.2946 202.181C70.9235 201.635 70.005 205.186 72.37 205.831Z" fill="#1770D9" fill-opacity="0.12"/>
<path d="M12.6091 250.867C13.5337 247.217 14.4582 243.566 15.3889 239.816C15.9347 237.445 12.3841 236.527 11.7385 238.892C10.814 242.542 9.8894 246.192 8.95873 249.943C8.41297 252.314 12.0633 253.238 12.6091 250.867Z" fill="#1770D9" fill-opacity="0.12"/>
<path d="M39.2097 145.194C40.1343 141.543 41.0588 137.893 41.9895 134.143C42.5353 131.772 38.9847 130.853 38.3391 133.218C37.4146 136.869 36.49 140.519 35.5593 144.269C35.0136 146.64 38.5641 147.559 39.2097 145.194Z" fill="#1770D9" fill-opacity="0.12"/>
<path d="M62.9988 223.091C65.9648 225.377 69.0306 227.668 71.9966 229.953C73.9135 231.373 76.48 228.725 74.5692 227.205C71.6032 224.92 68.5373 222.629 65.5713 220.343C63.6544 218.924 61.088 221.572 62.9988 223.091Z" fill="#1770D9" fill-opacity="0.12"/>
<path d="M56.4696 154.565C58.7549 151.599 61.0464 148.533 63.3317 145.567C64.7514 143.65 62.1031 141.084 60.5836 142.995C58.2983 145.961 56.0068 149.026 53.7215 151.992C52.3019 153.909 54.9501 156.476 56.4696 154.565Z" fill="#1770D9" fill-opacity="0.12"/>
<path d="M73.8925 187.49C77.6283 187.017 81.3702 186.444 85.1061 185.972C87.4323 185.613 87.4585 181.908 85.0325 182.26C81.2967 182.733 77.5547 183.306 73.8189 183.779C71.4988 184.037 71.4725 187.743 73.8925 187.49Z" fill="#1770D9" fill-opacity="0.12"/>
<path d="M35.3972 251.76C34.9244 248.024 34.3517 244.282 33.8789 240.546C33.5202 238.22 29.8149 238.194 30.1675 240.62C30.6403 244.356 31.213 248.098 31.6858 251.833C31.9446 254.154 35.7559 254.086 35.3972 251.76Z" fill="#1770D9" fill-opacity="0.12"/>
<path d="M20.8684 143.671C20.3956 139.936 19.8229 136.194 19.3501 132.458C18.9914 130.132 15.2861 130.105 15.6387 132.531C16.1115 136.267 16.6841 140.009 17.157 143.745C17.4158 146.065 21.1211 146.091 20.8684 143.671Z" fill="#1770D9" fill-opacity="0.12"/>
<path d="M1454.39 1024.98C1432.91 1001.02 1389.73 1010.9 1377.83 1040.03C1370.4 1058.31 1378.05 1079.02 1393.69 1090.29C1410.86 1102.67 1435.13 1100.64 1450.81 1086.67C1468.41 1070.92 1469.43 1042.83 1454.39 1024.98C1452.79 1023.18 1450.23 1025.82 1451.82 1027.73C1464.42 1042.72 1464.47 1066.57 1451.06 1081.08C1437.86 1095.4 1414.98 1099.21 1398.28 1088.87C1382.83 1079.41 1374.22 1059.75 1380.79 1042.32C1385.57 1029.69 1397.24 1020.68 1409.99 1016.95C1424.99 1012.56 1441.12 1015.85 1451.82 1027.63C1453.41 1029.53 1456.08 1026.78 1454.39 1024.98Z" fill="#1770D9" fill-opacity="0.12"/>
<path d="M1409.42 1070.62C1421.8 1077.89 1441.69 1067.08 1439.41 1052.01C1439.06 1049.59 1435.48 1050.67 1435.84 1053C1437.71 1065.03 1420.41 1072.79 1411.22 1067.32C1409.09 1066.09 1407.29 1069.38 1409.42 1070.62Z" fill="#1770D9" fill-opacity="0.12"/>
<path d="M1406 1057.68C1405.82 1057.37 1406.48 1056.41 1406.78 1056.33C1407.3 1056.16 1407.77 1056.59 1408.15 1056.91C1409.85 1058.62 1412.52 1055.88 1410.72 1054.17C1409.12 1052.57 1406.65 1051.91 1404.67 1053.19C1402.69 1054.48 1401.3 1057.5 1402.78 1059.59C1404.15 1061.68 1407.38 1059.77 1406 1057.68Z" fill="#1770D9" fill-opacity="0.12"/>
<path d="M1427.21 1045.06C1426.93 1044.74 1427.59 1043.78 1428 1043.6C1428.51 1043.43 1428.99 1043.86 1429.37 1044.19C1431.07 1045.89 1433.74 1043.15 1431.94 1041.44C1430.34 1039.84 1427.87 1039.18 1425.89 1040.47C1423.91 1041.75 1422.52 1044.77 1423.99 1046.86C1425.37 1048.95 1428.59 1047.04 1427.21 1045.06Z" fill="#1770D9" fill-opacity="0.12"/>
<path d="M1385.95 1005.46C1387.86 1008.69 1389.86 1011.91 1391.77 1015.24C1393.04 1017.32 1396.26 1015.41 1394.99 1013.33C1393.08 1010.11 1391.07 1006.88 1389.17 1003.56C1388 1001.48 1384.78 1003.39 1385.95 1005.46Z" fill="#1770D9" fill-opacity="0.12"/>
<path d="M1441.95 1098.96C1443.86 1102.18 1445.86 1105.41 1447.76 1108.73C1449.04 1110.81 1452.26 1108.9 1450.99 1106.82C1449.08 1103.6 1447.07 1100.37 1445.17 1097.05C1443.9 1094.97 1440.67 1096.87 1441.95 1098.96Z" fill="#1770D9" fill-opacity="0.12"/>
<path d="M1367.84 1088.61C1371.06 1086.71 1374.29 1084.7 1377.61 1082.8C1379.7 1081.52 1377.79 1078.3 1375.71 1079.58C1372.49 1081.48 1369.26 1083.49 1365.93 1085.39C1363.85 1086.67 1365.76 1089.89 1367.84 1088.61Z" fill="#1770D9" fill-opacity="0.12"/>
<path d="M1359.7 1043.23C1363.35 1044.16 1367 1045.08 1370.75 1046.01C1373.12 1046.56 1374.04 1043.01 1371.67 1042.36C1367.92 1041.43 1364.27 1040.5 1360.62 1039.58C1358.25 1039.03 1357.33 1042.69 1359.7 1043.23Z" fill="#1770D9" fill-opacity="0.12"/>
<path d="M1405.61 1114.87C1406.53 1111.22 1407.46 1107.57 1408.39 1103.82C1408.93 1101.44 1405.38 1100.53 1404.74 1102.89C1403.81 1106.54 1402.89 1110.19 1401.96 1113.94C1401.41 1116.31 1405.06 1117.24 1405.61 1114.87Z" fill="#1770D9" fill-opacity="0.12"/>
<path d="M1432.21 1009.19C1433.13 1005.54 1434.06 1001.89 1434.99 998.143C1435.54 995.772 1431.98 994.853 1431.34 997.218C1430.41 1000.87 1429.49 1004.52 1428.56 1008.27C1428.01 1010.64 1431.56 1011.56 1432.21 1009.19Z" fill="#1770D9" fill-opacity="0.12"/>
<path d="M1369.37 1020.98C1372.34 1023.27 1375.41 1025.56 1378.37 1027.84C1380.29 1029.26 1382.85 1026.61 1380.94 1025.09C1377.98 1022.81 1374.91 1020.52 1371.95 1018.23C1370.03 1016.81 1367.46 1019.46 1369.37 1020.98Z" fill="#1770D9" fill-opacity="0.12"/>
<path d="M1383.36 1105.19C1385.64 1102.22 1387.94 1099.16 1390.22 1096.19C1391.64 1094.28 1388.99 1091.71 1387.47 1093.62C1385.19 1096.59 1382.9 1099.65 1380.61 1102.62C1379.19 1104.54 1381.83 1107.2 1383.36 1105.19Z" fill="#1770D9" fill-opacity="0.12"/>
<path d="M1358.9 1066.02C1362.64 1065.55 1366.38 1064.98 1370.12 1064.51C1372.44 1064.15 1372.47 1060.44 1370.04 1060.8C1366.31 1061.27 1362.57 1061.74 1358.84 1062.21C1356.51 1062.57 1356.48 1066.38 1358.9 1066.02Z" fill="#1770D9" fill-opacity="0.12"/>
<path d="M1428.4 1115.76C1427.92 1112.02 1427.35 1108.28 1426.88 1104.55C1426.52 1102.22 1422.82 1102.19 1423.17 1104.62C1423.64 1108.36 1424.21 1112.1 1424.69 1115.83C1424.94 1118.15 1428.76 1118.09 1428.4 1115.76Z" fill="#1770D9" fill-opacity="0.12"/>
<path d="M1413.87 1007.67C1413.4 1003.94 1412.82 1000.19 1412.35 996.458C1411.99 994.131 1408.29 994.105 1408.64 996.531C1409.11 1000.27 1409.68 1004.01 1410.16 1007.74C1410.42 1010.06 1414.12 1010.09 1413.87 1007.67Z" fill="#1770D9" fill-opacity="0.12"/>
<g opacity="0.12">
<path d="M559.864 253.103C555.264 249.703 551.564 245.103 548.964 240.103C547.164 236.603 546.264 233.303 549.264 230.103C551.364 227.803 554.364 226.103 556.964 224.603C561.564 221.903 566.564 220.203 571.164 217.803C574.064 216.303 576.664 214.203 577.364 210.803C578.064 207.303 576.664 203.903 575.364 200.803C573.164 195.803 571.464 191.303 571.664 185.703C572.164 175.303 577.664 165.903 585.264 159.003C593.264 151.703 603.364 146.703 613.364 142.603C621.464 139.303 630.464 136.903 638.164 142.103C643.864 145.903 648.764 150.803 653.764 155.403C656.364 157.803 659.664 162.403 663.064 163.603C665.564 164.503 668.964 162.603 671.364 161.703C676.364 159.803 681.364 157.403 686.764 156.703C699.864 155.003 705.464 167.103 709.564 177.303C710.364 179.403 713.464 177.903 712.664 175.803C709.464 167.903 705.464 158.203 697.064 154.503C688.464 150.803 679.264 154.803 671.164 158.003C669.564 158.603 665.764 160.703 664.464 160.403C663.764 160.203 662.764 159.103 662.264 158.603C659.664 156.303 657.264 153.903 654.764 151.603C649.564 146.803 644.364 141.503 638.164 138.003C631.364 134.003 623.264 135.303 616.164 137.803C605.464 141.503 594.564 146.903 585.664 154.103C577.864 160.403 571.564 168.803 569.164 178.703C568.164 182.603 567.864 186.703 568.364 190.803C569.064 196.403 572.364 200.803 573.664 206.103C575.764 215.003 563.764 216.903 557.864 220.103C553.464 222.503 547.364 225.503 544.764 230.103C539.764 239.003 551.464 251.203 557.864 256.003C559.664 257.303 561.664 254.503 559.864 253.103Z" fill="#1770D9"/>
<path d="M603.264 223.503C595.664 216.903 585.664 218.303 578.364 224.603C571.464 230.603 568.764 240.903 574.864 248.503C581.264 256.603 594.264 255.303 601.864 249.603C610.664 243.003 611.164 231.503 603.664 223.803C602.164 222.203 599.464 224.503 601.064 226.103C617.264 242.903 584.464 261.403 576.264 244.103C573.064 237.303 576.664 230.103 582.264 226.103C588.464 221.703 595.564 221.303 601.364 226.503C602.964 227.803 604.864 224.903 603.264 223.503Z" fill="#1770D9"/>
<path d="M595.764 230.803C588.764 224.803 576.964 235.003 583.364 242.403C586.364 245.803 591.964 245.303 595.264 242.703C599.164 239.703 599.464 234.603 596.064 231.003C594.564 229.403 591.964 231.703 593.464 233.303C598.764 238.903 587.864 244.603 585.364 239.203C584.364 237.103 585.564 234.803 587.364 233.603C589.464 232.003 591.764 231.903 593.864 233.703C595.564 235.103 597.464 232.203 595.764 230.803Z" fill="#1770D9"/>
<path d="M688.764 186.003C681.764 180.003 669.964 190.203 676.364 197.603C679.364 201.003 684.964 200.503 688.264 197.903C692.164 194.903 692.464 189.803 689.064 186.203C687.564 184.603 684.964 186.903 686.464 188.503C691.764 194.103 680.864 199.803 678.364 194.403C677.364 192.303 678.564 190.003 680.364 188.803C682.464 187.203 684.764 187.103 686.864 188.903C688.464 190.303 690.464 187.403 688.764 186.003Z" fill="#1770D9"/>
<path d="M696.164 178.703C688.564 172.103 678.564 173.503 671.264 179.803C664.364 185.803 661.664 196.103 667.764 203.703C674.164 211.803 687.164 210.503 694.764 204.803C703.564 198.203 704.064 186.703 696.564 179.003C695.064 177.403 692.364 179.703 693.964 181.303C710.164 198.103 677.364 216.603 669.164 199.303C665.964 192.503 669.564 185.303 675.164 181.303C681.364 176.903 688.464 176.503 694.264 181.703C695.964 183.003 697.864 180.103 696.164 178.703Z" fill="#1770D9"/>
<path d="M559.664 256.103C564.864 253.903 569.764 251.103 574.764 248.503C576.764 247.503 575.264 244.403 573.264 245.403C568.264 248.003 563.364 250.803 558.164 253.003C556.064 253.903 557.564 257.003 559.664 256.103Z" fill="#1770D9"/>
<path d="M608.664 231.903C628.564 222.303 648.364 212.703 668.264 203.203C670.264 202.203 668.764 199.103 666.764 200.103C646.864 209.603 626.964 219.203 607.164 228.803C605.164 229.803 606.664 232.903 608.664 231.903Z" fill="#1770D9"/>
<path d="M700.464 186.703C704.864 184.503 708.864 181.603 712.264 178.003C713.764 176.403 711.564 173.803 709.964 175.403C706.764 178.803 703.064 181.503 698.964 183.603C696.964 184.603 698.464 187.703 700.464 186.703Z" fill="#1770D9"/>
<path d="M652.264 166.103C647.264 157.903 641.864 150.703 632.464 147.503C623.264 144.403 613.864 147.603 605.264 151.203C604.364 151.603 604.064 152.703 604.464 153.503C609.864 164.703 615.264 176.003 620.664 187.203C621.064 188.003 622.164 188.403 622.964 188.003C630.764 184.003 638.464 179.803 645.964 175.303C649.264 173.403 654.064 170.403 652.264 166.103C651.364 164.103 648.264 165.603 649.164 167.603C650.264 170.203 641.864 173.703 640.164 174.703C634.064 178.203 627.964 181.703 621.664 184.903C622.464 185.203 623.164 185.403 623.964 185.703C618.564 174.503 613.164 163.203 607.764 152.003C607.464 152.803 607.264 153.503 606.964 154.303C614.664 151.103 623.264 148.003 631.464 150.803C639.964 153.603 644.764 160.203 649.164 167.603C650.264 169.403 653.364 168.003 652.264 166.103Z" fill="#1770D9"/>
<path d="M599.564 154.003C585.264 162.303 574.964 177.003 580.564 194.103C582.564 200.303 586.664 204.703 593.464 202.403C596.464 201.403 599.264 199.603 602.164 198.203C607.264 195.803 612.364 193.403 617.364 190.903C618.164 190.503 618.564 189.403 618.164 188.603C612.664 177.303 607.264 166.103 601.864 154.803C600.864 152.803 597.764 154.303 598.764 156.303C604.164 167.603 609.564 178.803 615.064 190.103C615.364 189.303 615.564 188.603 615.864 187.803C609.964 190.803 603.764 193.403 597.964 196.403C595.864 197.503 593.564 199.103 591.164 199.503C586.164 200.303 584.364 195.203 583.364 191.203C579.764 176.403 588.864 164.303 601.164 157.203C602.964 156.003 601.464 152.903 599.564 154.003Z" fill="#1770D9"/>
<path d="M544.964 238.403C542.964 239.103 541.264 240.303 540.964 242.603C540.664 245.103 542.264 247.103 543.664 248.903C544.964 250.703 546.164 252.903 548.564 253.403C550.564 253.903 552.564 253.003 554.064 251.603C555.664 250.103 553.364 247.403 551.764 249.003C549.564 251.203 548.364 249.203 546.864 247.303C545.364 245.303 542.964 242.703 546.564 241.403C548.564 240.803 546.964 237.703 544.964 238.403Z" fill="#1770D9"/>
<path d="M705.164 162.403C706.164 161.303 706.464 160.703 707.864 162.303C708.464 163.003 708.864 164.103 709.264 164.803C709.864 166.003 711.864 169.303 710.064 169.803C707.964 170.503 708.564 173.903 710.664 173.203C712.264 172.703 713.964 171.903 714.364 170.103C714.864 168.003 713.264 165.103 712.364 163.303C711.464 161.503 710.364 158.803 708.364 157.903C706.264 156.903 704.164 158.303 702.864 159.703C701.364 161.403 703.664 164.103 705.164 162.403Z" fill="#1770D9"/>
<path d="M608.564 202.203C610.564 201.203 612.664 200.203 614.664 199.303C616.664 198.303 615.164 195.203 613.164 196.203C611.164 197.203 609.064 198.203 607.064 199.103C605.064 200.003 606.564 203.103 608.564 202.203Z" fill="#1770D9"/>
<path d="M626.764 193.403C628.764 192.403 630.864 191.403 632.864 190.503C634.864 189.503 633.364 186.403 631.364 187.403C629.364 188.403 627.264 189.403 625.264 190.303C623.264 191.203 624.764 194.403 626.764 193.403Z" fill="#1770D9"/>
</g>
<g opacity="0.12">
<path d="M1369.67 1144.75C1365.36 1141.86 1360.62 1140.77 1355.76 1143.09C1356.64 1143.65 1357.58 1144.29 1358.53 1144.8C1359.5 1134.37 1346.74 1126.99 1340.02 1136.67C1341.12 1137.18 1342.28 1137.77 1343.37 1138.28C1346.05 1124.95 1337.83 1111.32 1323.6 1110.06C1310.14 1108.93 1299.56 1120.86 1301.78 1134.09C1302.95 1133.61 1304.11 1133.28 1305.29 1132.8C1300.59 1124.84 1290.54 1113.84 1280.27 1118.14C1270.15 1122.31 1269.43 1134.24 1274 1142.82C1274.91 1142.05 1275.76 1141.19 1276.67 1140.41C1268.69 1134.6 1257.28 1132.64 1252.47 1143.33C1248.44 1152.16 1253.61 1160.37 1261.91 1163.93C1267.75 1166.31 1274.46 1166.76 1280.67 1167.11C1288.5 1167.66 1296.32 1168.34 1304.15 1168.89C1321.98 1170.36 1340.51 1171.89 1358.32 1170.1C1364.75 1169.47 1372.08 1167.28 1374.86 1160.83C1377.54 1154.73 1374.39 1148.74 1369.67 1144.75C1367.81 1143.18 1365.79 1146.36 1367.65 1147.92C1371.31 1150.98 1373.68 1156.06 1370.91 1160.52C1368.8 1163.9 1364.79 1165.36 1361.19 1166.07C1353.41 1167.59 1345.01 1167 1337.21 1166.95C1320.78 1166.65 1304.66 1165.17 1288.38 1163.82C1278.79 1163.06 1261.64 1164.69 1256.11 1154.68C1253.88 1150.67 1254.73 1145.21 1257.9 1141.84C1263 1136.57 1269.69 1139.93 1274.65 1143.58C1276.19 1144.77 1278.19 1142.8 1277.32 1141.17C1273.61 1134.21 1273.75 1122.52 1283.79 1121.18C1291.46 1120.15 1298.57 1128.94 1302.02 1134.67C1303.08 1136.53 1305.86 1135.47 1305.52 1133.39C1303.75 1122.54 1312.66 1112.96 1323.51 1113.95C1335.06 1115 1342.05 1126.26 1339.9 1137.3C1339.53 1139.33 1341.97 1140.8 1343.25 1138.91C1347.97 1132.12 1355.42 1138.38 1354.85 1144.79C1354.66 1146.26 1356.36 1147.18 1357.62 1146.5C1361.16 1144.79 1364.62 1145.91 1367.71 1148C1369.6 1149.28 1371.62 1146.11 1369.67 1144.75Z" fill="#1770D9"/>
</g>
<g opacity="0.12">
<path d="M1069.67 168.75C1065.36 165.857 1060.62 164.775 1055.76 167.087C1056.64 167.653 1057.58 168.295 1058.53 168.795C1059.5 158.373 1046.74 150.986 1040.02 160.671C1041.12 161.183 1042.28 161.771 1043.37 162.282C1046.05 148.946 1037.83 135.319 1023.6 134.057C1010.14 132.927 999.559 144.862 1001.78 158.088C1002.95 157.612 1004.11 157.278 1005.29 156.803C1000.59 148.844 990.536 137.839 980.268 142.138C970.152 146.307 969.426 158.237 973.999 166.824C974.911 166.045 975.759 165.19 976.671 164.41C968.688 158.604 957.28 156.643 952.467 167.329C948.439 176.162 953.609 184.371 961.911 187.932C967.753 190.307 974.456 190.764 980.67 191.111C988.5 191.656 996.319 192.342 1004.15 192.887C1021.98 194.361 1040.51 195.891 1058.32 194.1C1064.75 193.471 1072.08 191.282 1074.86 184.833C1077.54 178.732 1074.39 172.739 1069.67 168.75C1067.81 167.185 1065.79 170.359 1067.65 171.924C1071.31 174.979 1073.68 180.059 1070.91 184.523C1068.8 187.903 1064.79 189.36 1061.19 190.07C1053.41 191.586 1045.01 190.996 1037.21 190.95C1020.78 190.65 1004.66 189.168 988.377 187.816C978.79 187.062 961.639 188.691 956.114 178.681C953.875 174.674 954.731 169.209 957.904 165.842C963 160.568 969.687 163.932 974.648 167.585C976.186 168.77 978.186 166.799 977.321 165.171C973.613 158.212 973.752 146.519 983.788 145.181C991.458 144.153 998.569 152.941 1002.02 158.674C1003.08 160.53 1005.86 159.472 1005.52 157.389C1003.75 146.539 1012.66 136.956 1023.51 137.951C1035.06 139.002 1042.05 150.262 1039.9 161.3C1039.53 163.328 1041.97 164.796 1043.25 162.911C1047.97 156.119 1055.42 162.379 1054.85 168.789C1054.66 170.264 1056.36 171.178 1057.62 170.497C1061.16 168.789 1064.62 169.912 1067.71 172C1069.6 173.283 1071.62 170.109 1069.67 168.75Z" fill="#1770D9"/>
</g>
<g opacity="0.12">
<path d="M1478.67 541.75C1474.36 538.857 1469.62 537.775 1464.76 540.087C1465.64 540.653 1466.58 541.295 1467.53 541.795C1468.5 531.373 1455.74 523.986 1449.02 533.671C1450.12 534.183 1451.28 534.771 1452.37 535.282C1455.05 521.946 1446.83 508.319 1432.6 507.057C1419.14 505.927 1408.56 517.862 1410.78 531.088C1411.95 530.612 1413.11 530.278 1414.29 529.803C1409.59 521.844 1399.54 510.839 1389.27 515.138C1379.15 519.307 1378.43 531.237 1383 539.824C1383.91 539.045 1384.76 538.19 1385.67 537.41C1377.69 531.604 1366.28 529.643 1361.47 540.329C1357.44 549.162 1362.61 557.371 1370.91 560.932C1376.75 563.307 1383.46 563.764 1389.67 564.111C1397.5 564.656 1405.32 565.342 1413.15 565.887C1430.98 567.361 1449.51 568.891 1467.32 567.1C1473.75 566.471 1481.08 564.282 1483.86 557.833C1486.54 551.732 1483.39 545.739 1478.67 541.75C1476.81 540.185 1474.79 543.359 1476.65 544.924C1480.31 547.979 1482.68 553.059 1479.91 557.523C1477.8 560.903 1473.79 562.36 1470.19 563.07C1462.41 564.586 1454.01 563.996 1446.21 563.95C1429.78 563.65 1413.66 562.168 1397.38 560.816C1387.79 560.062 1370.64 561.691 1365.11 551.681C1362.88 547.674 1363.73 542.209 1366.9 538.842C1372 533.568 1378.69 536.932 1383.65 540.585C1385.19 541.77 1387.19 539.799 1386.32 538.171C1382.61 531.212 1382.75 519.519 1392.79 518.181C1400.46 517.153 1407.57 525.941 1411.02 531.674C1412.08 533.53 1414.86 532.472 1414.52 530.389C1412.75 519.539 1421.66 509.956 1432.51 510.951C1444.06 512.002 1451.05 523.262 1448.9 534.3C1448.53 536.328 1450.97 537.796 1452.25 535.911C1456.97 529.119 1464.42 535.379 1463.85 541.789C1463.66 543.264 1465.36 544.178 1466.62 543.497C1470.16 541.789 1473.62 542.912 1476.71 545C1478.6 546.283 1480.62 543.109 1478.67 541.75Z" fill="#1770D9"/>
</g>
<g opacity="0.12">
<path d="M95.6727 1201.75C91.3608 1198.86 86.6228 1197.77 81.7595 1200.09C82.6371 1200.65 83.5796 1201.29 84.5332 1201.8C85.4952 1191.37 72.7418 1183.99 66.0216 1193.67C67.1162 1194.18 68.2757 1194.77 69.3703 1195.28C72.0512 1181.95 63.8318 1168.32 49.6033 1167.06C36.1447 1165.93 25.5592 1177.86 27.7812 1191.09C28.9535 1190.61 30.1147 1190.28 31.2869 1189.8C26.5935 1181.84 16.5364 1170.84 6.26803 1175.14C-3.84827 1179.31 -4.57427 1191.24 -0.00127688 1199.82C0.911203 1199.05 1.75874 1198.19 2.67122 1197.41C-5.31248 1191.6 -16.7196 1189.64 -21.5325 1200.33C-25.5613 1209.16 -20.3911 1217.37 -12.0889 1220.93C-6.24678 1223.31 0.455578 1223.76 6.67004 1224.11C14.5003 1224.66 22.3194 1225.34 30.1497 1225.89C47.9788 1227.36 66.5128 1228.89 84.3152 1227.1C90.7483 1226.47 98.0844 1224.28 100.862 1217.83C103.541 1211.73 100.395 1205.74 95.6727 1201.75C93.8098 1200.18 91.7868 1203.36 93.6496 1204.92C97.3104 1207.98 99.6768 1213.06 96.914 1217.52C94.8038 1220.9 90.788 1222.36 87.1857 1223.07C79.4061 1224.59 71.0119 1224 63.2133 1223.95C46.7814 1223.65 30.6551 1222.17 14.3769 1220.82C4.78985 1220.06 -12.3614 1221.69 -17.8864 1211.68C-20.1246 1207.67 -19.2689 1202.21 -16.0958 1198.84C-10.9995 1193.57 -4.31311 1196.93 0.648178 1200.58C2.1863 1201.77 4.18553 1199.8 3.32067 1198.17C-0.387458 1191.21 -0.247591 1179.52 9.78781 1178.18C17.4581 1177.15 24.5688 1185.94 28.0188 1191.67C29.0785 1193.53 31.8571 1192.47 31.5245 1190.39C29.7539 1179.54 38.6649 1169.96 49.5097 1170.95C61.0594 1172 68.0465 1183.26 65.9012 1194.3C65.5288 1196.33 67.9667 1197.8 69.2499 1195.91C73.9692 1189.12 81.4207 1195.38 80.8454 1201.79C80.6584 1203.26 82.3597 1204.18 83.6191 1203.5C87.1581 1201.79 90.6161 1202.91 93.7146 1205C95.5996 1206.28 97.6226 1203.11 95.6727 1201.75Z" fill="#1770D9"/>
</g>
<g opacity="0.12">
<path d="M1481.67 1369.75C1477.36 1366.86 1472.62 1365.77 1467.76 1368.09C1468.64 1368.65 1469.58 1369.29 1470.53 1369.8C1471.5 1359.37 1458.74 1351.99 1452.02 1361.67C1453.12 1362.18 1454.28 1362.77 1455.37 1363.28C1458.05 1349.95 1449.83 1336.32 1435.6 1335.06C1422.14 1333.93 1411.56 1345.86 1413.78 1359.09C1414.95 1358.61 1416.11 1358.28 1417.29 1357.8C1412.59 1349.84 1402.54 1338.84 1392.27 1343.14C1382.15 1347.31 1381.43 1359.24 1386 1367.82C1386.91 1367.05 1387.76 1366.19 1388.67 1365.41C1380.69 1359.6 1369.28 1357.64 1364.47 1368.33C1360.44 1377.16 1365.61 1385.37 1373.91 1388.93C1379.75 1391.31 1386.46 1391.76 1392.67 1392.11C1400.5 1392.66 1408.32 1393.34 1416.15 1393.89C1433.98 1395.36 1452.51 1396.89 1470.32 1395.1C1476.75 1394.47 1484.08 1392.28 1486.86 1385.83C1489.54 1379.73 1486.39 1373.74 1481.67 1369.75C1479.81 1368.18 1477.79 1371.36 1479.65 1372.92C1483.31 1375.98 1485.68 1381.06 1482.91 1385.52C1480.8 1388.9 1476.79 1390.36 1473.19 1391.07C1465.41 1392.59 1457.01 1392 1449.21 1391.95C1432.78 1391.65 1416.66 1390.17 1400.38 1388.82C1390.79 1388.06 1373.64 1389.69 1368.11 1379.68C1365.88 1375.67 1366.73 1370.21 1369.9 1366.84C1375 1361.57 1381.69 1364.93 1386.65 1368.58C1388.19 1369.77 1390.19 1367.8 1389.32 1366.17C1385.61 1359.21 1385.75 1347.52 1395.79 1346.18C1403.46 1345.15 1410.57 1353.94 1414.02 1359.67C1415.08 1361.53 1417.86 1360.47 1417.52 1358.39C1415.75 1347.54 1424.66 1337.96 1435.51 1338.95C1447.06 1340 1454.05 1351.26 1451.9 1362.3C1451.53 1364.33 1453.97 1365.8 1455.25 1363.91C1459.97 1357.12 1467.42 1363.38 1466.85 1369.79C1466.66 1371.26 1468.36 1372.18 1469.62 1371.5C1473.16 1369.79 1476.62 1370.91 1479.71 1373C1481.6 1374.28 1483.62 1371.11 1481.67 1369.75Z" fill="#1770D9"/>
</g>
<path d="M573.388 1436.98C551.91 1413.02 508.726 1422.9 496.826 1452.03C489.396 1470.31 497.046 1491.02 512.687 1502.29C529.864 1514.67 554.133 1512.64 569.815 1498.67C587.409 1482.92 588.426 1454.83 573.388 1436.98C571.794 1435.18 569.228 1437.82 570.815 1439.73C583.423 1454.72 583.467 1478.57 570.057 1493.08C556.858 1507.4 533.982 1511.21 517.282 1500.87C501.831 1491.41 493.215 1471.75 499.792 1454.32C504.572 1441.69 516.243 1432.68 528.995 1428.95C543.991 1424.56 560.12 1427.85 570.821 1439.63C572.408 1441.53 575.08 1438.78 573.388 1436.98Z" fill="#1770D9" fill-opacity="0.12"/>
<path d="M504.951 1417.46C506.858 1420.69 508.865 1423.91 510.765 1427.24C512.041 1429.32 515.263 1427.41 513.988 1425.33C512.081 1422.11 510.074 1418.88 508.174 1415.56C506.998 1413.48 503.776 1415.39 504.951 1417.46Z" fill="#1770D9" fill-opacity="0.12"/>
<path d="M551.21 1421.19C552.134 1417.54 553.059 1413.89 553.99 1410.14C554.535 1407.77 550.985 1406.85 550.339 1409.22C549.415 1412.87 548.49 1416.52 547.559 1420.27C547.014 1422.64 550.564 1423.56 551.21 1421.19Z" fill="#1770D9" fill-opacity="0.12"/>
<path d="M568.47 1430.57C570.755 1427.6 573.046 1424.53 575.332 1421.57C576.751 1419.65 574.103 1417.08 572.584 1418.99C570.298 1421.96 568.007 1425.03 565.722 1427.99C564.302 1429.91 566.95 1432.48 568.47 1430.57Z" fill="#1770D9" fill-opacity="0.12"/>
<path d="M532.868 1419.67C532.396 1415.94 531.823 1412.19 531.35 1408.46C530.991 1406.13 527.286 1406.11 527.639 1408.53C528.111 1412.27 528.684 1416.01 529.157 1419.74C529.416 1422.06 533.121 1422.09 532.868 1419.67Z" fill="#1770D9" fill-opacity="0.12"/>
</g>
<defs>
<clipPath id="clip0">
<rect width="1440" height="1428" fill="white"/>
</clipPath>
</defs>
</svg>
