<svg width="205" height="193" viewBox="0 0 205 193" fill="none" xmlns="http://www.w3.org/2000/svg">
<g opacity="0.14">
<path d="M124.811 111.128L150.38 166.68L192.913 112.076L124.811 111.128Z" fill="#1770D9"/>
<path d="M54.387 25.8367L11.8538 80.4408L79.0772 82.5171L54.387 25.8367Z" fill="#1770D9"/>
<path d="M196.516 90.6744L75.4305 15.4254C71.1147 12.7433 65.4056 13.5491 61.8159 16.9242L98.5071 101.181L199.68 102.601C201.973 98.4192 200.832 93.3565 196.516 90.6744Z" fill="#1770D9"/>
<path d="M113.174 110.347L95.1998 110.092C94.1348 110.074 93.1466 109.776 92.3157 109.259C91.4847 108.743 90.8283 108.019 90.4392 107.132L83.9239 92.1517L5.18563 89.7245C2.93368 93.8892 4.07684 98.9228 8.3787 101.597L129.558 176.929C133.86 179.604 139.537 178.81 143.122 175.474L113.174 110.347Z" fill="#1770D9"/>
</g>
</svg>
