<svg width="48" height="48" viewBox="0 0 48 48" fill="none" xmlns="http://www.w3.org/2000/svg">
<g clip-path="url(#clip0)">
<path d="M46.7665 4.39482C46.0824 4.39482 45.5227 4.95453 45.5227 5.63861V38.6508C45.5227 42.1438 42.6827 44.9734 39.2001 44.9734H8.81017C5.3172 44.9734 2.48758 42.1335 2.48758 38.6508V3.03702H38.8995V35.0646C38.8995 35.7487 39.4592 36.3084 40.1433 36.3084C40.8274 36.3084 41.3871 35.7487 41.3871 35.0646V1.79323C41.3871 1.10914 40.8274 0.549438 40.1433 0.549438H1.24379C0.559705 0.549438 0 1.10914 0 1.79323V38.6405C0 43.5016 3.94903 47.4507 8.81017 47.4507H39.1897C44.0508 47.4507 47.9999 43.5016 47.9999 38.6405V5.63861C48.0102 4.95453 47.4505 4.39482 46.7665 4.39482Z" fill="#3090E2"/>
<path d="M34.1316 10.2095C34.8157 10.2095 35.3754 9.64979 35.3754 8.96571C35.3754 8.28163 34.8157 7.72192 34.1316 7.72192H7.01704C6.33296 7.72192 5.77325 8.28163 5.77325 8.96571C5.77325 9.64979 6.33296 10.2095 7.01704 10.2095H34.1316Z" fill="#3090E2"/>
<path d="M34.1316 33.0745H7.01704C6.33296 33.0745 5.77325 33.6342 5.77325 34.3183C5.77325 35.0023 6.33296 35.562 7.01704 35.562H34.1213C34.8054 35.562 35.3651 35.0023 35.3651 34.3183C35.3651 33.6342 34.8157 33.0745 34.1316 33.0745Z" fill="#3090E2"/>
<path d="M34.1316 39.449H11.3185C10.6344 39.449 10.0747 40.0087 10.0747 40.6928C10.0747 41.3768 10.6344 41.9365 11.3185 41.9365H34.1316C34.8157 41.9365 35.3754 41.3768 35.3754 40.6928C35.3754 40.0087 34.8157 39.449 34.1316 39.449Z" fill="#3090E2"/>
<path d="M5.3587 14.5525V28.0062C5.3587 28.6902 5.91841 29.2499 6.60249 29.2499H20.108C20.7921 29.2499 21.3518 28.6902 21.3518 28.0062V14.5525C21.3518 13.8684 20.7921 13.3087 20.108 13.3087H6.60249C5.91841 13.3087 5.3587 13.8684 5.3587 14.5525ZM7.84628 15.7963H18.8642V26.7624H7.84628V15.7963Z" fill="#3090E2"/>
<path d="M34.795 14.5525H25.8501C25.166 14.5525 24.6063 15.1122 24.6063 15.7963C24.6063 16.4804 25.166 17.0401 25.8501 17.0401H34.795C35.4791 17.0401 36.0388 16.4804 36.0388 15.7963C36.0388 15.1122 35.4895 14.5525 34.795 14.5525Z" fill="#3090E2"/>
<path d="M34.795 20.1702H25.8501C25.166 20.1702 24.6063 20.7299 24.6063 21.414C24.6063 22.098 25.166 22.6577 25.8501 22.6577H34.795C35.4791 22.6577 36.0388 22.098 36.0388 21.414C36.0388 20.7299 35.4895 20.1702 34.795 20.1702Z" fill="#3090E2"/>
<path d="M36.0388 27.3842C36.0388 26.7001 35.4791 26.1404 34.795 26.1404H25.8501C25.166 26.1404 24.6063 26.7001 24.6063 27.3842C24.6063 28.0683 25.166 28.628 25.8501 28.628H34.795C35.4895 28.628 36.0388 28.0683 36.0388 27.3842Z" fill="#3090E2"/>
</g>
<defs>
<clipPath id="clip0">
<rect width="48" height="48" fill="white"/>
</clipPath>
</defs>
</svg>
