<svg width="570" height="301" viewBox="0 0 570 301" fill="none" xmlns="http://www.w3.org/2000/svg">
<rect width="570" height="301" rx="14" fill="url(#paint0_linear)"/>
<mask id="mask0" mask-type="alpha" maskUnits="userSpaceOnUse" x="0" y="0" width="567" height="301">
<rect width="567" height="301" rx="14" fill="#60939E"/>
</mask>
<g mask="url(#mask0)">
<circle opacity="0.12" cx="449.628" cy="40.3281" r="135.43" fill="white"/>
<path d="M375.083 103.169C375.083 101.109 375.731 99.511 377.028 98.3764C378.348 97.2419 380.316 96.6746 382.932 96.6746C383.974 96.6746 384.924 96.8483 385.78 97.1956C386.66 97.5429 387.424 97.9596 388.073 98.4459C388.721 98.9321 389.381 99.4183 390.052 99.9046C390.724 100.391 391.534 100.808 392.483 101.155C393.456 101.502 394.532 101.676 395.713 101.676C397.89 101.676 399.499 101.317 400.541 100.599C401.606 99.8583 402.139 98.909 402.139 97.7513C402.139 96.6167 401.652 95.6906 400.68 94.9728C399.731 94.2319 398.318 93.8614 396.443 93.8614H390.052C388.316 93.8614 386.926 93.3983 385.884 92.4722C384.866 91.5228 384.356 90.3188 384.356 88.8601C384.356 87.9108 384.646 86.9962 385.225 86.1164C385.827 85.2365 386.429 84.5882 387.031 84.1715L387.899 83.5463L395.019 78.8923V78.1977H384.704C382.249 78.1977 380.328 77.561 378.938 76.2875C377.572 74.9909 376.889 73.2543 376.889 71.0779C376.889 68.9014 377.572 67.1764 378.938 65.903C380.328 64.6063 382.249 63.958 384.704 63.958H409.258C411.713 63.958 413.623 64.6063 414.989 65.903C416.378 67.1764 417.073 68.9014 417.073 71.0779C417.073 71.8651 416.922 72.6523 416.621 73.4396C416.344 74.2268 415.996 74.8983 415.579 75.454C415.163 75.9865 414.734 76.4728 414.294 76.9127C413.878 77.3526 413.519 77.6768 413.218 77.8851L412.801 78.1977L404.257 83.8936V84.5882C404.466 84.6114 404.732 84.6461 405.056 84.6924C405.403 84.7387 406.063 84.9008 407.036 85.1786C408.031 85.4333 408.981 85.7575 409.884 86.1511C410.787 86.5216 411.782 87.0773 412.87 87.8182C413.959 88.536 414.896 89.3579 415.684 90.2841C416.471 91.2103 417.131 92.3911 417.663 93.8267C418.219 95.2391 418.497 96.7904 418.497 98.4806C418.497 100.727 417.999 102.857 417.003 104.871C416.008 106.862 414.584 108.634 412.732 110.185C410.879 111.713 408.483 112.929 405.542 113.832C402.602 114.735 399.325 115.186 395.713 115.186C393.12 115.186 390.677 114.92 388.385 114.387C386.116 113.878 384.183 113.207 382.585 112.373C381.011 111.516 379.644 110.567 378.487 109.525C377.329 108.46 376.472 107.383 375.917 106.295C375.361 105.207 375.083 104.165 375.083 103.169ZM424.157 95.6327V82.1223C424.157 79.3902 424.678 76.8316 425.72 74.4468C426.761 72.0388 428.22 69.9549 430.096 68.1952C431.971 66.4355 434.298 65.0578 437.077 64.0622C439.855 63.0434 442.9 62.5341 446.211 62.5341C449.522 62.5341 452.567 63.0434 455.345 64.0622C458.123 65.0578 460.45 66.4355 462.326 68.1952C464.201 69.9549 465.66 72.0388 466.702 74.4468C467.744 76.8316 468.265 79.3902 468.265 82.1223V95.6327C468.265 98.3648 467.744 100.935 466.702 103.343C465.66 105.728 464.201 107.8 462.326 109.56C460.45 111.296 458.123 112.674 455.345 113.693C452.567 114.688 449.522 115.186 446.211 115.186C442.9 115.186 439.855 114.688 437.077 113.693C434.298 112.674 431.971 111.296 430.096 109.56C428.22 107.8 426.761 105.728 425.72 103.343C424.678 100.935 424.157 98.3648 424.157 95.6327ZM440.168 95.6327C440.168 97.8555 440.758 99.6615 441.939 101.051C443.12 102.417 444.544 103.1 446.211 103.1C447.878 103.1 449.302 102.417 450.483 101.051C451.664 99.6615 452.254 97.8555 452.254 95.6327V82.1223C452.254 79.8995 451.664 78.1051 450.483 76.739C449.302 75.3498 447.878 74.6552 446.211 74.6552C444.544 74.6552 443.12 75.3498 441.939 76.739C440.758 78.1051 440.168 79.8995 440.168 82.1223V95.6327ZM473.23 77.5031V74.2731C473.23 71.1473 474.411 68.5309 476.773 66.4239C479.134 64.3169 482.225 63.2634 486.046 63.2634C489.866 63.2634 492.957 64.3285 495.319 66.4587C497.681 68.5657 498.862 71.1705 498.862 74.2731V77.5031C498.862 80.6057 497.681 83.2221 495.319 85.3523C492.957 87.4593 489.866 88.5128 486.046 88.5128C482.225 88.5128 479.134 87.4593 476.773 85.3523C474.411 83.2221 473.23 80.6057 473.23 77.5031ZM483.927 108.796C483.927 107.962 484.078 107.105 484.379 106.226C484.68 105.323 484.969 104.64 485.247 104.176L485.698 103.447L511.643 66.806C511.712 66.7133 511.793 66.586 511.886 66.4239C512.001 66.2618 512.268 65.984 512.684 65.5904C513.101 65.1736 513.553 64.8147 514.039 64.5137C514.525 64.1896 515.162 63.9001 515.949 63.6454C516.736 63.3908 517.558 63.2634 518.415 63.2634C520.013 63.2634 521.356 63.8191 522.444 64.9305C523.555 66.0187 524.111 67.3617 524.111 68.9593C524.111 69.7928 523.96 70.6611 523.659 71.5641C523.382 72.444 523.092 73.1154 522.791 73.5785L522.34 74.2731L496.361 110.914C496.315 111.007 496.234 111.134 496.118 111.296C496.002 111.458 495.736 111.748 495.319 112.165C494.902 112.558 494.451 112.917 493.964 113.241C493.501 113.542 492.876 113.82 492.089 114.075C491.302 114.33 490.48 114.457 489.623 114.457C488.025 114.457 486.671 113.913 485.56 112.825C484.471 111.736 483.927 110.393 483.927 108.796ZM483.927 77.5031C483.927 78.0356 484.147 78.5219 484.587 78.9618C485.027 79.4017 485.513 79.6217 486.046 79.6217C486.578 79.6217 487.065 79.4017 487.505 78.9618C487.968 78.5219 488.199 78.0356 488.199 77.5031V74.2731C488.199 73.7406 487.968 73.2543 487.505 72.8144C487.065 72.3745 486.578 72.1545 486.046 72.1545C485.513 72.1545 485.027 72.3745 484.587 72.8144C484.147 73.2543 483.927 73.7406 483.927 74.2731V77.5031ZM509.177 103.447V100.252C509.177 97.1261 510.346 94.5097 512.684 92.4027C515.046 90.2725 518.137 89.2074 521.958 89.2074C525.778 89.2074 528.869 90.2725 531.231 92.4027C533.593 94.5329 534.773 97.1493 534.773 100.252V103.447C534.773 106.55 533.593 109.166 531.231 111.296C528.869 113.403 525.778 114.457 521.958 114.457C518.137 114.457 515.046 113.403 512.684 111.296C510.346 109.166 509.177 106.55 509.177 103.447ZM519.839 103.447C519.839 103.98 520.059 104.466 520.499 104.906C520.939 105.346 521.425 105.566 521.958 105.566C522.49 105.566 522.976 105.346 523.416 104.906C523.879 104.466 524.111 103.98 524.111 103.447V100.252C524.111 99.7193 523.879 99.2331 523.416 98.7932C522.976 98.3301 522.49 98.0986 521.958 98.0986C521.425 98.0986 520.939 98.3301 520.499 98.7932C520.059 99.2331 519.839 99.7193 519.839 100.252V103.447Z" fill="white"/>
<path d="M377.089 40.9817C377.089 38.3453 377.89 36.1512 379.492 34.3992C381.111 32.6472 383.18 31.7712 385.699 31.7712C386.217 31.7712 386.759 31.8212 387.326 31.9213C387.893 32.0048 388.469 32.1466 389.053 32.3468C389.654 32.5304 390.138 32.8224 390.505 33.2228C390.889 33.6066 391.08 34.0571 391.08 34.5744C391.08 35.0416 390.93 35.442 390.63 35.7757C390.346 36.0928 389.979 36.2513 389.529 36.2513C389.278 36.2513 388.769 36.1095 388.002 35.8258C387.251 35.5255 386.483 35.3753 385.699 35.3753C384.214 35.3753 383.055 35.9176 382.22 37.0021C381.403 38.0867 380.994 39.4382 380.994 41.0568C380.994 42.6252 381.403 43.9434 382.22 45.0113C383.055 46.0625 384.214 46.5881 385.699 46.5881C386.483 46.5881 387.276 46.4129 388.077 46.0625C388.895 45.7121 389.429 45.5369 389.679 45.5369C390.179 45.5369 390.58 45.7288 390.88 46.1125C391.181 46.4963 391.331 46.8717 391.331 47.2388C391.331 47.8061 391.13 48.2984 390.73 48.7155C390.33 49.116 389.812 49.4163 389.178 49.6165C388.561 49.8168 387.96 49.9586 387.376 50.042C386.792 50.1421 386.233 50.1922 385.699 50.1922C383.18 50.1922 381.111 49.3162 379.492 47.5642C377.89 45.7955 377.089 43.6013 377.089 40.9817ZM393.491 48.0397V38.4288C393.491 37.8281 393.658 37.3442 393.992 36.9771C394.326 36.61 394.759 36.4265 395.293 36.4265C395.827 36.4265 396.261 36.61 396.595 36.9771C396.929 37.3442 397.095 37.8281 397.095 38.4288V41.7325L401.05 37.2024C401.5 36.6851 402.043 36.4265 402.677 36.4265C403.111 36.4265 403.469 36.5933 403.753 36.9271C404.053 37.2608 404.204 37.6362 404.204 38.0533C404.204 38.5039 403.97 38.9794 403.503 39.48L400.149 42.9089L404.529 47.1387C404.829 47.439 404.979 47.8395 404.979 48.3401C404.979 48.8073 404.813 49.2077 404.479 49.5414C404.145 49.8752 403.745 50.042 403.278 50.042C402.827 50.042 402.251 49.6749 401.551 48.9408L397.146 44.2604H397.095V48.0397C397.095 48.6404 396.929 49.1243 396.595 49.4914C396.261 49.8585 395.827 50.042 395.293 50.042C394.759 50.042 394.326 49.8585 393.992 49.4914C393.658 49.1243 393.491 48.6404 393.491 48.0397ZM418.37 48.0397C418.37 48.6404 418.203 49.1243 417.869 49.4914C417.535 49.8585 417.102 50.042 416.568 50.042C416.034 50.042 415.6 49.8585 415.266 49.4914C414.932 49.1243 414.766 48.6404 414.766 48.0397V42.7337H414.716L409.785 49.2161C409.368 49.7667 408.876 50.042 408.308 50.042C407.774 50.042 407.34 49.8585 407.007 49.4914C406.673 49.1243 406.506 48.6404 406.506 48.0397V38.4288C406.506 37.8281 406.673 37.3442 407.007 36.9771C407.34 36.61 407.774 36.4265 408.308 36.4265C408.842 36.4265 409.276 36.61 409.61 36.9771C409.943 37.3442 410.11 37.8281 410.11 38.4288V43.6347H410.16L414.766 37.5277C415.333 36.7936 415.934 36.4265 416.568 36.4265C417.102 36.4265 417.535 36.61 417.869 36.9771C418.203 37.3442 418.37 37.8281 418.37 38.4288V48.0397ZM434.905 51.6939C434.905 52.2946 434.738 52.7785 434.405 53.1456C434.071 53.5126 433.637 53.6962 433.103 53.6962C432.569 53.6962 432.135 53.5126 431.802 53.1456C431.468 52.7785 431.301 52.2946 431.301 51.6939V49.8918H423.592V51.6939C423.592 52.2946 423.425 52.7785 423.092 53.1456C422.758 53.5126 422.324 53.6962 421.79 53.6962C421.256 53.6962 420.822 53.5126 420.489 53.1456C420.155 52.7785 419.988 52.2946 419.988 51.6939V48.7405C419.988 48.1398 420.155 47.656 420.489 47.2889C420.822 46.9218 421.256 46.7382 421.79 46.7382H421.99C422.591 44.6525 422.891 41.9328 422.891 38.5789C422.891 37.9449 423.058 37.4527 423.392 37.1023C423.726 36.7519 424.16 36.5767 424.694 36.5767H431.101C431.635 36.5767 432.069 36.7602 432.402 37.1273C432.736 37.4944 432.903 37.9783 432.903 38.5789V46.7382H433.103C433.637 46.7382 434.071 46.9218 434.405 47.2889C434.738 47.656 434.905 48.1398 434.905 48.7405V51.6939ZM429.499 46.9385V39.48H426.421C426.337 42.4667 426.028 44.9529 425.494 46.9385H429.499ZM436.373 48.0397V38.4288C436.373 37.8281 436.54 37.3442 436.874 36.9771C437.208 36.61 437.641 36.4265 438.175 36.4265C438.709 36.4265 439.143 36.61 439.477 36.9771C439.811 37.3442 439.977 37.8281 439.977 38.4288V41.7325L443.932 37.2024C444.382 36.6851 444.925 36.4265 445.559 36.4265C445.993 36.4265 446.351 36.5933 446.635 36.9271C446.935 37.2608 447.086 37.6362 447.086 38.0533C447.086 38.5039 446.852 38.9794 446.385 39.48L443.031 42.9089L447.411 47.1387C447.711 47.439 447.861 47.8395 447.861 48.3401C447.861 48.8073 447.695 49.2077 447.361 49.5414C447.027 49.8752 446.627 50.042 446.159 50.042C445.709 50.042 445.133 49.6749 444.432 48.9408L440.027 44.2604H439.977V48.0397C439.977 48.6404 439.811 49.1243 439.477 49.4914C439.143 49.8585 438.709 50.042 438.175 50.042C437.641 50.042 437.208 49.8585 436.874 49.4914C436.54 49.1243 436.373 48.6404 436.373 48.0397ZM452.392 45.8873C452.392 46.3378 452.6 46.6715 453.017 46.8884C453.434 47.0886 453.952 47.1888 454.569 47.1888C456.388 47.1888 457.297 46.2877 457.297 44.4857V43.91C457.18 43.91 456.997 43.91 456.747 43.91C456.279 43.91 455.921 43.91 455.67 43.91C455.437 43.91 455.12 43.9267 454.719 43.9601C454.319 43.9934 454.002 44.0518 453.768 44.1353C453.551 44.2187 453.318 44.3355 453.067 44.4857C452.834 44.6192 452.659 44.811 452.542 45.0613C452.442 45.2949 452.392 45.5702 452.392 45.8873ZM457.297 48.7155C456.997 49.1827 456.521 49.5498 455.871 49.8168C455.22 50.067 454.569 50.1922 453.918 50.1922C452.417 50.1922 451.207 49.8251 450.289 49.0909C449.388 48.3401 448.938 47.2722 448.938 45.8873C448.938 42.767 451.674 41.2069 457.147 41.2069V40.2308C457.147 39.5968 456.621 39.2797 455.57 39.2797C454.97 39.2797 454.452 39.3798 454.018 39.5801C453.585 39.7803 453.226 39.9889 452.942 40.2058C452.659 40.406 452.392 40.5061 452.141 40.5061C451.624 40.5061 451.232 40.356 450.965 40.0556C450.698 39.7553 450.564 39.3965 450.564 38.9794C450.564 38.2786 451.115 37.6529 452.216 37.1023C453.318 36.5516 454.436 36.2763 455.57 36.2763C457.239 36.2763 458.515 36.6267 459.4 37.3275C460.301 38.0116 460.751 39.0044 460.751 40.3059V48.1148C460.751 48.6488 460.584 49.1076 460.251 49.4914C459.934 49.8585 459.516 50.042 458.999 50.042C458.549 50.042 458.182 49.9502 457.898 49.7667C457.631 49.5832 457.431 49.2328 457.297 48.7155Z" fill="white"/>
</g>
<path d="M124.667 48.2369C124.176 45.4646 123.435 42.7421 122.454 40.1027C121.512 37.4416 120.331 34.8711 118.925 32.4226C118.424 31.5782 117.673 30.9096 116.776 30.509C115.879 30.1084 114.879 29.9954 113.915 30.1857C111.164 30.7633 108.46 31.5427 105.824 32.5175C103.173 33.4545 100.596 34.5874 98.113 35.9068C97.2524 36.3787 96.5594 37.1051 96.1291 37.9864C95.6988 38.8676 95.5524 39.8603 95.7101 40.828C96.1989 43.6009 96.9396 46.3235 97.9229 48.9622C98.8554 51.6217 100.03 54.1902 101.432 56.6355C101.932 57.4799 102.681 58.149 103.577 58.5508C104.473 58.9526 105.471 59.0673 106.435 58.8792C109.186 58.2986 111.89 57.517 114.526 56.5406C117.178 55.6015 119.758 54.4687 122.244 53.1513C123.107 52.6828 123.803 51.9587 124.237 51.0786C124.671 50.1985 124.821 49.2057 124.667 48.2369Z" fill="#F72A16"/>
<path d="M154.988 34.9985C152.41 33.8753 149.754 32.9419 147.04 32.2057C144.328 31.4288 141.562 30.8533 138.765 30.484C137.791 30.3685 136.804 30.5574 135.941 31.0247C135.078 31.492 134.381 32.2148 133.946 33.0937C132.729 35.6411 131.745 38.2933 131.007 41.0178C130.222 43.7288 129.688 46.5061 129.412 49.3147C129.318 50.2956 129.534 51.2813 130.031 52.1327C130.528 52.984 131.28 53.6581 132.181 54.0597C134.757 55.1773 137.411 56.104 140.123 56.8321C142.835 57.6044 145.601 58.1754 148.397 58.5403C149.373 58.6629 150.363 58.4771 151.227 58.009C152.092 57.5409 152.787 56.814 153.217 55.9305C154.441 53.3854 155.427 50.7328 156.163 48.0064C156.949 45.2996 157.487 42.5271 157.771 39.7231C157.854 38.7448 157.631 37.7651 157.132 36.9189C156.634 36.0727 155.885 35.4017 154.988 34.9985Z" fill="#FABC22"/>
<path d="M191.229 48.2374C190.741 45.4643 190 42.7416 189.016 40.1032C188.073 37.4421 186.892 34.8716 185.486 32.4231C184.986 31.5799 184.236 30.9122 183.34 30.5117C182.445 30.1111 181.447 29.9974 180.483 30.1862C174.981 31.379 169.664 33.3032 164.675 35.9073C163.814 36.3791 163.121 37.1056 162.691 37.9869C162.26 38.8681 162.114 39.8608 162.272 40.8285C162.761 43.6013 163.501 46.324 164.485 48.9627C165.427 51.6217 166.608 54.1899 168.014 56.636C168.514 57.4816 169.264 58.1516 170.162 58.5535C171.059 58.9553 172.059 59.0693 173.024 58.8797C175.772 58.2998 178.474 57.5182 181.108 56.5411C183.761 55.6033 186.341 54.4705 188.826 53.1518C189.685 52.6803 190.377 51.9549 190.807 51.0751C191.238 50.1952 191.385 49.204 191.229 48.2374Z" fill="#06C92E"/>
<path d="M221.578 34.9985C216.394 32.7841 210.938 31.266 205.355 30.484C204.38 30.3685 203.393 30.5574 202.53 31.0247C201.667 31.492 200.97 32.2148 200.535 33.0937C199.318 35.6411 198.334 38.2933 197.596 41.0178C196.815 43.7296 196.281 46.5066 196.001 49.3147C195.913 50.2947 196.132 51.2779 196.628 52.128C197.125 52.9781 197.873 53.6531 198.77 54.0597C201.345 55.1842 204 56.1177 206.712 56.8524C209.418 57.6167 212.177 58.1809 214.966 58.5403C215.942 58.6619 216.931 58.4756 217.795 58.0076C218.659 57.5396 219.355 56.8133 219.786 55.9305C221.004 53.3837 221.988 50.7314 222.725 48.0064C223.497 45.2983 224.022 42.5258 224.293 39.7231C224.381 38.7524 224.167 37.7782 223.682 36.9329C223.196 36.0876 222.461 35.4122 221.578 34.9985Z" fill="#00C2FC"/>
<path d="M41.1353 100.865C41.1381 101.087 41.0962 101.308 41.0123 101.514C40.9283 101.72 40.8039 101.907 40.6464 102.065C40.4889 102.222 40.3015 102.346 40.0952 102.43C39.8889 102.514 39.6679 102.556 39.4452 102.553H36.6011C36.3781 102.558 36.1564 102.517 35.9498 102.433C35.7432 102.349 35.556 102.224 35.3996 102.065C35.2406 101.909 35.1151 101.722 35.0311 101.515C34.947 101.309 34.9061 101.088 34.9109 100.865V93.5848C34.9061 93.3621 34.947 93.1408 35.0311 92.9345C35.1151 92.7282 35.2406 92.5412 35.3996 92.385C35.556 92.2262 35.7432 92.101 35.9498 92.017C36.1564 91.9331 36.3781 91.8922 36.6011 91.897H37.4903C37.9091 91.3357 38.2536 90.7229 38.5152 90.0736C38.8228 89.3156 39.0746 88.5363 39.2687 87.7418C39.4723 86.9012 39.6488 86.0268 39.7778 85.1252C39.9067 84.2237 40.0086 83.3222 40.0697 82.4138L40.2461 79.7973C40.2673 79.3401 40.4671 78.9093 40.8027 78.5975C40.9638 78.4393 41.1548 78.3147 41.3646 78.2309C41.5743 78.1472 41.7987 78.1059 42.0246 78.1095H54.521C54.7437 78.1067 54.9647 78.1485 55.171 78.2324C55.3773 78.3162 55.5647 78.4405 55.7222 78.5977C55.8797 78.755 56.0041 78.9422 56.0881 79.1482C56.172 79.3542 56.2139 79.5749 56.2112 79.7973V91.897H57.8538C58.0765 91.8943 58.2975 91.936 58.5038 92.0199C58.7101 92.1038 58.8975 92.228 59.055 92.3853C59.2125 92.5425 59.3369 92.7297 59.4209 92.9357C59.5049 93.1417 59.5467 93.3624 59.544 93.5848V100.865C59.5467 101.087 59.5049 101.308 59.4209 101.514C59.3369 101.72 59.2125 101.907 59.055 102.065C58.8975 102.222 58.7101 102.346 58.5038 102.43C58.2975 102.514 58.0765 102.556 57.8538 102.553H55.0097C54.787 102.556 54.566 102.514 54.3597 102.43C54.1534 102.346 53.966 102.222 53.8085 102.065C53.651 101.907 53.5266 101.72 53.4426 101.514C53.3586 101.308 53.3168 101.087 53.3195 100.865V98.1129H41.1014L41.1353 100.865ZM49.5387 84.3457H46.5588L46.4502 85.1456C46.3004 86.5606 46.0186 87.9585 45.6085 89.3211C45.3348 90.2263 44.9446 91.0921 44.4478 91.897H49.5183L49.5387 84.3457Z" fill="white"/>
<path d="M68.2119 90.3447C68.499 91.2451 69.131 91.9956 69.97 92.4325C70.8694 92.8959 71.8701 93.1288 72.882 93.1104C73.5361 93.1154 74.1897 93.0701 74.8369 92.9748C75.4014 92.8864 75.9546 92.7363 76.4863 92.5274C76.7997 92.4133 77.1303 92.3537 77.4638 92.3512C77.7873 92.3316 78.1093 92.4089 78.3887 92.5731C78.668 92.7374 78.8919 92.9811 79.0318 93.2731L79.7106 94.6898C79.8294 94.9396 79.8897 95.2131 79.887 95.4896C79.9011 95.7845 79.8338 96.0776 79.6926 96.337C79.5514 96.5964 79.3416 96.8121 79.0861 96.9606C77.9926 97.5891 76.8091 98.0463 75.5768 98.3163C74.4574 98.523 73.3212 98.6251 72.1828 98.6213C70.654 98.6434 69.1338 98.3885 67.6961 97.8689C66.4254 97.4208 65.2673 96.7027 64.3017 95.7641C63.336 94.8255 62.5858 93.6888 62.1029 92.4325C61.5686 91.061 61.3035 89.5997 61.3223 88.1282C61.3142 86.7346 61.5794 85.3529 62.1029 84.0611C62.6045 82.8141 63.3446 81.6767 64.2818 80.7125C65.2408 79.7275 66.3974 78.956 67.6757 78.4484C69.1022 77.8806 70.627 77.5996 72.1625 77.6215C73.4179 77.6194 74.6629 77.8492 75.8347 78.2993C76.9792 78.7261 78.0285 79.3733 78.9232 80.2041C79.8202 81.0385 80.5484 82.0372 81.0681 83.146C81.6093 84.3614 81.8802 85.6796 81.8623 87.0097C81.8786 87.6896 81.84 88.3696 81.7469 89.0433C81.6692 89.4 81.473 89.7201 81.1903 89.9516C80.9376 90.2107 80.5951 90.3635 80.2332 90.3786L68.2119 90.3447ZM75.1966 85.898C75.1811 85.1866 74.8861 84.5098 74.3753 84.0136C74.0537 83.7092 73.6722 83.4748 73.255 83.3254C72.8378 83.1761 72.3941 83.115 71.952 83.146C71.0404 83.0764 70.1319 83.3151 69.3727 83.8238C68.741 84.3636 68.2711 85.0674 68.0151 85.8574L75.1966 85.898Z" fill="white"/>
<path d="M91.115 98.113C90.8923 98.1158 90.6713 98.074 90.465 97.9901C90.2587 97.9063 90.0713 97.782 89.9138 97.6248C89.7563 97.4675 89.6319 97.2803 89.5479 97.0743C89.4639 96.8683 89.4221 96.6476 89.4248 96.4252V84.7932H85.3521C85.1299 84.7941 84.9097 84.7511 84.7043 84.6666C84.4988 84.5821 84.3121 84.4578 84.155 84.3009C83.9979 84.144 83.8734 83.9575 83.7888 83.7524C83.7041 83.5472 83.661 83.3273 83.6619 83.1054V79.8178C83.661 79.5959 83.7041 79.376 83.7888 79.1708C83.8734 78.9656 83.9979 78.7792 84.155 78.6223C84.3121 78.4654 84.4988 78.3411 84.7043 78.2566C84.9097 78.1721 85.1299 78.1291 85.3521 78.1299H100.184C100.406 78.1272 100.627 78.169 100.834 78.2529C101.04 78.3367 101.227 78.4609 101.385 78.6182C101.542 78.7755 101.667 78.9627 101.751 79.1687C101.835 79.3747 101.876 79.5954 101.874 79.8178V83.1054C101.876 83.3278 101.835 83.5485 101.751 83.7545C101.667 83.9605 101.542 84.1477 101.385 84.305C101.227 84.4622 101.04 84.5865 100.834 84.6703C100.627 84.7542 100.406 84.796 100.184 84.7932H96.1109V96.4252C96.1136 96.6476 96.0717 96.8683 95.9878 97.0743C95.9038 97.2803 95.7794 97.4675 95.6219 97.6248C95.4644 97.782 95.277 97.9063 95.0707 97.9901C94.8644 98.074 94.6434 98.1158 94.4207 98.113H91.115Z" fill="white"/>
<path d="M118.063 84.6105C117.119 84.1149 116.074 83.8435 115.008 83.8175C114.476 83.8178 113.949 83.9071 113.447 84.0818C112.945 84.2637 112.484 84.5424 112.089 84.902C111.668 85.2819 111.329 85.7431 111.091 86.2577C110.828 86.8431 110.698 87.48 110.711 88.1218C110.701 88.7524 110.839 89.3767 111.112 89.9452C111.365 90.4573 111.713 90.9172 112.137 91.3009C112.546 91.6678 113.02 91.9552 113.535 92.1483C114.041 92.3355 114.577 92.4318 115.117 92.433C116.225 92.4108 117.304 92.0721 118.225 91.4568C118.59 91.1978 119.027 91.0581 119.474 91.0569C119.742 91.0569 120.005 91.1217 120.241 91.2457C120.478 91.3697 120.68 91.5491 120.832 91.7687L122.19 93.5921C122.42 93.899 122.544 94.2727 122.543 94.6563C122.552 94.9306 122.496 95.2032 122.377 95.4509C122.259 95.6987 122.083 95.9144 121.864 96.0798C120.756 97.0191 119.47 97.7268 118.083 98.1608C116.979 98.4749 115.837 98.6391 114.689 98.6489C113.123 98.6695 111.565 98.4148 110.087 97.8964C108.78 97.4375 107.583 96.7128 106.571 95.768C105.593 94.8327 104.833 93.6941 104.344 92.433C103.81 91.0615 103.545 89.6001 103.564 88.1286C103.555 86.7369 103.814 85.3565 104.324 84.0615C104.813 82.8147 105.545 81.6767 106.476 80.7129C107.429 79.7369 108.573 78.9664 109.836 78.4489C111.202 77.8866 112.668 77.6053 114.146 77.6219C115.357 77.6101 116.566 77.7305 117.75 77.9811C118.963 78.2783 120.113 78.7902 121.144 79.4928C121.431 79.6411 121.673 79.8632 121.844 80.1361C122.016 80.409 122.112 80.7228 122.122 81.045C122.121 81.3455 122.028 81.6386 121.857 81.8856L120.567 84.0208C120.421 84.2936 120.203 84.5208 119.936 84.6775C119.668 84.8341 119.363 84.9142 119.054 84.9088C118.701 84.9085 118.357 84.8048 118.063 84.6105Z" fill="white"/>
<path d="M133.002 88.5625V96.4256C133.005 96.648 132.963 96.8687 132.879 97.0747C132.795 97.2808 132.671 97.4679 132.513 97.6252C132.356 97.7825 132.168 97.9067 131.962 97.9905C131.756 98.0744 131.535 98.1162 131.312 98.1135H128.02C127.797 98.1162 127.576 98.0744 127.37 97.9905C127.164 97.9067 126.976 97.7825 126.819 97.6252C126.661 97.4679 126.537 97.2808 126.453 97.0747C126.369 96.8687 126.327 96.648 126.33 96.4256V79.8182C126.327 79.5958 126.369 79.3751 126.453 79.1691C126.537 78.9631 126.661 78.776 126.819 78.6187C126.976 78.4614 127.164 78.3372 127.37 78.2533C127.576 78.1695 127.797 78.1277 128.02 78.1304H131.298C131.521 78.1277 131.742 78.1695 131.948 78.2533C132.155 78.3372 132.342 78.4614 132.5 78.6187C132.657 78.776 132.782 78.9631 132.866 79.1691C132.949 79.3751 132.991 79.5958 132.989 79.8182V86.834L138.147 79.2421C138.389 78.9126 138.699 78.6396 139.057 78.4422C139.416 78.2361 139.824 78.1285 140.238 78.1304H143.347C143.581 78.1241 143.815 78.1688 144.03 78.2612C144.246 78.3537 144.439 78.4917 144.596 78.6659C144.894 78.9556 145.074 79.3456 145.1 79.7603C145.127 80.175 144.998 80.5846 144.738 80.9096L140.028 87.1255L142.207 90.1013C142.765 90.9945 143.613 91.6693 144.609 92.0128C145.126 92.0768 145.606 92.3161 145.967 92.6907C146.227 93.1327 146.343 93.6442 146.3 94.1548V96.8662C146.297 97.2296 146.156 97.5784 145.906 97.8423C145.664 98.1224 145.333 98.3113 144.969 98.3778L144.29 98.4388C144.08 98.4388 143.856 98.4388 143.612 98.4388C143.053 98.4347 142.496 98.3757 141.949 98.2626C141.34 98.1188 140.756 97.8906 140.211 97.5847C139.576 97.2282 138.993 96.7856 138.48 96.2697C137.823 95.6136 137.236 94.8912 136.729 94.1141L133.002 88.5625Z" fill="white"/>
<path d="M165.551 98.113C165.33 98.113 165.111 98.0692 164.907 97.9842C164.703 97.8991 164.518 97.7744 164.363 97.6174C164.207 97.4604 164.085 97.2742 164.002 97.0695C163.919 96.8649 163.878 96.6458 163.881 96.4252V87.6876L157.5 97.0013C157.278 97.3156 156.999 97.5867 156.679 97.8012C156.357 98.0135 155.978 98.1223 155.593 98.113H151.765C151.542 98.1157 151.321 98.0739 151.115 97.9901C150.908 97.9062 150.721 97.782 150.563 97.6247C150.406 97.4675 150.282 97.2803 150.198 97.0743C150.114 96.8683 150.072 96.6476 150.074 96.4252V79.8178C150.072 79.5954 150.114 79.3747 150.198 79.1687C150.282 78.9626 150.406 78.7755 150.563 78.6182C150.721 78.4609 150.908 78.3367 151.115 78.2529C151.321 78.169 151.542 78.1272 151.765 78.1299H155.057C155.279 78.1272 155.5 78.169 155.707 78.2529C155.913 78.3367 156.1 78.4609 156.258 78.6182C156.415 78.7755 156.54 78.9626 156.624 79.1687C156.708 79.3747 156.75 79.5954 156.747 79.8178V88.5621L163.107 79.2416C163.32 78.9349 163.581 78.6647 163.881 78.4417C164.194 78.2269 164.567 78.1176 164.947 78.1299H168.816C169.039 78.1264 169.26 78.1678 169.466 78.2516C169.673 78.3355 169.86 78.4601 170.017 78.618C170.176 78.7741 170.302 78.9611 170.386 79.1675C170.47 79.3738 170.511 79.5951 170.506 79.8178V96.4252C170.511 96.6479 170.47 96.8692 170.386 97.0755C170.302 97.2818 170.176 97.4688 170.017 97.625C169.86 97.7829 169.673 97.9075 169.466 97.9913C169.26 98.0752 169.039 98.1166 168.816 98.113H165.551Z" fill="white"/>
<path d="M190.896 98.1132C190.673 98.1159 190.452 98.0741 190.246 97.9903C190.04 97.9064 189.852 97.7822 189.695 97.6249C189.537 97.4676 189.413 97.2805 189.329 97.0744C189.245 96.8684 189.203 96.6477 189.206 96.4253V87.6878L182.846 97.0151C182.623 97.3293 182.345 97.6004 182.024 97.8149C181.701 98.0281 181.319 98.137 180.932 98.1267H177.11C176.886 98.1295 176.664 98.0873 176.457 98.0026C176.25 97.9179 176.062 97.7925 175.904 97.6337C175.746 97.475 175.622 97.2862 175.539 97.0786C175.456 96.871 175.415 96.6489 175.42 96.4253V79.8179C175.417 79.5955 175.459 79.3748 175.543 79.1688C175.627 78.9628 175.751 78.7756 175.909 78.6184C176.066 78.4611 176.254 78.3369 176.46 78.253C176.666 78.1691 176.887 78.1274 177.11 78.1301H180.402C180.625 78.1274 180.846 78.1691 181.052 78.253C181.258 78.3369 181.446 78.4611 181.603 78.6184C181.761 78.7756 181.885 78.9628 181.969 79.1688C182.053 79.3748 182.095 79.5955 182.092 79.8179V88.5622L188.453 79.2418C188.671 78.9328 188.939 78.6624 189.247 78.4419C189.572 78.2204 189.96 78.1109 190.353 78.1301H194.222C194.444 78.1283 194.665 78.1707 194.87 78.255C195.076 78.3393 195.262 78.4636 195.419 78.6208C195.576 78.778 195.7 78.9648 195.783 79.1704C195.867 79.376 195.908 79.5961 195.906 79.8179V96.4253C195.908 96.6472 195.867 96.8673 195.783 97.0729C195.7 97.2784 195.576 97.4653 195.419 97.6224C195.262 97.7796 195.076 97.904 194.87 97.9883C194.665 98.0725 194.444 98.115 194.222 98.1132H190.896ZM189.919 69.3858C190.292 69.3577 190.668 69.4103 191.019 69.5402C191.371 69.67 191.69 69.874 191.955 70.1382C192.422 70.6787 192.665 71.377 192.634 72.0904C192.62 72.6841 192.456 73.2645 192.157 73.7777C191.858 74.2909 191.433 74.7202 190.923 75.0255C189.783 75.8163 188.086 76.214 185.832 76.2185C183.339 76.2185 181.554 75.8209 180.477 75.0255C179.985 74.7089 179.579 74.276 179.295 73.7652C179.011 73.2544 178.857 72.6815 178.848 72.0972C178.818 71.3841 179.061 70.6865 179.527 70.145C179.784 69.88 180.097 69.6747 180.443 69.5435C180.789 69.4124 181.16 69.3585 181.529 69.3858C182.131 69.3345 182.732 69.5031 183.219 69.8603C183.578 70.1842 183.839 70.6022 183.973 71.0669C184.102 71.4402 184.316 71.7788 184.597 72.0565C184.768 72.2006 184.966 72.3094 185.179 72.3769C185.392 72.4444 185.616 72.4691 185.839 72.4497C186.042 72.4674 186.247 72.4414 186.439 72.3736C186.631 72.3058 186.806 72.1977 186.952 72.0565C187.207 71.7671 187.403 71.4309 187.529 71.0669C187.663 70.6022 187.924 70.1842 188.283 69.8603C188.752 69.5091 189.334 69.3404 189.919 69.3858Z" fill="white"/>
<path d="M216.33 96.4253C216.333 96.6477 216.291 96.8685 216.207 97.0745C216.123 97.2805 215.999 97.4676 215.841 97.6249C215.684 97.7822 215.496 97.9064 215.29 97.9903C215.084 98.0741 214.863 98.1159 214.64 98.1132H211.348C211.125 98.1159 210.904 98.0741 210.698 97.9903C210.492 97.9064 210.304 97.7822 210.147 97.6249C209.989 97.4676 209.865 97.2805 209.781 97.0745C209.697 96.8685 209.655 96.6477 209.658 96.4253V79.818C209.655 79.5956 209.697 79.3748 209.781 79.1688C209.865 78.9628 209.989 78.7757 210.147 78.6184C210.304 78.4611 210.492 78.3369 210.698 78.253C210.904 78.1692 211.125 78.1274 211.348 78.1301H214.504C214.899 78.1375 215.287 78.2333 215.639 78.4105C215.992 78.5876 216.3 78.8416 216.541 79.1537L221.659 84.9222L226.37 79.1943C226.619 78.8869 226.919 78.6254 227.259 78.4216C227.594 78.2246 227.977 78.1237 228.365 78.1301H231.345C231.568 78.1274 231.789 78.1692 231.995 78.253C232.201 78.3369 232.389 78.4611 232.546 78.6184C232.704 78.7757 232.828 78.9628 232.912 79.1688C232.996 79.3748 233.038 79.5956 233.035 79.818V96.4253C233.038 96.6477 232.996 96.8685 232.912 97.0745C232.828 97.2805 232.704 97.4676 232.546 97.6249C232.389 97.7822 232.201 97.9064 231.995 97.9903C231.789 98.0741 231.568 98.1159 231.345 98.1132H228.053C227.83 98.1159 227.609 98.0741 227.403 97.9903C227.197 97.9064 227.009 97.7822 226.852 97.6249C226.694 97.4676 226.57 97.2805 226.486 97.0745C226.402 96.8685 226.36 96.6477 226.363 96.4253V88.2911L222.582 92.5548C222.44 92.722 222.263 92.8564 222.064 92.9489C221.865 93.0413 221.648 93.0896 221.428 93.0903C221.212 93.0918 220.999 93.0492 220.801 92.9653C220.602 92.8814 220.423 92.7578 220.274 92.6023L216.317 88.2911L216.33 96.4253Z" fill="white"/>
<path d="M253.412 98.113C253.189 98.1157 252.968 98.0739 252.762 97.9901C252.556 97.9062 252.368 97.782 252.211 97.6247C252.053 97.4675 251.929 97.2803 251.845 97.0743C251.761 96.8683 251.719 96.6476 251.722 96.4252V87.6876L245.334 97.0013C245.112 97.3156 244.833 97.5867 244.513 97.8012C244.192 98.0135 243.813 98.1223 243.427 98.113H239.599C239.376 98.1157 239.155 98.0739 238.949 97.9901C238.742 97.9062 238.555 97.782 238.398 97.6247C238.24 97.4675 238.116 97.2803 238.032 97.0743C237.948 96.8683 237.906 96.6476 237.909 96.4252V79.8178C237.906 79.5954 237.948 79.3747 238.032 79.1687C238.116 78.9626 238.24 78.7755 238.398 78.6182C238.555 78.4609 238.742 78.3367 238.949 78.2529C239.155 78.169 239.376 78.1272 239.599 78.1299H242.891C243.114 78.1272 243.335 78.169 243.541 78.2529C243.747 78.3367 243.935 78.4609 244.092 78.6182C244.25 78.7755 244.374 78.9626 244.458 79.1687C244.542 79.3747 244.584 79.5954 244.581 79.8178V88.5621L250.941 79.2416C251.162 78.9327 251.433 78.6625 251.742 78.4417C252.055 78.2269 252.428 78.1176 252.808 78.1299H256.677C256.9 78.1272 257.121 78.169 257.327 78.2529C257.533 78.3367 257.721 78.4609 257.878 78.6182C258.036 78.7755 258.16 78.9626 258.244 79.1687C258.328 79.3747 258.37 79.5954 258.367 79.8178V96.4252C258.37 96.6476 258.328 96.8683 258.244 97.0743C258.16 97.2803 258.036 97.4675 257.878 97.6247C257.721 97.782 257.533 97.9062 257.327 97.9901C257.121 98.0739 256.9 98.1157 256.677 98.113H253.412Z" fill="white"/>
<path d="M269.954 105.312C269.957 105.534 269.915 105.755 269.831 105.961C269.747 106.167 269.623 106.354 269.465 106.512C269.308 106.669 269.12 106.793 268.914 106.877C268.708 106.961 268.487 107.003 268.264 107H264.972C264.749 107.003 264.528 106.961 264.322 106.877C264.116 106.793 263.928 106.669 263.771 106.512C263.613 106.354 263.489 106.167 263.405 105.961C263.321 105.755 263.279 105.534 263.282 105.312V79.8181C263.279 79.5957 263.321 79.375 263.405 79.1689C263.489 78.9629 263.613 78.7758 263.771 78.6185C263.928 78.4612 264.116 78.337 264.322 78.2531C264.528 78.1693 264.749 78.1275 264.972 78.1302H268.488C268.682 78.1265 268.874 78.1619 269.054 78.2342C269.233 78.3064 269.396 78.4142 269.533 78.5509C269.67 78.6876 269.778 78.8504 269.85 79.0297C269.923 79.209 269.958 79.4011 269.954 79.5944C270.621 78.9988 271.389 78.5261 272.221 78.198C273.267 77.7785 274.387 77.5733 275.513 77.5947C276.776 77.5831 278.026 77.842 279.179 78.3539C280.264 78.8429 281.225 79.5705 281.989 80.4824C282.781 81.4441 283.391 82.5421 283.788 83.7225C284.229 85.0327 284.447 86.4074 284.433 87.7896C284.444 89.24 284.181 90.6795 283.659 92.033C283.162 93.3082 282.422 94.4753 281.48 95.4697C280.52 96.4651 279.365 97.252 278.086 97.7812C276.683 98.3581 275.177 98.6441 273.66 98.6217C272.979 98.6238 272.298 98.5739 271.624 98.4726C271.037 98.3858 270.463 98.2288 269.914 98.0048L269.954 105.312ZM269.954 91.6805C270.388 91.9482 270.859 92.1493 271.353 92.277C271.915 92.3964 272.489 92.4487 273.063 92.4329C273.666 92.482 274.271 92.3892 274.831 92.162C275.391 91.9348 275.89 91.5795 276.287 91.1246C276.995 90.2212 277.365 89.0991 277.333 87.9523C277.364 86.886 277.01 85.8441 276.335 85.0172C275.972 84.611 275.521 84.2925 275.016 84.0858C274.512 83.8791 273.967 83.7897 273.423 83.8242C272.75 83.8505 272.091 84.0231 271.492 84.3298C270.893 84.6366 270.368 85.0701 269.954 85.6001V91.6805Z" fill="white"/>
<path d="M37.4844 149.977C38 149.977 38.4505 149.82 38.8359 149.508C39.2214 149.195 39.4349 148.805 39.4766 148.336H40.8438C40.8177 148.82 40.651 149.281 40.3438 149.719C40.0365 150.156 39.625 150.505 39.1094 150.766C38.599 151.026 38.0573 151.156 37.4844 151.156C36.3333 151.156 35.4167 150.773 34.7344 150.008C34.0573 149.237 33.7188 148.185 33.7188 146.852V146.609C33.7188 145.786 33.8698 145.055 34.1719 144.414C34.474 143.773 34.9062 143.276 35.4688 142.922C36.0365 142.568 36.7057 142.391 37.4766 142.391C38.4245 142.391 39.2109 142.674 39.8359 143.242C40.4661 143.81 40.8021 144.547 40.8438 145.453H39.4766C39.4349 144.906 39.2266 144.458 38.8516 144.109C38.4818 143.755 38.0234 143.578 37.4766 143.578C36.7422 143.578 36.1719 143.844 35.7656 144.375C35.3646 144.901 35.1641 145.664 35.1641 146.664V146.938C35.1641 147.911 35.3646 148.661 35.7656 149.188C36.1667 149.714 36.7396 149.977 37.4844 149.977ZM51.6791 151H50.2259V141.367L47.3119 142.438V141.125L51.4525 139.57H51.6791V151ZM66.1394 142.547H67.5847V151H66.1394V144.836L62.2409 151H60.7956V142.547H62.2409V148.719L66.1394 142.547ZM71.8031 146.133H73.8344C73.9437 145.008 74.3422 144.104 75.0297 143.422C75.7224 142.734 76.5948 142.391 77.6469 142.391C78.751 142.391 79.6547 142.763 80.3578 143.508C81.0609 144.253 81.4411 145.221 81.4984 146.414L81.5062 146.867C81.5062 147.69 81.3448 148.432 81.0219 149.094C80.699 149.755 80.2458 150.266 79.6625 150.625C79.0792 150.979 78.4125 151.156 77.6625 151.156C76.574 151.156 75.6833 150.802 74.9906 150.094C74.2979 149.38 73.9099 148.456 73.8266 147.32H71.8031V151H70.3578V142.547H71.8031V146.133ZM75.2562 146.867C75.2562 147.805 75.4724 148.557 75.9047 149.125C76.3422 149.693 76.9281 149.977 77.6625 149.977C78.3969 149.977 78.9776 149.688 79.4047 149.109C79.837 148.531 80.0531 147.727 80.0531 146.695C80.0531 145.773 79.8344 145.023 79.3969 144.445C78.9594 143.867 78.376 143.578 77.6469 143.578C76.9281 143.578 76.35 143.862 75.9125 144.43C75.475 144.997 75.2562 145.81 75.2562 146.867ZM90.5137 151H89.0684V147.391H85.1856V151H83.7325V142.547H85.1856V146.211H89.0684V142.547H90.5137V151ZM99.6228 142.547V151H98.1697V147.711H95.99L93.9978 151H92.4353L94.5603 147.492C94.0186 147.294 93.602 146.99 93.3103 146.578C93.0239 146.161 92.8806 145.677 92.8806 145.125C92.8806 144.354 93.1697 143.734 93.7478 143.266C94.3259 142.792 95.0994 142.552 96.0681 142.547H99.6228ZM94.3338 145.141C94.3338 145.552 94.4744 145.885 94.7556 146.141C95.0369 146.391 95.4093 146.518 95.8728 146.523H98.1697V143.719H96.0916C95.5551 143.719 95.128 143.852 94.8103 144.117C94.4926 144.378 94.3338 144.719 94.3338 145.141ZM113.466 151H112.021V143.742H108.13V151H106.677V142.547H113.466V151ZM115.723 146.695C115.723 145.867 115.885 145.122 116.208 144.461C116.536 143.799 116.989 143.289 117.567 142.93C118.151 142.57 118.815 142.391 119.559 142.391C120.71 142.391 121.64 142.789 122.348 143.586C123.062 144.383 123.419 145.443 123.419 146.766V146.867C123.419 147.69 123.26 148.43 122.942 149.086C122.63 149.737 122.179 150.245 121.591 150.609C121.007 150.974 120.335 151.156 119.575 151.156C118.429 151.156 117.499 150.758 116.786 149.961C116.078 149.164 115.723 148.109 115.723 146.797V146.695ZM117.177 146.867C117.177 147.805 117.393 148.557 117.825 149.125C118.262 149.693 118.846 149.977 119.575 149.977C120.309 149.977 120.893 149.69 121.325 149.117C121.757 148.539 121.973 147.732 121.973 146.695C121.973 145.768 121.752 145.018 121.309 144.445C120.872 143.867 120.289 143.578 119.559 143.578C118.846 143.578 118.27 143.862 117.833 144.43C117.395 144.997 117.177 145.81 117.177 146.867ZM137.035 140.438L132.324 151H130.809L135.504 140.812H129.348V139.625H137.035V140.438ZM148.902 142.547H150.347V151H148.902V144.836L145.003 151H143.558V142.547H145.003V148.719L148.902 142.547ZM154.566 146.133H156.597C156.706 145.008 157.105 144.104 157.792 143.422C158.485 142.734 159.357 142.391 160.409 142.391C161.514 142.391 162.417 142.763 163.12 143.508C163.823 144.253 164.204 145.221 164.261 146.414L164.269 146.867C164.269 147.69 164.107 148.432 163.784 149.094C163.461 149.755 163.008 150.266 162.425 150.625C161.842 150.979 161.175 151.156 160.425 151.156C159.336 151.156 158.446 150.802 157.753 150.094C157.06 149.38 156.672 148.456 156.589 147.32H154.566V151H153.12V142.547H154.566V146.133ZM158.019 146.867C158.019 147.805 158.235 148.557 158.667 149.125C159.105 149.693 159.691 149.977 160.425 149.977C161.159 149.977 161.74 149.688 162.167 149.109C162.599 148.531 162.816 147.727 162.816 146.695C162.816 145.773 162.597 145.023 162.159 144.445C161.722 143.867 161.139 143.578 160.409 143.578C159.691 143.578 159.113 143.862 158.675 144.43C158.238 144.997 158.019 145.81 158.019 146.867ZM173.19 142.547V151H171.737V143.742H168.862L168.69 146.906C168.597 148.359 168.352 149.398 167.956 150.023C167.565 150.648 166.943 150.974 166.089 151H165.511V149.727L165.925 149.695C166.393 149.643 166.729 149.372 166.932 148.883C167.136 148.393 167.266 147.487 167.323 146.164L167.479 142.547H173.19ZM182.292 142.547V151H180.838V147.711H178.659L176.667 151H175.104L177.229 147.492C176.687 147.294 176.271 146.99 175.979 146.578C175.693 146.161 175.549 145.677 175.549 145.125C175.549 144.354 175.838 143.734 176.417 143.266C176.995 142.792 177.768 142.552 178.737 142.547H182.292ZM177.003 145.141C177.003 145.552 177.143 145.885 177.424 146.141C177.706 146.391 178.078 146.518 178.542 146.523H180.838V143.719H178.76C178.224 143.719 177.797 143.852 177.479 144.117C177.161 144.378 177.003 144.719 177.003 145.141ZM196.525 151H189.072V149.961L193.01 145.586C193.593 144.924 193.994 144.388 194.213 143.977C194.437 143.56 194.549 143.13 194.549 142.688C194.549 142.094 194.369 141.607 194.01 141.227C193.65 140.846 193.171 140.656 192.572 140.656C191.853 140.656 191.294 140.862 190.893 141.273C190.497 141.68 190.299 142.247 190.299 142.977H188.853C188.853 141.93 189.189 141.083 189.861 140.438C190.538 139.792 191.442 139.469 192.572 139.469C193.629 139.469 194.465 139.747 195.08 140.305C195.695 140.857 196.002 141.594 196.002 142.516C196.002 143.635 195.288 144.969 193.861 146.516L190.814 149.82H196.525V151ZM205.509 146.148C205.509 147.841 205.22 149.099 204.642 149.922C204.064 150.745 203.16 151.156 201.931 151.156C200.718 151.156 199.819 150.755 199.236 149.953C198.653 149.146 198.351 147.943 198.33 146.344V144.414C198.33 142.742 198.619 141.5 199.197 140.688C199.775 139.875 200.681 139.469 201.916 139.469C203.14 139.469 204.041 139.862 204.619 140.648C205.197 141.43 205.494 142.638 205.509 144.273V146.148ZM204.064 144.172C204.064 142.948 203.892 142.057 203.548 141.5C203.205 140.938 202.66 140.656 201.916 140.656C201.176 140.656 200.637 140.935 200.298 141.492C199.96 142.049 199.785 142.906 199.775 144.062V146.375C199.775 147.604 199.952 148.513 200.306 149.102C200.666 149.685 201.207 149.977 201.931 149.977C202.645 149.977 203.173 149.701 203.517 149.148C203.866 148.596 204.048 147.727 204.064 146.539V144.172ZM215.134 151H207.681V149.961L211.618 145.586C212.202 144.924 212.603 144.388 212.822 143.977C213.046 143.56 213.158 143.13 213.158 142.688C213.158 142.094 212.978 141.607 212.618 141.227C212.259 140.846 211.78 140.656 211.181 140.656C210.462 140.656 209.902 140.862 209.501 141.273C209.105 141.68 208.908 142.247 208.908 142.977H207.462C207.462 141.93 207.798 141.083 208.47 140.438C209.147 139.792 210.051 139.469 211.181 139.469C212.238 139.469 213.074 139.747 213.689 140.305C214.303 140.857 214.611 141.594 214.611 142.516C214.611 143.635 213.897 144.969 212.47 146.516L209.423 149.82H215.134V151ZM224.118 146.148C224.118 147.841 223.829 149.099 223.251 149.922C222.673 150.745 221.769 151.156 220.54 151.156C219.326 151.156 218.428 150.755 217.845 149.953C217.261 149.146 216.959 147.943 216.938 146.344V144.414C216.938 142.742 217.227 141.5 217.806 140.688C218.384 139.875 219.29 139.469 220.524 139.469C221.748 139.469 222.649 139.862 223.227 140.648C223.806 141.43 224.102 142.638 224.118 144.273V146.148ZM222.673 144.172C222.673 142.948 222.501 142.057 222.157 141.5C221.813 140.938 221.269 140.656 220.524 140.656C219.785 140.656 219.246 140.935 218.907 141.492C218.569 142.049 218.394 142.906 218.384 144.062V146.375C218.384 147.604 218.561 148.513 218.915 149.102C219.274 149.685 219.816 149.977 220.54 149.977C221.254 149.977 221.782 149.701 222.126 149.148C222.475 148.596 222.657 147.727 222.673 146.539V144.172ZM41.0078 170H39.5625V162.742H35.6719V170H34.2188V161.547H41.0078V170ZM50.7887 165.867C50.7887 167.154 50.4945 168.19 49.9059 168.977C49.3174 169.763 48.5205 170.156 47.5153 170.156C46.4893 170.156 45.682 169.831 45.0934 169.18V173.25H43.6481V161.547H44.9684L45.0387 162.484C45.6273 161.755 46.445 161.391 47.4919 161.391C48.5075 161.391 49.3096 161.773 49.8981 162.539C50.4919 163.305 50.7887 164.37 50.7887 165.734V165.867ZM49.3434 165.703C49.3434 164.75 49.1403 163.997 48.7341 163.445C48.3278 162.893 47.7705 162.617 47.0622 162.617C46.1872 162.617 45.5309 163.005 45.0934 163.781V167.82C45.5257 168.591 46.1872 168.977 47.0778 168.977C47.7705 168.977 48.32 168.703 48.7262 168.156C49.1377 167.604 49.3434 166.786 49.3434 165.703ZM58.4212 161.547H59.8666V170H58.4212V163.836L54.5228 170H53.0775V161.547H54.5228V167.719L58.4212 161.547ZM73.7097 170H72.2644V162.742H68.3737V170H66.9206V161.547H73.7097V170ZM75.9672 165.695C75.9672 164.867 76.1286 164.122 76.4516 163.461C76.7797 162.799 77.2328 162.289 77.8109 161.93C78.3943 161.57 79.0583 161.391 79.8031 161.391C80.9542 161.391 81.8839 161.789 82.5922 162.586C83.3057 163.383 83.6625 164.443 83.6625 165.766V165.867C83.6625 166.69 83.5036 167.43 83.1859 168.086C82.8734 168.737 82.4229 169.245 81.8344 169.609C81.251 169.974 80.5792 170.156 79.8187 170.156C78.6729 170.156 77.7432 169.758 77.0297 168.961C76.3214 168.164 75.9672 167.109 75.9672 165.797V165.695ZM77.4203 165.867C77.4203 166.805 77.6365 167.557 78.0687 168.125C78.5062 168.693 79.0896 168.977 79.8187 168.977C80.5531 168.977 81.1365 168.69 81.5687 168.117C82.001 167.539 82.2172 166.732 82.2172 165.695C82.2172 164.768 81.9958 164.018 81.5531 163.445C81.1156 162.867 80.5323 162.578 79.8031 162.578C79.0896 162.578 78.5141 162.862 78.0766 163.43C77.6391 163.997 77.4203 164.81 77.4203 165.867ZM88.4278 166.398H87.3731V170H85.92V161.547H87.3731V165.125H88.3184L91.1622 161.547H92.9122L89.5684 165.609L93.1934 170H91.3575L88.4278 166.398ZM97.5213 167.883L99.49 161.547H101.037L97.6384 171.305C97.1124 172.711 96.2765 173.414 95.1306 173.414L94.8572 173.391L94.3181 173.289V172.117L94.7088 172.148C95.1983 172.148 95.5785 172.049 95.8494 171.852C96.1254 171.654 96.352 171.292 96.5291 170.766L96.8494 169.906L93.8338 161.547H95.4119L97.5213 167.883ZM109.568 170H108.122V162.742H104.232V170H102.779V161.547H109.568V170ZM114.841 166.398H113.786V170H112.333V161.547H113.786V165.125H114.732L117.575 161.547H119.325L115.982 165.609L119.607 170H117.771L114.841 166.398ZM124.552 170.156C123.406 170.156 122.473 169.781 121.755 169.031C121.036 168.276 120.677 167.268 120.677 166.008V165.742C120.677 164.904 120.835 164.156 121.153 163.5C121.476 162.839 121.924 162.323 122.497 161.953C123.075 161.578 123.7 161.391 124.372 161.391C125.471 161.391 126.325 161.753 126.934 162.477C127.544 163.201 127.848 164.237 127.848 165.586V166.188H122.122C122.143 167.021 122.385 167.695 122.848 168.211C123.317 168.721 123.911 168.977 124.63 168.977C125.14 168.977 125.572 168.872 125.927 168.664C126.281 168.456 126.591 168.18 126.856 167.836L127.739 168.523C127.031 169.612 125.968 170.156 124.552 170.156ZM124.372 162.578C123.789 162.578 123.299 162.792 122.903 163.219C122.507 163.641 122.262 164.234 122.169 165H126.403V164.891C126.361 164.156 126.164 163.589 125.809 163.188C125.455 162.781 124.976 162.578 124.372 162.578ZM141.051 170H139.606V162.742H135.715V170H134.262V161.547H141.051V170ZM143.308 165.695C143.308 164.867 143.47 164.122 143.793 163.461C144.121 162.799 144.574 162.289 145.152 161.93C145.736 161.57 146.4 161.391 147.144 161.391C148.295 161.391 149.225 161.789 149.933 162.586C150.647 163.383 151.004 164.443 151.004 165.766V165.867C151.004 166.69 150.845 167.43 150.527 168.086C150.215 168.737 149.764 169.245 149.176 169.609C148.592 169.974 147.92 170.156 147.16 170.156C146.014 170.156 145.084 169.758 144.371 168.961C143.663 168.164 143.308 167.109 143.308 165.797V165.695ZM144.762 165.867C144.762 166.805 144.978 167.557 145.41 168.125C145.848 168.693 146.431 168.977 147.16 168.977C147.894 168.977 148.478 168.69 148.91 168.117C149.342 167.539 149.558 166.732 149.558 165.695C149.558 164.768 149.337 164.018 148.894 163.445C148.457 162.867 147.874 162.578 147.144 162.578C146.431 162.578 145.855 162.862 145.418 163.43C144.98 163.997 144.762 164.81 144.762 165.867ZM152.503 168.82L153.003 168.203C153.566 167.474 153.886 166.38 153.964 164.922L154.097 161.547H159.543V168.82H160.628V172.484H159.183V170H153.285V172.484H151.839L151.847 168.82H152.503ZM154.214 168.82H158.097V162.883H155.496L155.41 164.898C155.321 166.581 154.923 167.888 154.214 168.82ZM168.011 162.742H164.113V170H162.659V161.547H168.011V162.742ZM172.354 167.883L174.323 161.547H175.87L172.472 171.305C171.946 172.711 171.11 173.414 169.964 173.414L169.69 173.391L169.151 173.289V172.117L169.542 172.148C170.031 172.148 170.412 172.049 170.682 171.852C170.959 171.654 171.185 171.292 171.362 170.766L171.682 169.906L168.667 161.547H170.245L172.354 167.883ZM182.135 163.859C182.135 163.464 181.984 163.151 181.682 162.922C181.38 162.688 180.966 162.57 180.44 162.57C179.93 162.57 179.503 162.703 179.159 162.969C178.82 163.234 178.651 163.547 178.651 163.906H177.213C177.213 163.172 177.521 162.57 178.135 162.102C178.75 161.633 179.518 161.398 180.44 161.398C181.43 161.398 182.2 161.612 182.753 162.039C183.305 162.461 183.581 163.065 183.581 163.852C183.581 164.232 183.466 164.581 183.237 164.898C183.008 165.216 182.682 165.469 182.26 165.656C183.245 165.99 183.737 166.646 183.737 167.625C183.737 168.401 183.437 169.016 182.838 169.469C182.239 169.922 181.44 170.148 180.44 170.148C179.466 170.148 178.661 169.911 178.026 169.438C177.396 168.958 177.081 168.312 177.081 167.5H178.518C178.518 167.911 178.7 168.266 179.065 168.562C179.435 168.854 179.893 169 180.44 169C180.992 169 181.437 168.872 181.776 168.617C182.114 168.362 182.284 168.031 182.284 167.625C182.284 167.151 182.141 166.812 181.854 166.609C181.573 166.401 181.133 166.297 180.534 166.297H179.088V165.078H180.659C181.643 165.052 182.135 164.646 182.135 163.859ZM192.838 170H191.393V166.391H187.51V170H186.057V161.547H187.51V165.211H191.393V161.547H192.838V170ZM200.955 161.547H202.4V170H200.955V163.836L197.057 170H195.611V161.547H197.057V167.719L200.955 161.547ZM207.673 166.398H206.619V170H205.166V161.547H206.619V165.125H207.564L210.408 161.547H212.158L208.814 165.609L212.439 170H210.603L207.673 166.398ZM213.447 165.695C213.447 164.867 213.608 164.122 213.931 163.461C214.259 162.799 214.712 162.289 215.29 161.93C215.874 161.57 216.538 161.391 217.283 161.391C218.434 161.391 219.363 161.789 220.072 162.586C220.785 163.383 221.142 164.443 221.142 165.766V165.867C221.142 166.69 220.983 167.43 220.665 168.086C220.353 168.737 219.902 169.245 219.314 169.609C218.73 169.974 218.059 170.156 217.298 170.156C216.152 170.156 215.223 169.758 214.509 168.961C213.801 168.164 213.447 167.109 213.447 165.797V165.695ZM214.9 165.867C214.9 166.805 215.116 167.557 215.548 168.125C215.986 168.693 216.569 168.977 217.298 168.977C218.033 168.977 218.616 168.69 219.048 168.117C219.48 167.539 219.697 166.732 219.697 165.695C219.697 164.768 219.475 164.018 219.033 163.445C218.595 162.867 218.012 162.578 217.283 162.578C216.569 162.578 215.993 162.862 215.556 163.43C215.118 163.997 214.9 164.81 214.9 165.867ZM223.407 170V161.547H226.704C227.829 161.547 228.691 161.745 229.29 162.141C229.894 162.531 230.196 163.107 230.196 163.867C230.196 164.258 230.079 164.612 229.845 164.93C229.61 165.242 229.264 165.482 228.806 165.648C229.316 165.768 229.725 166.003 230.032 166.352C230.345 166.701 230.501 167.117 230.501 167.602C230.501 168.378 230.214 168.971 229.642 169.383C229.074 169.794 228.269 170 227.227 170H223.407ZM224.852 166.289V168.836H227.243C227.847 168.836 228.298 168.724 228.595 168.5C228.897 168.276 229.048 167.961 229.048 167.555C229.048 166.711 228.428 166.289 227.188 166.289H224.852ZM224.852 165.133H226.72C228.074 165.133 228.751 164.737 228.751 163.945C228.751 163.154 228.11 162.745 226.829 162.719H224.852V165.133ZM242.492 161.547H243.938V170H242.492V163.836L238.594 170H237.149V161.547H238.594V167.719L242.492 161.547ZM254.258 168.977C254.773 168.977 255.224 168.82 255.609 168.508C255.994 168.195 256.208 167.805 256.25 167.336H257.617C257.591 167.82 257.424 168.281 257.117 168.719C256.81 169.156 256.398 169.505 255.883 169.766C255.372 170.026 254.83 170.156 254.258 170.156C253.106 170.156 252.19 169.773 251.508 169.008C250.83 168.237 250.492 167.185 250.492 165.852V165.609C250.492 164.786 250.643 164.055 250.945 163.414C251.247 162.773 251.679 162.276 252.242 161.922C252.81 161.568 253.479 161.391 254.25 161.391C255.198 161.391 255.984 161.674 256.609 162.242C257.239 162.81 257.575 163.547 257.617 164.453H256.25C256.208 163.906 256 163.458 255.625 163.109C255.255 162.755 254.797 162.578 254.25 162.578C253.515 162.578 252.945 162.844 252.539 163.375C252.138 163.901 251.937 164.664 251.937 165.664V165.938C251.937 166.911 252.138 167.661 252.539 168.188C252.94 168.714 253.513 168.977 254.258 168.977ZM264.781 170C264.697 169.833 264.63 169.536 264.577 169.109C263.906 169.807 263.104 170.156 262.171 170.156C261.338 170.156 260.653 169.922 260.117 169.453C259.585 168.979 259.32 168.38 259.32 167.656C259.32 166.776 259.653 166.094 260.32 165.609C260.992 165.12 261.934 164.875 263.148 164.875H264.554V164.211C264.554 163.706 264.403 163.305 264.101 163.008C263.799 162.706 263.354 162.555 262.765 162.555C262.249 162.555 261.817 162.685 261.468 162.945C261.119 163.206 260.945 163.521 260.945 163.891H259.492C259.492 163.469 259.64 163.062 259.937 162.672C260.239 162.276 260.645 161.964 261.156 161.734C261.671 161.505 262.236 161.391 262.851 161.391C263.825 161.391 264.588 161.635 265.14 162.125C265.692 162.609 265.979 163.279 265.999 164.133V168.023C265.999 168.799 266.098 169.417 266.296 169.875V170H264.781ZM262.382 168.898C262.835 168.898 263.265 168.781 263.671 168.547C264.077 168.312 264.372 168.008 264.554 167.633V165.898H263.421C261.65 165.898 260.765 166.417 260.765 167.453C260.765 167.906 260.916 168.26 261.218 168.516C261.52 168.771 261.908 168.898 262.382 168.898ZM275.515 161.547V170H274.062V162.742H271.187L271.015 165.906C270.921 167.359 270.676 168.398 270.28 169.023C269.89 169.648 269.267 169.974 268.413 170H267.835V168.727L268.249 168.695C268.718 168.643 269.054 168.372 269.257 167.883C269.46 167.393 269.59 166.487 269.648 165.164L269.804 161.547H275.515ZM277.842 165.93C277.842 164.518 278.116 163.409 278.663 162.602C279.21 161.794 279.96 161.391 280.913 161.391C281.356 161.391 281.744 161.466 282.077 161.617V158H283.522V161.664C283.887 161.482 284.314 161.391 284.803 161.391C285.762 161.391 286.514 161.794 287.061 162.602C287.608 163.409 287.882 164.573 287.882 166.094C287.882 167.339 287.608 168.328 287.061 169.062C286.52 169.797 285.772 170.164 284.819 170.164C284.314 170.164 283.882 170.081 283.522 169.914V173.25H282.077V169.938C281.733 170.089 281.34 170.164 280.897 170.164C279.949 170.164 279.202 169.797 278.655 169.062C278.113 168.328 277.842 167.323 277.842 166.047V165.93ZM286.436 165.93C286.436 164.867 286.254 164.044 285.889 163.461C285.525 162.872 285.022 162.578 284.382 162.578C284.053 162.578 283.767 162.63 283.522 162.734V168.852C283.757 168.94 284.048 168.984 284.397 168.984C285.043 168.984 285.543 168.734 285.897 168.234C286.257 167.734 286.436 166.966 286.436 165.93ZM279.288 166.094C279.288 167.042 279.457 167.76 279.796 168.25C280.134 168.74 280.621 168.984 281.257 168.984C281.559 168.984 281.832 168.938 282.077 168.844V162.711C281.858 162.622 281.59 162.578 281.272 162.578C280.637 162.578 280.147 162.862 279.803 163.43C279.46 163.997 279.288 164.885 279.288 166.094ZM293.592 170.156C292.446 170.156 291.514 169.781 290.795 169.031C290.077 168.276 289.717 167.268 289.717 166.008V165.742C289.717 164.904 289.876 164.156 290.194 163.5C290.517 162.839 290.965 162.323 291.538 161.953C292.116 161.578 292.741 161.391 293.413 161.391C294.511 161.391 295.366 161.753 295.975 162.477C296.584 163.201 296.889 164.237 296.889 165.586V166.188H291.163C291.183 167.021 291.426 167.695 291.889 168.211C292.358 168.721 292.952 168.977 293.67 168.977C294.181 168.977 294.613 168.872 294.967 168.664C295.321 168.456 295.631 168.18 295.897 167.836L296.78 168.523C296.071 169.612 295.009 170.156 293.592 170.156ZM293.413 162.578C292.829 162.578 292.34 162.792 291.944 163.219C291.548 163.641 291.303 164.234 291.209 165H295.444V164.891C295.402 164.156 295.204 163.589 294.85 163.188C294.496 162.781 294.017 162.578 293.413 162.578ZM305.076 162.719H302.24V170H300.795V162.719H298.014V161.547H305.076V162.719ZM306.092 165.695C306.092 164.867 306.253 164.122 306.576 163.461C306.904 162.799 307.357 162.289 307.935 161.93C308.519 161.57 309.183 161.391 309.927 161.391C311.079 161.391 312.008 161.789 312.717 162.586C313.43 163.383 313.787 164.443 313.787 165.766V165.867C313.787 166.69 313.628 167.43 313.31 168.086C312.998 168.737 312.547 169.245 311.959 169.609C311.375 169.974 310.704 170.156 309.943 170.156C308.797 170.156 307.868 169.758 307.154 168.961C306.446 168.164 306.092 167.109 306.092 165.797V165.695ZM307.545 165.867C307.545 166.805 307.761 167.557 308.193 168.125C308.631 168.693 309.214 168.977 309.943 168.977C310.677 168.977 311.261 168.69 311.693 168.117C312.125 167.539 312.342 166.732 312.342 165.695C312.342 164.768 312.12 164.018 311.677 163.445C311.24 162.867 310.657 162.578 309.927 162.578C309.214 162.578 308.638 162.862 308.201 163.43C307.763 163.997 307.545 164.81 307.545 165.867ZM318.552 166.398H317.497V170H316.044V161.547H317.497V165.125H318.443L321.287 161.547H323.037L319.693 165.609L323.318 170H321.482L318.552 166.398ZM42.7188 187.508C42.3333 188.06 41.7943 188.474 41.1016 188.75C40.4141 189.021 39.612 189.156 38.6953 189.156C37.7682 189.156 36.9453 188.94 36.2266 188.508C35.5078 188.07 34.9505 187.451 34.5547 186.648C34.1641 185.846 33.9635 184.917 33.9531 183.859V182.867C33.9531 181.154 34.3516 179.826 35.1484 178.883C35.9505 177.94 37.0755 177.469 38.5234 177.469C39.7109 177.469 40.6667 177.773 41.3906 178.383C42.1146 178.987 42.5573 179.846 42.7188 180.961H41.2188C40.9375 179.456 40.0417 178.703 38.5312 178.703C37.526 178.703 36.763 179.057 36.2422 179.766C35.7266 180.469 35.4661 181.49 35.4609 182.828V183.758C35.4609 185.034 35.7526 186.049 36.3359 186.805C36.9193 187.555 37.7083 187.93 38.7031 187.93C39.2656 187.93 39.7578 187.867 40.1797 187.742C40.6016 187.617 40.9505 187.406 41.2266 187.109V184.555H38.5938V183.336H42.7188V187.508ZM54.2966 183.68C54.2966 184.794 54.1091 185.768 53.7341 186.602C53.3591 187.43 52.8278 188.062 52.1403 188.5C51.4528 188.938 50.6507 189.156 49.7341 189.156C48.8382 189.156 48.044 188.938 47.3512 188.5C46.6585 188.057 46.1195 187.43 45.7341 186.617C45.3539 185.799 45.1585 184.854 45.1481 183.781V182.961C45.1481 181.867 45.3382 180.901 45.7184 180.062C46.0986 179.224 46.6351 178.583 47.3278 178.141C48.0257 177.693 48.8226 177.469 49.7184 177.469C50.6299 177.469 51.432 177.69 52.1247 178.133C52.8226 178.57 53.3591 179.208 53.7341 180.047C54.1091 180.88 54.2966 181.852 54.2966 182.961V183.68ZM52.8044 182.945C52.8044 181.596 52.5335 180.562 51.9919 179.844C51.4502 179.12 50.6924 178.758 49.7184 178.758C48.7705 178.758 48.0231 179.12 47.4762 179.844C46.9346 180.562 46.6559 181.562 46.6403 182.844V183.68C46.6403 184.987 46.9137 186.016 47.4606 186.766C48.0127 187.51 48.7705 187.883 49.7341 187.883C50.7028 187.883 51.4528 187.531 51.9841 186.828C52.5153 186.12 52.7887 185.107 52.8044 183.789V182.945ZM65.6166 183.68C65.6166 184.794 65.4291 185.768 65.0541 186.602C64.6791 187.43 64.1478 188.062 63.4603 188.5C62.7728 188.938 61.9707 189.156 61.0541 189.156C60.1582 189.156 59.364 188.938 58.6712 188.5C57.9785 188.057 57.4395 187.43 57.0541 186.617C56.6739 185.799 56.4785 184.854 56.4681 183.781V182.961C56.4681 181.867 56.6582 180.901 57.0384 180.062C57.4186 179.224 57.9551 178.583 58.6478 178.141C59.3457 177.693 60.1426 177.469 61.0384 177.469C61.9499 177.469 62.752 177.69 63.4447 178.133C64.1426 178.57 64.6791 179.208 65.0541 180.047C65.4291 180.88 65.6166 181.852 65.6166 182.961V183.68ZM64.1244 182.945C64.1244 181.596 63.8535 180.562 63.3119 179.844C62.7702 179.12 62.0124 178.758 61.0384 178.758C60.0905 178.758 59.3431 179.12 58.7962 179.844C58.2546 180.562 57.9759 181.562 57.9603 182.844V183.68C57.9603 184.987 58.2337 186.016 58.7806 186.766C59.3327 187.51 60.0905 187.883 61.0541 187.883C62.0228 187.883 62.7728 187.531 63.3041 186.828C63.8353 186.12 64.1087 185.107 64.1244 183.789V182.945ZM67.1944 188.242C67.1944 187.992 67.2673 187.784 67.4131 187.617C67.5642 187.451 67.7881 187.367 68.085 187.367C68.3819 187.367 68.6058 187.451 68.7569 187.617C68.9131 187.784 68.9912 187.992 68.9912 188.242C68.9912 188.482 68.9131 188.682 68.7569 188.844C68.6058 189.005 68.3819 189.086 68.085 189.086C67.7881 189.086 67.5642 189.005 67.4131 188.844C67.2673 188.682 67.1944 188.482 67.1944 188.242ZM80.6706 189H79.1628L73.4362 180.234V189H71.9284V177.625H73.4362L79.1784 186.43V177.625H80.6706V189ZM94.6309 189H93.1856V181.742H89.295V189H87.8419V180.547H94.6309V189ZM96.8884 184.695C96.8884 183.867 97.0499 183.122 97.3728 182.461C97.7009 181.799 98.1541 181.289 98.7322 180.93C99.3155 180.57 99.9796 180.391 100.724 180.391C101.875 180.391 102.805 180.789 103.513 181.586C104.227 182.383 104.584 183.443 104.584 184.766V184.867C104.584 185.69 104.425 186.43 104.107 187.086C103.795 187.737 103.344 188.245 102.756 188.609C102.172 188.974 101.5 189.156 100.74 189.156C99.5942 189.156 98.6645 188.758 97.9509 187.961C97.2426 187.164 96.8884 186.109 96.8884 184.797V184.695ZM98.3416 184.867C98.3416 185.805 98.5577 186.557 98.99 187.125C99.4275 187.693 100.011 187.977 100.74 187.977C101.474 187.977 102.058 187.69 102.49 187.117C102.922 186.539 103.138 185.732 103.138 184.695C103.138 183.768 102.917 183.018 102.474 182.445C102.037 181.867 101.454 181.578 100.724 181.578C100.011 181.578 99.4353 181.862 98.9978 182.43C98.5603 182.997 98.3416 183.81 98.3416 184.867ZM113.521 180.547V189H112.068V181.742H109.193L109.021 184.906C108.927 186.359 108.682 187.398 108.287 188.023C107.896 188.648 107.274 188.974 106.419 189H105.841V187.727L106.255 187.695C106.724 187.643 107.06 187.372 107.263 186.883C107.466 186.393 107.596 185.487 107.654 184.164L107.81 180.547H113.521ZM118.927 186.883L120.896 180.547H122.442L119.044 190.305C118.518 191.711 117.682 192.414 116.536 192.414L116.263 192.391L115.724 192.289V191.117L116.114 191.148C116.604 191.148 116.984 191.049 117.255 190.852C117.531 190.654 117.758 190.292 117.935 189.766L118.255 188.906L115.239 180.547H116.817L118.927 186.883ZM130.442 189H128.989V185.938C128.354 186.104 127.703 186.188 127.036 186.188C125.979 186.188 125.171 185.917 124.614 185.375C124.062 184.833 123.781 184.062 123.77 183.062V180.539H125.216V183.109C125.242 184.37 125.848 185 127.036 185C127.703 185 128.354 184.917 128.989 184.75V180.547H130.442V189ZM138.551 180.547H139.997V189H138.551V182.836L134.653 189H133.207V180.547H134.653V186.719L138.551 180.547ZM148.918 181.719H146.082V189H144.637V181.719H141.856V180.547H148.918V181.719ZM153.527 189.156C152.381 189.156 151.449 188.781 150.73 188.031C150.012 187.276 149.652 186.268 149.652 185.008V184.742C149.652 183.904 149.811 183.156 150.129 182.5C150.452 181.839 150.9 181.323 151.473 180.953C152.051 180.578 152.676 180.391 153.348 180.391C154.446 180.391 155.301 180.753 155.91 181.477C156.519 182.201 156.824 183.237 156.824 184.586V185.188H151.098C151.118 186.021 151.361 186.695 151.824 187.211C152.293 187.721 152.887 187.977 153.605 187.977C154.116 187.977 154.548 187.872 154.902 187.664C155.256 187.456 155.566 187.18 155.832 186.836L156.715 187.523C156.006 188.612 154.944 189.156 153.527 189.156ZM153.348 181.578C152.764 181.578 152.275 181.792 151.879 182.219C151.483 182.641 151.238 183.234 151.144 184H155.379V183.891C155.337 183.156 155.139 182.589 154.785 182.188C154.431 181.781 153.952 181.578 153.348 181.578ZM166.503 187.977C167.019 187.977 167.469 187.82 167.855 187.508C168.24 187.195 168.454 186.805 168.495 186.336H169.863C169.836 186.82 169.67 187.281 169.363 187.719C169.055 188.156 168.644 188.505 168.128 188.766C167.618 189.026 167.076 189.156 166.503 189.156C165.352 189.156 164.435 188.773 163.753 188.008C163.076 187.237 162.738 186.185 162.738 184.852V184.609C162.738 183.786 162.889 183.055 163.191 182.414C163.493 181.773 163.925 181.276 164.488 180.922C165.055 180.568 165.724 180.391 166.495 180.391C167.443 180.391 168.23 180.674 168.855 181.242C169.485 181.81 169.821 182.547 169.863 183.453H168.495C168.454 182.906 168.245 182.458 167.87 182.109C167.501 181.755 167.042 181.578 166.495 181.578C165.761 181.578 165.191 181.844 164.784 182.375C164.383 182.901 164.183 183.664 164.183 184.664V184.938C164.183 185.911 164.383 186.661 164.784 187.188C165.185 187.714 165.758 187.977 166.503 187.977ZM174.44 185.398H173.386V189H171.932V180.547H173.386V184.125H174.331L177.175 180.547H178.925L175.581 184.609L179.206 189H177.37L174.44 185.398ZM186.237 180.547H187.682V189H186.237V182.836L182.338 189H180.893V180.547H182.338V186.719L186.237 180.547ZM190.252 187.82L190.752 187.203C191.315 186.474 191.635 185.38 191.713 183.922L191.846 180.547H197.291V187.82H198.377V191.484H196.932V189H191.033V191.484H189.588L189.596 187.82H190.252ZM191.963 187.82H195.846V181.883H193.244L193.158 183.898C193.07 185.581 192.671 186.888 191.963 187.82ZM202.932 185.398H201.877V189H200.424V180.547H201.877V184.125H202.822L205.666 180.547H207.416L204.072 184.609L207.697 189H205.861L202.932 185.398ZM212.025 186.883L213.994 180.547H215.541L212.142 190.305C211.616 191.711 210.78 192.414 209.634 192.414L209.361 192.391L208.822 192.289V191.117L209.212 191.148C209.702 191.148 210.082 191.049 210.353 190.852C210.629 190.654 210.856 190.292 211.033 189.766L211.353 188.906L208.337 180.547H209.916L212.025 186.883Z" fill="white"/>
<g filter="url(#filter0_d)">
<rect x="33" y="211" width="194" height="53" rx="4" fill="white"/>
</g>
<path d="M92.7273 229.632C93.1233 229.632 93.4473 229.758 93.6993 230.01C93.9513 230.262 94.0773 230.604 94.0773 231.036V241.152C94.0773 241.596 93.9513 241.944 93.6993 242.196C93.4473 242.436 93.1233 242.556 92.7273 242.556C92.3313 242.556 92.0073 242.436 91.7553 242.196C91.5033 241.944 91.3773 241.596 91.3773 241.152V232.008H85.7253V241.152C85.7253 241.596 85.5993 241.944 85.3473 242.196C85.0953 242.436 84.7713 242.556 84.3753 242.556C83.9793 242.556 83.6553 242.436 83.4033 242.196C83.1513 241.944 83.0253 241.596 83.0253 241.152V231.036C83.0253 230.604 83.1513 230.262 83.4033 230.01C83.6553 229.758 83.9793 229.632 84.3753 229.632H92.7273ZM96.9231 234.15C97.8111 233.154 98.9211 232.656 100.253 232.656C101.585 232.656 102.689 233.154 103.565 234.15C104.453 235.146 104.897 236.322 104.897 237.678C104.897 239.058 104.465 240.234 103.601 241.206C102.737 242.178 101.621 242.664 100.253 242.664C98.8851 242.664 97.7691 242.178 96.9051 241.206C96.0411 240.234 95.6091 239.058 95.6091 237.678C95.6091 236.322 96.0471 235.146 96.9231 234.15ZM101.765 235.842C101.417 235.302 100.913 235.032 100.253 235.032C99.5931 235.032 99.0831 235.302 98.7231 235.842C98.3751 236.37 98.2011 236.982 98.2011 237.678C98.2011 238.362 98.3751 238.968 98.7231 239.496C99.0831 240.024 99.5931 240.288 100.253 240.288C100.913 240.288 101.417 240.024 101.765 239.496C102.125 238.968 102.305 238.362 102.305 237.678C102.305 236.982 102.125 236.37 101.765 235.842ZM115.989 243.744C115.989 244.176 115.869 244.524 115.629 244.788C115.389 245.052 115.077 245.184 114.693 245.184C114.309 245.184 113.997 245.052 113.757 244.788C113.517 244.524 113.397 244.176 113.397 243.744V242.448H107.853V243.744C107.853 244.176 107.733 244.524 107.493 244.788C107.253 245.052 106.941 245.184 106.557 245.184C106.173 245.184 105.861 245.052 105.621 244.788C105.381 244.524 105.261 244.176 105.261 243.744V241.62C105.261 241.188 105.381 240.84 105.621 240.576C105.861 240.312 106.173 240.18 106.557 240.18H106.701C107.133 238.68 107.349 236.724 107.349 234.312C107.349 233.856 107.469 233.502 107.709 233.25C107.949 232.998 108.261 232.872 108.645 232.872H113.253C113.637 232.872 113.949 233.004 114.189 233.268C114.429 233.532 114.549 233.88 114.549 234.312V240.18H114.693C115.077 240.18 115.389 240.312 115.629 240.576C115.869 240.84 115.989 241.188 115.989 241.62V243.744ZM112.101 240.324V234.96H109.887C109.827 237.108 109.605 238.896 109.221 240.324H112.101ZM117.045 244.932V234.204C117.045 233.772 117.165 233.424 117.405 233.16C117.645 232.896 117.957 232.764 118.341 232.764C119.037 232.764 119.469 233.124 119.637 233.844C119.865 233.46 120.207 233.166 120.663 232.962C121.119 232.758 121.599 232.656 122.103 232.656C123.411 232.656 124.431 233.172 125.163 234.204C125.907 235.224 126.279 236.418 126.279 237.786C126.279 239.07 125.877 240.204 125.073 241.188C124.281 242.172 123.261 242.664 122.013 242.664C121.125 242.664 120.333 242.364 119.637 241.764V244.932C119.637 245.364 119.517 245.712 119.277 245.976C119.037 246.24 118.725 246.372 118.341 246.372C117.957 246.372 117.645 246.24 117.405 245.976C117.165 245.712 117.045 245.364 117.045 244.932ZM119.637 237.588C119.637 238.296 119.811 238.926 120.159 239.478C120.507 240.018 121.011 240.288 121.671 240.288C122.295 240.288 122.787 240.024 123.147 239.496C123.507 238.956 123.687 238.35 123.687 237.678C123.687 236.994 123.507 236.382 123.147 235.842C122.787 235.302 122.295 235.032 121.671 235.032C121.023 235.032 120.519 235.284 120.159 235.788C119.811 236.292 119.637 236.892 119.637 237.588ZM128.677 234.15C129.565 233.154 130.675 232.656 132.007 232.656C133.339 232.656 134.443 233.154 135.319 234.15C136.207 235.146 136.651 236.322 136.651 237.678C136.651 239.058 136.219 240.234 135.355 241.206C134.491 242.178 133.375 242.664 132.007 242.664C130.639 242.664 129.523 242.178 128.659 241.206C127.795 240.234 127.363 239.058 127.363 237.678C127.363 236.322 127.801 235.146 128.677 234.15ZM133.519 235.842C133.171 235.302 132.667 235.032 132.007 235.032C131.347 235.032 130.837 235.302 130.477 235.842C130.129 236.37 129.955 236.982 129.955 237.678C129.955 238.362 130.129 238.968 130.477 239.496C130.837 240.024 131.347 240.288 132.007 240.288C132.667 240.288 133.171 240.024 133.519 239.496C133.879 238.968 134.059 238.362 134.059 237.678C134.059 236.982 133.879 236.37 133.519 235.842ZM147.013 237.876C147.013 239.208 146.581 240.342 145.717 241.278C144.853 242.202 143.737 242.664 142.369 242.664C141.277 242.664 140.365 242.382 139.633 241.818C138.901 241.242 138.373 240.468 138.049 239.496C137.833 238.848 137.725 237.846 137.725 236.49C137.725 235.518 137.863 234.552 138.139 233.592C138.415 232.62 138.763 231.93 139.183 231.522C139.507 231.21 139.795 230.97 140.047 230.802C140.299 230.634 140.761 230.454 141.433 230.262C142.117 230.07 142.963 229.932 143.971 229.848C144.103 229.836 144.301 229.764 144.565 229.632C144.829 229.488 145.033 229.416 145.177 229.416C145.513 229.416 145.795 229.53 146.023 229.758C146.251 229.986 146.365 230.238 146.365 230.514C146.365 230.898 146.191 231.246 145.843 231.558C145.495 231.87 145.015 232.044 144.403 232.08C142.831 232.152 141.655 232.392 140.875 232.8C140.659 232.908 140.449 233.1 140.245 233.376C140.053 233.652 139.951 233.904 139.939 234.132L139.993 234.186C140.221 233.886 140.581 233.622 141.073 233.394C141.565 233.166 142.057 233.052 142.549 233.052C143.797 233.052 144.853 233.538 145.717 234.51C146.581 235.47 147.013 236.592 147.013 237.876ZM144.421 237.786C144.421 237.114 144.241 236.526 143.881 236.022C143.533 235.506 143.029 235.248 142.369 235.248C141.709 235.248 141.199 235.506 140.839 236.022C140.491 236.526 140.317 237.114 140.317 237.786C140.317 238.446 140.491 239.028 140.839 239.532C141.199 240.036 141.709 240.288 142.369 240.288C143.029 240.288 143.533 240.036 143.881 239.532C144.241 239.028 144.421 238.446 144.421 237.786ZM156.997 241.116C156.997 241.548 156.877 241.896 156.637 242.16C156.397 242.424 156.085 242.556 155.701 242.556C155.317 242.556 155.005 242.424 154.765 242.16C154.525 241.896 154.405 241.548 154.405 241.116V238.596H151.057V241.116C151.057 241.548 150.937 241.896 150.697 242.16C150.457 242.424 150.145 242.556 149.761 242.556C149.377 242.556 149.065 242.424 148.825 242.16C148.585 241.896 148.465 241.548 148.465 241.116V234.204C148.465 233.772 148.585 233.424 148.825 233.16C149.065 232.896 149.377 232.764 149.761 232.764C150.145 232.764 150.457 232.896 150.697 233.16C150.937 233.424 151.057 233.772 151.057 234.204V236.328H154.405V234.204C154.405 233.772 154.525 233.424 154.765 233.16C155.005 232.896 155.317 232.764 155.701 232.764C156.085 232.764 156.397 232.896 156.637 233.16C156.877 233.424 156.997 233.772 156.997 234.204V241.116ZM166.441 238.524H160.915C160.999 239.136 161.269 239.604 161.725 239.928C162.181 240.24 162.727 240.396 163.363 240.396C163.855 240.396 164.425 240.222 165.073 239.874C165.721 239.526 166.129 239.352 166.297 239.352C166.573 239.352 166.819 239.466 167.035 239.694C167.251 239.922 167.359 240.18 167.359 240.468C167.359 241.008 166.897 241.512 165.973 241.98C165.061 242.436 164.113 242.664 163.129 242.664C161.689 242.664 160.519 242.196 159.619 241.26C158.719 240.324 158.269 239.13 158.269 237.678C158.269 236.322 158.707 235.146 159.583 234.15C160.471 233.154 161.581 232.656 162.913 232.656C164.245 232.656 165.355 233.154 166.243 234.15C167.131 235.134 167.575 236.208 167.575 237.372C167.575 238.14 167.197 238.524 166.441 238.524ZM160.861 236.796H164.983C164.911 236.208 164.695 235.734 164.335 235.374C163.975 235.002 163.501 234.816 162.913 234.816C162.349 234.816 161.881 235.008 161.509 235.392C161.137 235.764 160.921 236.232 160.861 236.796ZM176.469 238.524H170.943C171.027 239.136 171.297 239.604 171.753 239.928C172.209 240.24 172.755 240.396 173.391 240.396C173.883 240.396 174.453 240.222 175.101 239.874C175.749 239.526 176.157 239.352 176.325 239.352C176.601 239.352 176.847 239.466 177.063 239.694C177.279 239.922 177.387 240.18 177.387 240.468C177.387 241.008 176.925 241.512 176.001 241.98C175.089 242.436 174.141 242.664 173.157 242.664C171.717 242.664 170.547 242.196 169.647 241.26C168.747 240.324 168.297 239.13 168.297 237.678C168.297 236.322 168.735 235.146 169.611 234.15C170.499 233.154 171.609 232.656 172.941 232.656C174.273 232.656 175.383 233.154 176.271 234.15C177.159 235.134 177.603 236.208 177.603 237.372C177.603 238.14 177.225 238.524 176.469 238.524ZM170.889 236.796H175.011C174.939 236.208 174.723 235.734 174.363 235.374C174.003 235.002 173.529 234.816 172.941 234.816C172.377 234.816 171.909 235.008 171.537 235.392C171.165 235.764 170.949 236.232 170.889 236.796Z" fill="url(#paint1_linear)"/>
<path d="M92.7273 229.632C93.1233 229.632 93.4473 229.758 93.6993 230.01C93.9513 230.262 94.0773 230.604 94.0773 231.036V241.152C94.0773 241.596 93.9513 241.944 93.6993 242.196C93.4473 242.436 93.1233 242.556 92.7273 242.556C92.3313 242.556 92.0073 242.436 91.7553 242.196C91.5033 241.944 91.3773 241.596 91.3773 241.152V232.008H85.7253V241.152C85.7253 241.596 85.5993 241.944 85.3473 242.196C85.0953 242.436 84.7713 242.556 84.3753 242.556C83.9793 242.556 83.6553 242.436 83.4033 242.196C83.1513 241.944 83.0253 241.596 83.0253 241.152V231.036C83.0253 230.604 83.1513 230.262 83.4033 230.01C83.6553 229.758 83.9793 229.632 84.3753 229.632H92.7273ZM96.9231 234.15C97.8111 233.154 98.9211 232.656 100.253 232.656C101.585 232.656 102.689 233.154 103.565 234.15C104.453 235.146 104.897 236.322 104.897 237.678C104.897 239.058 104.465 240.234 103.601 241.206C102.737 242.178 101.621 242.664 100.253 242.664C98.8851 242.664 97.7691 242.178 96.9051 241.206C96.0411 240.234 95.6091 239.058 95.6091 237.678C95.6091 236.322 96.0471 235.146 96.9231 234.15ZM101.765 235.842C101.417 235.302 100.913 235.032 100.253 235.032C99.5931 235.032 99.0831 235.302 98.7231 235.842C98.3751 236.37 98.2011 236.982 98.2011 237.678C98.2011 238.362 98.3751 238.968 98.7231 239.496C99.0831 240.024 99.5931 240.288 100.253 240.288C100.913 240.288 101.417 240.024 101.765 239.496C102.125 238.968 102.305 238.362 102.305 237.678C102.305 236.982 102.125 236.37 101.765 235.842ZM115.989 243.744C115.989 244.176 115.869 244.524 115.629 244.788C115.389 245.052 115.077 245.184 114.693 245.184C114.309 245.184 113.997 245.052 113.757 244.788C113.517 244.524 113.397 244.176 113.397 243.744V242.448H107.853V243.744C107.853 244.176 107.733 244.524 107.493 244.788C107.253 245.052 106.941 245.184 106.557 245.184C106.173 245.184 105.861 245.052 105.621 244.788C105.381 244.524 105.261 244.176 105.261 243.744V241.62C105.261 241.188 105.381 240.84 105.621 240.576C105.861 240.312 106.173 240.18 106.557 240.18H106.701C107.133 238.68 107.349 236.724 107.349 234.312C107.349 233.856 107.469 233.502 107.709 233.25C107.949 232.998 108.261 232.872 108.645 232.872H113.253C113.637 232.872 113.949 233.004 114.189 233.268C114.429 233.532 114.549 233.88 114.549 234.312V240.18H114.693C115.077 240.18 115.389 240.312 115.629 240.576C115.869 240.84 115.989 241.188 115.989 241.62V243.744ZM112.101 240.324V234.96H109.887C109.827 237.108 109.605 238.896 109.221 240.324H112.101ZM117.045 244.932V234.204C117.045 233.772 117.165 233.424 117.405 233.16C117.645 232.896 117.957 232.764 118.341 232.764C119.037 232.764 119.469 233.124 119.637 233.844C119.865 233.46 120.207 233.166 120.663 232.962C121.119 232.758 121.599 232.656 122.103 232.656C123.411 232.656 124.431 233.172 125.163 234.204C125.907 235.224 126.279 236.418 126.279 237.786C126.279 239.07 125.877 240.204 125.073 241.188C124.281 242.172 123.261 242.664 122.013 242.664C121.125 242.664 120.333 242.364 119.637 241.764V244.932C119.637 245.364 119.517 245.712 119.277 245.976C119.037 246.24 118.725 246.372 118.341 246.372C117.957 246.372 117.645 246.24 117.405 245.976C117.165 245.712 117.045 245.364 117.045 244.932ZM119.637 237.588C119.637 238.296 119.811 238.926 120.159 239.478C120.507 240.018 121.011 240.288 121.671 240.288C122.295 240.288 122.787 240.024 123.147 239.496C123.507 238.956 123.687 238.35 123.687 237.678C123.687 236.994 123.507 236.382 123.147 235.842C122.787 235.302 122.295 235.032 121.671 235.032C121.023 235.032 120.519 235.284 120.159 235.788C119.811 236.292 119.637 236.892 119.637 237.588ZM128.677 234.15C129.565 233.154 130.675 232.656 132.007 232.656C133.339 232.656 134.443 233.154 135.319 234.15C136.207 235.146 136.651 236.322 136.651 237.678C136.651 239.058 136.219 240.234 135.355 241.206C134.491 242.178 133.375 242.664 132.007 242.664C130.639 242.664 129.523 242.178 128.659 241.206C127.795 240.234 127.363 239.058 127.363 237.678C127.363 236.322 127.801 235.146 128.677 234.15ZM133.519 235.842C133.171 235.302 132.667 235.032 132.007 235.032C131.347 235.032 130.837 235.302 130.477 235.842C130.129 236.37 129.955 236.982 129.955 237.678C129.955 238.362 130.129 238.968 130.477 239.496C130.837 240.024 131.347 240.288 132.007 240.288C132.667 240.288 133.171 240.024 133.519 239.496C133.879 238.968 134.059 238.362 134.059 237.678C134.059 236.982 133.879 236.37 133.519 235.842ZM147.013 237.876C147.013 239.208 146.581 240.342 145.717 241.278C144.853 242.202 143.737 242.664 142.369 242.664C141.277 242.664 140.365 242.382 139.633 241.818C138.901 241.242 138.373 240.468 138.049 239.496C137.833 238.848 137.725 237.846 137.725 236.49C137.725 235.518 137.863 234.552 138.139 233.592C138.415 232.62 138.763 231.93 139.183 231.522C139.507 231.21 139.795 230.97 140.047 230.802C140.299 230.634 140.761 230.454 141.433 230.262C142.117 230.07 142.963 229.932 143.971 229.848C144.103 229.836 144.301 229.764 144.565 229.632C144.829 229.488 145.033 229.416 145.177 229.416C145.513 229.416 145.795 229.53 146.023 229.758C146.251 229.986 146.365 230.238 146.365 230.514C146.365 230.898 146.191 231.246 145.843 231.558C145.495 231.87 145.015 232.044 144.403 232.08C142.831 232.152 141.655 232.392 140.875 232.8C140.659 232.908 140.449 233.1 140.245 233.376C140.053 233.652 139.951 233.904 139.939 234.132L139.993 234.186C140.221 233.886 140.581 233.622 141.073 233.394C141.565 233.166 142.057 233.052 142.549 233.052C143.797 233.052 144.853 233.538 145.717 234.51C146.581 235.47 147.013 236.592 147.013 237.876ZM144.421 237.786C144.421 237.114 144.241 236.526 143.881 236.022C143.533 235.506 143.029 235.248 142.369 235.248C141.709 235.248 141.199 235.506 140.839 236.022C140.491 236.526 140.317 237.114 140.317 237.786C140.317 238.446 140.491 239.028 140.839 239.532C141.199 240.036 141.709 240.288 142.369 240.288C143.029 240.288 143.533 240.036 143.881 239.532C144.241 239.028 144.421 238.446 144.421 237.786ZM156.997 241.116C156.997 241.548 156.877 241.896 156.637 242.16C156.397 242.424 156.085 242.556 155.701 242.556C155.317 242.556 155.005 242.424 154.765 242.16C154.525 241.896 154.405 241.548 154.405 241.116V238.596H151.057V241.116C151.057 241.548 150.937 241.896 150.697 242.16C150.457 242.424 150.145 242.556 149.761 242.556C149.377 242.556 149.065 242.424 148.825 242.16C148.585 241.896 148.465 241.548 148.465 241.116V234.204C148.465 233.772 148.585 233.424 148.825 233.16C149.065 232.896 149.377 232.764 149.761 232.764C150.145 232.764 150.457 232.896 150.697 233.16C150.937 233.424 151.057 233.772 151.057 234.204V236.328H154.405V234.204C154.405 233.772 154.525 233.424 154.765 233.16C155.005 232.896 155.317 232.764 155.701 232.764C156.085 232.764 156.397 232.896 156.637 233.16C156.877 233.424 156.997 233.772 156.997 234.204V241.116ZM166.441 238.524H160.915C160.999 239.136 161.269 239.604 161.725 239.928C162.181 240.24 162.727 240.396 163.363 240.396C163.855 240.396 164.425 240.222 165.073 239.874C165.721 239.526 166.129 239.352 166.297 239.352C166.573 239.352 166.819 239.466 167.035 239.694C167.251 239.922 167.359 240.18 167.359 240.468C167.359 241.008 166.897 241.512 165.973 241.98C165.061 242.436 164.113 242.664 163.129 242.664C161.689 242.664 160.519 242.196 159.619 241.26C158.719 240.324 158.269 239.13 158.269 237.678C158.269 236.322 158.707 235.146 159.583 234.15C160.471 233.154 161.581 232.656 162.913 232.656C164.245 232.656 165.355 233.154 166.243 234.15C167.131 235.134 167.575 236.208 167.575 237.372C167.575 238.14 167.197 238.524 166.441 238.524ZM160.861 236.796H164.983C164.911 236.208 164.695 235.734 164.335 235.374C163.975 235.002 163.501 234.816 162.913 234.816C162.349 234.816 161.881 235.008 161.509 235.392C161.137 235.764 160.921 236.232 160.861 236.796ZM176.469 238.524H170.943C171.027 239.136 171.297 239.604 171.753 239.928C172.209 240.24 172.755 240.396 173.391 240.396C173.883 240.396 174.453 240.222 175.101 239.874C175.749 239.526 176.157 239.352 176.325 239.352C176.601 239.352 176.847 239.466 177.063 239.694C177.279 239.922 177.387 240.18 177.387 240.468C177.387 241.008 176.925 241.512 176.001 241.98C175.089 242.436 174.141 242.664 173.157 242.664C171.717 242.664 170.547 242.196 169.647 241.26C168.747 240.324 168.297 239.13 168.297 237.678C168.297 236.322 168.735 235.146 169.611 234.15C170.499 233.154 171.609 232.656 172.941 232.656C174.273 232.656 175.383 233.154 176.271 234.15C177.159 235.134 177.603 236.208 177.603 237.372C177.603 238.14 177.225 238.524 176.469 238.524ZM170.889 236.796H175.011C174.939 236.208 174.723 235.734 174.363 235.374C174.003 235.002 173.529 234.816 172.941 234.816C172.377 234.816 171.909 235.008 171.537 235.392C171.165 235.764 170.949 236.232 170.889 236.796Z" fill="url(#paint2_linear)"/>
<defs>
<filter id="filter0_d" x="22" y="211" width="216" height="85" filterUnits="userSpaceOnUse" color-interpolation-filters="sRGB">
<feFlood flood-opacity="0" result="BackgroundImageFix"/>
<feColorMatrix in="SourceAlpha" type="matrix" values="0 0 0 0 0 0 0 0 0 0 0 0 0 0 0 0 0 0 127 0"/>
<feMorphology radius="7" operator="erode" in="SourceAlpha" result="effect1_dropShadow"/>
<feOffset dy="21"/>
<feGaussianBlur stdDeviation="9"/>
<feColorMatrix type="matrix" values="0 0 0 0 0.0813278 0 0 0 0 0.442126 0 0 0 0 0.658606 0 0 0 0.13 0"/>
<feBlend mode="normal" in2="BackgroundImageFix" result="effect1_dropShadow"/>
<feBlend mode="normal" in="SourceGraphic" in2="effect1_dropShadow" result="shape"/>
</filter>
<linearGradient id="paint0_linear" x1="-27" y1="-4.81594e-07" x2="496.103" y2="240.722" gradientUnits="userSpaceOnUse">
<stop stop-color="#0458BA"/>
<stop offset="1" stop-color="#5395E2"/>
</linearGradient>
<linearGradient id="paint1_linear" x1="206.313" y1="226.456" x2="110.217" y2="312.068" gradientUnits="userSpaceOnUse">
<stop stop-color="#243C98"/>
<stop offset="0.3124" stop-color="#0368B4"/>
<stop offset="1" stop-color="#293595"/>
</linearGradient>
<linearGradient id="paint2_linear" x1="169.536" y1="246.638" x2="169.536" y2="242.833" gradientUnits="userSpaceOnUse">
<stop stop-color="white" stop-opacity="0.17"/>
<stop offset="1" stop-color="white" stop-opacity="0"/>
</linearGradient>
</defs>
</svg>
