<svg width="669" height="419" viewBox="0 0 669 419" fill="none" xmlns="http://www.w3.org/2000/svg">
<g clip-path="url(#clip0)">
<g opacity="0.07" clip-path="url(#clip1)">
<path d="M396.103 29.6427C394.99 24.1378 389.867 19.6373 382.933 18.3858C375.316 16.9494 367.65 19.7041 362.363 24.0094C363.438 24.4399 364.513 24.8705 365.587 25.301C367.326 20.5919 361.717 14.6357 357.595 11.8929C352.541 8.52576 345.64 6.4473 340.078 10.2366C334.755 13.8118 334.245 19.4111 335.617 24.4519C337.952 33.3077 342.13 42.1051 345.432 50.7581C345.636 51.371 346.492 51.7655 347.317 51.7566C363.847 51.0783 397.288 47.757 396.103 29.6427C395.973 27.7026 392.217 27.9162 392.347 29.8563C393.396 45.7038 361.13 48.205 347.047 48.78C347.684 49.1383 348.295 49.4201 348.932 49.7784C346.852 44.4761 344.868 39.1536 342.788 33.8514C340.933 28.9119 337.508 22.9898 338.752 17.7286C340.086 12.1203 346.277 9.59297 352.562 12.62C356.744 14.6125 363.584 20.2286 361.84 24.611C361.308 26.1161 363.915 26.7992 365.064 25.9026C373.152 19.4525 390.095 18.7698 392.347 29.8563C392.767 31.7356 396.523 31.522 396.103 29.6427Z" fill="#1770D9"/>
</g>
<g opacity="0.07">
<path d="M659.06 141.114C655.241 139.08 651.045 138.318 646.74 139.94C647.517 140.338 648.352 140.789 649.197 141.141C650.043 133.822 638.746 128.628 632.801 135.426C633.771 135.786 634.798 136.2 635.767 136.56C638.133 127.194 630.848 117.62 618.248 116.727C606.331 115.927 596.965 124.304 598.94 133.594C599.978 133.261 601.006 133.027 602.043 132.693C597.883 127.102 588.972 119.368 579.882 122.382C570.927 125.305 570.291 133.684 574.345 139.717C575.153 139.17 575.903 138.57 576.71 138.023C569.638 133.941 559.536 132.558 555.281 140.061C551.719 146.263 556.301 152.031 563.654 154.536C568.829 156.207 574.763 156.53 580.266 156.777C587.2 157.164 594.124 157.649 601.057 158.036C616.845 159.079 633.256 160.162 649.018 158.913C654.714 158.474 661.208 156.94 663.664 152.412C666.032 148.128 663.244 143.918 659.06 141.114C657.41 140.014 655.62 142.242 657.271 143.343C660.514 145.489 662.612 149.059 660.168 152.192C658.302 154.566 654.747 155.587 651.558 156.084C644.67 157.145 637.237 156.727 630.332 156.69C615.782 156.472 601.503 155.424 587.088 154.467C578.599 153.932 563.414 155.069 558.516 148.036C556.532 145.221 557.286 141.383 560.094 139.019C564.603 135.318 570.526 137.683 574.921 140.251C576.283 141.084 578.052 139.701 577.286 138.557C573.998 133.668 574.115 125.456 583 124.521C589.792 123.803 596.093 129.978 599.151 134.006C600.09 135.31 602.55 134.568 602.254 133.105C600.68 125.484 608.565 118.758 618.168 119.462C628.395 120.205 634.588 128.117 632.695 135.868C632.366 137.292 634.526 138.324 635.661 137.001C639.836 132.233 646.437 136.633 645.931 141.135C645.767 142.17 647.274 142.813 648.388 142.335C651.521 141.138 654.584 141.928 657.328 143.396C658.998 144.298 660.788 142.07 659.06 141.114Z" fill="#1770D9"/>
</g>
<path d="M113.727 97.1141C110.127 95.0523 103.627 97.9864 100.327 99.176C96.0273 100.762 91.7273 102.427 87.5273 104.331C88.3273 104.331 89.0273 104.41 89.8273 104.41C84.9273 101.476 69.7273 92.1181 64.3273 98.145C60.7273 102.189 64.6273 109.009 66.3273 113.054C67.8273 116.464 68.3273 116.305 65.1273 118.684C62.2273 120.905 58.9273 122.887 55.9273 125.108C53.4273 127.011 48.3273 131.134 52.7273 133.672C56.6273 135.893 64.1273 133.672 68.2273 132.8C70.5273 132.324 72.8273 131.769 75.1273 131.214C73.4273 131.61 73.8273 130.262 74.1273 131.214C74.2273 131.61 74.6273 132.007 74.8273 132.324C75.5273 133.513 76.2273 134.624 77.0273 135.813C78.7273 138.351 81.9273 144.774 86.5273 144.774C91.0273 144.774 91.7273 138.272 92.3273 135.813C93.2273 131.531 93.7273 127.249 94.0273 122.966C93.3273 123.363 92.6273 123.759 91.8273 124.156C96.0273 124.79 100.327 125.266 104.627 125.583C108.127 125.901 115.127 127.09 118.227 125.187C124.227 121.539 106.727 113.212 103.727 111.626C103.827 112.34 103.927 113.054 104.027 113.688C106.527 111.23 108.927 108.613 111.027 105.917C112.727 103.775 116.227 99.8897 113.927 97.352C112.527 95.766 109.427 97.5106 110.827 99.0966C112.027 100.445 106.527 105.996 105.627 106.947C104.227 108.613 102.627 110.199 101.027 111.785C100.427 112.34 100.427 113.45 101.327 113.847C103.927 115.195 106.427 116.622 108.827 118.129C110.627 119.239 112.427 120.349 114.027 121.618C114.627 122.094 115.327 123.521 116.027 122.728C115.827 122.966 114.527 122.966 114.127 122.966C106.827 122.728 99.6273 122.173 92.4273 121.142C91.5273 120.984 90.3273 121.539 90.2273 122.332C90.0273 124.79 89.7273 127.328 89.4273 129.786C89.0273 133.038 89.0273 138.034 86.7273 140.889C85.9273 141.919 86.6273 141.602 85.8273 141.285C85.1273 141.047 84.4273 139.937 83.9273 139.461C82.2273 137.558 80.9273 135.496 79.6273 133.355C78.7273 131.927 77.6273 128.597 75.3273 128.2C72.3273 127.724 67.2273 129.866 64.4273 130.421C62.0273 130.897 59.4273 131.452 56.8273 131.372C53.1273 131.293 55.5273 129.469 57.1273 128.121C61.2273 124.711 66.6273 122.173 70.2273 118.446C73.0273 115.591 69.0273 110.992 67.8273 107.899C67.2273 106.154 64.8273 100.762 67.5273 99.4139C69.6273 98.3829 73.8273 100.286 75.6273 101C79.6273 102.586 83.4273 104.489 87.0273 106.63C87.7273 107.027 88.5273 107.027 89.3273 106.71C92.3273 105.361 95.3273 104.172 98.4273 102.982C100.227 102.269 109.027 98.3036 110.927 99.4139C113.327 100.524 115.727 98.2243 113.727 97.1141Z" fill="#1770D9" fill-opacity="0.13"/>
<g opacity="0.05">
<path d="M223.183 356.409C223.777 353.554 223.148 350.676 225.396 348.091C227.26 346.04 230.176 344.667 233.158 343.799C239.754 341.801 247.185 342.383 253.134 345.39C256.445 347.047 259.325 349.574 260.2 352.722C260.99 355.64 259.729 358.399 258.815 361.174C257.355 365.559 257.038 369.948 260.747 373.727C262.001 375.015 264.326 373.356 263.152 372.088C257.099 365.985 265.37 358.607 263.182 351.854C261.287 346.15 254.68 342.353 247.89 340.813C241.662 339.412 234.609 340.11 228.876 342.6C226.114 343.802 223.604 345.484 222.012 347.743C220.164 350.427 220.714 353.285 220.095 356.203C219.735 357.789 222.929 357.951 223.183 356.409Z" fill="#1770D9"/>
<path d="M230.754 370.498C238.544 373.751 230.776 383.207 229.728 388.113C228.705 392.955 229.522 398.044 232.895 402.228C241.228 412.386 257.42 409.272 269.404 405.884C282.181 402.274 294.744 395.4 297.792 384.288C300.915 372.985 291.058 363.567 282.878 355.261C279.902 352.082 274.208 348.649 269.312 351.696C267.007 353.081 266.373 355.367 265.813 357.462C264.814 361.123 263.268 364.161 259.309 366.393C257.71 367.324 259.778 369.231 261.376 368.3C265.125 366.156 267.413 363.023 268.442 359.508C269.102 357.158 269.175 354.733 272.152 353.655C276.447 352.135 279.434 355.736 281.728 358.187C289.316 366.207 298.6 375.065 294.028 385.8C289.556 396.28 276.425 401.688 263.953 404.745C257.637 406.254 250.92 407.664 244.371 406.184C237.581 404.644 233.47 399.648 232.672 394.286C231.699 388.251 235.49 383.535 236.998 377.906C237.998 374.244 236.996 370.297 232.537 368.426C230.711 367.695 228.929 369.767 230.754 370.498Z" fill="#1770D9"/>
<path d="M232.391 353.591L232.496 353.547C233.232 353.241 233.613 352.498 233.251 351.85C232.864 351.266 231.927 350.964 231.11 351.251L231.005 351.294C230.268 351.601 229.888 352.344 230.249 352.992C230.691 353.659 231.549 353.941 232.391 353.591Z" fill="#1770D9"/>
<path d="M287.966 365.382C287.193 369.589 281.097 370.314 276.976 371.389C273.753 372.197 270.806 373.423 268.135 375.066C263.791 377.83 260.962 381.668 261.578 386.148C263.036 395.653 275.758 402.709 286.904 397.648C288.638 396.82 287.307 394.606 285.493 395.414C272.217 401.414 257.572 386.483 268.685 377.924C273.459 374.289 279.275 374.052 284.884 371.879C288.202 370.606 290.436 368.506 291.055 365.588C291.334 363.982 288.246 363.776 287.966 365.382Z" fill="#1770D9"/>
<path d="M234.219 358.793C230.654 357.562 228.249 354.943 224.058 355.302C221.512 355.51 219.763 356.822 218.23 358.258C216.933 359.542 215.826 361.014 214.529 362.298C212.871 364.052 210.836 364.526 208.902 365.862C206.813 367.37 206.785 369.457 208.396 371.181C213.068 376.316 222.903 374.142 228.551 371.421C233.412 369.133 242.471 362.439 234.46 358.852C232.9 358.117 231.273 360.018 232.858 360.689C234.874 361.607 233.954 364.171 232.922 365.452C232.201 366.39 230.813 367.234 229.741 367.946C227.256 369.565 224.414 370.746 221.321 371.447C218.915 371.969 216.053 372.308 213.671 371.649C211.153 370.886 209.121 369.337 211.801 366.998C212.217 366.612 213.405 366.278 213.956 365.996C217.153 364.134 218.589 360.929 221.46 358.778C225.347 355.83 229.267 359.522 233.234 360.852C235.004 361.5 235.935 359.357 234.219 358.793Z" fill="#1770D9"/>
</g>
<g opacity="0.04" clip-path="url(#clip2)">
<path d="M132.748 248.15C127.013 239.044 113.409 230.803 102.329 232.309C91.4701 233.79 81.2977 246.266 88.6477 256.491C92.673 262.103 98.9705 265.561 104.926 268.79C109.882 271.548 115.265 273.717 121.109 272.861C133.428 271.166 138.064 258.7 132.748 248.15C131.756 246.194 128.647 247.724 129.732 249.714C134.844 259.658 128.567 270.783 116.768 269.581C109.07 268.806 98.6792 262.264 93.4492 256.746C83.972 246.812 95.3662 234.78 106.67 235.589C114.53 236.211 125.356 243.017 129.604 249.774C130.852 251.611 133.867 250.047 132.748 248.15Z" fill="#1770D9"/>
<path d="M112.573 272.632C116.872 277.493 121.965 282.216 128.68 283.06C136.028 283.921 142.042 279.084 146.423 273.76C156.194 262.096 160.334 245.726 154.265 231.391C147.999 216.134 132.686 205.569 116.547 203.428C100.373 201.382 85.4067 209.775 77.0972 223.567C73.2883 229.949 69.5141 238.579 72.5403 246.063C75.4127 253.384 83.171 256.629 90.331 258.592C92.467 259.155 93.4402 255.891 91.3042 255.328C83.3582 253.186 74.5487 249.027 74.9309 239.484C75.2877 230.889 81.1891 221.968 87.2879 216.311C100.271 204.005 119.537 203.983 134.251 213.266C148.965 222.55 157.325 239.951 151.904 256.92C149.446 264.857 143.946 274.137 136.403 278.206C127.963 282.693 120.409 276.543 115.068 270.453C113.692 268.676 111.129 271.044 112.573 272.632Z" fill="#1770D9"/>
<path d="M107.482 204.071C103.575 195.204 91.1687 189.526 82.7121 195.816C75.289 201.311 73.6686 213.383 80.0352 220.166C81.5734 221.788 84.136 219.421 82.5977 217.798C77.5557 212.349 79.0056 201.917 85.532 198.011C92.4769 193.831 101.577 198.947 104.466 205.636C105.33 207.652 108.345 206.087 107.482 204.071Z" fill="#1770D9"/>
<path d="M88.2872 213.269C87.0222 210.894 86.244 208.058 88.3281 205.836C90.6087 203.366 94.1971 204.032 95.6673 207.013C96.6247 209.064 99.6744 207.405 98.6828 205.449C96.5544 201.058 91.1204 199.616 87.0287 202.385C82.7405 205.402 82.9468 210.69 85.1777 214.799C86.2632 216.789 89.3727 215.259 88.2872 213.269Z" fill="#1770D9"/>
<path d="M154.856 237.67C163.511 236.985 171.167 244.023 169.281 253.02C167.506 261.419 159.476 263.608 152.034 262.712C149.796 262.431 149.703 265.908 151.941 266.19C161.621 267.366 171.667 263.143 172.844 252.293C174.012 241.758 165.184 233.55 154.915 234.287C152.728 234.45 152.635 237.927 154.856 237.67Z" fill="#1770D9"/>
<path d="M155.985 245.103C158.924 245.213 162.513 247.049 161.437 250.595C160.601 253.483 157.568 254.509 154.911 254.501C152.664 254.536 152.605 257.919 154.818 257.978C159.406 257.943 164.343 255.481 164.983 250.5C165.631 245.203 160.846 241.975 156.044 241.72C153.865 241.567 153.772 245.044 155.985 245.103Z" fill="#1770D9"/>
<path d="M108.036 235.341C106.381 246.337 118.763 252.963 127.262 246.263C129.039 244.887 126.672 242.325 124.895 243.701C118.369 248.777 110.2 243.149 111.42 235.4C111.855 233.323 108.412 233.136 108.036 235.341Z" fill="#1770D9"/>
<path d="M113.173 245.506C110.705 249.078 108.237 252.65 105.768 256.222C104.487 257.991 107.41 259.904 108.725 258.041C111.193 254.469 113.661 250.897 116.13 247.325C117.317 245.523 114.36 243.703 113.173 245.506Z" fill="#1770D9"/>
<path d="M96.7369 249.748C98.9689 258.539 110.547 264.448 119.064 262.968C121.226 262.583 120.525 259.243 118.269 259.593C111.691 260.714 101.796 255.736 100.111 248.953C99.5043 246.817 96.2238 247.646 96.7369 249.748Z" fill="#1770D9"/>
<path d="M108.922 225.874C108.794 225.934 108.7 225.9 108.572 225.96C107.649 226.156 107.086 227.122 107.282 228.045C107.479 228.967 108.445 229.531 109.367 229.334C109.496 229.274 109.59 229.309 109.718 229.249C110.64 229.052 111.204 228.086 111.007 227.164C110.717 226.207 109.845 225.678 108.922 225.874Z" fill="#1770D9"/>
<path d="M129.542 241.453C131.439 242.674 133.258 239.718 131.361 238.496C129.524 237.403 127.705 240.36 129.542 241.453Z" fill="#1770D9"/>
<path d="M79.4361 250.803C65.2383 257.667 50.7331 265.377 44.1582 280.543C43.3129 282.577 46.5768 283.55 47.4221 281.516C53.6555 267.29 67.8276 260.204 81.0003 253.818C83.0505 252.861 81.4863 249.846 79.4361 250.803Z" fill="#1770D9"/>
<path d="M124.741 281.31C124.728 295.988 124.492 311.862 114.465 323.646C112.996 325.346 115.363 327.909 116.832 326.208C127.671 313.655 128.299 297.285 128.278 281.531C128.184 279.156 124.707 279.063 124.741 281.31Z" fill="#1770D9"/>
<path d="M66.1122 302.99C67.8522 291.174 61.4162 279.898 48.3703 280.371C35.0681 280.964 26.7074 295.481 24.1215 306.99C22.8243 312.903 22.8341 318.439 26.4322 323.47C29.9106 328.245 35.7211 332.165 41.7615 332.232C54.9527 332.238 63.7825 314.379 66.0696 303.4C66.5389 301.23 63.1811 300.223 62.8057 302.427C61.0563 311.048 55.0789 323.985 46.5277 327.9C40.6675 330.558 34.2077 327.253 30.2766 322.846C26.0379 318.114 26.4124 312.398 27.8976 306.554C30.168 297.377 36.8804 285.346 47.1665 283.977C58.9136 282.393 64.2728 292.533 62.7631 302.837C62.3877 305.042 65.771 305.101 66.1122 302.99Z" fill="#1770D9"/>
<path d="M53.418 310.401C53.6218 305.155 50.3568 299.5 44.9825 298.185C38.4122 296.649 33.3046 303.092 32.3577 308.919C31.4192 314.43 34.0356 323.041 40.6656 323.535C47.6714 324.166 52.6847 316.518 53.418 310.401C53.6994 308.162 50.2221 308.069 49.9407 310.308C49.4547 314.28 45.6715 320.886 40.7246 320.152C35.7777 319.418 34.9642 311.994 35.98 308.32C37.0385 304.236 40.9845 299.818 45.479 302.09C48.444 303.593 50.0595 307.052 49.9407 310.308C49.9754 312.555 53.3245 312.708 53.418 310.401Z" fill="#1770D9"/>
<path d="M89.0815 319.423C97.3931 313.825 108.184 313.702 112.586 324.133C116.869 334.307 108.516 346.168 101.042 352.389C96.771 355.945 92.3973 358.611 86.6045 357.57C80.6579 356.367 74.7533 352.413 73.8803 346.031C73.0418 340.726 76.3127 335.53 78.9602 331.173C81.8041 326.567 85.2035 322.482 89.5001 319.149C91.2768 317.773 88.8755 315.305 87.1329 316.587C78.2834 323.372 65.8392 339.172 71.7542 351.004C74.4553 356.454 80.4024 359.998 86.3234 360.979C92.5263 362.063 97.4297 359.695 102.213 355.901C111.456 348.619 121.004 334.64 115.73 322.509C110.515 310.507 97.5715 309.527 87.6455 316.347C85.6808 317.655 87.245 320.67 89.0815 319.423Z" fill="#1770D9"/>
<path d="M87.8028 334.067C90.6902 332.562 94.5519 332.476 97.2179 334.509C101.217 337.558 98.886 343.095 95.6828 345.761C92.8982 348.154 85.6453 350.838 82.9445 346.559C80.3036 342.407 84.3261 336.314 87.8028 334.067C89.6052 332.913 88.0752 329.803 86.2386 331.051C81.0876 334.393 76.4504 342.177 79.8949 348.217C83.1856 354.094 92.1474 352.562 96.6918 349.426C101.561 345.982 105.173 338.676 100.917 333.406C97.49 329.075 90.9541 328.615 86.2386 331.051C84.2824 332.043 85.8124 335.152 87.8028 334.067Z" fill="#1770D9"/>
<path d="M53.4387 326.155C61.0598 327.435 66.9901 331.611 72.0578 337.283C73.596 338.906 76.1244 336.632 74.6203 334.916C69.151 328.885 62.5371 324.247 54.4119 322.891C52.2075 322.516 51.2343 325.78 53.4387 326.155Z" fill="#1770D9"/>
<path d="M74.4968 245.071C57.8373 246.998 40.1456 255.571 27.4525 266.493C17.1853 275.423 10.4746 294.477 25.8293 302.291C27.7945 303.324 29.6136 300.368 27.6483 299.334C20.2829 295.594 18.5208 286.974 21.4666 279.745C24.4807 272.329 31.1948 267.321 37.7894 263.227C49.2447 256.005 61.6485 249.978 75.2324 248.318C77.4195 248.155 76.59 244.874 74.4968 245.071Z" fill="#1770D9"/>
<path d="M133.662 282.529C138.176 294.703 136.505 309.842 135.089 322.521C134.305 329.365 132.949 337.49 128.841 343.233C123.716 350.308 115.437 349.96 107.833 348.048C105.697 347.484 104.69 350.842 106.86 351.312C113.174 352.967 120.299 353.854 126.245 350.376C133.19 346.196 135.922 337.507 137.449 330.082C139.199 321.461 139.564 312.55 139.767 303.793C140.038 296.018 139.515 288.38 136.771 280.999C135.976 278.795 132.926 280.453 133.662 282.529Z" fill="#1770D9"/>
<path d="M83.2645 255.492C77.3195 261.312 71.0077 269.02 70.1127 277.632C69.2687 285.518 74.6102 292.779 80.7284 297.023C86.8466 301.268 94.8096 302.778 101.781 299.991C110.477 296.555 116.122 286.583 120.033 278.748C120.972 276.748 118.11 274.963 117.077 276.929C114.036 282.953 110.347 289.592 105.137 293.976C99.1147 299.129 90.6395 299.029 84.0685 295.151C77.5916 291.308 71.9083 283.817 73.9227 275.931C75.5614 269.078 80.7886 262.892 85.6316 258.055C87.1606 256.482 84.7934 253.92 83.2645 255.492Z" fill="#1770D9"/>
<path d="M111.036 237.92C111.78 240.85 113.395 243.14 115.779 245.07C117.206 246.121 119.06 244.24 118.214 242.763C117.821 242.088 116.872 240.892 117.145 240.14C116.692 240.507 116.334 240.909 115.881 241.277C115.625 241.396 116.573 242.592 116.505 242.78C116.736 242.438 117.06 242.131 117.325 241.695C117.761 241.96 118.137 242.096 118.573 242.361C118.914 242.592 119.222 242.916 119.658 243.181C119.598 243.053 119.598 243.053 119.538 242.925C119.265 243.677 119.086 244.463 118.812 245.214C119.675 244.89 120.606 244.377 121.418 243.608C121.529 244.18 121.64 244.752 121.786 245.231C122.162 245.367 122.221 245.496 122.033 245.427C121.726 245.103 121.546 244.718 121.239 244.394C121.298 244.522 121.358 244.65 121.324 244.744C121.529 244.18 121.64 243.582 121.811 243.112C121.777 243.206 121.648 243.266 121.614 243.36C120.179 244.966 122.453 247.495 123.981 245.922C125.775 243.914 124.092 241.813 121.682 242.001C119.717 242.139 116.907 244.309 119.291 246.24C121.12 247.649 124.323 246.153 123.913 243.769C123.467 240.309 119.239 241.113 117.12 242.259C116.317 242.712 115.941 243.746 116.394 244.549C118.206 247.761 123.827 244.59 121.955 241.25C119.844 237.397 112.822 240.91 115.993 244.19C116.976 245.292 118.906 245.249 119.607 243.907C120.341 242.472 119.384 240.421 118.401 239.32C117.452 238.124 115.333 236.928 114.026 238.475C112.685 240.115 114.164 242.781 115.01 244.259C115.822 243.489 116.633 242.72 117.445 241.951C115.804 240.61 114.804 238.97 114.257 236.962C113.803 234.989 110.429 235.784 111.036 237.92Z" fill="#1770D9"/>
</g>
</g>
<defs>
<clipPath id="clip0">
<rect width="669" height="419" fill="white"/>
</clipPath>
<clipPath id="clip1">
<rect width="45.5545" height="56.4013" fill="white" transform="matrix(0.316609 0.948556 -0.978725 0.205175 386.201 -0.334717)"/>
</clipPath>
<clipPath id="clip2">
<rect width="160.7" height="136.4" fill="white" transform="translate(183.081 225.583) rotate(109.969)"/>
</clipPath>
</defs>
</svg>
