<svg width="84" height="72" viewBox="0 0 84 72" fill="none" xmlns="http://www.w3.org/2000/svg">
<g clip-path="url(#clip0)">
<path d="M68.8847 37.6918C68.8847 56.0262 54.0056 70.8984 35.6626 70.8984C17.3196 70.8984 2.44049 56.0262 2.44049 37.6918C2.44049 19.3574 17.3196 4.48523 35.6626 4.48523C54.0056 4.48523 68.8847 19.3574 68.8847 37.6918Z" fill="#8ADDFB"/>
<path d="M35.6626 72.0001C16.7291 72.0001 1.33833 56.6165 1.33833 37.6919C1.33833 18.7673 16.7291 3.38367 35.6626 3.38367C54.5961 3.38367 69.9869 18.7673 69.9869 37.6919C69.9869 56.6165 54.5961 72.0001 35.6626 72.0001ZM35.6626 5.62629C17.9494 5.62629 3.58201 20.0263 3.58201 37.6919C3.58201 55.3968 17.9888 69.7574 35.6626 69.7574C53.3758 69.7574 67.7432 55.3574 67.7432 37.6919C67.7432 19.9869 53.3758 5.62629 35.6626 5.62629Z" fill="white"/>
<path d="M7.87281 28.2098C12.124 17.2328 22.8306 9.44262 35.348 9.44262C47.7866 9.44262 57.3911 17.6262 62.7444 28.0525C63.2168 28.9574 64.3977 24.3934 65.7754 23.7246C67.153 23.0951 71.2468 23.8426 70.9319 23.1344C64.7126 9.56065 51.2111 0 35.348 0C19.6816 0 6.21958 9.2459 0.0396368 22.5443C-0.35399 23.3705 3.93654 23.0164 4.68444 23.5279C5.74723 24.1967 7.08556 30.059 7.87281 28.2098Z" fill="#F27179"/>
<path d="M15.8632 14.0066L15.3908 12.4721L15.3121 12.2361C14.1706 11.5672 13.1865 10.977 12.3205 10.4656V10.4262L12.2812 10.3869C12.2024 10.3082 12.2418 10.1902 12.3992 10.1115L12.7535 9.83606L12.7929 9.79672C12.911 9.71803 13.0291 9.71803 13.1471 9.79672L14.9185 10.977L14.2099 8.97049C14.1706 8.85245 14.2099 8.73442 14.328 8.61639C14.328 8.61639 14.3674 8.57705 14.4461 8.5377C14.5248 8.49836 14.5642 8.45901 14.6036 8.41967C14.6429 8.38032 14.6823 8.38032 14.761 8.34098C14.8397 8.30164 14.8791 8.30164 14.9185 8.30164C14.9578 8.30164 14.9972 8.34098 15.0366 8.38032L15.0759 8.41967V8.45901C15.4695 9.75737 15.9813 11.3705 16.5717 13.3377L16.6504 13.5738C16.6898 13.6525 16.6504 13.7311 16.6111 13.7705C16.5717 13.8098 16.493 13.8885 16.3749 13.9672C16.2568 14.0459 16.1781 14.0852 16.1387 14.1246C16.0206 14.2033 15.9419 14.2033 15.8632 14.1246C15.8632 14.0459 15.8632 14.0066 15.8632 14.0066Z" fill="white"/>
<path d="M19.8388 9.4426C19.9175 9.52129 19.9963 9.71801 20.1537 9.91473L20.1931 9.99342C20.2324 10.0721 20.2718 10.1508 20.3112 10.1901C20.3899 10.3082 20.4292 10.4262 20.508 10.4656C20.508 10.4656 20.5473 10.5049 20.5867 10.5836C20.6261 10.6623 20.6261 10.7016 20.6654 10.7016C20.6654 10.7016 20.6654 10.741 20.7048 10.741C20.7048 10.7803 20.7441 10.7803 20.7441 10.7803C20.8229 10.8983 20.7835 11.0164 20.7048 11.0557C20.6654 11.0557 20.6261 11.0951 20.5473 11.1737C20.4686 11.2131 20.4292 11.2524 20.3505 11.2918C20.2718 11.3311 20.2324 11.4098 20.1537 11.4098C20.075 11.4098 20.0356 11.4492 19.9963 11.4098C19.9569 11.4098 19.9175 11.3705 19.8782 11.2918L19.6813 10.9377L19.2877 10.2688C19.1303 10.0328 19.0515 9.87539 18.9728 9.75736C18.2249 8.49834 17.8313 7.7508 17.6739 7.55408L17.6345 7.51473L17.5951 7.47539C17.477 7.55408 17.2409 7.67211 16.9653 7.82949C17.2409 8.34096 17.6739 9.28523 18.3037 10.6623C18.5792 11.2131 18.6973 11.6459 18.6579 11.9213C18.6186 12.1967 18.4217 12.4328 18.1462 12.6295C18.0281 12.7082 17.91 12.7082 17.7919 12.6295C17.6739 12.5508 17.5951 12.4721 17.5558 12.3541C17.5164 12.236 17.5164 12.1574 17.5558 12.118C17.5951 12.0787 17.6345 12.0787 17.6345 12.0393C17.6739 12 17.6739 11.9606 17.7132 11.9213C17.7132 11.8819 17.7526 11.8426 17.7526 11.8426C17.7526 11.8033 17.7526 11.8033 17.7526 11.7246C17.7526 11.6459 17.7526 11.6459 17.7526 11.6065C17.7526 11.5672 17.7526 11.5278 17.7132 11.4885C17.6739 11.4492 17.6739 11.4098 17.6739 11.3705C17.6739 11.3311 17.6345 11.2918 17.5951 11.2131C17.5558 11.1344 17.5558 11.0951 17.5164 11.0557C16.6504 9.24588 16.0993 8.1049 15.8632 7.71146C15.7844 7.59342 15.8238 7.51473 15.9025 7.47539L16.4142 7.19998C16.4536 7.16064 16.5323 7.12129 16.6111 7.08195C16.6898 7.0426 16.7685 7.00326 16.8079 6.96391C16.8079 6.96391 16.8079 6.96391 16.8472 6.96391C16.8866 6.92457 16.926 6.92457 16.9653 6.88523C17.3196 6.6885 17.5951 6.53113 17.8313 6.37375H17.8707C17.9888 6.33441 18.0675 6.33441 18.1068 6.45244C18.1462 6.49178 18.1856 6.57047 18.2249 6.64916L18.343 6.84588C18.3824 6.88523 18.4217 6.96391 18.4611 7.0426C18.5005 7.12129 18.5398 7.19998 18.5792 7.23932C18.6186 7.31801 18.6973 7.43605 18.776 7.59342C18.8547 7.7508 18.8941 7.86883 18.9335 7.90818L19.0909 8.22293L19.1303 8.30162L19.3664 8.77375C19.5239 8.93113 19.6813 9.16719 19.8388 9.4426Z" fill="white"/>
<path d="M21.2952 10.4656C21.0984 9.99349 20.7835 9.24595 20.3505 8.30169C19.9175 7.31808 19.6026 6.60989 19.4058 6.13776L19.3271 6.01972C19.2877 5.90169 19.3271 5.823 19.4845 5.74431L19.9569 5.54759C20.075 5.50825 20.1143 5.54759 20.1931 5.66562L20.8229 7.08202C21.2952 6.8853 21.7282 6.84595 22.1612 7.04267C22.5942 7.20005 22.9485 7.59349 23.1846 8.14431C23.3027 8.41972 23.3814 8.73448 23.3421 9.00989C23.3027 9.2853 23.224 9.52136 23.1059 9.75743C22.9878 9.99349 22.791 10.1509 22.6336 10.3082C22.4367 10.4656 22.2399 10.5837 22.0431 10.7017C21.8463 10.7804 21.6888 10.8197 21.5708 10.8197C21.4527 10.8197 21.3739 10.623 21.2952 10.4656ZM21.0197 7.75087C21.0984 7.90825 21.1771 8.14431 21.3346 8.41972C21.492 8.73448 21.5708 8.9312 21.6495 9.08858C21.7282 9.24595 21.8069 9.48202 21.9644 9.79677C22.1218 9.71808 22.2793 9.52136 22.358 9.2853C22.4367 9.00989 22.4367 8.73448 22.3187 8.41972C22.2793 8.30169 22.2006 8.223 22.1612 8.10497C22.0825 8.02628 22.0038 7.90825 21.925 7.82956C21.8069 7.75087 21.6888 7.67218 21.5708 7.67218C21.3346 7.63284 21.1771 7.67218 21.0197 7.75087Z" fill="white"/>
<path d="M23.8932 3.97376C24.0506 3.89507 24.2474 3.85573 24.4836 3.77704L24.6411 3.73769L24.7985 3.69835C24.8772 3.659 24.956 3.69835 24.9953 3.81638C25.1134 4.13114 25.1528 4.32786 25.1528 4.3672C25.1528 4.44589 25.074 4.48523 24.9953 4.52458C24.523 4.68195 24.2868 4.76064 24.2474 4.79999L24.0112 4.87868C24.1293 5.19343 24.2081 5.4295 24.2868 5.66556C24.3655 5.86228 24.4442 6.17704 24.6017 6.60982C24.7198 7.04261 24.8379 7.35737 24.9166 7.55409C25.0347 7.90819 25.1134 8.10491 25.1528 8.1836L25.2709 8.45901L25.4283 8.97048C25.4677 9.08851 25.4283 9.1672 25.3496 9.20655L24.7591 9.40327C24.6804 9.44261 24.6411 9.40327 24.5623 9.32458C24.523 9.24589 24.4836 9.12786 24.4049 8.93114L24.0506 7.94753C24.0506 7.86884 24.0112 7.79015 24.0112 7.75081L23.9325 7.55409C23.8932 7.39671 23.8144 7.19999 23.7357 6.92458C23.657 6.64917 23.5783 6.45245 23.5389 6.29507L23.3421 5.74425C23.2634 5.54753 23.224 5.35081 23.1453 5.19343L22.8304 5.31146C22.6729 5.35081 22.5155 5.4295 22.358 5.46884C22.1612 5.46884 22.0825 5.50818 22.0431 5.50818C21.9644 5.50818 21.925 5.50818 21.8857 5.46884C21.8463 5.4295 21.8069 5.31146 21.7282 5.0754L21.6888 4.91802C21.6495 4.83933 21.6495 4.76064 21.6888 4.7213C21.7282 4.68195 21.8069 4.64261 21.925 4.60327L22.0825 4.56392C22.1218 4.56392 22.2399 4.52458 22.3974 4.48523C22.5548 4.44589 22.6729 4.40655 22.7516 4.3672L23.1059 4.24917C23.1453 4.24917 23.224 4.20982 23.3027 4.20982C23.3814 4.17048 23.4602 4.17048 23.4995 4.13114C23.5783 4.09179 23.657 4.09179 23.7357 4.05245C23.8144 4.0131 23.8538 4.0131 23.8932 3.97376Z" fill="white"/>
<path d="M27.7901 8.38029C27.8294 8.49832 27.7507 8.57701 27.5933 8.61635L27.1603 8.69504C27.0028 8.73438 26.9241 8.6557 26.8847 8.49832V8.41963C26.7666 7.90815 26.6092 7.12127 26.373 6.09832C26.1368 5.07537 25.9794 4.28848 25.8613 3.77701C25.7826 3.5016 25.94 3.30488 26.2549 3.26553C26.806 3.1475 27.3571 3.22619 27.8688 3.46225C28.3805 3.73766 28.6954 4.17045 28.8135 4.79996C28.8922 5.1934 28.8922 5.58684 28.8529 5.9016C28.7741 6.2557 28.656 6.49176 28.4199 6.72783C28.2231 6.92455 27.9475 7.04258 27.5145 7.12127C27.5539 7.2393 27.5933 7.43602 27.6326 7.75078C27.7113 8.02619 27.7507 8.26225 27.7901 8.38029ZM26.7666 3.93438C26.7666 4.01307 26.7666 4.05242 26.7666 4.09176C26.7666 4.09176 26.7666 4.09176 26.7666 4.13111V4.17045C26.9635 5.15406 27.1209 5.94094 27.239 6.49176C27.3964 6.45242 27.5539 6.37373 27.6326 6.29504C27.7507 6.17701 27.7901 6.05897 27.8294 5.94094C27.8688 5.82291 27.8688 5.66553 27.8688 5.5475C27.8688 5.42947 27.8688 5.31143 27.8294 5.15406C27.7507 4.72127 27.5539 4.40652 27.3571 4.20979C27.1603 4.01307 26.9241 3.89504 26.7666 3.93438Z" fill="white"/>
<path d="M30.7423 2.95078L31.6083 5.58684V5.62619V5.66553V5.62619C31.7657 6.01963 31.8838 6.41307 32.0412 6.80651C32.1987 7.19996 32.2774 7.43602 32.2774 7.47537C32.3168 7.63274 32.3168 7.75078 32.2381 7.79012C32.1593 7.82947 32.0019 7.86881 31.7657 7.90815C31.687 7.90815 31.6083 7.90815 31.5295 7.90815C31.4902 7.90815 31.4114 7.86881 31.3721 7.82947C31.3327 7.79012 31.2934 7.75078 31.2934 7.71143C31.2934 7.67209 31.254 7.63274 31.254 7.55406L31.2146 7.43602V7.39668L31.0572 6.80651L30.9784 6.60979L30.3486 6.68848C30.3486 6.68848 30.3486 6.72783 30.3486 6.76717C30.3486 6.80652 30.3486 6.80651 30.3486 6.84586C30.3486 6.92455 30.3093 7.12127 30.3093 7.47537C30.3093 7.71143 30.2699 7.90815 30.2306 7.98684C30.1912 8.06553 30.0337 8.14422 29.8369 8.14422C29.6401 8.18356 29.522 8.18356 29.4433 8.14422C29.3646 8.10488 29.3252 8.06553 29.3252 7.90815C29.3252 7.75078 29.3252 7.5934 29.3252 7.47537C29.3252 7.43602 29.3252 7.39668 29.3252 7.27865C29.3252 7.19996 29.3252 7.12127 29.3252 7.04258L29.3646 6.84586C29.3646 6.80651 29.3646 6.80652 29.3646 6.76717V6.68848L29.4827 5.74422V5.70488L29.6795 3.02947C29.7188 2.75406 29.8763 2.63602 30.0731 2.59668C30.4274 2.59668 30.6242 2.71471 30.7423 2.95078ZM30.7029 5.70488L30.4274 4.68193L30.3486 5.74422L30.7029 5.70488Z" fill="white"/>
<path d="M32.7104 7.59346L33.1828 6.05903L33.2615 5.78362C32.7104 4.60329 32.2381 3.541 31.8051 2.63608V2.59674V2.55739C31.8051 2.43936 31.8838 2.40002 32.0412 2.36067H32.4742H32.553C32.7104 2.36067 32.7891 2.40002 32.8285 2.55739L33.6158 4.56395H33.6551L34.2456 2.51805C34.2849 2.36067 34.403 2.32133 34.5605 2.28198C34.5605 2.28198 34.6392 2.28198 34.7179 2.28198C34.7966 2.28198 34.8754 2.28198 34.9147 2.28198C34.9541 2.28198 34.9934 2.28198 35.0722 2.28198C35.1509 2.28198 35.1903 2.32133 35.2296 2.32133C35.269 2.36067 35.269 2.40002 35.269 2.43936V2.4787V2.51805C34.8754 3.81641 34.3636 5.42952 33.7338 7.35739L33.6551 7.59346C33.6158 7.67215 33.5764 7.71149 33.4977 7.75084C33.4189 7.79018 33.3402 7.79018 33.1828 7.79018C33.0253 7.79018 32.9466 7.79018 32.9072 7.79018C32.7498 7.79018 32.7104 7.75084 32.671 7.6328C32.7104 7.6328 32.7104 7.6328 32.7104 7.59346Z" fill="white"/>
<path d="M38.8904 7.9476C38.8904 8.06564 38.8904 8.14432 38.851 8.22301C38.851 8.3017 38.851 8.34105 38.851 8.34105V8.53777C38.851 8.61646 38.8116 8.6558 38.7723 8.69514C38.7329 8.73449 38.6935 8.73449 38.6542 8.73449C38.6148 8.73449 38.5755 8.73449 38.4967 8.73449H38.2605H38.2212C38.1818 8.73449 38.1818 8.73449 38.1818 8.73449H38.1425C38.1425 8.73449 38.1031 8.73449 38.0637 8.69514L38.0244 8.6558C38.0244 8.6558 37.985 8.61645 37.985 8.57711C37.985 8.53777 37.985 8.49842 37.985 8.45908C37.985 8.41973 37.985 8.22301 37.985 7.86891H37.7095C37.6701 7.86891 37.552 7.86891 37.3946 7.82957C37.2371 7.82957 37.119 7.79023 37.0403 7.79023H36.8829C36.8041 7.79023 36.6467 7.79023 36.4892 7.79023C36.3318 7.79023 36.2137 7.79023 36.135 7.79023H36.0169L35.9775 8.38039C35.9775 8.53777 35.8988 8.57711 35.7807 8.61645C35.7413 8.61645 35.6626 8.61645 35.5839 8.61645C35.5052 8.61645 35.4264 8.61645 35.3871 8.61645C35.3477 8.61645 35.269 8.61645 35.2296 8.57711C35.1903 8.53777 35.0328 8.45908 35.0328 8.41973C34.9934 8.38039 34.9934 8.3017 34.9934 8.26236L35.0328 7.82957C35.0328 7.79023 35.0328 7.75088 35.0328 7.67219C35.0328 7.5935 35.0328 7.55416 35.0328 7.47547V7.31809C35.0328 7.20006 35.0722 7.12137 35.1115 7.08203C35.1509 7.04268 35.2296 7.00334 35.3477 7.04268C35.5839 6.88531 35.7807 6.37383 35.8988 5.42957C36.0956 3.89514 36.2137 2.99023 36.253 2.71482V2.55744C36.2924 2.40006 36.3711 2.36072 36.5286 2.36072H36.7648C36.8041 2.36072 36.8435 2.36072 36.9222 2.36072C37.0009 2.36072 37.0403 2.36072 37.0797 2.36072H37.119C37.1584 2.36072 37.1584 2.36072 37.1978 2.36072C37.2371 2.36072 37.2765 2.36072 37.3552 2.36072C37.4339 2.36072 37.4733 2.36072 37.4733 2.36072C37.5127 2.36072 37.5127 2.36072 37.552 2.36072C37.5914 2.36072 37.7488 2.36072 37.9063 2.40006C38.1031 2.40006 38.2212 2.43941 38.2999 2.43941H38.418C38.4967 2.43941 38.5361 2.43941 38.5755 2.47875C38.6148 2.47875 38.6148 2.51809 38.6542 2.59678C38.6935 2.67547 38.6935 2.7935 38.6935 2.95088V3.10826V3.42301C38.6935 3.54105 38.6935 3.65908 38.6542 3.69842L38.4574 6.49186C38.4574 6.57055 38.4574 6.68859 38.4574 6.80662V6.84596C38.4574 6.88531 38.4574 6.88531 38.4574 6.88531V7.08203H38.6935H38.7329C38.7723 7.08203 38.8116 7.08203 38.8116 7.12137C38.8116 7.16072 38.851 7.20006 38.851 7.23941C38.851 7.27875 38.851 7.27875 38.851 7.31809C38.851 7.35744 38.851 7.39678 38.851 7.43613C38.851 7.47547 38.851 7.55416 38.851 7.63285C38.8904 7.82957 38.8904 7.90826 38.8904 7.9476ZM36.4892 6.84596C36.4499 6.964 36.4105 7.04268 36.4105 7.08203L37.5914 7.16072C37.5914 7.08203 37.5914 6.964 37.5914 6.76727C37.5914 6.6099 37.5914 6.45252 37.5914 6.37383L37.6307 5.94105C37.6307 5.86236 37.6307 5.78367 37.6307 5.74432C37.6307 5.46891 37.6701 5.03613 37.7095 4.40662C37.7488 3.77711 37.7882 3.46236 37.7882 3.38367V3.26564C37.7882 3.22629 37.7882 3.18695 37.7882 3.18695C37.6307 3.18695 37.3946 3.18695 37.119 3.1476C37.0797 3.77711 36.9616 4.48531 36.8041 5.31154C36.6467 6.13777 36.568 6.64924 36.4892 6.84596Z" fill="white"/>
<path d="M42.7479 5.23273C42.7479 5.31142 42.7085 5.50814 42.6692 5.74421C42.6298 5.98028 42.5904 6.177 42.5904 6.29503C42.5117 6.64913 42.433 6.96388 42.3543 7.19995C42.2755 7.47536 42.1575 7.67208 42.0394 7.79011C41.9213 7.94749 41.8426 8.02618 41.7638 8.10487C41.6851 8.18355 41.6064 8.2229 41.4883 8.30159L41.4096 8.34093C41.2127 8.45896 40.9372 8.49831 40.5436 8.41962C40.3074 8.38028 40.0712 8.26224 39.9138 8.10487C39.7563 7.94749 39.6382 7.75077 39.5595 7.5147C39.4808 7.27864 39.4414 7.00323 39.4414 6.72782C39.4021 6.45241 39.4414 6.13765 39.4808 5.86224C39.5202 5.54749 39.5989 5.27208 39.6776 4.99667C39.9138 4.17044 40.1893 3.58028 40.5042 3.18683C40.8191 2.83273 41.2521 2.67536 41.8032 2.79339C42.0394 2.83273 42.2362 2.95077 42.3936 3.10814C42.5511 3.26552 42.6692 3.46224 42.7085 3.69831C42.7479 3.93437 42.7873 4.17044 42.7873 4.4065C42.7873 4.64257 42.7873 4.87864 42.7479 5.15405C42.7479 5.19339 42.7479 5.23273 42.7479 5.23273ZM41.7638 5.15405C41.9213 4.32782 41.8426 3.89503 41.4883 3.81634C41.3702 3.81634 41.2521 3.89503 41.0947 4.05241C40.9372 4.20978 40.8585 4.4065 40.7798 4.60323C40.7798 4.64257 40.7404 4.7606 40.701 4.95732C40.6617 5.1147 40.6223 5.27208 40.5829 5.42946C40.5436 5.70487 40.5042 5.94093 40.4649 6.13765C40.3468 7.00323 40.4649 7.47536 40.8191 7.55405C40.8585 7.55405 40.8978 7.55405 40.9372 7.5147C40.9766 7.47536 41.0159 7.43601 41.0553 7.39667C41.0947 7.35732 41.134 7.27864 41.134 7.23929C41.1734 7.19995 41.1734 7.1606 41.2127 7.08191C41.2521 7.00323 41.2521 6.96388 41.2915 6.96388C41.4096 6.68847 41.5277 6.33437 41.6064 5.8229C41.6851 5.62618 41.7245 5.39011 41.7638 5.15405Z" fill="white"/>
<path d="M44.6767 5.46884C44.9522 5.54753 45.2277 5.7049 45.4246 5.86228C45.6214 6.059 45.7788 6.29507 45.8575 6.64917C45.9363 6.96392 45.9363 7.35736 45.8182 7.75081C45.7395 8.06556 45.582 8.30163 45.3852 8.49835C45.1884 8.69507 44.9522 8.85245 44.716 8.93113C44.4799 9.00982 44.2437 9.04917 43.9681 9.04917C43.732 9.04917 43.4958 9.00982 43.2596 8.93113C43.0628 8.85245 42.9054 8.77376 42.8266 8.69507C42.7479 8.61638 42.7479 8.49835 42.7873 8.34097L44.1256 3.85572V3.81638L44.2043 3.58031C44.2437 3.50162 44.283 3.46228 44.3224 3.46228C44.3618 3.46228 44.4405 3.46228 44.5586 3.50162L45.582 3.81638C45.6607 3.85572 45.7788 3.89507 45.9363 3.93441C46.0937 3.97376 46.2118 4.0131 46.2512 4.0131C46.448 4.09179 46.5661 4.17048 46.5267 4.28851C46.5267 4.3672 46.4874 4.40654 46.4874 4.48523C46.4874 4.56392 46.448 4.60326 46.448 4.64261C46.448 4.68195 46.4086 4.68195 46.4086 4.7213C46.4086 4.76064 46.3693 4.76064 46.3299 4.76064C46.2905 4.76064 46.2512 4.76064 46.2118 4.76064C46.1725 4.76064 46.0937 4.76064 46.015 4.7213C45.5426 4.56392 45.1884 4.48523 44.9522 4.40654L44.8735 4.64261C44.8341 4.7213 44.7948 4.83933 44.7554 5.03605C44.716 5.23277 44.6767 5.42949 44.6767 5.46884ZM44.3618 6.09835C44.0469 7.23933 43.8501 7.98687 43.732 8.34097C43.9288 8.38031 44.1256 8.34097 44.3618 8.18359C44.5979 8.02622 44.7554 7.79015 44.8735 7.4754C44.9128 7.35736 44.9128 7.23933 44.9522 7.1213C44.9522 7.00326 44.9522 6.88523 44.9522 6.72785C44.9522 6.57048 44.8735 6.45245 44.7948 6.37376C44.6767 6.25572 44.5586 6.17703 44.3618 6.09835Z" fill="white"/>
<path d="M48.6523 5.35083C48.6129 5.46886 48.5342 5.62624 48.4161 5.8623C48.3768 5.90165 48.3768 5.98033 48.3374 6.09837C48.298 6.17706 48.2587 6.25574 48.2587 6.29509L48.1799 6.49181C48.1406 6.60984 48.1012 6.68853 48.0619 6.72788L47.9831 6.88525C47.9438 6.9246 47.9438 6.96394 47.9438 7.00328L47.865 7.12132C47.9831 7.20001 48.2587 7.31804 48.7704 7.5541H48.8097C49.0066 7.12132 49.2034 6.68853 49.4002 6.29509L49.6364 5.70492C49.6757 5.66558 49.6757 5.62624 49.7151 5.58689C49.7545 5.54755 49.7938 5.54755 49.8332 5.54755C49.8725 5.54755 49.9119 5.54755 49.9513 5.58689C49.9906 5.62624 50.03 5.62624 50.0694 5.66558C50.1087 5.70492 50.1481 5.70492 50.1481 5.70492L50.3843 5.82296C50.5023 5.8623 50.5023 5.94099 50.463 6.05902L50.2662 6.45247C50.1874 6.60984 50.1481 6.72787 50.1087 6.80656L49.9906 7.08197L49.7938 7.47542C49.7545 7.5541 49.7151 7.67214 49.597 7.82951C49.4789 8.02624 49.4002 8.22296 49.2821 8.45902C49.2821 8.49837 49.2427 8.53771 49.2034 8.65574C49.164 8.77378 49.1246 8.85246 49.1246 8.89181L49.0459 9.08853L48.7704 9.71804C48.731 9.83607 48.6917 9.91476 48.6523 9.9541L48.5736 10.1115C48.5342 10.2295 48.4948 10.3082 48.4555 10.3869C48.4555 10.3869 48.4555 10.4262 48.4161 10.4656C48.4161 10.5049 48.3768 10.5049 48.3768 10.5443V10.5836C48.3768 10.623 48.3768 10.623 48.3768 10.623C48.3374 10.741 48.2193 10.7803 48.1406 10.741C48.1406 10.741 48.1012 10.741 48.0619 10.7016C48.0225 10.7016 48.0225 10.6623 48.0225 10.6623L47.6289 10.5049C47.5501 10.4262 47.5108 10.3475 47.5501 10.2295C47.5895 10.1508 47.6289 10.0328 47.7076 9.87542C47.747 9.75738 47.7863 9.63935 47.8257 9.60001L47.865 9.48197C48.0225 9.12787 48.1012 8.89181 48.1799 8.73443L48.2193 8.65574C48.2587 8.53771 48.298 8.45902 48.3374 8.38033C48.3374 8.34099 48.3374 8.34099 48.3374 8.30165C48.1406 8.22296 47.8257 8.06558 47.3927 7.9082C47.2746 8.18361 47.1565 8.49837 46.9991 8.89181C46.9203 9.08853 46.8023 9.28525 46.7235 9.44263C46.6448 9.60001 46.5661 9.71804 46.5661 9.79673L46.5267 9.83607C46.4874 9.91476 46.4086 9.9541 46.2905 9.91476L46.0544 9.79673C46.015 9.79673 45.9756 9.75738 45.8575 9.71804C45.7395 9.67869 45.7001 9.63935 45.6607 9.63935C45.6214 9.60001 45.582 9.56066 45.582 9.52132C45.582 9.44263 45.582 9.40328 45.6214 9.28525C45.6214 9.28525 45.6214 9.24591 45.6607 9.20656C45.6607 9.16722 45.7001 9.16722 45.7001 9.16722C45.7001 9.12787 45.7395 9.08853 45.7395 9.04919C45.7788 9.00984 45.7788 8.93115 45.7788 8.89181C45.8182 8.81312 45.8575 8.69509 45.9363 8.57705C46.015 8.41968 46.0544 8.34099 46.0937 8.2623C46.1331 8.14427 46.1725 8.06558 46.2118 7.98689L46.9991 6.17706C47.0384 6.13771 47.0384 6.05902 47.0778 5.98033C47.1172 5.90165 47.1172 5.82296 47.1565 5.74427C47.1959 5.66558 47.1959 5.58689 47.2352 5.54755L47.4321 5.07542C47.4321 5.07542 47.4321 5.03607 47.4714 5.03607C47.4714 4.99673 47.5108 4.99673 47.5108 4.99673C47.5108 4.99673 47.5108 4.95738 47.5501 4.91804C47.5501 4.8787 47.5895 4.83935 47.5895 4.80001C47.6289 4.76066 47.6289 4.72132 47.7076 4.68197C47.747 4.64263 47.7863 4.64263 47.865 4.68197C47.9438 4.72132 47.9831 4.72132 48.0225 4.72132C48.0619 4.72132 48.1406 4.76066 48.2193 4.80001C48.298 4.83935 48.3768 4.8787 48.4161 4.8787C48.731 4.99673 48.7704 5.15411 48.6523 5.35083Z" fill="white"/>
<path d="M49.2427 10.8589L51.6439 7.00321L51.8407 6.7278C51.9194 6.60977 52.0375 6.57042 52.1949 6.68846L52.5886 6.92452C52.7067 7.00321 52.746 7.12124 52.6673 7.23927L52.6279 7.27862C52.6279 7.31796 52.5886 7.35731 52.5492 7.39665C52.5098 7.436 52.4705 7.51469 52.4705 7.51469L51.8407 8.53764C52.2737 8.85239 52.5098 9.20649 52.6279 9.63928C52.7067 10.0721 52.6279 10.5048 52.313 10.977C52.1556 11.2524 51.9194 11.4885 51.6832 11.6458C51.4471 11.8032 51.2109 11.8819 50.9353 11.8819C50.6598 11.8819 50.4236 11.8819 50.1874 11.8032C49.9513 11.7245 49.7151 11.6458 49.5183 11.5278C49.3215 11.4098 49.2034 11.2917 49.164 11.213C49.1247 11.095 49.164 10.977 49.2427 10.8589ZM51.3683 9.08846C51.2896 9.20649 51.1321 9.52124 50.8566 9.95403C50.5811 10.3868 50.3843 10.7409 50.2268 10.977C50.3843 11.0557 50.5811 11.0557 50.8566 10.977C51.1321 10.8983 51.329 10.7016 51.5258 10.4262C51.6045 10.3081 51.6439 10.2294 51.6832 10.1114C51.7226 9.99337 51.762 9.87534 51.762 9.75731C51.8013 9.63928 51.762 9.4819 51.6832 9.36387C51.6045 9.28518 51.4864 9.16714 51.3683 9.08846ZM52.2737 11.8426C52.313 11.7639 52.3918 11.6852 52.4705 11.5278C52.5492 11.3704 52.5886 11.3311 52.6279 11.2917L53.1003 10.5442C53.3758 10.1114 53.6514 9.63928 53.9663 9.1278L54.1631 8.7737C54.1631 8.73436 54.2024 8.69501 54.2418 8.61632C54.2812 8.53764 54.3205 8.49829 54.3205 8.49829C54.3599 8.4196 54.3993 8.34091 54.4386 8.30157C54.5173 8.18354 54.5961 8.18354 54.6748 8.22288L55.2259 8.57698C55.3046 8.61632 55.344 8.69501 55.2652 8.81305C55.2652 8.85239 55.2259 8.89173 55.1865 8.93108C55.1471 8.97042 55.1078 9.04911 55.1078 9.08846C55.0684 9.16714 54.9897 9.24583 54.911 9.36387C54.8322 9.4819 54.7929 9.59993 54.7535 9.63928L54.4386 10.1508L54.2418 10.5048C53.8875 11.0557 53.5726 11.5671 53.2971 12.0393C53.0216 12.5114 52.8247 12.8262 52.746 12.9442C52.6673 13.0622 52.6279 13.1409 52.5886 13.1803C52.5492 13.2196 52.5098 13.2589 52.4705 13.2589C52.4311 13.2589 52.4311 13.2589 52.3918 13.2196L51.8407 12.8655C51.762 12.8262 51.7226 12.7081 51.8013 12.6294C51.8407 12.5901 51.88 12.5114 51.9194 12.4327C51.9588 12.354 51.9981 12.2753 52.0375 12.236C52.0769 12.1967 52.1162 12.118 52.1556 12.0393C52.1949 11.9606 52.2737 11.8819 52.2737 11.8426Z" fill="white"/>
<path d="M55.9738 13.1017C55.6982 12.8656 55.462 12.7083 55.2652 12.5115C55.2259 12.5509 55.2259 12.5509 55.1865 12.6296C55.1471 12.6689 55.1078 12.7083 55.1078 12.7476C54.911 12.9837 54.7535 13.1804 54.6748 13.2984C54.6748 13.3378 54.6354 13.3771 54.5567 13.4165C54.478 13.4558 54.4386 13.5345 54.4386 13.5738C54.4386 13.5738 54.3993 13.6132 54.3993 13.6525C54.3599 13.6919 54.3599 13.7312 54.3599 13.7312C54.5173 13.8492 54.6748 14.0066 54.8716 14.1247C55.0684 14.282 55.1865 14.3607 55.2259 14.4001L55.2652 14.4394C55.3046 14.4394 55.3046 14.4787 55.344 14.5181C55.3833 14.5574 55.3833 14.5574 55.4227 14.5574C55.5014 14.5968 55.5014 14.6755 55.5014 14.7148C55.5014 14.7542 55.4621 14.8328 55.3833 14.9509L55.3046 15.0296C55.1865 15.1869 55.0684 15.2656 55.0291 15.2656C54.9897 15.2656 54.8716 15.2263 54.7535 15.1476C54.7142 15.1083 54.6748 15.0689 54.6354 15.0296L54.478 14.8722C54.3993 14.8328 54.3205 14.7542 54.2418 14.6755C54.1631 14.5968 54.045 14.5181 54.0056 14.4787C53.9269 14.4001 53.8482 14.3214 53.6907 14.2427C53.5726 14.164 53.4939 14.0853 53.4546 14.046C53.4546 14.046 53.4152 14.0066 53.3758 14.0066C53.2971 13.9279 53.2184 13.8492 53.179 13.8492C53.1397 13.8099 53.1396 13.7706 53.1003 13.7312C53.1003 13.6919 53.1003 13.6132 53.179 13.5738L53.6514 13.023C53.6907 12.9837 53.7695 12.8656 53.8875 12.7476C54.0056 12.6296 54.0844 12.5115 54.1631 12.4328L54.2812 12.2755C54.3205 12.1968 54.3993 12.1181 54.5173 12.0001C54.5961 11.882 54.6748 11.8033 54.7142 11.764C54.7535 11.7247 54.7535 11.7247 54.7929 11.646C54.8322 11.6066 54.8716 11.5673 54.8716 11.5673L55.7376 10.505L56.2099 9.95416C56.2099 9.95416 56.2493 9.91481 56.2887 9.83613C56.328 9.75744 56.3674 9.75744 56.3674 9.71809C56.4068 9.67875 56.4461 9.6394 56.4855 9.6394C56.5248 9.6394 56.6036 9.6394 56.6429 9.67875C56.7217 9.71809 56.761 9.75744 56.8004 9.79678C56.8397 9.83613 56.9185 9.87547 56.9972 9.95416C57.1153 10.0328 57.2727 10.1509 57.5089 10.3476L57.5876 10.3869C57.5876 10.3869 57.627 10.4263 57.6664 10.4656C57.7057 10.505 57.7451 10.5443 57.7845 10.5837C57.8632 10.623 57.9419 10.7017 58.06 10.7804C58.1781 10.8591 58.2174 10.8984 58.2174 10.9378C58.3749 11.0558 58.4143 11.1738 58.3355 11.2525C58.2568 11.3312 58.2174 11.4099 58.1387 11.4886C58.06 11.5673 58.0206 11.6066 58.0206 11.646C57.9419 11.7247 57.8632 11.7247 57.7057 11.646C57.5483 11.5673 57.3121 11.3706 56.9578 11.0558C56.8004 10.9378 56.7217 10.8591 56.6823 10.8197L56.0131 11.6066L55.777 11.882C55.7376 11.9214 55.7376 11.9607 55.7376 11.9607L55.895 12.0787L56.5248 12.5902C56.6429 12.6689 56.6823 12.7476 56.6823 12.7869C56.6823 12.8263 56.6036 12.9443 56.4461 13.1017C56.3674 13.1804 56.328 13.2197 56.2493 13.2197C56.1706 13.2197 56.1312 13.1804 56.0525 13.141L55.9738 13.1017Z" fill="white"/>
<path d="M55.9738 55.082H15.3515C14.6036 55.082 14.0131 54.4918 14.0131 53.7443V51.6984C14.0131 51.4623 14.1706 51.3049 14.4067 51.3049H56.9185C57.1546 51.3049 57.3121 51.4623 57.3121 51.6984V53.7443C57.3121 54.4918 56.7216 55.082 55.9738 55.082ZM14.8004 52.1312V53.7836C14.8004 54.0984 15.0366 54.3344 15.3515 54.3344H55.9738C56.2887 54.3344 56.5248 54.0984 56.5248 53.7836V52.1312H14.8004Z" fill="white"/>
<path d="M56.9185 49.259H42C39.2446 49.259 37.0009 47.0164 37.0009 44.2623C37.0009 42.9246 37.5127 41.6656 38.4574 40.7213C39.4021 39.777 40.6617 39.2656 42 39.2656H48.4555C48.7704 39.2656 49.0066 39.0295 49.0066 38.7147V28.8787C49.0066 28.6426 49.164 28.4852 49.4002 28.4852H55.9738C56.7217 28.4852 57.3121 29.0754 57.3121 29.8229V48.8262C57.3121 49.0623 57.1153 49.259 56.9185 49.259ZM42 40.0131C40.8585 40.0131 39.7957 40.4459 39.0084 41.2328C38.2212 42.0197 37.7882 43.082 37.7882 44.2229C37.7882 46.5443 39.6776 48.4328 42 48.4328H56.5248V29.8229C56.5248 29.5082 56.2887 29.2721 55.9738 29.2721H49.7938V38.6754C49.7938 39.4229 49.2034 40.0131 48.4555 40.0131H42Z" fill="white"/>
<path d="M34.5211 44.5377C34.2849 44.5377 34.1275 44.3803 34.1275 44.1442V24.8656C34.1275 20.5377 37.6701 16.9967 42 16.9967H48.9278C49.4002 16.9967 49.7938 17.3901 49.7938 17.8623V36.7475C49.7938 36.9836 49.6364 37.141 49.4002 37.141C46.9203 37.141 42.1968 37.141 42.0394 37.141C38.1425 37.2197 34.9541 40.3672 34.9541 44.1836C34.9147 44.3803 34.7179 44.5377 34.5211 44.5377ZM42 17.7836C38.1031 17.7836 34.9147 20.9705 34.9147 24.8656V40.8393C36.2137 38.2426 38.8903 36.3934 42 36.3147V36.3541C42.4724 36.3147 43.9288 36.3147 49.0066 36.3147V17.8229C49.0066 17.7836 48.9672 17.7442 48.9278 17.7442H42V17.7836Z" fill="white"/>
<path d="M56.9185 52.1312H42C39.0084 52.1312 36.3318 50.4787 34.9541 47.8426C34.403 46.741 34.0881 45.5213 34.0881 44.2623V44.1836C34.1275 39.9738 37.6701 36.4722 41.9606 36.3541C42 36.3541 42.0787 36.3541 42.1181 36.3541H49.3608C49.597 36.3541 49.7545 36.5115 49.7545 36.7476V38.6754C49.7545 39.423 49.164 40.0131 48.4161 40.0131H41.9606C40.8191 40.0131 39.7563 40.4459 38.9691 41.2328C38.1818 42.0197 37.7488 43.082 37.7488 44.223C37.7488 46.5443 39.6382 48.4328 41.9606 48.4328H56.8791C57.1153 48.4328 57.2727 48.5902 57.2727 48.8263V51.6984C57.3121 51.9344 57.1153 52.1312 56.9185 52.1312ZM34.9147 44.1443V44.223C34.9147 45.364 35.1903 46.4656 35.702 47.4492C36.9222 49.8492 39.3627 51.3049 42.0394 51.3049H56.5642V49.2197H42.0394C39.284 49.2197 37.0403 46.9771 37.0403 44.223C37.0403 42.8853 37.552 41.6263 38.4967 40.682C39.4414 39.7377 40.701 39.2263 42.0394 39.2263H48.4948C48.8098 39.2263 49.0459 38.9902 49.0459 38.6754V37.141H42.1968C42.1575 37.141 42.1181 37.141 42.0394 37.141C38.1425 37.2197 34.9541 40.3672 34.9147 44.1443Z" fill="white"/>
<path d="M45.5426 37.141C45.4639 37.141 45.3852 37.1017 45.3065 37.0623C45.149 36.9443 45.1096 36.7083 45.2277 36.5115L49.0853 31.2001C49.2034 31.0427 49.4396 31.0033 49.6364 31.1214C49.7938 31.2394 49.8332 31.4755 49.7151 31.6722L45.8575 36.9837C45.7788 37.0623 45.6607 37.141 45.5426 37.141Z" fill="white"/>
<path d="M40.3074 37.3771C40.2287 37.3771 40.15 37.3377 40.0712 37.2984C39.9138 37.1804 39.8744 36.9443 39.9925 36.7476L49.0853 24.1968C49.2034 24.0394 49.4396 24 49.6364 24.1181C49.7938 24.2361 49.8332 24.4722 49.7151 24.6689L40.6223 37.2197C40.5436 37.2984 40.4255 37.3771 40.3074 37.3771Z" fill="white"/>
<path d="M34.5211 38.3213C34.4424 38.3213 34.3636 38.282 34.2849 38.2427C34.1275 38.1246 34.0881 37.8886 34.2062 37.6918L48.9672 17.3115C49.0853 17.1541 49.3215 17.1148 49.5183 17.2328C49.6757 17.3508 49.7151 17.5869 49.597 17.7836L34.836 38.164C34.7573 38.282 34.6392 38.3213 34.5211 38.3213Z" fill="white"/>
<path d="M34.5211 31.3181C34.4424 31.3181 34.3636 31.2787 34.2849 31.2394C34.1275 31.1213 34.0881 30.8853 34.2062 30.6885L44.0075 17.1935C44.1256 17.0361 44.3618 16.9967 44.5586 17.1148C44.716 17.2328 44.7554 17.4689 44.6373 17.6656L34.836 31.1213C34.7573 31.2394 34.6392 31.3181 34.5211 31.3181Z" fill="white"/>
<path d="M39.3233 37.6525C39.2053 37.6525 39.0872 37.6131 39.0084 37.4951L34.2849 30.9639C34.1668 30.8066 34.2062 30.5311 34.3636 30.4131C34.5211 30.2951 34.7966 30.3344 34.9147 30.4918L39.6382 37.0229C39.7563 37.1803 39.717 37.4557 39.5595 37.5738C39.4808 37.6525 39.4021 37.6525 39.3233 37.6525Z" fill="white"/>
<path d="M44.0469 37.1411C43.9288 37.1411 43.8107 37.1017 43.732 36.9837L34.2849 23.9608C34.1668 23.8034 34.2062 23.528 34.3636 23.4099C34.5211 23.2919 34.7966 23.3312 34.9147 23.4886L44.3618 36.5116C44.4798 36.669 44.4405 36.9444 44.283 37.0624C44.2043 37.1017 44.1256 37.1411 44.0469 37.1411Z" fill="white"/>
<path d="M49.1247 37.141C49.0066 37.141 48.8885 37.1017 48.8098 36.9836L36.3711 19.8295C36.253 19.6722 36.2924 19.3967 36.4499 19.2787C36.6073 19.1607 36.8829 19.2 37.0009 19.3574L49.4396 36.5115C49.5576 36.6689 49.5183 36.9443 49.3608 37.0623C49.2821 37.1017 49.2034 37.141 49.1247 37.141Z" fill="white"/>
<path d="M49.4002 30.4919C49.2821 30.4919 49.164 30.4526 49.0853 30.3345L40.0319 17.8231C39.9138 17.6657 39.9531 17.3903 40.1106 17.2722C40.268 17.1542 40.5436 17.1936 40.6617 17.3509L49.7151 29.8624C49.8332 30.0198 49.7938 30.2952 49.6364 30.4132C49.5576 30.4526 49.4789 30.4919 49.4002 30.4919Z" fill="white"/>
<path d="M49.4002 23.4492C49.2821 23.4492 49.164 23.4099 49.0853 23.2919L44.9916 17.6263C44.8735 17.4689 44.9128 17.1935 45.0703 17.0755C45.2277 16.9574 45.5033 16.9968 45.6214 17.1542L49.7151 22.8197C49.8332 22.9771 49.7938 23.2525 49.6364 23.3705C49.5576 23.4099 49.4789 23.4492 49.4002 23.4492Z" fill="white"/>
<path d="M42 52.1311H14.4067C14.1706 52.1311 14.0131 51.9737 14.0131 51.7377V29.8229C14.0131 29.0754 14.6036 28.4852 15.3515 28.4852H34.4817C34.7179 28.4852 34.8753 28.6426 34.8753 28.8787V44.2229C34.8753 45.3639 35.1509 46.4262 35.6626 47.4492C36.8828 49.8492 39.3233 51.3049 42 51.3049C42.2362 51.3049 42.3936 51.4623 42.3936 51.6983C42.3936 51.9344 42.2362 52.1311 42 52.1311ZM14.8004 51.3442H38.5754C37.0797 50.5967 35.7807 49.377 34.9934 47.8426C34.403 46.741 34.1275 45.5213 34.1275 44.2623V29.3115H15.3515C15.0366 29.3115 14.8004 29.5475 14.8004 29.8623V51.3442Z" fill="white"/>
<path d="M31.3721 49.2983C31.1359 49.2983 30.9784 49.1409 30.9784 48.9048V45.9147C30.9784 45.5606 30.7029 45.2852 30.3486 45.2852C29.9944 45.2852 29.7188 45.5606 29.7188 45.9147C29.7188 46.1507 29.5614 46.3081 29.3252 46.3081C29.089 46.3081 28.9316 46.1507 28.9316 45.9147C28.9316 45.1278 29.5614 44.4983 30.3486 44.4983C31.1359 44.4983 31.7657 45.1278 31.7657 45.9147V48.9048C31.7657 49.1016 31.6083 49.2983 31.3721 49.2983Z" fill="white"/>
<path d="M26.2156 49.2983C25.9794 49.2983 25.8219 49.1409 25.8219 48.9048V45.9147C25.8219 45.5606 25.5464 45.2852 25.1921 45.2852C24.8379 45.2852 24.5623 45.5606 24.5623 45.9147C24.5623 46.1507 24.4049 46.3081 24.1687 46.3081C23.9325 46.3081 23.7751 46.1507 23.7751 45.9147C23.7751 45.1278 24.4049 44.4983 25.1921 44.4983C25.9794 44.4983 26.6092 45.1278 26.6092 45.9147V48.9048C26.6092 49.1016 26.4124 49.2983 26.2156 49.2983Z" fill="white"/>
<path d="M21.0197 49.2983C20.7835 49.2983 20.6261 49.1409 20.6261 48.9048V45.9147C20.6261 45.5606 20.3505 45.2852 19.9963 45.2852C19.642 45.2852 19.3664 45.5606 19.3664 45.9147C19.3664 46.1507 19.209 46.3081 18.9728 46.3081C18.7366 46.3081 18.5792 46.1507 18.5792 45.9147C18.5792 45.1278 19.209 44.4983 19.9963 44.4983C20.7835 44.4983 21.4133 45.1278 21.4133 45.9147V48.9048C21.4133 49.1016 21.2559 49.2983 21.0197 49.2983Z" fill="white"/>
<path d="M28.8135 42.7279C28.5773 42.7279 28.4199 42.5705 28.4199 42.3344V39.3442C28.4199 38.9902 28.1443 38.7147 27.7901 38.7147C27.4358 38.7147 27.1603 38.9902 27.1603 39.3442C27.1603 39.5803 27.0028 39.7377 26.7666 39.7377C26.5305 39.7377 26.373 39.5803 26.373 39.3442C26.373 38.5574 27.0028 37.9279 27.7901 37.9279C28.5773 37.9279 29.2071 38.5574 29.2071 39.3442V42.3344C29.2071 42.5311 29.0103 42.7279 28.8135 42.7279Z" fill="white"/>
<path d="M23.6176 42.7279C23.3814 42.7279 23.224 42.5705 23.224 42.3344V39.3442C23.224 38.9902 22.9485 38.7147 22.5942 38.7147C22.2399 38.7147 21.9644 38.9902 21.9644 39.3442C21.9644 39.5803 21.8069 39.7377 21.5708 39.7377C21.3346 39.7377 21.1771 39.5803 21.1771 39.3442C21.1771 38.5574 21.8069 37.9279 22.5942 37.9279C23.3814 37.9279 24.0113 38.5574 24.0113 39.3442V42.3344C24.0113 42.5311 23.8538 42.7279 23.6176 42.7279Z" fill="white"/>
<path d="M18.4611 42.7279C18.2249 42.7279 18.0675 42.5705 18.0675 42.3344V39.3442C18.0675 38.9902 17.7919 38.7147 17.4377 38.7147C17.0834 38.7147 16.8079 38.9902 16.8079 39.3442C16.8079 39.5803 16.6504 39.7377 16.4142 39.7377C16.1781 39.7377 16.0206 39.5803 16.0206 39.3442C16.0206 38.5574 16.6504 37.9279 17.4377 37.9279C18.2249 37.9279 18.8547 38.5574 18.8547 39.3442V42.3344C18.8547 42.5311 18.6579 42.7279 18.4611 42.7279Z" fill="white"/>
<path d="M31.3721 36.118C31.1359 36.118 30.9784 35.9606 30.9784 35.7245V32.7344C30.9784 32.3803 30.7029 32.1049 30.3486 32.1049C29.9944 32.1049 29.7188 32.3803 29.7188 32.7344C29.7188 32.9704 29.5614 33.1278 29.3252 33.1278C29.089 33.1278 28.9316 32.9704 28.9316 32.7344C28.9316 31.9475 29.5614 31.318 30.3486 31.318C31.1359 31.318 31.7657 31.9475 31.7657 32.7344V35.7245C31.7657 35.9606 31.6083 36.118 31.3721 36.118Z" fill="white"/>
<path d="M26.2156 36.118C25.9794 36.118 25.8219 35.9606 25.8219 35.7245V32.7344C25.8219 32.3803 25.5464 32.1049 25.1921 32.1049C24.8379 32.1049 24.5623 32.3803 24.5623 32.7344C24.5623 32.9704 24.4049 33.1278 24.1687 33.1278C23.9325 33.1278 23.7751 32.9704 23.7751 32.7344C23.7751 31.9475 24.4049 31.318 25.1921 31.318C25.9794 31.318 26.6092 31.9475 26.6092 32.7344V35.7245C26.6092 35.9606 26.4124 36.118 26.2156 36.118Z" fill="white"/>
<path d="M21.0197 36.118C20.7835 36.118 20.6261 35.9606 20.6261 35.7245V32.7344C20.6261 32.3803 20.3505 32.1049 19.9963 32.1049C19.642 32.1049 19.3664 32.3803 19.3664 32.7344C19.3664 32.9704 19.209 33.1278 18.9728 33.1278C18.7366 33.1278 18.5792 32.9704 18.5792 32.7344C18.5792 31.9475 19.209 31.318 19.9963 31.318C20.7835 31.318 21.4133 31.9475 21.4133 32.7344V35.7245C21.4133 35.9606 21.2559 36.118 21.0197 36.118Z" fill="white"/>
<path d="M83.4096 49.5345C83.4096 57.482 76.9934 63.8951 69.0422 63.8951C61.0909 63.8951 54.6748 57.482 54.6748 49.5345C54.6748 41.5869 61.0909 35.1738 69.0422 35.1738C76.9934 35.1738 83.4096 41.5869 83.4096 49.5345Z" fill="white"/>
<path d="M69.0815 64.4852C60.8547 64.4852 54.1237 57.7967 54.1237 49.5344C54.1237 41.3115 60.8154 34.5836 69.0815 34.5836C77.3477 34.5836 84.0394 41.2721 84.0394 49.5344C84 57.7574 77.3083 64.4852 69.0815 64.4852ZM69.0815 35.7639C61.4845 35.7639 55.3046 41.941 55.3046 49.5344C55.3046 57.1279 61.4845 63.3049 69.0815 63.3049C76.6785 63.3049 82.8585 57.1279 82.8585 49.5344C82.8191 41.941 76.6392 35.7639 69.0815 35.7639Z" fill="#53B7E8"/>
<path d="M57.8632 46.3869C57.8632 46.5049 57.8632 46.623 57.8632 46.8197C57.8632 46.859 57.8632 46.9377 57.8632 47.0164C57.8632 47.0951 57.8632 47.1738 57.8632 47.1738V47.3312C57.8632 47.4099 57.8632 47.4885 57.8632 47.5279V47.6459C57.8632 47.6853 57.8632 47.7246 57.8632 47.7639V47.882C57.9419 47.882 58.2174 47.882 58.6898 47.882H58.7291C58.7291 47.4885 58.7291 47.1344 58.7685 46.7803V46.2689C58.7685 46.2295 58.7685 46.1902 58.8079 46.1508C58.8079 46.1115 58.8472 46.1115 58.8866 46.0721C58.926 46.0721 58.9653 46.0721 58.9653 46.0721C59.0047 46.0721 59.044 46.0721 59.0834 46.0721C59.1228 46.0721 59.1621 46.0721 59.1621 46.0721H59.3983C59.477 46.0721 59.5164 46.1115 59.5164 46.2295V46.5836C59.5164 46.741 59.5164 46.8197 59.5164 46.8984V47.1344V47.4885C59.5164 47.5279 59.5164 47.6459 59.477 47.8033C59.477 47.9607 59.4377 48.1574 59.4377 48.3541C59.4377 48.3935 59.4377 48.4328 59.4377 48.5115C59.4377 48.5902 59.4377 48.6689 59.4377 48.7476V48.9049V49.4557C59.4377 49.5738 59.4377 49.6131 59.4377 49.6918V49.8492C59.4377 49.9672 59.4377 50.0066 59.4377 50.0853C59.4377 50.0853 59.4377 50.1246 59.4377 50.1639C59.4377 50.2033 59.4377 50.2033 59.4377 50.2426C59.4377 50.282 59.4377 50.282 59.4377 50.282V50.3213C59.4377 50.4394 59.3983 50.4787 59.2802 50.4787H59.2409C59.2015 50.4787 59.2015 50.4787 59.2015 50.4787H58.8472C58.7685 50.4394 58.6898 50.4 58.6898 50.282C58.6898 50.2033 58.6898 50.0853 58.6898 49.9672C58.6898 49.8492 58.6898 49.7705 58.6898 49.7312V49.6131C58.6898 49.3377 58.6898 49.1017 58.6898 48.9836V48.9049C58.6898 48.8262 58.6898 48.7476 58.6898 48.6689C58.6898 48.6295 58.6898 48.6295 58.6898 48.6295C58.493 48.6295 58.2568 48.6295 57.8632 48.6295C57.8632 48.8656 57.8632 49.141 57.8632 49.4951C57.8632 49.6918 57.8632 49.8492 57.8632 50.0066C57.8632 50.1639 57.8632 50.2426 57.8632 50.3213V50.3607C57.8632 50.4394 57.8238 50.4787 57.7057 50.4787H57.5089C57.4695 50.4787 57.4302 50.4787 57.3514 50.4787C57.2727 50.4787 57.2334 50.4787 57.194 50.4787C57.1546 50.4787 57.1153 50.4394 57.1153 50.4C57.0759 50.3607 57.0759 50.3213 57.0759 50.2426V50.2033C57.0759 50.1639 57.0759 50.1639 57.0759 50.1639C57.0759 50.1246 57.0759 50.0853 57.0759 50.0459C57.0759 50.0066 57.0759 49.9672 57.0759 49.9279C57.0759 49.8492 57.0759 49.7705 57.0759 49.6525C57.0759 49.5344 57.0759 49.4164 57.0759 49.3771C57.0759 49.259 57.0759 49.1803 57.0759 49.141V47.5672C57.0759 47.5279 57.0759 47.4492 57.0759 47.4098C57.0759 47.3705 57.0759 47.2918 57.0759 47.2131C57.0759 47.1344 57.0759 47.0951 57.0759 47.0558V46.623V46.5836C57.0759 46.5443 57.0759 46.5443 57.0759 46.5443C57.0759 46.5443 57.0759 46.5049 57.0759 46.4656C57.0759 46.4262 57.0759 46.3869 57.0759 46.3869C57.0759 46.3476 57.0759 46.3082 57.1153 46.2689C57.1546 46.2295 57.194 46.2295 57.2334 46.1902C57.2727 46.1902 57.3121 46.1902 57.3514 46.1902C57.3908 46.1902 57.4302 46.1902 57.5089 46.1902C57.5876 46.1902 57.627 46.1902 57.6663 46.1902C57.7844 46.1115 57.8632 46.1902 57.8632 46.3869Z" fill="#F27179"/>
<path d="M61.6026 46.4263L62.0356 48.5902V48.6296V48.6689V48.6296C62.1143 48.9443 62.1931 49.2984 62.2718 49.6132C62.3505 49.9279 62.3899 50.1246 62.3899 50.2033C62.3899 50.3214 62.3899 50.4394 62.3111 50.4394C62.2718 50.4787 62.1143 50.4787 61.9175 50.4787C61.8388 50.4787 61.7994 50.4787 61.7601 50.4394C61.7207 50.4394 61.6813 50.4 61.642 50.3607C61.6026 50.3214 61.6026 50.282 61.6026 50.2427C61.6026 50.2033 61.6026 50.164 61.5633 50.1246V50.0459V50.0066L61.4845 49.5345L61.4452 49.3771H60.9335C60.9335 49.3771 60.9335 49.4164 60.9335 49.4558V49.4951C60.9335 49.5738 60.8941 49.7312 60.8547 49.9673C60.8154 50.164 60.776 50.282 60.7366 50.3607C60.6973 50.4394 60.5792 50.4394 60.3824 50.4394C60.2249 50.4394 60.1068 50.4394 60.0675 50.4C60.0281 50.3607 59.9887 50.3214 59.9887 50.2033C59.9887 50.0853 59.9887 49.9673 60.0281 49.8492C60.0281 49.8099 60.0281 49.7705 60.0675 49.6918C60.1068 49.6132 60.1068 49.5738 60.1068 49.4951L60.1462 49.3378C60.1462 49.2984 60.1462 49.2984 60.1462 49.2984V49.2591L60.343 48.5115C60.343 48.5115 60.343 48.5115 60.343 48.4722L60.776 46.3476C60.8154 46.1509 60.9728 46.0328 61.1303 46.0328C61.3664 46.1115 61.5239 46.1902 61.6026 46.4263ZM61.2877 48.5902L61.1696 47.764L61.0122 48.5902H61.2877Z" fill="#F27179"/>
<path d="M65.5783 50.4787C65.5783 50.5574 65.5783 50.6361 65.5783 50.7148C65.5783 50.7935 65.5783 50.7935 65.5783 50.8328V50.9902C65.5783 51.0296 65.5783 51.1082 65.5389 51.1082C65.4995 51.1476 65.4602 51.1476 65.4602 51.1476C65.4602 51.1476 65.3814 51.1476 65.3421 51.1476H65.1453H65.1059C65.0665 51.1476 65.0665 51.1476 65.0665 51.1476H65.0272C64.9878 51.1476 64.9878 51.1476 64.9878 51.1476C64.9878 51.1476 64.9484 51.1476 64.9484 51.1082L64.9091 51.0689C64.9091 51.0296 64.9091 51.0296 64.9091 50.9902C64.9091 50.9509 64.9091 50.7935 64.8697 50.5181H64.5548C64.5155 50.5181 64.4367 50.5181 64.3186 50.5181C64.2006 50.5181 64.0825 50.5181 64.0431 50.5181H63.925C63.8463 50.5181 63.7676 50.5181 63.6101 50.5181C63.492 50.5181 63.3739 50.5181 63.3346 50.5181H63.2558V50.9902C63.2558 51.1083 63.2165 51.1476 63.0984 51.1869C63.059 51.1869 63.0197 51.1869 62.9409 51.1869C62.8622 51.1869 62.8229 51.1869 62.7835 51.1869C62.7441 51.1869 62.7048 51.1869 62.626 51.1476C62.5867 51.1476 62.5473 51.1083 62.508 51.0689C62.4686 51.0296 62.4686 50.9902 62.4686 50.9115V50.5574C62.4686 50.5181 62.4686 50.4787 62.4686 50.4394C62.4686 50.4001 62.4686 50.3214 62.4686 50.282V50.164C62.4686 50.0853 62.4686 50.0066 62.508 49.9673C62.5473 49.9279 62.5867 49.9279 62.7048 49.9279C62.9016 49.8099 63.0197 49.3771 63.059 48.6296C63.1378 47.4099 63.2165 46.6624 63.2165 46.4263V46.3083C63.2165 46.1902 63.2952 46.1509 63.4133 46.1509H63.6101C63.6495 46.1509 63.6888 46.1509 63.7282 46.1509C63.7676 46.1509 63.8463 46.1509 63.8463 46.1509H63.8857C63.925 46.1509 63.925 46.1509 63.9644 46.1509C64.0037 46.1509 64.0431 46.1509 64.0825 46.1509C64.1218 46.1509 64.1612 46.1509 64.2006 46.1509C64.2399 46.1509 64.2399 46.1509 64.2793 46.1509C64.3186 46.1509 64.4367 46.1509 64.5942 46.1509C64.7516 46.1509 64.8697 46.1509 64.9091 46.1509H65.0272C65.1059 46.1509 65.1453 46.1509 65.1453 46.1509C65.1846 46.1509 65.1846 46.1902 65.224 46.2689C65.2633 46.3476 65.2634 46.4263 65.2634 46.5443V46.6624V46.8984C65.2634 47.0164 65.2634 47.0951 65.2634 47.1345L65.224 49.3771C65.224 49.4558 65.224 49.5345 65.224 49.6525V49.6919V49.7312V49.8886H65.3814H65.4208C65.4602 49.8886 65.4602 49.8886 65.4995 49.9279C65.5389 49.9673 65.5389 49.9673 65.5389 50.046C65.5389 50.046 65.5389 50.0853 65.5389 50.1246C65.5389 50.164 65.5389 50.2033 65.5389 50.2033C65.5389 50.2427 65.5389 50.282 65.5389 50.3607C65.5389 50.4001 65.5783 50.4394 65.5783 50.4787ZM63.6101 49.6919C63.5708 49.7705 63.5707 49.8492 63.5314 49.8886H64.4761C64.4761 49.8099 64.4761 49.7312 64.4761 49.5738C64.4761 49.4164 64.4761 49.3378 64.4761 49.2591V48.905C64.4761 48.8263 64.4761 48.7869 64.4761 48.7476C64.4761 48.5115 64.4761 48.1574 64.4761 47.6853C64.4761 47.1738 64.4761 46.9378 64.4761 46.8984V46.7804C64.4761 46.741 64.4761 46.741 64.4761 46.7017C64.358 46.7017 64.1612 46.7017 63.925 46.7017C63.925 47.2132 63.8463 47.8033 63.8069 48.4328C63.7676 49.0624 63.6495 49.5345 63.6101 49.6919Z" fill="#F27179"/>
<path d="M67.4677 48.5509C67.1921 48.5509 66.9559 48.5509 66.7198 48.5509C66.7198 48.5903 66.7198 48.6296 66.7198 48.6689C66.7198 48.7083 66.7198 48.7476 66.7198 48.787C66.7198 49.023 66.7198 49.2198 66.7198 49.3378C66.7198 49.3771 66.7198 49.4165 66.7198 49.4558C66.7198 49.5345 66.7198 49.5739 66.7198 49.6132C66.7198 49.6132 66.7198 49.6526 66.7198 49.6919C66.7198 49.7312 66.7198 49.7312 66.7198 49.7706C66.8772 49.7706 67.074 49.7706 67.2315 49.7706C67.3889 49.7706 67.5464 49.7706 67.6251 49.7706H67.6645C67.7038 49.7706 67.7038 49.7706 67.7432 49.7706C67.7826 49.7706 67.7826 49.7706 67.8219 49.7706C67.9006 49.7706 67.94 49.7706 67.9794 49.8099C68.0187 49.8493 68.0187 49.928 68.0187 50.0067V50.0853C68.0187 50.2427 68.0187 50.3608 67.9794 50.4001C67.94 50.4394 67.8613 50.4788 67.7432 50.4788C67.7038 50.4788 67.6645 50.4788 67.6251 50.4788H67.4677C67.3889 50.4788 67.3102 50.4788 67.1921 50.4788C67.074 50.4788 66.9953 50.4788 66.9559 50.4788C66.8772 50.4788 66.7591 50.4788 66.641 50.4788C66.523 50.4788 66.4442 50.4788 66.4049 50.4788C66.4049 50.4788 66.3655 50.4788 66.3261 50.4788C66.2081 50.4788 66.1687 50.4788 66.1293 50.4788C66.09 50.4788 66.0506 50.4394 66.0112 50.4394C65.9719 50.4001 65.9719 50.3608 65.9719 50.2821V49.6919C65.9719 49.6526 65.9719 49.5345 65.9719 49.3771C65.9719 49.2198 65.9719 49.1411 65.9719 49.0624V48.905C65.9719 48.8263 65.9719 48.7476 65.9719 48.6296C65.9719 48.5116 65.9719 48.4329 65.9719 48.3935C65.9719 48.3542 65.9719 48.3149 65.9719 48.2755C65.9719 48.2362 65.9719 48.1968 65.9719 48.1968V47.0952V46.505C65.9719 46.505 65.9719 46.4657 65.9719 46.387C65.9719 46.3476 65.9719 46.3083 65.9719 46.2689C65.9719 46.2296 65.9719 46.1903 66.0112 46.1509C66.0506 46.1116 66.09 46.1116 66.1293 46.1116C66.2081 46.1116 66.2474 46.1116 66.2868 46.1116C66.3261 46.1116 66.4049 46.1116 66.523 46.1116C66.641 46.1116 66.7985 46.1116 67.0347 46.1116H67.1134C67.1134 46.1116 67.1528 46.1116 67.1921 46.1116C67.2315 46.1116 67.3102 46.1116 67.3496 46.1116C67.4283 46.1116 67.507 46.1116 67.6251 46.1116C67.7432 46.1116 67.7826 46.1116 67.7826 46.1116C67.94 46.1116 68.0187 46.1509 68.0187 46.2296C68.0187 46.3083 68.0187 46.387 68.0187 46.4657C68.0187 46.5444 68.0187 46.5837 68.0187 46.623C68.0187 46.7017 67.94 46.7804 67.8219 46.7804C67.7038 46.7804 67.4677 46.8198 67.074 46.8198C66.9166 46.8198 66.8379 46.8198 66.7591 46.8198V47.646V47.9608C66.7591 48.0001 66.7591 48.0394 66.7591 48.0394H66.9166H67.5464C67.6645 48.0394 67.7432 48.0394 67.7432 48.0788C67.7432 48.1181 67.7826 48.2362 67.7826 48.3935C67.7826 48.4722 67.7826 48.5509 67.7432 48.5903C67.7038 48.6296 67.6645 48.6296 67.5857 48.6296H67.4677V48.5509Z" fill="#F27179"/>
<path d="M70.105 48.5903C69.9869 48.5903 69.8688 48.6689 69.7901 48.787C69.672 48.905 69.6326 49.1017 69.6326 49.2591C69.5932 49.7312 69.4752 50.046 69.3177 50.2427C69.1603 50.4394 68.8847 50.5575 68.5698 50.5575C68.5698 50.5575 68.5698 50.5575 68.5305 50.5575C68.4911 50.5575 68.4517 50.5575 68.4124 50.5575C68.373 50.5575 68.373 50.5575 68.3336 50.5575C68.2943 50.5575 68.2943 50.5575 68.2549 50.5181C68.2549 50.5181 68.2549 50.4788 68.2549 50.4394V50.0067C68.2549 49.9673 68.2943 49.928 68.3336 49.928C68.4124 49.928 68.4911 49.8886 68.5698 49.8493C68.6485 49.8099 68.6879 49.7312 68.6879 49.6132C68.7273 49.5345 68.7273 49.4165 68.7273 49.3771C68.7273 49.2985 68.7273 49.2198 68.7273 49.1017C68.7273 48.9837 68.7273 48.905 68.7666 48.8263C68.806 48.7476 68.8454 48.6689 68.8847 48.5903C68.9241 48.5509 68.9634 48.4722 69.0028 48.4329C69.0422 48.3935 69.0815 48.3542 69.1603 48.3149C69.239 48.2755 69.2783 48.2755 69.3177 48.2362C69.3571 48.2362 69.3964 48.1968 69.4358 48.1968L69.5145 48.1575C69.5539 48.1575 69.5539 48.1181 69.5539 48.1181C69.5145 48.1181 69.5145 48.1181 69.4752 48.1181C69.4358 48.1181 69.3964 48.0788 69.3177 48.0394C69.239 48.0001 69.1603 47.9608 69.0815 47.8821C69.0028 47.8034 68.9634 47.7247 68.8847 47.6067C68.806 47.4886 68.7666 47.3312 68.7666 47.1739C68.7666 47.1345 68.7666 47.0952 68.7666 47.0558C68.7666 47.0165 68.7666 46.9771 68.7666 46.9378C68.7666 46.8985 68.7666 46.8985 68.7273 46.8591C68.6879 46.8198 68.6879 46.7804 68.6879 46.7804L68.6485 46.7411C68.6485 46.7017 68.6092 46.7017 68.5698 46.7017C68.5305 46.7017 68.5305 46.7017 68.4911 46.7017C68.4124 46.7017 68.373 46.6624 68.373 46.623V46.1903C68.373 46.1509 68.373 46.1116 68.4124 46.1116C68.4517 46.1116 68.5305 46.1116 68.6485 46.1116C68.9241 46.1116 69.1603 46.1903 69.3177 46.387C69.4752 46.5837 69.5539 46.8985 69.6326 47.3312C69.6326 47.4886 69.672 47.646 69.7901 47.7247C69.9081 47.8034 69.9869 47.8821 70.0656 47.8821C70.0656 47.764 70.0656 47.528 70.0656 47.2526C70.0656 46.9771 70.0656 46.7411 70.0656 46.623V46.4263V46.387C70.0656 46.3476 70.0656 46.2689 70.0656 46.2689C70.0656 46.2296 70.0656 46.2296 70.105 46.1903C70.1443 46.1509 70.1443 46.1509 70.1837 46.1509H70.3805C70.4199 46.1509 70.4199 46.1509 70.4592 46.1509C70.4986 46.1509 70.4986 46.1509 70.538 46.1509H70.7348C70.8135 46.1509 70.8529 46.2689 70.8529 46.4657C70.8529 46.623 70.8529 46.8985 70.8529 47.2132C70.8529 47.528 70.8529 47.764 70.8529 47.9214C70.9316 47.9214 71.0103 47.8427 71.089 47.764C71.1678 47.6853 71.2071 47.528 71.2465 47.3706C71.2858 46.8985 71.4039 46.5837 71.522 46.4263C71.6401 46.2296 71.8763 46.1509 72.1518 46.1509C72.3486 46.1509 72.4667 46.1509 72.4667 46.1903C72.4667 46.2296 72.4667 46.3083 72.4667 46.4263C72.4667 46.5444 72.4667 46.623 72.4667 46.6624C72.4667 46.7017 72.4274 46.7411 72.388 46.7411C72.3486 46.7411 72.3093 46.7411 72.2699 46.7411C72.2305 46.7411 72.1912 46.7804 72.1912 46.7804C72.1912 46.7804 72.1518 46.8198 72.1518 46.8591C72.1518 46.8985 72.1125 46.9378 72.1125 46.9378C72.1125 46.9378 72.1125 47.0165 72.0731 47.0952C72.0337 47.1739 72.0731 47.2132 72.0337 47.2526C71.9944 47.4099 71.955 47.5673 71.9156 47.6853C71.8763 47.8034 71.7976 47.9214 71.7582 47.9608C71.7188 48.0394 71.6401 48.0788 71.5614 48.1181C71.4827 48.1575 71.4433 48.1968 71.4039 48.1968C71.3646 48.1968 71.3646 48.1968 71.3252 48.1968H71.3646C71.3646 48.1968 71.4039 48.1968 71.4039 48.2362C71.6007 48.3149 71.7582 48.4329 71.8763 48.5509C71.9944 48.7083 72.0337 48.905 72.0337 49.1411C72.0337 49.6919 72.1912 49.928 72.4667 49.928C72.5455 49.928 72.5848 49.9673 72.5848 50.0067V50.4001C72.5848 50.4788 72.5061 50.5181 72.388 50.5181C72.0337 50.5181 71.7582 50.4001 71.6007 50.2034C71.4039 50.0067 71.2858 49.6919 71.2465 49.2198V49.0624C71.2071 48.905 71.1678 48.787 71.089 48.6689C71.0103 48.5509 70.9316 48.5116 70.8135 48.5116V48.9837C70.8135 49.1017 70.8135 49.2591 70.8135 49.5345C70.8135 49.7706 70.8135 49.928 70.8135 50.0067V50.2034C70.8135 50.3214 70.7741 50.3608 70.656 50.4001H70.223C70.1443 50.4001 70.0656 50.3214 70.0656 50.2034C70.0656 50.164 70.0656 50.164 70.0656 50.1247C70.0656 50.0853 70.0656 50.0853 70.0656 50.046V50.0067V49.9673C70.0656 49.8099 70.0656 49.6919 70.0656 49.6132V49.023C70.105 48.9837 70.105 48.8263 70.105 48.5903Z" fill="#F27179"/>
<path d="M73.7657 46.3869C73.7657 46.5049 73.7657 46.623 73.7657 46.8197C73.7657 46.859 73.7657 46.9377 73.7657 47.0164C73.7657 47.0951 73.7657 47.1738 73.7657 47.1738V47.3312C73.7657 47.4099 73.7657 47.4885 73.7657 47.5279V47.6459C73.7657 47.6853 73.7657 47.7246 73.7657 47.7639V47.882C73.8444 47.882 74.12 47.882 74.5923 47.882H74.6317C74.6317 47.4885 74.6317 47.1344 74.671 46.7803V46.2689C74.671 46.2295 74.671 46.1902 74.7104 46.1508C74.7104 46.1115 74.7498 46.1115 74.7891 46.0721C74.8285 46.0721 74.8678 46.0721 74.8678 46.0721C74.9072 46.0721 74.9466 46.0721 74.9859 46.0721C75.0253 46.0721 75.0647 46.0721 75.0647 46.0721H75.3008C75.3796 46.0721 75.4189 46.1115 75.4189 46.2295V46.5836C75.4189 46.741 75.4189 46.8197 75.4189 46.8984V47.1344V47.4885C75.4189 47.5279 75.4189 47.6459 75.3796 47.8033C75.3796 47.9607 75.3402 48.1574 75.3402 48.3541C75.3402 48.3935 75.3402 48.4328 75.3402 48.5115C75.3402 48.5902 75.3402 48.6689 75.3402 48.7476V48.9049V49.4557C75.3402 49.5738 75.3402 49.6131 75.3402 49.6918V49.8492C75.3402 49.9672 75.3402 50.0066 75.3402 50.0853C75.3402 50.0853 75.3402 50.1246 75.3402 50.1639C75.3402 50.2033 75.3402 50.2033 75.3402 50.2426C75.3402 50.282 75.3402 50.282 75.3402 50.282V50.3213C75.3402 50.4394 75.3008 50.4787 75.1828 50.4787H75.1434C75.104 50.4787 75.104 50.4787 75.104 50.4787H74.7498C74.671 50.4394 74.5923 50.4 74.5923 50.282C74.5923 50.2033 74.5923 50.0853 74.5923 49.9672C74.5923 49.8492 74.5923 49.7705 74.5923 49.7312V49.6131C74.5923 49.3377 74.5923 49.1017 74.5923 48.9836V48.9049C74.5923 48.8262 74.5923 48.7476 74.5923 48.6689C74.5923 48.6295 74.5923 48.6295 74.5923 48.6295C74.3955 48.6295 74.1593 48.6295 73.7657 48.6295C73.7657 48.8656 73.7657 49.141 73.7657 49.4951C73.7657 49.6918 73.7657 49.8492 73.7657 50.0066C73.7657 50.1639 73.7657 50.2426 73.7657 50.3213V50.3607C73.7657 50.4394 73.7263 50.4787 73.6082 50.4787H73.4114C73.3721 50.4787 73.3327 50.4787 73.254 50.4787C73.1753 50.4787 73.1359 50.4787 73.0965 50.4787C73.0572 50.4787 73.0178 50.4394 73.0178 50.4C72.9784 50.3607 72.9784 50.3213 72.9784 50.2426V50.2033C72.9784 50.1639 72.9784 50.1639 72.9784 50.1639C72.9784 50.1246 72.9784 50.0853 72.9784 50.0459C72.9784 50.0066 72.9784 49.9672 72.9784 49.9279C72.9784 49.8492 72.9784 49.7705 72.9784 49.6525C72.9784 49.5344 72.9784 49.4164 72.9784 49.3771C72.9784 49.259 72.9784 49.1803 72.9784 49.141V47.5672C72.9784 47.5279 72.9784 47.4492 72.9784 47.4098C72.9784 47.3705 72.9784 47.2918 72.9784 47.2131C72.9784 47.1344 72.9784 47.0951 72.9784 47.0558V46.623V46.5836C72.9784 46.5443 72.9784 46.5443 72.9784 46.5443C72.9784 46.5443 72.9784 46.5049 72.9784 46.4656C72.9784 46.4262 72.9784 46.3869 72.9784 46.3869C72.9784 46.3476 72.9784 46.3082 73.0178 46.2689C73.0572 46.2295 73.0965 46.2295 73.1359 46.1902C73.1753 46.1902 73.2146 46.1902 73.254 46.1902C73.2933 46.1902 73.3327 46.1902 73.4114 46.1902C73.4902 46.1902 73.5295 46.1902 73.5689 46.1902C73.7263 46.1115 73.7657 46.1902 73.7657 46.3869Z" fill="#F27179"/>
<path d="M77.5051 46.4263L77.9381 48.5902V48.6296V48.6689V48.6296C78.0169 48.9443 78.0956 49.2984 78.1743 49.6132C78.253 49.9279 78.2924 50.1246 78.2924 50.2033C78.2924 50.3214 78.2924 50.4394 78.2137 50.4394C78.1743 50.4787 78.0169 50.4787 77.8201 50.4787C77.7413 50.4787 77.702 50.4787 77.6626 50.4394C77.6232 50.4394 77.5839 50.4 77.5445 50.3607C77.5052 50.3214 77.5051 50.282 77.5051 50.2427C77.5051 50.2033 77.5052 50.164 77.4658 50.1246V50.0459V50.0066L77.3871 49.5345L77.3477 49.3771H76.836C76.836 49.3771 76.836 49.4164 76.836 49.4558V49.4951C76.836 49.5738 76.7966 49.7312 76.7573 49.9673C76.7179 50.164 76.6785 50.282 76.6392 50.3607C76.5998 50.4394 76.4817 50.4394 76.2849 50.4394C76.1275 50.4394 76.0094 50.4394 75.97 50.4C75.9306 50.3607 75.8913 50.3214 75.8913 50.2033C75.8913 50.0853 75.8913 49.9673 75.9306 49.8492C75.9306 49.8099 75.9306 49.7705 75.97 49.6918C76.0094 49.6132 76.0094 49.5738 76.0094 49.4951L76.0487 49.3378C76.0487 49.2984 76.0487 49.2984 76.0487 49.2984V49.2591L76.2455 48.5115C76.2455 48.5115 76.2455 48.5115 76.2455 48.4722L76.6785 46.3476C76.7179 46.1509 76.8753 46.0328 77.0328 46.0328C77.3083 46.1115 77.4658 46.1902 77.5051 46.4263ZM77.2296 48.5902L77.1115 47.764L76.9541 48.5902H77.2296Z" fill="#F27179"/>
<path d="M80.2999 50.3214C80.2999 50.2033 80.2999 49.9279 80.2999 49.5345C80.2999 49.141 80.2999 48.8656 80.2999 48.7476H80.1425C79.8669 48.905 79.6701 49.2197 79.6307 49.7705C79.5914 50.0459 79.4733 50.2427 79.3158 50.3607C79.1584 50.4787 78.9222 50.5181 78.6467 50.5181C78.4892 50.5181 78.4499 50.4787 78.4499 50.4V50.0459C78.4499 50.0066 78.4892 49.9673 78.5679 49.9673C78.6073 49.9673 78.686 49.9673 78.7254 49.9279C78.7648 49.9279 78.8041 49.8886 78.8041 49.8492C78.8041 49.8099 78.8435 49.7705 78.8435 49.7705C78.8435 49.7312 78.8435 49.6918 78.8435 49.6525C78.8435 49.6132 78.8435 49.5738 78.8435 49.5345C78.8435 49.4951 78.8435 49.4558 78.8435 49.3771C78.8435 49.1804 78.9222 49.023 79.0403 48.8656C79.1584 48.7082 79.3158 48.5902 79.4733 48.5509C79.3552 48.5115 79.1977 48.4328 79.0797 48.2361C78.9616 48.0394 78.8828 47.8033 78.8828 47.4492C78.8828 47.0164 79.0403 46.6623 79.3946 46.4263C79.7095 46.1509 80.1425 46.0328 80.6148 46.0328C80.7723 46.0328 80.8903 46.0722 80.9691 46.1115C81.0478 46.1509 81.0872 46.2689 81.0872 46.3869V50.282C81.0872 50.4 81.0084 50.4394 80.8903 50.4394H80.5361C80.3786 50.4787 80.2999 50.4 80.2999 50.3214ZM80.3786 48.2361C80.3786 47.882 80.3786 47.3705 80.3393 46.6623H80.2999C80.1818 46.6623 80.0637 46.741 79.9063 46.8984C79.7488 47.0558 79.6701 47.2525 79.6701 47.4492C79.6701 47.5673 79.6701 47.646 79.6701 47.7246C79.6701 47.8033 79.7095 47.882 79.7488 47.9607C79.7882 48.0394 79.8669 48.1181 79.9456 48.1574C80.1031 48.1968 80.2212 48.2361 80.3786 48.2361Z" fill="#F27179"/>
<path d="M62.1143 55.3181C62.1143 54.8853 62.1143 54.6492 62.1143 54.5705C62.1143 54.5312 62.1143 54.4919 62.1143 54.4919H61.6813C61.6813 54.4919 61.642 54.7673 61.5633 55.2394V55.4361C61.4845 55.8296 61.4058 56.0656 61.2877 56.223C61.1696 56.3804 60.9728 56.4197 60.7366 56.4197C60.5398 56.4197 60.4611 56.3017 60.4611 56.0656C60.4611 56.0263 60.4611 55.9476 60.5005 55.9476C60.5398 55.9082 60.5792 55.9083 60.6186 55.9083C60.6579 55.9083 60.6973 55.8689 60.776 55.7902C60.8154 55.7115 60.8547 55.5935 60.8941 55.4361C60.9335 55.0427 60.9728 54.7673 61.0122 54.5312C61.0515 54.2951 61.0515 54.1771 61.0515 54.1771V54.1378C61.0515 54.0591 61.0515 54.0197 61.0909 53.9804C61.1303 53.941 61.1696 53.941 61.2484 53.941H61.3664C61.7207 53.941 61.9569 53.941 62.1143 53.941C62.2718 53.941 62.3505 53.941 62.4292 53.941C62.5473 53.941 62.626 53.9804 62.6654 54.0197C62.7048 54.0591 62.7441 54.0984 62.7441 54.1378C62.7441 54.1771 62.7441 54.2558 62.7441 54.3345C62.7441 54.3738 62.7441 54.4525 62.7441 54.5312V56.1837C62.7441 56.341 62.6654 56.4197 62.508 56.4197H62.3112C62.1537 56.4197 62.075 56.341 62.075 56.1837V55.9869V55.3181H62.1143Z" fill="#F27179"/>
<path d="M64.0431 55.2001L64.5155 54.1771L64.5548 54.0591C64.5942 53.9804 64.6729 53.941 64.8304 53.941H64.9091H65.0272C65.1453 53.941 65.1846 53.941 65.224 53.9804C65.2633 54.0197 65.2634 54.0591 65.2634 54.1378C65.2634 54.2558 65.2634 54.4132 65.2634 54.6492C65.2634 54.846 65.2634 55.0427 65.2634 55.2001V55.2394C65.2634 55.2787 65.2634 55.3968 65.2634 55.5542C65.2634 55.7115 65.2634 55.8296 65.2634 55.8689C65.2634 55.9083 65.2634 55.9476 65.2634 55.9869V56.1837C65.2634 56.223 65.2634 56.2624 65.2634 56.2624C65.2634 56.3017 65.2633 56.3017 65.224 56.341L65.1846 56.3804C65.1846 56.3804 65.1453 56.3804 65.1059 56.3804C65.0665 56.3804 65.0272 56.3804 65.0272 56.3804C64.9878 56.3804 64.9484 56.3804 64.9091 56.3804C64.8697 56.3804 64.791 56.3804 64.791 56.3804C64.6729 56.3804 64.6335 56.3017 64.6335 56.1443V56.0656C64.6335 55.9869 64.6335 55.9083 64.6335 55.7902C64.6335 55.6722 64.6335 55.5935 64.6335 55.5542V55.2787C64.6335 55.2001 64.6335 55.1214 64.6335 55.1214C64.5548 55.3574 64.4367 55.5935 64.3186 55.8296C64.2006 56.0656 64.1218 56.223 64.1218 56.2624C64.0431 56.3804 63.925 56.4591 63.7282 56.4591H63.6495C63.6101 56.4591 63.5707 56.4591 63.5314 56.4197C63.492 56.3804 63.492 56.3804 63.4527 56.3804C63.4527 56.341 63.4133 56.341 63.4133 56.3017C63.4133 56.2624 63.4133 56.2623 63.3739 56.223C63.3739 56.1837 63.3739 56.1837 63.3739 56.1443C63.3739 56.1443 63.3739 56.105 63.3739 56.0656C63.3739 56.0263 63.3739 56.0263 63.3739 55.9869V55.7509C63.3739 55.5935 63.3739 55.3968 63.3739 55.082C63.3739 54.8066 63.3739 54.5705 63.3739 54.4132C63.3739 54.4132 63.3739 54.3738 63.3739 54.3345C63.3739 54.2951 63.3739 54.2951 63.3739 54.2558V54.2164C63.3739 54.0984 63.3739 54.0197 63.4133 53.9804C63.4527 53.941 63.492 53.941 63.6101 53.941C63.6101 53.941 63.6495 53.941 63.7282 53.941C63.8069 53.941 63.8069 53.941 63.8463 53.941C63.8857 53.941 63.925 53.941 63.9644 53.9804C64.0037 53.9804 64.0431 54.0197 64.0431 54.0591C64.0431 54.0984 64.0825 54.1378 64.0825 54.1771V54.2558C64.0825 54.3345 64.0825 54.4525 64.0825 54.6886C64.0825 54.9246 64.0825 55.0033 64.0825 55.082V55.1607V55.2001C64.0825 55.2394 64.0825 55.2394 64.0825 55.2394V55.2001H64.0431Z" fill="#F27179"/>
<path d="M67.5464 56.341C67.5464 56.341 67.507 56.341 67.4677 56.341C67.4283 56.341 67.4283 56.341 67.3889 56.341C67.3496 56.341 67.3496 56.341 67.3102 56.341C67.2709 56.341 67.2709 56.341 67.2315 56.341H67.1921H67.1528H67.1134C67.1134 56.341 67.074 56.341 67.074 56.3017V56.2623V56.105V55.8296C67.074 55.8296 67.074 55.8296 67.074 55.7902V55.7509C67.074 55.7115 67.074 55.6328 67.074 55.5148C67.074 55.3968 67.074 55.2787 67.074 55.1214C67.074 54.964 67.074 54.846 67.074 54.7673V54.6099C67.074 54.6099 67.074 54.6099 67.074 54.5705V54.5312C66.9953 54.5312 66.9166 54.5312 66.7985 54.5312C66.6804 54.5312 66.6017 54.5312 66.523 54.5312C66.523 54.846 66.5623 55.1607 66.5623 55.4755C66.5623 55.5935 66.5623 55.7115 66.5623 55.8296C66.5623 55.9476 66.5623 56.0263 66.5623 56.0263V56.105C66.5623 56.2624 66.523 56.341 66.4049 56.341C66.1293 56.341 65.9719 56.341 65.8932 56.3017C65.8144 56.2624 65.8144 56.223 65.8144 56.0656C65.8144 56.0656 65.8144 56.0656 65.8144 56.0263V55.9869V55.9476C65.8144 55.9082 65.8144 55.9083 65.8144 55.9083V55.8689C65.8144 55.8296 65.8144 55.8296 65.8144 55.7902V54.6886V54.3738V54.0984C65.8144 54.0591 65.8144 54.0197 65.8538 53.9804C65.8932 53.941 65.8932 53.941 65.9325 53.941C65.9719 53.941 66.0112 53.941 66.0506 53.941C66.09 53.941 66.1687 53.941 66.2474 53.941C66.3261 53.941 66.4049 53.941 66.4442 53.941H66.6804C66.9166 53.941 67.074 53.941 67.1921 53.941C67.2708 53.941 67.3889 53.941 67.4283 53.941C67.5858 53.941 67.6645 53.9804 67.7432 54.0197C67.8219 54.0591 67.8219 54.1771 67.8219 54.2951C67.8219 54.4132 67.8219 54.5705 67.7826 54.7673C67.7826 54.964 67.7432 55.1607 67.7432 55.2787V55.4361C67.7432 55.4755 67.7432 55.5542 67.7432 55.5542V56.223V56.3017C67.7432 56.341 67.7038 56.4197 67.6645 56.4197C67.6251 56.4197 67.5858 56.341 67.5464 56.341Z" fill="#F27179"/>
<path d="M69.1996 57.9935C69.1603 58.1115 69.0815 58.1902 69.0422 58.1902C69.0422 58.1902 69.0028 58.1902 68.9634 58.1902C68.9241 58.1902 68.8847 58.1902 68.8454 58.1902C68.806 58.1902 68.7666 58.1902 68.7273 58.1902C68.6879 58.1902 68.6485 58.1902 68.6092 58.1902C68.5698 58.1902 68.5305 58.1902 68.4911 58.1902C68.4517 58.1902 68.4517 58.1508 68.4124 58.1508C68.373 58.1508 68.373 58.1115 68.373 58.1115C68.373 58.0722 68.373 58.0328 68.4124 57.9541L68.9241 56.4197C68.6092 55.6328 68.3336 54.964 68.1368 54.3738C68.0975 54.2164 68.0581 54.1377 68.0581 54.0984V54.059L68.0975 54.0197C68.1368 54.0197 68.1368 54.0197 68.1762 54.0197C68.2155 54.0197 68.2155 54.0197 68.2549 54.0197C68.2943 54.0197 68.3336 54.0197 68.3336 54.0197C68.3336 54.0197 68.373 54.0197 68.4124 54.0197C68.4517 54.0197 68.4517 54.0197 68.4911 54.0197H68.6879C68.7273 54.0197 68.7273 54.0197 68.7273 54.0197C68.7273 54.0197 68.7666 54.0197 68.7666 54.059C68.7666 54.059 68.806 54.0984 68.806 54.1377C68.806 54.1771 68.8454 54.1771 68.8454 54.2164C68.8454 54.2558 68.8847 54.2951 68.8847 54.3344C68.8847 54.3738 68.9241 54.4525 68.9241 54.5312C68.9241 54.6099 68.9634 54.6885 69.0028 54.7672C69.0422 54.8459 69.0422 54.964 69.0815 55.082C69.1209 55.2 69.1603 55.3181 69.1996 55.4361H69.239C69.2783 55.2787 69.3571 55.082 69.4358 54.8066C69.5145 54.5312 69.5932 54.2951 69.6326 54.1771C69.672 54.0984 69.672 54.059 69.7113 54.0197C69.7507 53.9803 69.7901 53.9803 69.8688 53.9803H69.9869H70.0262C70.1443 53.9803 70.2624 53.9803 70.3411 54.0197C70.4199 54.059 70.4592 54.0984 70.4592 54.1377C70.4592 54.1771 70.4592 54.1771 70.4592 54.1771L70.4199 54.2558C70.3805 54.4131 70.3018 54.6885 70.1443 55.0426C69.9869 55.3967 69.8688 55.8689 69.7113 56.341C69.5932 56.8525 69.3964 57.4033 69.1996 57.9935Z" fill="#F27179"/>
<path d="M72.1518 56.341C72.0731 56.341 72.0337 56.341 72.0337 56.341C72.0337 56.341 71.9944 56.341 71.955 56.341C71.9156 56.341 71.8763 56.341 71.8763 56.3017C71.8763 56.3017 71.8369 56.2623 71.8369 56.223C71.8369 56.1836 71.8369 56.1443 71.8369 56.1049C71.8369 56.1049 71.8369 56.0656 71.8369 55.9869C71.8369 55.9476 71.8369 55.9082 71.8369 55.9082C71.8369 55.8689 71.8369 55.8295 71.8369 55.7902C71.8369 55.7508 71.8369 55.7115 71.8369 55.6721H71.7582C71.4039 55.6721 71.089 55.5935 70.8922 55.4754C70.6954 55.3574 70.6167 55.1213 70.6167 54.7672C70.5773 54.5312 70.5773 54.3738 70.5773 54.2557V54.2164V54.0984C70.5773 54.0197 70.5773 53.941 70.6167 53.9017C70.656 53.8623 70.6954 53.8623 70.7741 53.8623C70.9709 53.8623 71.089 53.8623 71.089 53.8623C71.2071 53.8623 71.2465 53.941 71.2465 54.059C71.2465 54.0984 71.2465 54.1377 71.2465 54.1377C71.2465 54.5312 71.2858 54.8066 71.3252 54.9246C71.3646 55.0426 71.4827 55.082 71.7188 55.082H71.8763C71.8763 55.0426 71.8763 54.9639 71.8763 54.8066C71.8763 54.6885 71.8763 54.5705 71.8763 54.5312C71.8763 54.2951 71.8763 54.0984 71.8763 53.9803C71.8763 53.9017 71.9156 53.8623 71.9944 53.8623H72.3486C72.3486 53.8623 72.3486 53.8623 72.388 53.8623H72.4274H72.4667H72.5061C72.5061 53.8623 72.5454 53.8623 72.5454 53.9017C72.5454 53.9017 72.5454 53.941 72.5848 53.941V53.9803V54.0197C72.5848 54.059 72.5848 54.1377 72.5848 54.2164C72.5848 54.2951 72.5848 54.3738 72.5848 54.4131V54.4525C72.5848 54.4525 72.5848 54.4918 72.5848 54.5312C72.5848 54.5705 72.5848 54.6098 72.5848 54.6098V54.8853C72.5848 54.9639 72.5848 55.0033 72.5848 55.082C72.5848 55.1213 72.5848 55.2 72.5848 55.2787C72.5848 55.3574 72.5848 55.4361 72.5848 55.4754V55.7115V55.7508V55.9475C72.5848 55.9475 72.5848 55.9869 72.5848 56.0262C72.5848 56.0656 72.5848 56.0656 72.5848 56.0656C72.5848 56.1049 72.5848 56.1443 72.5848 56.1836C72.5848 56.223 72.5454 56.223 72.5454 56.2623C72.5454 56.2623 72.5061 56.3017 72.4667 56.3017C72.4274 56.3017 72.388 56.3017 72.388 56.3017C72.388 56.3017 72.2305 56.341 72.1518 56.341Z" fill="#F27179"/>
<path d="M73.7657 55.3575C73.7263 55.3968 73.7263 55.4755 73.7263 55.6329C73.7263 55.7902 73.7263 55.8689 73.7263 55.9476C73.7263 56.0657 73.7263 56.1444 73.7263 56.1837C73.7263 56.223 73.7263 56.2624 73.687 56.3017C73.6476 56.3411 73.6476 56.3411 73.6082 56.3411C73.6082 56.3411 73.5295 56.3411 73.4902 56.3411H73.3721H73.2146C73.0572 56.3411 73.0178 56.2624 73.0178 56.105C73.0178 55.3575 73.0178 54.6886 73.0178 54.0984C73.0178 53.9017 73.0965 53.7837 73.2146 53.7837C73.254 53.7837 73.2933 53.7837 73.3721 53.7837C73.4508 53.7837 73.4902 53.7837 73.5295 53.7837C73.5689 53.7837 73.6082 53.7837 73.6476 53.823C73.687 53.823 73.7263 53.8624 73.7263 53.9017C73.7263 53.9411 73.7657 53.9804 73.7657 54.0591C73.7657 54.0591 73.7657 54.0984 73.7657 54.1378C73.7657 54.1771 73.7657 54.2165 73.7657 54.2558V54.2952C73.7657 54.2952 73.7657 54.3345 73.7657 54.3739C73.7657 54.4132 73.7657 54.4525 73.7657 54.4919C73.7657 54.4919 73.7657 54.5312 73.7657 54.5706C73.7657 54.6099 73.7657 54.6099 73.7657 54.6493H73.8051C73.8444 54.6493 73.8444 54.6493 73.8444 54.6493H73.8838H73.9231C73.9231 54.6493 73.9625 54.6493 73.9625 54.6099C73.9625 54.6099 74.0019 54.5706 74.0019 54.5312C74.0019 54.4919 74.0412 54.4525 74.0412 54.4132C74.0806 54.3739 74.0806 54.2952 74.12 54.2165C74.1987 53.9411 74.3561 53.823 74.6317 53.823C74.6317 53.823 74.6317 53.823 74.671 53.823C74.7104 53.823 74.7104 53.823 74.7104 53.823H74.7498C74.7891 53.823 74.7891 53.823 74.7891 53.823H74.8285C74.8679 53.823 74.8679 53.823 74.8679 53.8624L74.9072 53.9017L74.9466 53.9411C74.9466 53.9804 74.9466 53.9804 74.9466 54.0198C74.9466 54.0591 74.9466 54.0984 74.9466 54.0984C74.9466 54.1771 74.9072 54.2558 74.8679 54.2558H74.8285C74.7891 54.2558 74.7498 54.2558 74.7104 54.2952C74.671 54.3345 74.671 54.3345 74.671 54.3739C74.671 54.4132 74.671 54.4525 74.6317 54.4919C74.6317 54.5312 74.6317 54.5706 74.6317 54.5706C74.5923 54.6886 74.5529 54.7673 74.4742 54.8066C74.3955 54.846 74.3168 54.8853 74.2774 54.8853C74.1987 54.8853 74.1987 54.8853 74.1987 54.8853C74.3955 54.8853 74.553 54.964 74.7104 55.0821C74.8679 55.2001 74.9466 55.3575 74.9466 55.5935C74.9466 55.6722 74.9466 55.7509 74.9466 55.8296C74.9466 55.8689 74.9466 55.9083 74.9859 55.9476C75.0253 55.987 75.0253 55.987 75.0647 55.987C75.104 55.987 75.1434 55.987 75.1434 56.0263C75.1434 56.0657 75.1828 56.0657 75.1828 56.105C75.1828 56.105 75.1828 56.105 75.1828 56.1443C75.1828 56.1837 75.1828 56.1837 75.1828 56.223C75.1828 56.2624 75.1828 56.2624 75.1434 56.3017C75.1434 56.3411 75.104 56.3411 75.0647 56.3804C75.0253 56.3804 74.9859 56.4198 74.9466 56.4198C74.7498 56.4198 74.553 56.3804 74.4349 56.3017C74.3168 56.223 74.238 56.105 74.1987 55.987C74.1593 55.8689 74.12 55.7509 74.0806 55.6329C74.0412 55.5148 74.0019 55.4362 73.9625 55.3575C73.9231 55.3575 73.8444 55.3181 73.7657 55.3575Z" fill="#F27179"/>
<path d="M76.403 54.8459C76.403 54.8459 76.403 54.8066 76.403 54.7673C76.403 54.7279 76.403 54.7279 76.403 54.6886C76.403 54.6492 76.403 54.6492 76.403 54.6492C76.403 54.6099 76.403 54.6099 76.403 54.6099C76.403 54.6099 76.403 54.6099 76.403 54.5705C76.403 54.5705 76.403 54.5312 76.3636 54.5312C76.3636 54.5312 76.3243 54.5312 76.3243 54.4919C76.3243 54.4525 76.2849 54.4919 76.2849 54.4919C76.2455 54.4919 76.2455 54.4919 76.2062 54.4919C76.0881 54.4919 75.9306 54.5312 75.8126 54.6099C75.6945 54.6886 75.6157 54.7279 75.6157 54.7279C75.5764 54.7279 75.4977 54.6886 75.4583 54.5705C75.4189 54.4525 75.3796 54.3738 75.3796 54.2951C75.4189 54.1378 75.537 54.0197 75.7338 53.941C75.9306 53.8623 76.1275 53.823 76.2849 53.823C76.6392 53.823 76.8753 53.9017 77.0328 54.0591C77.1902 54.2164 77.269 54.4525 77.269 54.7673C77.269 54.8066 77.269 54.8853 77.269 55.0033C77.269 55.1214 77.269 55.2 77.269 55.2787C77.269 55.5935 77.3083 55.7902 77.3871 55.9082C77.4264 55.9476 77.4658 55.9869 77.5445 55.9869C77.5839 55.9869 77.6232 56.0656 77.6232 56.1443C77.6232 56.1837 77.5839 56.2623 77.5051 56.341C77.4264 56.4197 77.3477 56.4591 77.2296 56.4591C77.1115 56.4591 77.0328 56.4197 76.9541 56.3804C76.8753 56.341 76.836 56.2623 76.7966 56.223C76.7573 56.1837 76.7573 56.1443 76.7573 56.1443C76.7573 56.1443 76.7573 56.1837 76.7179 56.223C76.6785 56.2623 76.5998 56.3017 76.4817 56.3804C76.3636 56.4591 76.2455 56.4591 76.0881 56.4591C75.8913 56.4591 75.6945 56.3804 75.537 56.2623C75.3796 56.1443 75.3008 55.9476 75.3008 55.7115C75.3008 55.3968 75.4189 55.2 75.6157 55.0427C75.8126 54.8853 76.0094 54.8459 76.403 54.8459ZM76.4424 55.3574H76.2849C76.1668 55.3574 76.0881 55.3968 76.0094 55.4361C75.9306 55.4755 75.8913 55.5541 75.8913 55.6722C75.8913 55.8296 76.0094 55.9082 76.2062 55.9082C76.3636 55.9082 76.4424 55.8689 76.4424 55.8296C76.403 55.5935 76.403 55.4755 76.403 55.3968C76.4424 55.3968 76.4424 55.3968 76.4424 55.3574Z" fill="#F27179"/>
</g>
<defs>
<clipPath id="clip0">
<rect width="84" height="72" fill="white"/>
</clipPath>
</defs>
</svg>
