<svg width="83" height="74" viewBox="0 0 83 74" fill="none" xmlns="http://www.w3.org/2000/svg">
<g clip-path="url(#clip0)">
<path d="M68.0647 37.2606C68.0647 55.3852 53.3627 70.0872 35.2381 70.0872C17.1134 70.0872 2.41144 55.3852 2.41144 37.2606C2.41144 19.1359 17.1134 4.43396 35.2381 4.43396C53.3627 4.43396 68.0647 19.1359 68.0647 37.2606Z" fill="#8ADDFB"/>
<path d="M35.238 71.1763C16.53 71.1763 1.32239 55.9687 1.32239 37.2606C1.32239 18.5526 16.53 3.34497 35.238 3.34497C53.9461 3.34497 69.1537 18.5526 69.1537 37.2606C69.1537 55.9687 53.9461 71.1763 35.238 71.1763ZM35.238 5.56193C17.7357 5.56193 3.53935 19.7972 3.53935 37.2606C3.53935 54.763 17.7746 68.9593 35.238 68.9593C52.7015 68.9593 66.9367 54.7241 66.9367 37.2606C66.9367 19.7583 52.7404 5.56193 35.238 5.56193Z" fill="white"/>
<path d="M7.77765 27.8871C11.9782 17.0356 22.5574 9.33458 34.9257 9.33458C47.2163 9.33458 56.7064 17.4246 61.996 27.7315C62.4627 28.6261 63.6296 24.1143 64.9909 23.4531C66.3522 22.8308 70.3971 23.5698 70.086 22.8697C63.9407 9.45127 50.6001 0 34.9257 0C19.4459 0 6.1441 9.14011 0.0377254 22.2863C-0.351216 23.1031 3.88824 22.753 4.62723 23.2587C5.67737 23.9199 6.99977 29.7151 7.77765 27.8871Z" fill="#0B69B3"/>
<path d="M14.5852 15.1298L14.0018 13.6518L13.8852 13.4185C12.7183 12.8351 11.7071 12.2905 10.8514 11.8627L10.8125 11.8238L10.7736 11.7849C10.6958 11.7071 10.7347 11.5904 10.8514 11.4738L11.1626 11.2015L11.2015 11.1626C11.3181 11.0848 11.4348 11.0459 11.5515 11.1237L13.3795 12.1739L12.5628 10.2291C12.5239 10.1125 12.5628 9.99578 12.6794 9.8791C12.6794 9.8791 12.7183 9.84021 12.7961 9.76242C12.8739 9.68463 12.9128 9.64573 12.9517 9.64573C12.9906 9.60684 13.0295 9.60684 13.0684 9.56795C13.1073 9.52905 13.1851 9.52905 13.224 9.52905C13.2628 9.52905 13.3017 9.56795 13.3406 9.60684L13.3795 9.64573L13.4184 9.68463C13.8852 10.9292 14.5075 12.5239 15.2076 14.3908L15.2853 14.6242C15.3242 14.702 15.3242 14.7798 15.2853 14.8186C15.2464 14.8575 15.1687 14.9353 15.052 15.0131C14.9353 15.0909 14.8575 15.1298 14.8575 15.1687C14.7408 15.2465 14.663 15.2465 14.5852 15.1687C14.5852 15.1298 14.5852 15.1298 14.5852 15.1298Z" fill="white"/>
<path d="M18.2025 10.3459C18.2803 10.4237 18.397 10.5792 18.5526 10.8126L18.6303 10.8904C18.7081 10.9682 18.747 11.046 18.747 11.0849C18.8248 11.2015 18.9026 11.3182 18.9415 11.3571C18.9415 11.3571 18.9804 11.396 19.0193 11.4738C19.0582 11.5516 19.0971 11.5905 19.0971 11.5905L19.136 11.6294C19.136 11.6683 19.1749 11.6683 19.1749 11.6683C19.2526 11.785 19.2526 11.8627 19.136 11.9405C19.0971 11.9794 19.0582 11.9794 18.9804 12.0572C18.9026 12.0961 18.8637 12.135 18.8248 12.1739C18.7859 12.2128 18.747 12.2128 18.6692 12.2517C18.5914 12.2906 18.5525 12.2906 18.5137 12.2517C18.4748 12.2517 18.4359 12.2128 18.397 12.135L18.1636 11.785L17.7358 11.1627C17.5802 10.9682 17.4635 10.8126 17.3857 10.6959C16.569 9.4902 16.1022 8.79011 15.9855 8.59564L15.9466 8.55675L15.9078 8.51785C15.7911 8.59564 15.5966 8.75122 15.3243 8.90679C15.6355 9.37352 16.1411 10.2681 16.8412 11.6294C17.1524 12.1739 17.3079 12.5628 17.269 12.874C17.2302 13.1462 17.0746 13.4185 16.8023 13.613C16.6856 13.6908 16.569 13.6908 16.4523 13.6519C16.3356 13.5741 16.2578 13.4963 16.2189 13.4185C16.18 13.3018 16.18 13.224 16.2189 13.1851C16.2578 13.1462 16.2967 13.1074 16.2967 13.1074C16.3356 13.0685 16.3356 13.0296 16.3356 12.9907C16.3356 12.9518 16.3745 12.9129 16.3745 12.9129C16.3745 12.874 16.3745 12.874 16.3745 12.7962C16.3745 12.7573 16.3745 12.7184 16.3356 12.6795C16.3356 12.6406 16.2967 12.6017 16.2967 12.5628C16.2578 12.5239 16.2578 12.485 16.2189 12.4462C16.2189 12.4073 16.18 12.3684 16.1411 12.3295C16.1022 12.2517 16.0633 12.2128 16.0633 12.1739C15.091 10.4237 14.4687 9.37352 14.2353 8.98458C14.1575 8.8679 14.1575 8.79011 14.2742 8.75122L14.7409 8.44006C14.7798 8.40117 14.8187 8.36228 14.9354 8.32338C15.0132 8.24559 15.091 8.2067 15.1299 8.2067C15.1299 8.2067 15.1299 8.2067 15.1688 8.2067C15.2077 8.1678 15.2466 8.1678 15.2854 8.12891C15.6355 7.93444 15.9078 7.73997 16.1411 7.58439C16.2189 7.50661 16.2967 7.5455 16.3745 7.62329C16.4134 7.66218 16.4523 7.73997 16.4912 7.81776L16.6078 8.01223C16.6467 8.05112 16.6856 8.12891 16.7245 8.2067C16.7634 8.28449 16.8412 8.32338 16.8412 8.36228C16.8801 8.44006 16.9579 8.55675 17.0357 8.71232C17.1135 8.8679 17.1913 8.94569 17.2302 8.98458L17.4246 9.29573L17.4635 9.37352L17.7358 9.80136C17.8525 9.87915 18.008 10.0736 18.2025 10.3459Z" fill="white"/>
<path d="M19.6804 11.2792C19.447 10.8125 19.058 10.1124 18.5913 9.17895C18.1246 8.2455 17.7357 7.5454 17.5023 7.07867L17.4245 6.96199C17.3856 6.84531 17.4245 6.76752 17.5412 6.68973L18.0079 6.45637C18.0857 6.41747 18.1635 6.41747 18.2413 6.53415L18.9414 7.89545C19.3692 7.66208 19.8359 7.62319 20.2638 7.73987C20.6916 7.85655 21.0416 8.2066 21.3528 8.75112C21.5084 9.02338 21.5862 9.29564 21.5862 9.60679C21.5862 9.87905 21.5084 10.1513 21.3917 10.3458C21.275 10.5402 21.1194 10.7736 20.9639 10.9292C20.8083 11.0848 20.6138 11.2403 20.3804 11.357C20.186 11.4737 20.0304 11.5126 19.9137 11.4737C19.8359 11.4737 19.7581 11.3959 19.6804 11.2792ZM19.2525 8.59554C19.3303 8.75112 19.447 8.98448 19.6026 9.25674C19.7581 9.529 19.8748 9.76237 19.9526 9.91794C20.0304 10.0735 20.1471 10.268 20.3027 10.5791C20.4582 10.5014 20.5749 10.3069 20.6527 10.0346C20.7305 9.76237 20.6916 9.49011 20.536 9.21785C20.4971 9.10117 20.4193 9.02338 20.3416 8.94559C20.2638 8.8678 20.186 8.79001 20.0693 8.67333C19.9526 8.55665 19.8359 8.55665 19.6804 8.51775C19.5637 8.47886 19.4081 8.51775 19.2525 8.59554Z" fill="white"/>
<path d="M21.8196 4.70619C21.9751 4.6284 22.1696 4.55061 22.403 4.47282L22.5585 4.39503L22.7141 4.35614C22.7919 4.31724 22.8697 4.35614 22.9086 4.47282C23.0253 4.78397 23.1031 4.93955 23.1031 5.01734C23.1031 5.09513 23.0642 5.13402 22.9475 5.17291C22.5197 5.36738 22.2474 5.44517 22.2085 5.48407L22.0529 5.56186C22.1696 5.83411 22.2863 6.10637 22.403 6.33974C22.4808 6.53421 22.5974 6.84536 22.753 7.2343C22.9086 7.62324 23.0253 7.9344 23.1031 8.12887C23.2586 8.47891 23.3364 8.67338 23.3753 8.75117L23.492 9.02343L23.6865 9.52905C23.7254 9.64574 23.7254 9.72352 23.6087 9.76242L23.0642 9.99578C22.9864 10.0347 22.9475 9.99578 22.8697 9.91799C22.8308 9.84021 22.753 9.72352 22.6752 9.56795L22.2863 8.5956C22.2474 8.51781 22.2085 8.44002 22.2085 8.40112L22.1307 8.20665C22.0918 8.08997 21.9751 7.85661 21.8973 7.62324C21.7807 7.35098 21.7029 7.15651 21.664 7.03983L21.4306 6.49531C21.3528 6.30084 21.275 6.10637 21.1973 5.9508L20.925 6.06748C20.7694 6.14527 20.6138 6.18416 20.4583 6.22305C20.3027 6.26195 20.186 6.30084 20.186 6.30084C20.1471 6.33974 20.0693 6.30084 20.0304 6.26195C19.9915 6.22306 19.9138 6.10637 19.836 5.9119L19.7582 5.75633C19.7193 5.67854 19.7193 5.60075 19.7582 5.56186C19.7971 5.52296 19.8749 5.48407 19.9915 5.40628L20.1471 5.32849C20.186 5.2896 20.3027 5.2896 20.4194 5.21181C20.575 5.17291 20.6916 5.09513 20.7694 5.05623L21.1195 4.90066C21.1584 4.90066 21.2362 4.86176 21.3139 4.82287C21.3917 4.78397 21.4695 4.78397 21.4695 4.74508C21.5473 4.70618 21.5862 4.70618 21.7029 4.66729C21.7418 4.74508 21.7807 4.70619 21.8196 4.70619Z" fill="white"/>
<path d="M25.9423 8.79005C25.9812 8.90673 25.9034 8.98452 25.7479 9.02342L25.32 9.1401C25.1644 9.17899 25.0867 9.1012 25.0089 8.94563L24.97 8.86784C24.8144 8.36222 24.6199 7.62323 24.3477 6.61198C24.0754 5.60074 23.842 4.86175 23.7254 4.35612C23.6476 4.08387 23.7643 3.8894 24.0754 3.81161C24.6199 3.65603 25.1644 3.69493 25.6701 3.92829C26.1757 4.16165 26.5257 4.58949 26.6813 5.1729C26.798 5.56184 26.8369 5.95078 26.7591 6.26194C26.7202 6.61198 26.6035 6.88424 26.4091 7.07871C26.2146 7.27318 25.9423 7.42876 25.5534 7.54544C25.5923 7.66212 25.6312 7.85659 25.709 8.16775C25.8256 8.44 25.9034 8.63448 25.9423 8.79005ZM24.6588 4.47281C24.6588 4.5506 24.6588 4.58949 24.6977 4.62838C24.6977 4.62838 24.6977 4.62838 24.6977 4.66728V4.70617C24.97 5.67852 25.1644 6.41751 25.32 6.96203C25.4756 6.92313 25.6312 6.84535 25.709 6.72866C25.7867 6.61198 25.8645 6.4953 25.8645 6.37862C25.9034 6.22304 25.9034 6.10636 25.8645 5.98968C25.8645 5.87299 25.8256 5.75631 25.7868 5.60074C25.6701 5.1729 25.4756 4.86175 25.2422 4.70617C25.0478 4.47281 24.8144 4.43391 24.6588 4.47281Z" fill="white"/>
<path d="M28.5094 3.2282L29.5206 5.75632V5.79521L29.5595 5.8341V5.79521C29.7151 6.18415 29.9096 6.57309 30.0652 6.96203C30.2207 7.35097 30.2985 7.58434 30.3374 7.62323C30.3763 7.77881 30.3763 7.89549 30.3374 7.93438C30.2596 7.97328 30.1041 8.05107 29.8707 8.08996C29.7929 8.08996 29.7151 8.12885 29.6373 8.08996C29.5984 8.08996 29.5206 8.05107 29.4818 8.01217C29.4429 7.97328 29.404 7.93438 29.404 7.89549C29.404 7.8566 29.3651 7.8177 29.3262 7.73991L29.2873 7.62323V7.58434L29.0928 7.03982L29.015 6.84535L28.3538 7.00093C28.3538 7.00093 28.3538 7.03982 28.3538 7.07871C28.3538 7.11761 28.3538 7.11761 28.3538 7.1565C28.3538 7.23429 28.3538 7.42876 28.3538 7.77881C28.3538 8.01217 28.3538 8.20664 28.3149 8.28443C28.276 8.36222 28.1205 8.44001 27.926 8.4789C27.7315 8.5178 27.6148 8.5178 27.537 8.5178C27.4593 8.4789 27.4204 8.44001 27.4204 8.32333C27.3815 8.16775 27.3815 8.01217 27.3815 7.89549C27.3815 7.8566 27.3815 7.8177 27.3815 7.70102C27.3815 7.62323 27.3815 7.54544 27.3815 7.46766V7.27319C27.3815 7.23429 27.3815 7.23429 27.3815 7.1954V7.11761L27.4204 6.18415V6.14526L27.4593 3.50046C27.4982 3.2282 27.6148 3.07262 27.8482 3.03373C28.1982 2.87815 28.3927 2.99484 28.5094 3.2282ZM28.665 5.95079L28.3149 4.97843V6.02857L28.665 5.95079Z" fill="white"/>
<path d="M34.1878 7.66208C34.1878 7.77876 34.1878 7.85655 34.1878 7.93434C34.1878 8.01213 34.1878 8.05102 34.1878 8.05102V8.24549C34.1878 8.32328 34.1878 8.36217 34.1489 8.40107C34.1101 8.43996 34.0712 8.47886 34.0323 8.47886C33.9934 8.47886 33.9545 8.47886 33.8767 8.47886H33.6433H33.6044C33.5655 8.47886 33.5655 8.47886 33.5266 8.47886C33.5266 8.47886 33.4877 8.47886 33.4489 8.47886C33.41 8.47886 33.41 8.47886 33.3711 8.47886L33.3322 8.43996C33.3322 8.43996 33.2933 8.40107 33.2933 8.36217C33.2933 8.32328 33.2544 8.28439 33.2544 8.28439C33.2544 8.24549 33.2155 8.05102 33.1766 7.70097L32.9043 7.73987C32.8654 7.73987 32.7488 7.73987 32.5932 7.73987C32.4376 7.73987 32.3987 7.77876 32.282 7.77876H32.1265C32.0487 7.77876 31.8931 7.77876 31.7375 7.81766C31.5819 7.81766 31.4653 7.85655 31.3875 7.85655H31.2708L31.3097 8.43996C31.3097 8.59554 31.2708 8.67333 31.1541 8.67333C31.1152 8.67333 31.0374 8.67333 30.9596 8.71222C30.8818 8.75111 30.8041 8.71222 30.7652 8.71222C30.7263 8.71222 30.6485 8.71222 30.6096 8.71222C30.5318 8.71222 30.4929 8.67333 30.454 8.63443C30.4151 8.59554 30.4151 8.55664 30.4151 8.47886L30.3762 8.05102C30.3762 8.01213 30.3762 7.97323 30.3762 7.89544C30.3762 7.81766 30.3762 7.77876 30.3762 7.70097V7.5454C30.3762 7.42872 30.3762 7.35093 30.4151 7.31203C30.454 7.27314 30.5318 7.23425 30.6485 7.23425C30.843 7.07867 30.9596 6.53415 30.9596 5.60069C30.9596 4.08382 30.9596 3.18926 30.9596 2.87811V2.72253C30.9596 2.60585 31.0374 2.52806 31.193 2.48917H31.4264C31.4653 2.48917 31.5041 2.48917 31.5819 2.48917C31.6597 2.48917 31.6986 2.48917 31.7375 2.48917C31.7375 2.48917 31.7764 2.48917 31.8153 2.48917C31.8542 2.48917 31.8542 2.48917 31.8931 2.48917C31.932 2.48917 31.9709 2.48917 32.0487 2.48917C32.1265 2.48917 32.1653 2.48917 32.1653 2.48917C32.2042 2.48917 32.2042 2.48917 32.2431 2.48917C32.282 2.48917 32.4376 2.48917 32.5932 2.45027C32.7877 2.45027 32.9043 2.45027 32.9821 2.41138H33.0988C33.1766 2.41138 33.2155 2.41138 33.2544 2.41138C33.2933 2.41138 33.3322 2.45027 33.3711 2.52806C33.41 2.60585 33.41 2.72253 33.4489 2.87811V3.03368L33.4877 3.34484C33.4877 3.46152 33.4877 3.5782 33.4877 3.61709L33.6822 6.37857C33.6822 6.45636 33.7211 6.57305 33.7211 6.68973V6.72862C33.7211 6.76752 33.7211 6.76752 33.7211 6.76752V6.96199H33.9545H33.9934C34.0323 6.96199 34.0712 6.96199 34.0712 7.00088C34.0712 7.03977 34.1101 7.07867 34.1101 7.11756C34.1101 7.15646 34.1101 7.15646 34.1101 7.19535C34.1101 7.23424 34.1101 7.27314 34.1101 7.31203C34.1101 7.35093 34.1101 7.42872 34.1101 7.5065C34.1489 7.5454 34.1489 7.62319 34.1878 7.66208ZM31.6986 6.8842C31.6597 7.00088 31.6597 7.07867 31.6208 7.11756L32.7877 7.03977C32.7877 6.96199 32.7877 6.8453 32.7488 6.68973C32.7099 6.53415 32.7099 6.37858 32.7099 6.30079L32.671 5.83406C32.671 5.75627 32.671 5.67848 32.6321 5.63959C32.5932 5.36733 32.5543 4.93949 32.5154 4.31719C32.4765 3.69488 32.4376 3.38373 32.4376 3.30594V3.18926C32.4376 3.15036 32.4376 3.11147 32.4376 3.11147C32.282 3.11147 32.0487 3.15036 31.7764 3.18926C31.8153 3.81156 31.8153 4.55055 31.7764 5.36733C31.7764 6.1841 31.7375 6.68973 31.6986 6.8842Z" fill="white"/>
<path d="M34.5379 7.31204L34.6935 2.83922V2.48917C34.6935 2.3336 34.7713 2.25581 34.9657 2.2947L35.3936 2.3336C35.5491 2.3336 35.6269 2.41138 35.6269 2.52807V2.56696C35.6269 2.60585 35.6269 2.64475 35.6269 2.72254C35.6269 2.80032 35.6269 2.83922 35.6269 2.87811L35.588 4.04494C36.0937 4.12272 36.5215 4.2783 36.7938 4.62835C37.066 4.9395 37.2216 5.40623 37.1827 5.95075C37.1827 6.2619 37.1049 6.57305 36.9493 6.80642C36.8327 7.03978 36.6382 7.23425 36.4437 7.38983C36.2492 7.5454 36.0159 7.62319 35.7825 7.70098C35.5491 7.77877 35.3158 7.77877 35.0824 7.77877C34.8491 7.77877 34.6935 7.73988 34.6157 7.66209C34.5379 7.5843 34.499 7.46762 34.5379 7.31204ZM35.4714 4.78392C35.4714 4.9395 35.4714 5.25065 35.4325 5.75628C35.3936 6.2619 35.3936 6.65084 35.3936 6.96199C35.588 6.96199 35.7436 6.84531 35.9381 6.65084C36.1326 6.45637 36.2103 6.18411 36.2492 5.87296C36.2492 5.75628 36.2492 5.63959 36.2492 5.52291C36.2492 5.40623 36.2103 5.28955 36.1715 5.17286C36.1326 5.05618 36.0548 4.9395 35.9381 4.86171C35.7825 4.82282 35.6269 4.78392 35.4714 4.78392ZM37.6105 6.65084C37.6105 6.57305 37.6105 6.45637 37.6105 6.30079C37.6105 6.14522 37.6105 6.06743 37.6105 6.02854L37.6494 5.13397C37.6883 4.62835 37.6883 4.08383 37.6883 3.50042V3.11148C37.6883 3.07258 37.6883 2.9948 37.6883 2.91701C37.6883 2.83922 37.6883 2.80032 37.6883 2.76143C37.6883 2.68364 37.6883 2.60585 37.6883 2.56696C37.6883 2.45028 37.7661 2.37249 37.8439 2.41138L38.5051 2.45028C38.6218 2.45028 38.6607 2.52807 38.6607 2.64475C38.6607 2.68364 38.6607 2.72254 38.6607 2.80032C38.6607 2.87811 38.6607 2.91701 38.6607 2.9559C38.6607 3.03369 38.6607 3.15037 38.6607 3.30595C38.6607 3.46152 38.6607 3.57821 38.6607 3.6171L38.6218 4.23941V4.62835C38.5829 5.25065 38.5829 5.87296 38.5829 6.37858C38.5829 6.9231 38.5829 7.27315 38.544 7.38983C38.544 7.50651 38.544 7.62319 38.5051 7.66209C38.5051 7.73988 38.4662 7.73988 38.4662 7.77877C38.4662 7.77877 38.4273 7.77877 38.3884 7.77877H37.7272C37.6105 7.77877 37.5716 7.70098 37.5716 7.5843C37.5716 7.5454 37.5716 7.46762 37.5716 7.35093C37.5716 7.23425 37.5716 7.19536 37.5716 7.11757C37.5716 7.07868 37.5716 7.00089 37.5716 6.88421C37.6105 6.80642 37.6105 6.72863 37.6105 6.65084Z" fill="white"/>
<path d="M39.9442 3.92823L39.9831 3.73376C39.9831 3.69487 39.9831 3.65598 40.022 3.57819C40.0609 3.5004 40.0609 3.46151 40.0609 3.46151L40.0998 3.30593L40.1776 2.95588L40.2165 2.80031C40.2554 2.64473 40.3331 2.60583 40.5276 2.60583L40.9554 2.68362C41.111 2.72252 41.1888 2.80031 41.1499 2.91699L41.0721 3.30593L40.9166 3.96713C40.9166 4.08381 40.8777 4.23939 40.8388 4.47275C40.7999 4.70612 40.6832 5.21174 40.5276 5.95073C40.372 6.68972 40.2942 7.07866 40.2554 7.15644V7.23423L40.9943 7.38981C40.9943 7.35091 40.9943 7.35091 40.9943 7.35091C40.9943 7.35091 41.0332 7.27313 41.0332 7.11755C41.0721 6.96197 41.111 6.8064 41.1499 6.57303L41.1888 6.45635C41.4611 5.21174 41.6166 4.35607 41.6944 3.92823L41.7722 3.53929C41.7722 3.5004 41.7722 3.46151 41.8111 3.38372C41.8111 3.30593 41.85 3.26703 41.85 3.22814L41.8889 2.95588C41.9278 2.8392 41.9667 2.80031 42.0834 2.80031L42.7057 2.91699C42.8224 2.95588 42.8613 2.99478 42.8224 3.15035C42.7835 3.26703 42.7835 3.42261 42.7057 3.65598C42.6668 3.88934 42.6279 4.04492 42.589 4.1616L42.4334 4.8228C42.4334 4.86169 42.4334 4.90059 42.4334 4.93948L42.3945 5.13395C42.239 5.79515 42.1223 6.61193 41.9278 7.54539C42.0056 7.54539 42.1223 7.58428 42.3167 7.62317C42.4723 7.66207 42.6279 7.66207 42.7057 7.70096C42.7446 7.31202 42.9002 6.68972 43.0946 5.75626C43.1724 5.36732 43.2891 4.90059 43.4058 4.39496C43.5225 3.85045 43.6002 3.57819 43.6002 3.57819L43.5614 3.5004C43.6002 3.34482 43.678 3.30593 43.7947 3.30593C43.8336 3.30593 43.8725 3.30593 43.9892 3.34482C44.067 3.34482 44.1448 3.38372 44.1837 3.38372C44.2226 3.38372 44.3003 3.42261 44.3392 3.42261C44.3781 3.42261 44.4559 3.46151 44.4559 3.53929C44.4948 3.57819 44.4948 3.65598 44.4559 3.69487C44.4559 3.73376 44.4559 3.77266 44.417 3.81155C44.417 3.85045 44.417 3.88934 44.3781 3.88934C44.3781 3.92823 44.3781 3.92823 44.3781 3.96713C44.3781 4.00602 44.3781 4.00602 44.3781 4.04492L44.2226 4.70612C44.1837 4.90059 44.1448 5.05616 44.1448 5.17285L43.7558 7.07866C43.7558 7.07866 43.7558 7.07866 43.7558 7.11755C43.7558 7.11755 43.7558 7.11755 43.7558 7.15644C43.7169 7.38981 43.6391 7.70096 43.6002 8.1288C43.6002 8.20658 43.5614 8.28437 43.5225 8.40106C43.5225 8.40106 43.5225 8.43995 43.5225 8.47884C43.5225 8.51774 43.5225 8.55663 43.4836 8.59553C43.4447 8.71221 43.4058 8.7511 43.2891 8.71221L40.9166 8.20659L40.372 8.0899L39.283 7.85654C39.1663 7.81764 39.1274 7.77875 39.1663 7.62317C39.1663 7.58428 39.1663 7.54539 39.2052 7.50649C39.2052 7.4676 39.2441 7.4287 39.2441 7.38981C39.2441 7.31202 39.283 7.07866 39.3608 6.72861C39.3608 6.65082 39.3997 6.57303 39.3997 6.53414L39.633 5.67847C39.633 5.60068 39.6719 5.484 39.7108 5.36732C39.7497 5.21174 39.7886 5.09506 39.7886 5.05616C39.7886 5.01727 39.8275 4.93948 39.8275 4.90059C39.8275 4.74501 39.8664 4.39496 39.9442 3.92823Z" fill="white"/>
<path d="M47.3731 4.90075L46.9841 7.58444V7.62334V7.66223V7.62334C46.9452 8.05117 46.8674 8.44011 46.8286 8.86795C46.7508 9.29578 46.7119 9.52915 46.7119 9.60694C46.673 9.76251 46.6341 9.8403 46.5174 9.87919C46.4007 9.91809 46.284 9.8403 46.0507 9.76251C45.9729 9.72362 45.8951 9.68472 45.8562 9.64583C45.8173 9.60694 45.7784 9.56804 45.7784 9.52915C45.7784 9.49025 45.7784 9.41247 45.7784 9.37357C45.7784 9.33468 45.7784 9.29578 45.8173 9.21799L45.8562 9.10131V9.06242L45.9729 8.47901V8.28454L45.3895 8.05117C45.3895 8.05117 45.3506 8.09007 45.3506 8.12896C45.3506 8.12896 45.3117 8.16785 45.3117 8.20675C45.2728 8.28454 45.1561 8.44011 45.0005 8.75127C44.8838 8.98463 44.8061 9.10131 44.6894 9.14021C44.5727 9.1791 44.456 9.1791 44.2615 9.10131C44.0671 9.02352 43.9504 8.98463 43.9115 8.90684C43.8726 8.86795 43.8726 8.79016 43.9115 8.67348C43.9504 8.5179 44.0282 8.40122 44.106 8.28454C44.106 8.24564 44.1449 8.20675 44.1838 8.12896C44.2226 8.05117 44.2615 7.97338 44.3004 7.89559L44.4171 7.74002C44.4171 7.70112 44.456 7.70112 44.456 7.66223L44.4949 7.62334L45.0394 6.84545C45.0394 6.84545 45.0394 6.84545 45.0783 6.80656L46.4396 4.5507C46.5952 4.31734 46.7897 4.27844 46.9841 4.35623C47.2564 4.43402 47.3731 4.62849 47.3731 4.90075ZM46.1285 7.27329L46.3229 6.26204L45.7784 7.15661L46.1285 7.27329Z" fill="white"/>
<path d="M50.329 11.8628L50.0956 11.7461C49.9789 11.7072 49.7845 11.5905 49.4344 11.3961C49.0844 11.2016 48.851 11.0849 48.6565 10.9682C48.5398 10.8904 48.4621 10.8515 48.4232 10.8126L48.3065 10.7349C48.2676 10.696 48.2287 10.696 48.1898 10.6571L47.9953 10.5404L47.1008 10.0737C47.023 10.0348 46.9841 9.95698 47.0619 9.84029C47.0619 9.8014 47.1008 9.8014 47.1397 9.72361C47.1786 9.68472 47.1786 9.64582 47.1786 9.60693C47.1786 9.56804 47.2174 9.49025 47.2952 9.41246C47.2952 9.37356 47.3341 9.33467 47.373 9.25688C47.4119 9.17909 47.4508 9.1402 47.4508 9.10131C47.4897 9.06241 47.5286 8.94573 47.6064 8.82905C47.6842 8.67347 47.762 8.55679 47.8009 8.479L47.9564 8.24564C47.9953 8.16785 48.0342 8.09006 48.1509 7.93448C48.2287 7.77891 48.3065 7.70112 48.3454 7.62333C48.3843 7.54554 48.4232 7.42886 48.5398 7.27328C48.5787 7.1955 48.6176 7.07881 48.7343 6.88434L48.8899 6.61208L49.0844 6.22314C49.0844 6.22314 49.1233 6.18425 49.1233 6.14535C49.1622 6.10646 49.201 6.02867 49.2399 5.95088C49.2788 5.8731 49.3566 5.79531 49.3955 5.67863L49.4733 5.52305C49.5511 5.36747 49.6678 5.36747 49.8234 5.44526L50.2123 5.63973C50.3679 5.71752 50.4068 5.79531 50.329 5.95088C50.329 5.98978 50.2901 5.98978 50.2901 6.06757C50.2512 6.10646 50.2512 6.14535 50.2512 6.14535C50.2123 6.18425 50.2123 6.22314 50.1734 6.30093C50.1345 6.37872 50.0956 6.41761 50.0956 6.45651C50.0956 6.4954 50.0567 6.5343 50.0178 6.61208C49.9789 6.68987 49.94 6.72877 49.9011 6.76766C49.9011 6.76766 49.8622 6.80655 49.8622 6.84545C49.8234 6.88434 49.8234 6.92324 49.8234 6.92324L49.5511 7.38997C49.4733 7.54554 49.3177 7.77891 49.1233 8.16785C48.9288 8.55679 48.7343 8.86794 48.6176 9.10131C48.501 9.33467 48.3843 9.52914 48.3065 9.68472L48.2676 9.76251L48.9288 10.1126C48.9288 10.1126 48.9288 10.0737 48.9677 10.0737L49.0066 10.0348L49.0844 9.91808C49.201 9.72361 49.2788 9.52914 49.3566 9.33467C49.4344 9.17909 49.5511 8.98462 49.7067 8.67347C49.8622 8.36232 49.9789 8.16785 50.0956 7.97338C50.1734 7.77891 50.2901 7.58444 50.4457 7.31218C50.6012 7.03992 50.679 6.84545 50.7957 6.61208L50.9124 6.37872L50.9902 6.26204C51.0291 6.18425 51.068 6.10646 51.1458 6.06757C51.1846 6.02867 51.2235 6.02867 51.2235 6.02867C51.2624 6.02867 51.2624 6.02867 51.3013 6.06757L51.8847 6.37872C51.9625 6.41761 52.0014 6.4954 51.9236 6.61208C51.9236 6.65098 51.8847 6.72877 51.807 6.80655C51.7681 6.92324 51.6903 7.00102 51.6514 7.07881L51.1458 8.01227C51.1069 8.09006 51.068 8.12895 51.068 8.16785L50.9902 8.32342C50.8346 8.59568 50.4457 9.33467 49.8234 10.5404C49.9011 10.5793 50.0178 10.6571 50.1734 10.7349C50.329 10.8126 50.4457 10.8904 50.5234 10.9293C50.7179 10.5404 50.9902 10.0348 51.3013 9.41246C51.418 9.17909 51.6514 8.79015 51.9625 8.24564C52.2737 7.70112 52.4682 7.38997 52.507 7.27328L52.6237 7.07881C52.7015 6.96213 52.7793 6.92324 52.896 6.96213C52.9349 6.96213 52.9738 7.00102 53.0516 7.03992C53.1293 7.07881 53.2071 7.11771 53.246 7.11771C53.2849 7.1566 53.3238 7.1566 53.4016 7.19549C53.4794 7.23439 53.4794 7.27328 53.4794 7.31218C53.4794 7.35107 53.4794 7.42886 53.4405 7.46775C53.4405 7.50665 53.4016 7.50665 53.4016 7.54554C53.4016 7.58444 53.3627 7.62333 53.3627 7.62333V7.66222C53.3627 7.70112 53.3238 7.74001 53.2849 7.8178L53.0127 8.28453C52.896 8.479 52.8182 8.63458 52.7793 8.75126L51.8458 10.4237L51.6125 10.8515L51.4958 11.0849C51.4569 11.1627 51.418 11.2405 51.3791 11.2794L51.4569 11.3183C51.4958 11.3183 51.5347 11.3572 51.5736 11.3572C51.6125 11.3572 51.6125 11.3961 51.6514 11.435C51.6903 11.4738 51.6903 11.5127 51.6903 11.5516C51.6903 11.5905 51.6903 11.6294 51.6514 11.6683C51.6514 11.6683 51.6125 11.7072 51.6125 11.7461L51.2235 12.4851L51.1846 12.524C51.1846 12.5629 51.1458 12.6018 51.1458 12.6018C51.1069 12.6796 51.068 12.7185 50.9902 12.7185C50.9124 12.7185 50.8735 12.7185 50.8735 12.7185C50.8346 12.7185 50.7957 12.6796 50.7568 12.6407L50.4846 12.4851C50.329 12.4073 50.2901 12.2906 50.3679 12.1739C50.4068 12.0573 50.4457 11.9795 50.4846 11.9406C50.5234 11.9017 50.5234 11.8628 50.5234 11.8239C50.5234 11.8239 50.5234 11.785 50.5623 11.7461C50.6012 11.7072 50.329 11.9017 50.329 11.8628Z" fill="white"/>
<path d="M54.1017 13.8074C54.1017 13.8074 54.0628 13.8463 54.0628 13.8852C54.0239 13.9241 54.0239 13.9241 54.0239 13.9241L53.9072 14.0797C53.8683 14.1186 53.8294 14.1575 53.8294 14.1575C53.7905 14.1575 53.7905 14.1964 53.7516 14.1964C53.7127 14.1964 53.7128 14.1964 53.6739 14.1964C53.635 14.1964 53.5961 14.1575 53.5961 14.1575C53.5961 14.1575 53.5572 14.1186 53.5183 14.0797C53.4794 14.0408 53.4405 14.0019 53.4405 14.0019C53.3238 13.9241 53.2849 13.8463 53.2071 13.8074C53.1293 13.7685 53.1293 13.6907 53.1293 13.6518C53.1293 13.6129 53.1293 13.5741 53.1293 13.5352C53.1293 13.4963 53.1682 13.4574 53.2071 13.4185L54.7629 11.396C53.7516 12.0572 52.9349 12.5628 52.2737 12.9129C52.2348 12.9517 52.157 12.9517 52.0792 12.9517C52.0014 12.9517 51.9625 12.9129 51.9236 12.874C51.8847 12.8351 51.8069 12.7962 51.7292 12.7184C51.6514 12.6406 51.6125 12.6017 51.5736 12.6017C51.4569 12.5239 51.4569 12.4072 51.5347 12.2905L51.5736 12.2517L51.8069 11.9405L52.0403 11.6293C52.1959 11.4349 52.3126 11.2793 52.4292 11.1237L52.9349 10.4625C52.9738 10.4236 53.0127 10.3458 53.0904 10.2292C53.1682 10.1125 53.2071 10.0736 53.246 9.99579L53.3627 9.80132C53.4016 9.76243 53.4405 9.68464 53.5183 9.56796L53.8683 9.14012C53.9072 9.10123 53.9461 9.02344 54.0628 8.90676C54.1795 8.79008 54.2184 8.67339 54.2962 8.6345L54.5295 8.32335C54.6073 8.24556 54.6462 8.20667 54.6851 8.20667C54.724 8.20667 54.8018 8.24556 54.9185 8.32335H54.9574C55.1907 8.51782 55.3074 8.6345 55.3074 8.67339C55.3074 8.71229 55.3074 8.75118 55.2296 8.82897C55.2296 8.86786 55.1907 8.90676 55.1518 8.94565C55.1129 8.98455 55.074 9.02344 55.074 9.02344C54.9574 9.17902 54.724 9.49017 54.374 9.99579C54.0239 10.5014 53.7516 10.8515 53.5572 11.0848L56.2409 9.52906C56.2798 9.49017 56.3187 9.49017 56.3575 9.49017C56.3964 9.49017 56.3964 9.49017 56.4353 9.49017C56.4353 9.49017 56.4742 9.52906 56.5131 9.56796L56.8632 9.84022C56.9021 9.87911 56.941 9.87911 56.941 9.91801C56.941 9.9569 56.9799 9.9569 56.941 9.99579C56.941 10.0347 56.941 10.0347 56.9021 10.0736C56.9021 10.0736 56.8632 10.1125 56.8632 10.1514C56.8243 10.1903 56.8243 10.2292 56.7854 10.2292C56.5131 10.5792 56.202 10.9681 55.9297 11.3571C55.7741 11.5905 55.5019 11.9405 55.1518 12.3683C54.8018 12.8351 54.5295 13.1462 54.374 13.3796L54.1017 13.8074Z" fill="white"/>
<path d="M57.2132 14.3519C56.9799 14.1185 56.7465 13.924 56.552 13.7296C56.5131 13.7685 56.5131 13.7685 56.4742 13.8074C56.4353 13.8463 56.3965 13.8852 56.3965 13.8852C56.202 14.1185 56.0464 14.2741 55.9297 14.3908C55.9297 14.3908 55.8908 14.4297 55.813 14.5075C55.7353 14.5852 55.6964 14.6241 55.6575 14.663C55.6575 14.663 55.6186 14.7019 55.5797 14.7408C55.5408 14.7797 55.5408 14.7797 55.5019 14.8186C55.6575 14.9353 55.813 15.0909 56.0075 15.2464C56.1631 15.402 56.2798 15.5187 56.3576 15.5576L56.3965 15.5965C56.3965 15.5965 56.4353 15.6354 56.4742 15.6743C56.5131 15.7132 56.5131 15.7132 56.552 15.7132C56.6298 15.791 56.6298 15.8299 56.6298 15.8687C56.6298 15.9076 56.552 15.9854 56.4742 16.0632L56.3965 16.141C56.2798 16.2966 56.1631 16.3744 56.1242 16.3744C56.0464 16.3744 55.9686 16.3355 55.8519 16.2188C55.813 16.1799 55.7741 16.141 55.7353 16.1021L55.5797 15.9465C55.5408 15.9076 55.463 15.8299 55.3463 15.7132C55.2296 15.6354 55.1907 15.5576 55.1518 15.5187C55.0741 15.4409 54.9963 15.3631 54.8796 15.2464C54.7629 15.1298 54.6851 15.0909 54.6462 15.0131L54.6073 14.9742C54.5295 14.8964 54.4517 14.8186 54.4129 14.7797C54.374 14.7408 54.374 14.7019 54.374 14.663C54.374 14.6241 54.4129 14.5463 54.4517 14.5075L54.9574 14.0018C54.9963 13.9629 55.0741 13.8851 55.2296 13.7296C55.3463 13.6129 55.463 13.4962 55.5019 13.4573L55.6186 13.3406C55.6964 13.2628 55.7742 13.1851 55.8519 13.1073C55.9297 12.9906 56.0075 12.9128 56.0464 12.8739C56.0853 12.835 56.0853 12.835 56.1242 12.7961C56.1631 12.7572 56.202 12.7183 56.202 12.7183L57.1354 11.746L57.6411 11.2404C57.6411 11.2404 57.68 11.2015 57.7189 11.1237C57.7577 11.0848 57.7966 11.0459 57.7966 11.007C57.8355 10.9681 57.8744 10.9292 57.9133 10.9292C57.9522 10.9292 58.03 10.9292 58.0689 11.007C58.1078 11.0848 58.1856 11.0848 58.2245 11.1237C58.2634 11.1626 58.3412 11.2015 58.4189 11.3181C58.4967 11.3959 58.6523 11.5515 58.8857 11.746L58.9635 11.8238C58.9635 11.8238 59.0024 11.8627 59.0413 11.9016C59.0801 11.9404 59.119 11.9793 59.1579 12.0182C59.2357 12.0571 59.3135 12.1349 59.3913 12.2516C59.508 12.3294 59.5469 12.4072 59.5469 12.4072C59.6636 12.5239 59.7024 12.6405 59.6636 12.7183C59.5858 12.7961 59.5469 12.8739 59.4691 12.9128C59.3913 12.9517 59.3524 13.0295 59.3524 13.0295C59.2746 13.1073 59.1579 13.1073 59.0413 13.0295C58.9246 12.9517 58.6912 12.7183 58.3412 12.4072C58.2245 12.2905 58.1078 12.1738 58.0689 12.1349L57.3688 12.835L57.0965 13.1073C57.0577 13.1462 57.0577 13.1851 57.0577 13.1851L57.2132 13.3406L57.7966 13.8852C57.9133 13.9629 57.9522 14.0407 57.9133 14.1185C57.9133 14.1574 57.8355 14.2741 57.68 14.4297C57.6022 14.5075 57.5244 14.5464 57.4855 14.5464C57.4077 14.5464 57.3688 14.5075 57.291 14.4297L57.2132 14.3519Z" fill="white"/>
<path d="M46.4784 41.5778C46.4784 41.5778 41.9667 49.3566 41.9278 54.6851C41.8889 54.6851 40.2164 54.6851 40.2164 54.6851L43.1724 59.3135H43.2891L46.245 54.6851C46.245 54.6851 44.5726 54.6851 44.5337 54.6851C44.4948 49.3566 47.8397 41.5778 47.8397 41.5778" fill="#8ADDFB"/>
<path d="M46.4784 41.5774C45.9339 42.5886 45.4283 43.6388 44.9615 44.7278C44.4948 45.778 44.067 46.867 43.678 47.956C43.2891 49.0451 42.9391 50.173 42.7057 51.3009C42.4334 52.4288 42.2779 53.5568 42.3168 54.6847C42.3168 54.8792 42.1612 55.0347 41.9667 55.0347L40.2165 55.0736L40.5665 54.4513L43.6391 59.0019L43.1724 58.7297H43.2891L42.8224 59.0019L45.895 54.4513L46.2451 55.0736L44.4948 55.0347C44.3003 55.0347 44.1448 54.8792 44.1448 54.6847C44.1837 53.5179 44.3392 52.39 44.5726 51.262C44.806 50.1341 45.0782 49.0451 45.4283 47.956C46.0895 45.778 46.9063 43.6777 47.8397 41.5774C47.0229 43.6777 46.3228 45.8557 45.7783 48.0338C45.5061 49.1228 45.2727 50.2119 45.1171 51.3398C44.9615 52.4288 44.8449 53.5568 44.8838 54.6847L44.5337 54.3347L46.2451 54.2958C46.4784 54.2958 46.634 54.4513 46.634 54.6847C46.634 54.7625 46.634 54.8403 46.5951 54.9181L43.7558 59.6243C43.6391 59.7798 43.4836 59.8965 43.2891 59.8965H43.1724H43.1335C42.9391 59.8965 42.7835 59.7798 42.7057 59.6631L39.8664 54.957C39.7497 54.7625 39.8275 54.5291 39.9831 54.4124C40.0609 54.3735 40.1387 54.3736 40.1776 54.3736L41.8889 54.4124L41.5389 54.7625C41.5778 53.5568 41.8111 52.39 42.1223 51.262C42.4334 50.1341 42.8224 49.0062 43.2891 47.956C43.7169 46.867 44.2226 45.8168 44.7671 44.7667C45.3116 43.5999 45.8561 42.5497 46.4784 41.5774Z" fill="white"/>
<path d="M35.5492 48.5786C35.5492 48.5786 31.0375 56.3574 30.9986 61.6859C30.9597 61.6859 29.2872 61.6859 29.2872 61.6859L32.2432 66.3143H32.3599L35.3158 61.6859C35.3158 61.6859 33.6434 61.6859 33.6045 61.6859C33.5656 56.3574 36.9105 48.5786 36.9105 48.5786" fill="#8ADDFB"/>
<path d="M35.5491 48.5774C35.0046 49.5886 34.499 50.6388 34.0323 51.7278C33.5655 52.778 33.1377 53.867 32.7488 54.956C32.3598 56.0451 32.0098 57.173 31.7764 58.3009C31.5042 59.4288 31.3486 60.5568 31.3875 61.6847C31.3875 61.8792 31.2319 62.0347 31.0374 62.0347L29.2872 62.0736L29.6372 61.4513L32.7099 66.0019L32.2431 65.7297H32.3598L31.8931 66.0019L35.0046 61.4513L35.3547 62.0736L33.6044 62.0347C33.41 62.0347 33.2544 61.8792 33.2544 61.6847C33.2933 60.5179 33.4489 59.39 33.6822 58.262C33.9156 57.1341 34.1879 56.0451 34.5379 54.956C35.1991 52.778 36.0159 50.6777 36.9493 48.5774C36.1326 50.6777 35.4325 52.8557 34.8879 55.0338C34.6157 56.1228 34.3823 57.2119 34.2267 58.3398C34.0712 59.4288 33.9545 60.5568 33.9934 61.6847L33.6433 61.3347L35.3547 61.2958C35.588 61.2958 35.7436 61.4513 35.7436 61.6847C35.7436 61.7625 35.7436 61.8403 35.7047 61.9181L32.8655 66.6243C32.7488 66.7798 32.5932 66.8965 32.3987 66.8965H32.282H32.2431C32.0487 66.8965 31.8931 66.7798 31.8153 66.6631L28.976 61.957C28.8594 61.7625 28.9371 61.5291 29.0927 61.4124C29.1705 61.3735 29.2483 61.3736 29.2872 61.3736L30.9985 61.4124L30.6485 61.7625C30.6874 60.5568 30.9207 59.39 31.2319 58.262C31.5431 57.1341 31.932 56.0062 32.3987 54.956C32.8266 53.867 33.3322 52.8169 33.8767 51.7667C34.4212 50.5999 34.9657 49.5497 35.5491 48.5774Z" fill="white"/>
<path d="M24.97 40.4886C24.97 40.4886 20.4583 48.2675 20.4194 53.596C20.3805 53.596 18.7081 53.596 18.7081 53.596L21.664 58.2244H21.7807L24.7367 53.596C24.7367 53.596 23.0642 53.596 23.0253 53.596C22.9864 48.2675 26.3313 40.4886 26.3313 40.4886" fill="#8ADDFB"/>
<path d="M24.97 40.4875C24.4255 41.4988 23.9199 42.5489 23.4531 43.638C22.9864 44.6881 22.5586 45.7771 22.1696 46.8662C21.7807 47.9552 21.4306 49.0831 21.1973 50.2111C20.925 51.339 20.7694 52.4669 20.8083 53.5949C20.8083 53.7893 20.6527 53.9449 20.4583 53.9449L18.708 53.9838L19.0581 53.3615L22.1307 57.9121L21.664 57.6398H21.7807L21.3139 57.9121L24.3866 53.3615L24.7366 53.9838L22.9864 53.9449C22.7919 53.9449 22.6363 53.7893 22.6363 53.5949C22.6752 52.428 22.8308 51.3001 23.0642 50.1722C23.2975 49.0443 23.5698 47.9552 23.9199 46.8662C24.5811 44.6881 25.3978 42.5878 26.3313 40.4875C25.5145 42.5878 24.8144 44.7659 24.2699 46.944C23.9976 48.033 23.7643 49.122 23.6087 50.25C23.4531 51.339 23.3364 52.4669 23.3753 53.5949L23.0253 53.2448L24.7366 53.2059C24.97 53.2059 25.1256 53.3615 25.1256 53.5949C25.1256 53.6727 25.1256 53.7504 25.0867 53.8282L22.2474 58.5344C22.1307 58.69 21.9751 58.8067 21.7807 58.8067H21.664H21.6251C21.4306 58.8067 21.2751 58.69 21.1973 58.5733L18.358 53.8671C18.2413 53.6726 18.3191 53.4393 18.4747 53.3226C18.5525 53.2837 18.6303 53.2837 18.6692 53.2837L20.3805 53.3226L20.0304 53.6726C20.0693 52.4669 20.3027 51.3001 20.6139 50.1722C20.925 49.0443 21.314 47.9163 21.7807 46.8662C22.2085 45.7771 22.7141 44.727 23.2587 43.6769C23.8032 42.51 24.3477 41.4988 24.97 40.4875Z" fill="white"/>
<path d="M34.4602 50.8734C34.3824 50.8734 34.2657 50.8345 34.1879 50.7956L8.94566 37.2605C8.75119 37.1827 8.6734 36.9882 8.6734 36.7937C8.6734 36.5992 8.79008 36.4048 8.94566 36.327L34.1879 22.6752C34.3435 22.5974 34.538 22.5974 34.6935 22.6752L59.9358 36.327C60.1303 36.4048 60.2081 36.5992 60.2081 36.7937C60.2081 36.9882 60.0914 37.1827 59.9358 37.2605L34.6935 50.8345C34.6547 50.8734 34.538 50.8734 34.4602 50.8734ZM10.3458 36.7548L34.4602 49.7066L58.5745 36.7548L34.4602 23.7253L10.3458 36.7548Z" fill="white"/>
<path d="M34.4602 54.9961C34.3824 54.9961 34.2657 54.9572 34.1879 54.9184L8.94566 41.3443C8.75119 41.2665 8.6734 41.0721 8.6734 40.8776C8.6734 40.6831 8.79008 40.4886 8.94566 40.4109L12.7573 38.3495C13.0295 38.1939 13.3407 38.3106 13.4963 38.5828C13.6518 38.8551 13.5352 39.1662 13.2629 39.3218L10.3458 40.8776L34.4213 53.8293L58.4967 40.8776L55.5797 39.3218C55.3074 39.1662 55.2296 38.8551 55.3463 38.5828C55.5019 38.3106 55.813 38.2328 56.0853 38.3495L59.8969 40.4109C60.0914 40.4886 60.1692 40.6831 60.1692 40.8776C60.1692 41.0721 60.0525 41.2665 59.8969 41.3443L34.6547 54.9184C34.6547 54.9572 34.538 54.9961 34.4602 54.9961Z" fill="white"/>
<path d="M17.9691 36.9881C17.7747 36.9881 17.6191 36.9103 17.5024 36.7159C17.1913 36.2102 16.6467 35.938 16.0633 35.938C15.5577 35.938 15.0521 36.1714 14.7409 36.5603C14.5465 36.7937 14.1964 36.8326 13.963 36.6381C13.7297 36.4436 13.6908 36.0936 13.8853 35.8602C14.4298 35.199 15.2077 34.8101 16.0633 34.8101C17.0357 34.8101 17.9302 35.2768 18.4359 36.0936C18.5914 36.3658 18.5137 36.677 18.2803 36.8714C18.1636 36.9492 18.0469 36.9881 17.9691 36.9881Z" fill="white"/>
<path d="M25.9812 37.4939C25.7868 37.4939 25.6312 37.4161 25.5145 37.2216C25.2033 36.716 24.6588 36.4437 24.0754 36.4437C23.5698 36.4437 23.0642 36.6771 22.753 37.066C22.5585 37.2994 22.2085 37.3383 21.9751 37.1438C21.7418 36.9493 21.7029 36.5993 21.8973 36.3659C22.4419 35.7047 23.2197 35.3158 24.0754 35.3158C25.0478 35.3158 25.9423 35.7825 26.448 36.5993C26.6035 36.8716 26.5257 37.1827 26.2924 37.3772C26.1757 37.455 26.0979 37.4939 25.9812 37.4939Z" fill="white"/>
<path d="M33.0988 37.4939C32.9044 37.4939 32.7488 37.4161 32.6321 37.2216C32.321 36.716 31.7764 36.4437 31.193 36.4437C30.6874 36.4437 30.1818 36.6771 29.8706 37.066C29.6762 37.2994 29.3261 37.3383 29.0927 37.1438C28.8594 36.9493 28.8205 36.5993 29.015 36.3659C29.5595 35.7047 30.3374 35.3158 31.193 35.3158C32.1654 35.3158 33.0599 35.7825 33.5656 36.5993C33.7211 36.8716 33.6434 37.1827 33.41 37.3772C33.2933 37.455 33.1766 37.4939 33.0988 37.4939Z" fill="white"/>
<path d="M39.633 36.9881C39.4385 36.9881 39.283 36.9103 39.1663 36.7159C38.8551 36.2102 38.3106 35.938 37.7272 35.938C37.2216 35.938 36.716 36.1714 36.4048 36.5603C36.2103 36.7937 35.8603 36.8326 35.6269 36.6381C35.3936 36.4436 35.3547 36.0936 35.5491 35.8602C36.0937 35.199 36.8715 34.8101 37.7272 34.8101C38.6996 34.8101 39.5941 35.2768 40.0997 36.0936C40.2553 36.3658 40.1775 36.677 39.9442 36.8714C39.8275 36.9492 39.7108 36.9881 39.633 36.9881Z" fill="white"/>
<path d="M47.2563 37.4939C47.0618 37.4939 46.9063 37.4161 46.7896 37.2216C46.4784 36.716 45.9339 36.4437 45.3505 36.4437C44.8449 36.4437 44.3392 36.6771 44.0281 37.066C43.8336 37.2994 43.4836 37.3383 43.2502 37.1438C43.0169 36.9493 42.978 36.5993 43.1724 36.3659C43.7169 35.7047 44.4948 35.3158 45.3505 35.3158C46.3228 35.3158 47.2174 35.7825 47.723 36.5993C47.8786 36.8716 47.8008 37.1827 47.5675 37.3772C47.4897 37.455 47.373 37.4939 47.2563 37.4939Z" fill="white"/>
<path d="M25.9812 31.932C25.7868 31.932 25.6312 31.8542 25.5145 31.6597C25.2033 31.1541 24.6588 30.8818 24.0754 30.8818C23.5698 30.8818 23.0642 31.1152 22.753 31.5041C22.5585 31.7375 22.2085 31.7764 21.9751 31.5819C21.7418 31.3875 21.7029 31.0374 21.8973 30.804C22.4419 30.1428 23.2197 29.7539 24.0754 29.7539C25.0478 29.7539 25.9423 30.2206 26.448 31.0374C26.6035 31.3097 26.5257 31.6208 26.2924 31.8153C26.1757 31.8931 26.0979 31.932 25.9812 31.932Z" fill="white"/>
<path d="M33.0988 31.932C32.9044 31.932 32.7488 31.8542 32.6321 31.6597C32.321 31.1541 31.7764 30.8818 31.193 30.8818C30.6874 30.8818 30.1818 31.1152 29.8706 31.5041C29.6762 31.7375 29.3261 31.7764 29.0927 31.5819C28.8594 31.3875 28.8205 31.0374 29.015 30.804C29.5595 30.1428 30.3374 29.7539 31.193 29.7539C32.1654 29.7539 33.0599 30.2206 33.5656 31.0374C33.7211 31.3097 33.6434 31.6208 33.41 31.8153C33.2933 31.8931 33.1766 31.932 33.0988 31.932Z" fill="white"/>
<path d="M40.1776 31.932C39.9831 31.932 39.8275 31.8542 39.7108 31.6597C39.3997 31.1541 38.8552 30.8818 38.2718 30.8818C37.7661 30.8818 37.2605 31.1152 36.9494 31.5041C36.7549 31.7375 36.4048 31.7764 36.1715 31.5819C35.9381 31.3875 35.8992 31.0374 36.0937 30.804C36.6382 30.1428 37.4161 29.7539 38.2718 29.7539C39.2441 29.7539 40.1387 30.2206 40.6443 31.0374C40.7999 31.3097 40.7221 31.6208 40.4887 31.8153C40.372 31.8931 40.2943 31.932 40.1776 31.932Z" fill="white"/>
<path d="M47.2563 31.932C47.0618 31.932 46.9063 31.8542 46.7896 31.6597C46.4784 31.1541 45.9339 30.8818 45.3505 30.8818C44.8449 30.8818 44.3392 31.1152 44.0281 31.5041C43.8336 31.7375 43.4836 31.7764 43.2502 31.5819C43.0169 31.3875 42.978 31.0374 43.1724 30.804C43.7169 30.1428 44.4948 29.7539 45.3505 29.7539C46.3228 29.7539 47.2174 30.2206 47.723 31.0374C47.8786 31.3097 47.8008 31.6208 47.5675 31.8153C47.4897 31.8931 47.373 31.932 47.2563 31.932Z" fill="white"/>
<path d="M25.9812 43.3669C25.7868 43.3669 25.6312 43.2891 25.5145 43.0947C25.2033 42.589 24.6588 42.3168 24.0754 42.3168C23.5698 42.3168 23.0642 42.5501 22.753 42.9391C22.5585 43.1724 22.2085 43.2113 21.9751 43.0169C21.7418 42.8224 21.7029 42.4723 21.8973 42.239C22.4419 41.5778 23.2197 41.1888 24.0754 41.1888C25.0478 41.1888 25.9423 41.6556 26.448 42.4723C26.6035 42.7446 26.5257 43.0558 26.2924 43.2502C26.1757 43.3669 26.0979 43.3669 25.9812 43.3669Z" fill="white"/>
<path d="M33.0988 43.3669C32.9044 43.3669 32.7488 43.2891 32.6321 43.0947C32.321 42.589 31.7764 42.3168 31.193 42.3168C30.6874 42.3168 30.1818 42.5501 29.8706 42.9391C29.6762 43.1724 29.3261 43.2113 29.0927 43.0169C28.8594 42.8224 28.8205 42.4723 29.015 42.239C29.5595 41.5778 30.3374 41.1888 31.193 41.1888C32.1654 41.1888 33.0599 41.6556 33.5656 42.4723C33.7211 42.7446 33.6434 43.0558 33.41 43.2502C33.2933 43.3669 33.1766 43.3669 33.0988 43.3669Z" fill="white"/>
<path d="M40.1776 43.3669C39.9831 43.3669 39.8275 43.2891 39.7108 43.0947C39.3997 42.589 38.8552 42.3168 38.2718 42.3168C37.7661 42.3168 37.2605 42.5501 36.9494 42.9391C36.7549 43.1724 36.4048 43.2113 36.1715 43.0169C35.9381 42.8224 35.8992 42.4723 36.0937 42.239C36.6382 41.5778 37.4161 41.1888 38.2718 41.1888C39.2441 41.1888 40.1387 41.6556 40.6443 42.4723C40.7999 42.7446 40.7221 43.0558 40.4887 43.2502C40.372 43.3669 40.2943 43.3669 40.1776 43.3669Z" fill="white"/>
<path d="M33.0989 49.3177C32.9044 49.3177 32.7488 49.2399 32.6322 49.0455C32.321 48.5398 31.7765 48.2676 31.1931 48.2676C30.9208 48.2676 30.6097 48.3454 30.3763 48.462C30.104 48.6176 29.7929 48.5009 29.6373 48.2287C29.4817 47.9564 29.5984 47.6453 29.8707 47.4897C30.2985 47.2563 30.7263 47.1396 31.232 47.1396C32.2043 47.1396 33.0989 47.6064 33.6045 48.4232C33.7601 48.6954 33.6823 49.0066 33.4489 49.201C33.2934 49.2788 33.1767 49.3177 33.0989 49.3177Z" fill="white"/>
<path d="M36.5215 49.1232C36.4048 49.1232 36.2882 49.0843 36.1715 49.0065C35.9381 48.812 35.8992 48.462 36.0937 48.2286C36.6382 47.5674 37.4161 47.1785 38.2718 47.1785C38.6218 47.1785 38.933 47.2563 39.283 47.3729C39.5553 47.4896 39.7108 47.8008 39.5942 48.073C39.4775 48.3453 39.1663 48.5009 38.8941 48.3842C38.2329 48.1119 37.4161 48.3453 36.9494 48.9287C36.8327 49.0454 36.6771 49.1232 36.5215 49.1232Z" fill="white"/>
<path d="M47.2563 43.3669C47.0618 43.3669 46.9063 43.2891 46.7896 43.0947C46.4784 42.589 45.9339 42.3168 45.3505 42.3168C44.8449 42.3168 44.3392 42.5501 44.0281 42.9391C43.8336 43.1724 43.4836 43.2113 43.2502 43.0169C43.0169 42.8224 42.978 42.4723 43.1724 42.239C43.7169 41.5778 44.4948 41.1888 45.3505 41.1888C46.3228 41.1888 47.2174 41.6556 47.723 42.4723C47.8786 42.7446 47.8008 43.0558 47.5675 43.2502C47.4897 43.3669 47.373 43.3669 47.2563 43.3669Z" fill="white"/>
<path d="M54.374 37.4939C54.1795 37.4939 54.0239 37.4161 53.9073 37.2216C53.5961 36.716 53.0516 36.4437 52.4682 36.4437C51.9625 36.4437 51.4569 36.6771 51.1458 37.066C50.9513 37.2994 50.6013 37.3383 50.3679 37.1438C50.1345 36.9493 50.0956 36.5993 50.2901 36.3659C50.8346 35.7047 51.6125 35.3158 52.4682 35.3158C53.4405 35.3158 54.3351 35.7825 54.8407 36.5993C54.9963 36.8716 54.9185 37.1827 54.6851 37.3772C54.5685 37.455 54.4907 37.4939 54.374 37.4939Z" fill="white"/>
<path d="M22.5197 40.411C22.3252 40.411 22.1696 40.3332 22.0529 40.1387C21.7418 39.6331 21.1973 39.3608 20.6139 39.3608C20.1082 39.3608 19.6026 39.5942 19.2915 39.9831C19.097 40.2165 18.7469 40.2554 18.5136 40.0609C18.2802 39.8665 18.2413 39.5164 18.4358 39.283C18.9803 38.6218 19.7582 38.2329 20.6139 38.2329C21.5862 38.2329 22.4808 38.6996 22.9864 39.5164C23.142 39.7887 23.0642 40.0998 22.8308 40.2943C22.7141 40.3721 22.6364 40.411 22.5197 40.411Z" fill="white"/>
<path d="M29.5984 40.411C29.4039 40.411 29.2484 40.3332 29.1317 40.1387C28.8205 39.6331 28.276 39.3608 27.6926 39.3608C27.187 39.3608 26.6814 39.5942 26.3702 39.9831C26.1757 40.2165 25.8257 40.2554 25.5923 40.0609C25.359 39.8665 25.3201 39.5164 25.5145 39.283C26.059 38.6218 26.8369 38.2329 27.6926 38.2329C28.665 38.2329 29.5595 38.6996 30.0651 39.5164C30.2207 39.7887 30.1429 40.0998 29.9096 40.2943C29.8318 40.3721 29.7151 40.411 29.5984 40.411Z" fill="white"/>
<path d="M36.716 40.411C36.5216 40.411 36.366 40.3332 36.2493 40.1387C35.9381 39.6331 35.3936 39.3608 34.8102 39.3608C34.3046 39.3608 33.799 39.5942 33.4878 39.9831C33.2933 40.2165 32.9433 40.2554 32.7099 40.0609C32.4766 39.8665 32.4377 39.5164 32.6321 39.283C33.1767 38.6218 33.9545 38.2329 34.8102 38.2329C35.7826 38.2329 36.6771 38.6996 37.1828 39.5164C37.3383 39.7887 37.2605 40.0998 37.0272 40.2943C36.9105 40.3721 36.8327 40.411 36.716 40.411Z" fill="white"/>
<path d="M43.7947 40.411C43.6002 40.411 43.4447 40.3332 43.328 40.1387C43.0168 39.6331 42.4723 39.3608 41.8889 39.3608C41.3833 39.3608 40.8776 39.5942 40.5665 39.9831C40.372 40.2165 40.022 40.2554 39.7886 40.0609C39.5552 39.8665 39.5163 39.5164 39.7108 39.283C40.2553 38.6218 41.0332 38.2329 41.8889 38.2329C42.8612 38.2329 43.7558 38.6996 44.2614 39.5164C44.417 39.7887 44.3392 40.0998 44.1059 40.2943C44.0281 40.3721 43.9114 40.411 43.7947 40.411Z" fill="white"/>
<path d="M29.5984 46.4395C29.4039 46.4395 29.2484 46.3618 29.1317 46.1673C28.8205 45.6617 28.276 45.3894 27.6926 45.3894C27.187 45.3894 26.6814 45.6228 26.3702 46.0117C26.1757 46.2451 25.8257 46.284 25.5923 46.0895C25.359 45.895 25.3201 45.545 25.5145 45.3116C26.059 44.6504 26.8369 44.2615 27.6926 44.2615C28.665 44.2615 29.5595 44.7282 30.0651 45.545C30.2207 45.8172 30.1429 46.1284 29.9096 46.3229C29.8318 46.4006 29.7151 46.4395 29.5984 46.4395Z" fill="white"/>
<path d="M36.716 46.4395C36.5216 46.4395 36.366 46.3618 36.2493 46.1673C35.9381 45.6617 35.3936 45.3894 34.8102 45.3894C34.3046 45.3894 33.799 45.6228 33.4878 46.0117C33.2933 46.2451 32.9433 46.284 32.7099 46.0895C32.4766 45.895 32.4377 45.545 32.6321 45.3116C33.1767 44.6504 33.9545 44.2615 34.8102 44.2615C35.7826 44.2615 36.6771 44.7282 37.1828 45.545C37.3383 45.8172 37.2605 46.1284 37.0272 46.3229C36.9105 46.4006 36.8327 46.4395 36.716 46.4395Z" fill="white"/>
<path d="M40.1387 46.2062C40.022 46.2062 39.9053 46.1673 39.7886 46.0895C39.5552 45.895 39.5163 45.545 39.7108 45.3116C40.2553 44.6504 41.0332 44.2615 41.8889 44.2615C42.5501 44.2615 43.1724 44.4948 43.678 44.9227C43.9114 45.1171 43.9503 45.4672 43.7558 45.7006C43.5613 45.9339 43.2113 45.9728 42.9779 45.7783C42.6668 45.5061 42.2778 45.3894 41.8889 45.3894C41.3833 45.3894 40.8776 45.6228 40.5665 46.0117C40.4498 46.1673 40.2942 46.2062 40.1387 46.2062Z" fill="white"/>
<path d="M50.9124 40.411C50.7179 40.411 50.5623 40.3332 50.4456 40.1387C50.1345 39.6331 49.59 39.3608 49.0066 39.3608C48.5009 39.3608 47.9953 39.5942 47.6842 39.9831C47.4897 40.2165 47.1396 40.2554 46.9063 40.0609C46.6729 39.8665 46.634 39.5164 46.8285 39.283C47.373 38.6218 48.1509 38.2329 49.0066 38.2329C49.9789 38.2329 50.8735 38.6996 51.3791 39.5164C51.5347 39.7887 51.4569 40.0998 51.2235 40.2943C51.1068 40.3721 50.9902 40.411 50.9124 40.411Z" fill="white"/>
<path d="M22.5197 34.7712C22.3252 34.7712 22.1696 34.6934 22.0529 34.4989C21.7418 33.9933 21.1973 33.7211 20.6139 33.7211C20.1082 33.7211 19.6026 33.9544 19.2915 34.3434C19.097 34.5767 18.7469 34.6156 18.5136 34.4212C18.2802 34.2267 18.2413 33.8766 18.4358 33.6433C18.9803 32.9821 19.7582 32.5931 20.6139 32.5931C21.5862 32.5931 22.4808 33.0599 22.9864 33.8766C23.142 34.1489 23.0642 34.4601 22.8308 34.6545C22.7141 34.7323 22.6364 34.7712 22.5197 34.7712Z" fill="white"/>
<path d="M29.5984 34.7712C29.4039 34.7712 29.2484 34.6934 29.1317 34.4989C28.8205 33.9933 28.276 33.7211 27.6926 33.7211C27.187 33.7211 26.6814 33.9544 26.3702 34.3434C26.1757 34.5767 25.8257 34.6156 25.5923 34.4212C25.359 34.2267 25.3201 33.8766 25.5145 33.6433C26.059 32.9821 26.8369 32.5931 27.6926 32.5931C28.665 32.5931 29.5595 33.0599 30.0651 33.8766C30.2207 34.1489 30.1429 34.4601 29.9096 34.6545C29.8318 34.7323 29.7151 34.7712 29.5984 34.7712Z" fill="white"/>
<path d="M36.716 34.7712C36.5216 34.7712 36.366 34.6934 36.2493 34.4989C35.9381 33.9933 35.3936 33.7211 34.8102 33.7211C34.3046 33.7211 33.799 33.9544 33.4878 34.3434C33.2933 34.5767 32.9433 34.6156 32.7099 34.4212C32.4766 34.2267 32.4377 33.8766 32.6321 33.6433C33.1767 32.9821 33.9545 32.5931 34.8102 32.5931C35.7826 32.5931 36.6771 33.0599 37.1828 33.8766C37.3383 34.1489 37.2605 34.4601 37.0272 34.6545C36.9105 34.7323 36.8327 34.7712 36.716 34.7712Z" fill="white"/>
<path d="M43.7947 34.7712C43.6002 34.7712 43.4447 34.6934 43.328 34.4989C43.0168 33.9933 42.4723 33.7211 41.8889 33.7211C41.3833 33.7211 40.8776 33.9544 40.5665 34.3434C40.372 34.5767 40.022 34.6156 39.7886 34.4212C39.5552 34.2267 39.5163 33.8766 39.7108 33.6433C40.2553 32.9821 41.0332 32.5931 41.8889 32.5931C42.8612 32.5931 43.7558 33.0599 44.2614 33.8766C44.417 34.1489 44.3392 34.4601 44.1059 34.6545C44.0281 34.7323 43.9114 34.7712 43.7947 34.7712Z" fill="white"/>
<path d="M29.5984 28.8593C29.4039 28.8593 29.2484 28.7816 29.1317 28.5871C28.8205 28.0815 28.276 27.8092 27.6926 27.8092C27.187 27.8092 26.6814 28.0426 26.3702 28.4315C26.1757 28.6649 25.8257 28.7038 25.5923 28.5093C25.359 28.3148 25.3201 27.9648 25.5145 27.7314C26.059 27.0702 26.8369 26.6813 27.6926 26.6813C28.665 26.6813 29.5595 27.148 30.0651 27.9648C30.2207 28.237 30.1429 28.5482 29.9096 28.7427C29.8318 28.8205 29.7151 28.8593 29.5984 28.8593Z" fill="white"/>
<path d="M36.716 28.8593C36.5216 28.8593 36.366 28.7816 36.2493 28.5871C35.9381 28.0815 35.3936 27.8092 34.8102 27.8092C34.3046 27.8092 33.799 28.0426 33.4878 28.4315C33.2933 28.6649 32.9433 28.7038 32.7099 28.5093C32.4766 28.3148 32.4377 27.9648 32.6321 27.7314C33.1767 27.0702 33.9545 26.6813 34.8102 26.6813C35.7826 26.6813 36.6771 27.148 37.1828 27.9648C37.3383 28.237 37.2605 28.5482 37.0272 28.7427C36.9105 28.8205 36.8327 28.8593 36.716 28.8593Z" fill="white"/>
<path d="M43.7947 28.8593C43.6002 28.8593 43.4447 28.7816 43.328 28.5871C43.0168 28.0815 42.4723 27.8092 41.8889 27.8092C41.3833 27.8092 40.8776 28.0426 40.5665 28.4315C40.372 28.6649 40.022 28.7038 39.7886 28.5093C39.5552 28.3148 39.5163 27.9648 39.7108 27.7314C40.2553 27.0702 41.0332 26.6813 41.8889 26.6813C42.8612 26.6813 43.7558 27.148 44.2614 27.9648C44.417 28.237 44.3392 28.5482 44.1059 28.7427C44.0281 28.8205 43.9114 28.8593 43.7947 28.8593Z" fill="white"/>
<path d="M50.9124 34.7712C50.7179 34.7712 50.5623 34.6934 50.4456 34.4989C50.1345 33.9933 49.59 33.7211 49.0066 33.7211C48.5009 33.7211 47.9953 33.9544 47.6842 34.3434C47.4897 34.5767 47.1396 34.6156 46.9063 34.4212C46.6729 34.2267 46.634 33.8766 46.8285 33.6433C47.373 32.9821 48.1509 32.5931 49.0066 32.5931C49.9789 32.5931 50.8735 33.0599 51.3791 33.8766C51.5347 34.1489 51.4569 34.4601 51.2235 34.6545C51.1068 34.7323 50.9902 34.7712 50.9124 34.7712Z" fill="white"/>
<path d="M14.0407 40.8777C14.0407 41.4223 13.6129 41.8501 13.0684 41.8501C12.5238 41.8501 12.096 41.4223 12.096 40.8777C12.096 40.3332 12.5238 39.9054 13.0684 39.9054C13.574 39.9054 14.0407 40.3721 14.0407 40.8777Z" fill="white"/>
<path d="M16.6856 42.3167C16.6856 42.8612 16.2578 43.2891 15.7133 43.2891C15.1687 43.2891 14.7409 42.8612 14.7409 42.3167C14.7409 41.7722 15.1687 41.3444 15.7133 41.3444C16.2578 41.3444 16.6856 41.7722 16.6856 42.3167Z" fill="white"/>
<path d="M19.3693 43.7558C19.3693 44.3003 18.9414 44.7282 18.3969 44.7282C17.8524 44.7282 17.4246 44.3003 17.4246 43.7558C17.4246 43.2113 17.8524 42.7834 18.3969 42.7834C18.9414 42.7834 19.3693 43.2113 19.3693 43.7558Z" fill="white"/>
<path d="M22.053 45.1561C22.053 45.7006 21.6251 46.1284 21.0806 46.1284C20.5361 46.1284 20.1083 45.7006 20.1083 45.1561C20.1083 44.6116 20.5361 44.1837 21.0806 44.1837C21.6251 44.1837 22.053 44.6116 22.053 45.1561Z" fill="white"/>
<path d="M35.4325 52.2737C35.4325 52.8183 35.0047 53.2461 34.4601 53.2461C33.9156 53.2461 33.4878 52.8183 33.4878 52.2737C33.4878 51.7292 33.9156 51.3014 34.4601 51.3014C35.0047 51.3014 35.4325 51.7681 35.4325 52.2737Z" fill="white"/>
<path d="M32.7488 50.8734C32.7488 51.4179 32.3209 51.8457 31.7764 51.8457C31.2319 51.8457 30.8041 51.4179 30.8041 50.8734C30.8041 50.3288 31.2319 49.901 31.7764 49.901C32.3209 49.901 32.7488 50.3288 32.7488 50.8734Z" fill="white"/>
<path d="M30.0651 49.4344C30.0651 49.9789 29.6373 50.4067 29.0928 50.4067C28.5483 50.4067 28.1204 49.9789 28.1204 49.4344C28.1204 48.8899 28.5483 48.462 29.0928 48.462C29.6373 48.462 30.0651 48.8899 30.0651 49.4344Z" fill="white"/>
<path d="M27.4204 48.0342C27.4204 48.5788 26.9925 49.0066 26.448 49.0066C25.9035 49.0066 25.4756 48.5788 25.4756 48.0342C25.4756 47.4897 25.9035 47.0619 26.448 47.0619C26.9536 47.0619 27.4204 47.4897 27.4204 48.0342Z" fill="white"/>
<path d="M24.7366 46.595C24.7366 47.1396 24.3088 47.5674 23.7643 47.5674C23.2198 47.5674 22.7919 47.1396 22.7919 46.595C22.7919 46.0505 23.2198 45.6227 23.7643 45.6227C24.3088 45.6227 24.7366 46.0505 24.7366 46.595Z" fill="white"/>
<path d="M52.2347 42.3167C52.2347 42.8612 52.6626 43.2891 53.2071 43.2891C53.7516 43.2891 54.1794 42.8612 54.1794 42.3167C54.1794 41.7722 53.7516 41.3444 53.2071 41.3444C52.6626 41.3444 52.2347 41.7722 52.2347 42.3167Z" fill="white"/>
<path d="M49.5511 43.7557C49.5511 44.3002 49.979 44.728 50.5235 44.728C51.068 44.728 51.4958 44.3002 51.4958 43.7557C51.4958 43.2112 51.068 42.7833 50.5235 42.7833C49.979 42.7833 49.5511 43.2112 49.5511 43.7557Z" fill="white"/>
<path d="M46.8674 45.1561C46.8674 45.7006 47.2952 46.1284 47.8397 46.1284C48.3842 46.1284 48.8121 45.7006 48.8121 45.1561C48.8121 44.6116 48.3842 44.1837 47.8397 44.1837C47.2952 44.1837 46.8674 44.6116 46.8674 45.1561Z" fill="white"/>
<path d="M36.1714 50.8734C36.1714 51.4179 36.5993 51.8457 37.1438 51.8457C37.6883 51.8457 38.1162 51.4179 38.1162 50.8734C38.1162 50.3288 37.6883 49.901 37.1438 49.901C36.5993 49.901 36.1714 50.3288 36.1714 50.8734Z" fill="white"/>
<path d="M38.8552 49.4344C38.8552 49.9789 39.2831 50.4067 39.8276 50.4067C40.3721 50.4067 40.7999 49.9789 40.7999 49.4344C40.7999 48.8899 40.3721 48.462 39.8276 48.462C39.2831 48.462 38.8552 48.8899 38.8552 49.4344Z" fill="white"/>
<path d="M41.5 48.0341C41.5 48.5786 41.9278 49.0065 42.4724 49.0065C43.0169 49.0065 43.4447 48.5786 43.4447 48.0341C43.4447 47.4896 43.0169 47.0618 42.4724 47.0618C41.9667 47.0618 41.5 47.4896 41.5 48.0341Z" fill="white"/>
<path d="M44.1837 46.595C44.1837 47.1396 44.6116 47.5674 45.1561 47.5674C45.7006 47.5674 46.1284 47.1396 46.1284 46.595C46.1284 46.0505 45.7006 45.6227 45.1561 45.6227C44.6116 45.6227 44.1837 46.0505 44.1837 46.595Z" fill="white"/>
<path d="M23.8809 37.2996C23.8809 37.2996 28.5871 29.2096 28.626 23.6866C28.6649 23.6866 30.4151 23.6866 30.4151 23.6866L27.3425 18.8638H27.2258L24.1143 23.6477C24.1143 23.6477 25.8645 23.6477 25.9034 23.6477C25.9423 29.2096 22.4807 37.2607 22.4807 37.2607" fill="#8ADDFB"/>
<path d="M23.881 37.2994C24.4644 36.2492 24.97 35.1213 25.4756 34.0323C25.9813 32.9432 26.4091 31.8153 26.8369 30.6485C27.2259 29.5205 27.5759 28.3537 27.8482 27.1869C28.1204 26.0201 28.276 24.8144 28.276 23.6475C28.276 23.4531 28.4316 23.2975 28.6261 23.2975L30.4541 23.2586L30.104 23.8809L26.8369 19.1358L27.3037 19.4081H27.187L27.6537 19.1358L24.4255 23.8809L24.1143 23.2586L25.9424 23.2975C26.1368 23.2975 26.2924 23.4531 26.2924 23.6475C26.2535 24.8533 26.059 26.059 25.8257 27.2258C25.5923 28.3926 25.2812 29.5205 24.9311 30.6874C24.231 32.9432 23.4142 35.1602 22.4419 37.2994C23.2976 35.1213 23.9977 32.8654 24.5811 30.5707C24.8533 29.4428 25.0867 28.2759 25.2812 27.148C25.4367 25.9812 25.5534 24.8144 25.5145 23.6864L25.8646 24.0365L24.1143 24.0754C23.881 24.0754 23.6865 23.9198 23.6865 23.6864C23.6865 23.6086 23.7254 23.5309 23.7643 23.4531L26.7202 18.5524C26.8369 18.3579 27.0314 18.2802 27.187 18.2802H27.3037H27.3426C27.537 18.2802 27.6926 18.3968 27.8093 18.5524L30.7652 23.4531C30.8819 23.6475 30.8041 23.8809 30.6097 23.9976C30.5319 24.0365 30.4541 24.0754 30.3763 24.0754L28.5872 24.0365L28.9372 23.6864C28.8983 24.931 28.665 26.1757 28.3149 27.3425C28.0038 28.5093 27.5759 29.6761 27.1092 30.8041C26.6425 31.932 26.1368 33.021 25.5923 34.11C25.0867 35.1602 24.5033 36.2492 23.881 37.2994Z" fill="white"/>
<path d="M27.3036 23.103C27.3814 24.3476 27.2647 25.5922 27.0702 26.798C26.8758 28.0426 26.5646 29.2483 26.1757 30.4151L25.9034 31.3097L25.5923 32.2042C25.3978 32.7877 25.1255 33.3711 24.8922 33.9156C24.6588 34.499 24.3865 35.0435 24.1143 35.588L23.2586 37.2216L24.0365 35.5491C24.2699 34.9657 24.5421 34.4212 24.7755 33.8378C25.2422 32.671 25.67 31.543 26.0201 30.3373C26.409 29.1705 26.7202 27.9648 26.9535 26.7591C27.0702 26.1368 27.1869 25.5534 27.2258 24.931C27.2647 24.3476 27.3036 23.7253 27.3036 23.103Z" fill="white"/>
<path d="M35.238 29.9873C35.238 29.9873 39.9442 21.8973 39.9831 16.3744C40.022 16.3744 41.7722 16.3744 41.7722 16.3744L38.6996 11.5515H38.5829L35.5103 16.3744C35.5103 16.3744 37.2605 16.3744 37.2994 16.3744C37.3383 21.9362 33.8767 29.9873 33.8767 29.9873" fill="#8ADDFB"/>
<path d="M35.2381 29.9874C35.8215 28.9372 36.3271 27.8093 36.8327 26.7202C37.3384 25.6312 37.7662 24.5033 38.194 23.3365C38.583 22.2085 38.933 21.0417 39.2053 19.8749C39.4775 18.7081 39.6331 17.5023 39.6331 16.3355C39.6331 16.1411 39.7887 15.9855 39.9832 15.9855L41.8112 15.9466L41.4611 16.5689L38.2329 11.8238L38.6997 12.0961H38.583L39.0497 11.8238L35.8215 16.5689L35.4714 15.9466L37.2995 15.9855C37.4939 15.9855 37.6495 16.1411 37.6495 16.3355C37.6106 17.5412 37.455 18.747 37.2217 19.9138C36.9883 21.0806 36.6772 22.2085 36.3271 23.3754C35.627 25.6312 34.8102 27.8482 33.8379 29.9874C34.6936 27.8093 35.3937 25.5534 35.9771 23.2587C36.2493 22.1307 36.4827 20.9639 36.6772 19.836C36.8327 18.6692 36.9494 17.5023 36.9105 16.3744L37.2606 16.7245L35.4714 16.7634C35.2381 16.7634 35.0436 16.6078 35.0436 16.3744C35.0436 16.2966 35.0825 16.2188 35.1214 16.1411L38.0773 11.2404C38.194 11.0459 38.3885 10.9681 38.5441 10.9681H38.6608H38.6997C38.8941 10.9681 39.0497 11.0848 39.1664 11.2404L42.1223 16.1411C42.239 16.3355 42.1612 16.5689 41.9668 16.6856C41.889 16.7245 41.8112 16.7634 41.7334 16.7634L39.9443 16.7245L40.2943 16.3744C40.2554 17.619 40.0221 18.8636 39.672 20.0305C39.3609 21.1973 38.933 22.3641 38.4663 23.492C37.9996 24.62 37.4939 25.709 36.9494 26.798C36.4438 27.8871 35.8604 28.9761 35.2381 29.9874Z" fill="white"/>
<path d="M38.6608 15.83C38.7386 17.0746 38.6219 18.3192 38.4274 19.5249C38.2329 20.7695 37.9218 21.9752 37.5328 23.142L37.2606 24.0366L36.9494 24.9312C36.755 25.5146 36.4827 26.098 36.2493 26.6425C36.016 27.2259 35.7437 27.7704 35.4715 28.315L34.6158 29.9485L35.3937 28.2761C35.627 27.6927 35.8993 27.1481 36.1327 26.5647C36.5994 25.3979 37.0272 24.27 37.3773 23.0643C37.7662 21.8974 38.0774 20.6917 38.3107 19.486C38.4274 18.8637 38.5441 18.2803 38.583 17.658C38.6219 17.0746 38.6608 16.4523 38.6608 15.83Z" fill="white"/>
<path d="M46.2451 38.3886C46.2451 38.3886 50.9513 30.2986 50.9902 24.7756C51.0291 24.7756 52.7793 24.7756 52.7793 24.7756L49.7067 19.9528H49.59L46.5173 24.7756C46.5173 24.7756 48.2676 24.7756 48.3065 24.7756C48.3454 30.3375 44.8838 38.3886 44.8838 38.3886" fill="#8ADDFB"/>
<path d="M46.2451 38.3886C46.8285 37.3384 47.3341 36.2105 47.8398 35.1214C48.3454 34.0324 48.7732 32.9045 49.201 31.7377C49.59 30.6097 49.94 29.4429 50.2123 28.2761C50.4846 27.1093 50.6401 25.9035 50.6401 24.7367C50.6401 24.5423 50.7957 24.3867 50.9902 24.3867L52.8182 24.3478L52.4681 24.9701L49.2399 20.225L49.7067 20.4973H49.59L50.0567 20.225L46.8285 24.9701L46.4785 24.3089L48.3065 24.3478C48.501 24.3478 48.6565 24.5034 48.6565 24.6978C48.6176 25.9035 48.4621 27.1093 48.2287 28.2761C47.9953 29.4429 47.6842 30.5708 47.3341 31.7377C46.634 33.9935 45.8173 36.2105 44.8449 38.3497C45.7006 36.1716 46.4007 33.9157 46.9841 31.621C47.2563 30.4931 47.4897 29.3262 47.6842 28.1983C47.8398 27.0315 47.9564 25.8647 47.9175 24.7367L48.2676 25.0868L46.4785 25.1257C46.2451 25.1257 46.0506 24.9701 46.0506 24.7367C46.0506 24.6589 46.0895 24.5811 46.1284 24.5034L49.0844 19.6027C49.201 19.4082 49.3955 19.3304 49.5511 19.3304H49.6678H49.7067C49.9011 19.3304 50.0567 19.4471 50.1734 19.6027L53.1294 24.5034C53.246 24.6978 53.1682 24.9312 52.9738 25.0479C52.896 25.0868 52.8182 25.1257 52.7404 25.1257L50.9513 25.0868L51.3013 24.7367C51.2624 25.9813 51.0291 27.2259 50.679 28.3928C50.3679 29.5596 49.94 30.7264 49.4733 31.8543C49.0066 32.9823 48.501 34.0713 47.9564 35.1603C47.4508 36.2883 46.8674 37.3384 46.2451 38.3886Z" fill="white"/>
<path d="M49.6678 24.231C49.7456 25.4756 49.6289 26.7202 49.4344 27.9259C49.24 29.1705 48.9288 30.3762 48.5399 31.543L48.2676 32.4376L47.9564 33.3322C47.762 33.9156 47.4897 34.499 47.2564 35.0435C47.023 35.6269 46.7507 36.1714 46.4785 36.716L45.6228 38.3495L46.4007 36.6771C46.634 36.0937 46.9063 35.5491 47.1397 34.9657C47.6064 33.7989 48.0342 32.671 48.3843 31.4653C48.7732 30.2984 49.0844 29.0927 49.3177 27.887C49.4344 27.2647 49.5511 26.6813 49.59 26.059C49.6289 25.4756 49.6678 24.8533 49.6678 24.231Z" fill="white"/>
<path d="M82.4166 48.9677C82.4166 56.8243 76.0768 63.164 68.2202 63.164C60.3636 63.164 54.0239 56.8243 54.0239 48.9677C54.0239 41.1111 60.3636 34.7714 68.2202 34.7714C76.0768 34.7714 82.4166 41.1111 82.4166 48.9677Z" fill="white"/>
<path d="M68.2591 63.7475C60.1303 63.7475 53.4794 57.1355 53.4794 48.9677C53.4794 40.8389 60.0914 34.188 68.2591 34.188C76.388 34.188 83.0389 40.8 83.0389 48.9677C83 57.0966 76.388 63.7475 68.2591 63.7475ZM68.2591 35.3548C60.7526 35.3548 54.6462 41.4612 54.6462 48.9677C54.6462 56.4743 60.7526 62.5807 68.2591 62.5807C75.7657 62.5807 81.8721 56.4743 81.8721 48.9677C81.8332 41.4612 75.7268 35.3548 68.2591 35.3548Z" fill="#53B7E8"/>
<path d="M56.4585 46.1081H57.2615V45.0617C57.2697 44.8995 57.3143 44.7981 57.3954 44.7576C57.4846 44.717 57.6955 44.6967 58.0281 44.6967C58.2228 44.6967 58.3525 44.717 58.4174 44.7576C58.4823 44.79 58.5148 44.8792 58.5148 45.0252C58.5148 45.082 58.5107 45.1794 58.5026 45.3173C58.5026 45.4552 58.5026 45.5525 58.5026 45.6093V46.1081C58.5756 46.1081 58.6892 46.1081 58.8433 46.1081C58.9974 46.1 59.115 46.096 59.1961 46.096C59.4476 46.096 59.6139 46.1203 59.695 46.169C59.7842 46.2095 59.8288 46.2988 59.8288 46.4367C59.8288 46.8666 59.8086 47.1261 59.768 47.2154C59.7356 47.3046 59.6423 47.3492 59.4882 47.3492H58.5148C58.5148 47.4384 58.5148 47.5804 58.5148 47.7751C58.5229 47.9616 58.5269 48.0995 58.5269 48.1887C58.5269 48.4483 58.4986 48.6146 58.4418 48.6876C58.385 48.7525 58.2674 48.7849 58.0889 48.7849C57.7077 48.7849 57.4724 48.7647 57.3832 48.7241C57.3021 48.6836 57.2615 48.5984 57.2615 48.4686V47.3492C57.1642 47.3492 57.002 47.3533 56.7749 47.3614C56.5558 47.3614 56.4058 47.3614 56.3247 47.3614C56.1705 47.3614 56.0732 47.3208 56.0326 47.2397C56.0002 47.1505 55.984 46.899 55.984 46.4853C55.984 46.3393 56.0164 46.242 56.0813 46.1933C56.1462 46.1365 56.2719 46.1081 56.4585 46.1081ZM60.5464 47.8237C60.3112 47.8075 60.1936 47.6939 60.1936 47.483C60.1936 47.045 60.2423 46.7368 60.3396 46.5583L60.4856 46.3028C60.5992 46.1 60.9439 45.5119 61.5198 44.5386C62.0957 43.5571 62.5824 42.7135 62.9799 42.0078C63.0935 41.7563 63.1949 41.5941 63.2841 41.5211C63.3733 41.4399 63.5031 41.3994 63.6734 41.3994H64.148C64.4075 41.3994 64.5373 41.5008 64.5373 41.7036C64.5292 41.7522 64.5251 41.8374 64.5251 41.9591C64.5251 42.0402 64.5251 42.2187 64.5251 42.4944C64.5333 42.7702 64.5373 43.0136 64.5373 43.2245V44.429V44.6116C64.5373 44.8062 64.5373 45.1226 64.5373 45.5606C64.5454 45.9986 64.5495 46.3393 64.5495 46.5827C64.6306 46.5827 64.7523 46.5827 64.9145 46.5827C65.0767 46.5746 65.1944 46.5705 65.2674 46.5705C65.4134 46.5705 65.5148 46.5989 65.5715 46.6557C65.6283 46.7124 65.6567 46.8098 65.6567 46.9477C65.6567 47.2073 65.6445 47.4019 65.6202 47.5317C65.5959 47.6615 65.5675 47.7386 65.535 47.7629C65.5107 47.7872 65.4661 47.7994 65.4012 47.7994C65.312 47.7994 65.1741 47.8034 64.9875 47.8116C64.8091 47.8197 64.6752 47.8237 64.586 47.8237C64.6103 48.4564 64.6225 48.935 64.6225 49.2595C64.6225 49.4136 64.6144 49.5353 64.5982 49.6245C64.5819 49.7056 64.5414 49.7624 64.4765 49.7948C64.4197 49.8192 64.3791 49.8354 64.3548 49.8435C64.3386 49.8435 64.2818 49.8435 64.1845 49.8435H63.4423C63.2314 49.8435 63.1259 49.7583 63.1259 49.588V49.0405C63.1259 48.9188 63.1219 48.7201 63.1137 48.4443C63.1056 48.1685 63.1016 47.9616 63.1016 47.8237H60.875C60.8263 47.8318 60.7654 47.8359 60.6924 47.8359C60.6681 47.8359 60.6397 47.8359 60.6073 47.8359C60.5748 47.8278 60.5545 47.8237 60.5464 47.8237ZM63.0894 46.5948C63.0732 46.0676 63.0651 45.2848 63.0651 44.2465V44.0154C62.3513 45.443 61.9213 46.2988 61.7753 46.5827H62.0187C62.0592 46.5827 62.1039 46.5867 62.1525 46.5948C62.2012 46.5948 62.2336 46.5948 62.2499 46.5948H63.0894ZM70.6845 44.6967C70.7007 45.3781 70.7088 45.9621 70.7088 46.4488C70.7088 48.0549 70.3478 49.15 69.6259 49.734C69.342 50.0179 68.8959 50.1599 68.2875 50.1599C67.7684 50.1599 67.3466 49.9692 67.0221 49.588C66.6976 49.1986 66.4827 48.7322 66.3772 48.1887V48.2009L66.2677 47.3614C66.1866 46.4934 66.1461 45.8364 66.1461 45.3903C66.1461 44.0113 66.3367 42.9771 66.7179 42.2876C67.1073 41.59 67.744 41.2412 68.6282 41.2412C68.9283 41.2412 69.196 41.3102 69.4312 41.4481C69.6746 41.5859 69.8693 41.7644 70.0153 41.9834C70.1613 42.2024 70.283 42.4661 70.3803 42.7743C70.4776 43.0744 70.5466 43.3705 70.5871 43.6625C70.6358 43.9464 70.6682 44.2546 70.6845 44.5872V44.6967ZM69.1149 44.7211C69.0987 43.9991 69.0459 43.5206 68.9567 43.2853C68.8432 43.0176 68.6647 42.8838 68.4214 42.8838C68.2591 42.8838 68.1172 43.0339 67.9955 43.334C67.8738 43.626 67.7846 43.9424 67.7278 44.283L67.6913 44.5142C67.6751 44.7981 67.667 45.4673 67.667 46.5218C67.667 47.9819 67.9184 48.7119 68.4214 48.7119C68.4862 48.7119 68.543 48.6917 68.5917 48.6511C68.6485 48.6024 68.6971 48.5294 68.7377 48.4321C68.7864 48.3348 68.8188 48.2577 68.835 48.2009C68.8594 48.1441 68.8878 48.0509 68.9202 47.9211C68.9608 47.7913 68.981 47.7223 68.981 47.7142L69.0419 47.3127C69.0906 47.1261 69.1271 46.6557 69.1514 45.9013C69.1595 45.7715 69.1554 45.6012 69.1392 45.3903C69.123 45.1713 69.1149 45.0212 69.1149 44.9401V44.7211ZM73.9706 47.5317L76.4041 41.9834C76.5663 41.6103 76.7934 41.4237 77.0854 41.4237C77.1098 41.4237 77.1584 41.4237 77.2314 41.4237C77.3044 41.4156 77.3653 41.4156 77.4139 41.4237C77.4626 41.4237 77.5235 41.4278 77.5965 41.4359C77.6695 41.4359 77.7262 41.444 77.7668 41.4602C77.8155 41.4683 77.8641 41.4846 77.9128 41.5089C77.9615 41.5332 77.998 41.5657 78.0223 41.6062C78.0467 41.6468 78.0588 41.6955 78.0588 41.7522C78.0588 41.7603 78.002 41.9347 77.8885 42.2754L77.633 42.9446C77.4221 43.4881 77.2801 43.841 77.2071 44.0032L75.9052 46.9477L75.747 47.264L75.6862 47.3614C75.4672 47.7832 75.3414 48.0468 75.309 48.1522C75.2603 48.3307 75.1954 48.5294 75.1143 48.7484C75.0332 48.9593 74.9034 49.2067 74.725 49.4907C74.5465 49.7664 74.3802 49.9043 74.2261 49.9043C73.6908 49.9043 73.3744 49.8841 73.2771 49.8435C73.1716 49.7867 73.1148 49.7056 73.1067 49.6002C73.1067 49.4298 73.2771 49.004 73.6177 48.3226L73.7029 48.1279C73.7354 48.063 73.8246 47.8643 73.9706 47.5317ZM73.3014 45.4268C72.1252 45.4268 71.5047 44.7819 71.4398 43.4922C71.4398 42.8595 71.6183 42.3484 71.9752 41.9591C72.3402 41.5697 72.7782 41.3669 73.2892 41.3507C73.857 41.3507 74.2951 41.5576 74.6033 41.9712C74.9115 42.3849 75.0657 42.8797 75.0657 43.4557C75.0657 43.6503 75.0373 43.8491 74.9805 44.0519C74.9318 44.2546 74.8466 44.4655 74.725 44.6846C74.6033 44.9036 74.4208 45.082 74.1774 45.2199C73.9341 45.3578 73.6421 45.4268 73.3014 45.4268ZM73.3379 44.1979C73.6299 44.1979 73.7759 43.9586 73.7759 43.48C73.7759 43.3015 73.7394 43.1109 73.6664 42.9081C73.6015 42.6972 73.492 42.5918 73.3379 42.5918C72.981 42.5918 72.8025 42.8879 72.8025 43.48C72.8025 43.5692 72.8106 43.6625 72.8269 43.7598C72.8512 43.8491 72.908 43.9464 72.9972 44.0519C73.0864 44.1492 73.2 44.1979 73.3379 44.1979ZM78.0832 50.0017C76.907 50.0017 76.2864 49.3568 76.2216 48.0671C76.2216 47.4344 76.4 46.9233 76.7569 46.534C77.1219 46.1446 77.56 45.9418 78.071 45.9256C78.6388 45.9256 79.0768 46.1325 79.3851 46.5462C79.6933 46.9598 79.8474 47.4547 79.8474 48.0306C79.8474 48.2252 79.819 48.424 79.7622 48.6268C79.7136 48.8296 79.6284 49.0405 79.5067 49.2595C79.3851 49.4785 79.2025 49.6569 78.9592 49.7948C78.7159 49.9327 78.4238 50.0017 78.0832 50.0017ZM78.1197 48.7728C78.4117 48.7728 78.5577 48.5335 78.5577 48.0549C78.5577 47.8765 78.5212 47.6858 78.4482 47.483C78.3833 47.2721 78.2738 47.1667 78.1197 47.1667C77.7627 47.1667 77.5843 47.4628 77.5843 48.0549C77.5843 48.1441 77.5924 48.2374 77.6086 48.3348C77.633 48.424 77.6897 48.5213 77.779 48.6268C77.8682 48.7241 77.9818 48.7728 78.1197 48.7728Z" fill="#0B69B3"/>
<path d="M60.998 54.0136L60.9108 54.0203V54.3894V54.5169C61.0271 54.508 61.139 54.5035 61.2463 54.5035C61.4208 54.5035 61.508 54.4118 61.508 54.2284C61.508 54.0628 61.338 53.9913 60.998 54.0136ZM60.9242 53.4432H60.998C61.0786 53.4432 61.1546 53.4164 61.2262 53.3627C61.2978 53.309 61.3358 53.2374 61.3403 53.148C61.3403 53.0764 61.3224 53.0227 61.2866 52.9869C61.2508 52.9466 61.224 52.9265 61.2061 52.9265C61.1882 52.922 61.168 52.9198 61.1457 52.9198L60.9175 52.9064V53.1412C60.9175 53.1905 60.9175 53.2441 60.9175 53.3023C60.922 53.356 60.9242 53.403 60.9242 53.4432ZM61.2128 55.1947L60.5551 55.1746H60.4612C60.3091 55.1746 60.2062 55.103 60.1525 54.9598C60.1391 54.9196 60.1324 54.8659 60.1324 54.7988L60.1592 53.6512C60.1637 53.4589 60.1659 53.2687 60.1659 53.0808V52.5977C60.1749 52.5082 60.1995 52.4433 60.2397 52.4031C60.28 52.3583 60.318 52.3337 60.3538 52.3293C60.3896 52.3203 60.4433 52.3158 60.5149 52.3158H60.5484C60.5797 52.3158 60.5999 52.3181 60.6088 52.3226H61.1457C61.4052 52.3226 61.6199 52.3852 61.7899 52.5104C61.9644 52.6312 62.0494 52.8236 62.0449 53.0876C62.0404 53.262 62.0002 53.3962 61.9241 53.4902C61.8481 53.5797 61.772 53.6266 61.6959 53.6311L61.5819 53.6445C61.7519 53.6401 61.8973 53.7027 62.0181 53.8324C62.1433 53.9622 62.2059 54.1143 62.2059 54.2888C62.2059 54.6153 62.1209 54.8502 61.9509 54.9934C61.7809 55.1321 61.5349 55.1992 61.2128 55.1947ZM63.6228 55.2685C63.4036 55.2685 63.2135 55.2215 63.0524 55.1276C62.8914 55.0292 62.7706 54.9017 62.6901 54.7451C62.614 54.5885 62.5581 54.4342 62.5223 54.282C62.491 54.1255 62.4753 53.9666 62.4753 53.8056C62.4753 53.3895 62.5737 53.0428 62.7706 52.7655C62.9674 52.4836 63.247 52.3427 63.6094 52.3427C63.8107 52.3427 63.9852 52.3874 64.1328 52.4769C64.2805 52.5619 64.3945 52.6782 64.4751 52.8258C64.5556 52.9735 64.6138 53.1211 64.6495 53.2687C64.6898 53.4119 64.7167 53.5685 64.7301 53.7385C64.7301 53.8414 64.7256 53.942 64.7167 54.0405C64.7122 54.1344 64.6876 54.2619 64.6428 54.423C64.6026 54.5795 64.5444 54.716 64.4684 54.8323C64.3968 54.9442 64.2872 55.0448 64.1395 55.1343C63.9964 55.2193 63.8241 55.264 63.6228 55.2685ZM63.6295 54.5572C63.8622 54.5572 63.9785 54.2932 63.9785 53.7653C63.9785 53.6311 63.9516 53.479 63.898 53.309C63.8488 53.139 63.7615 53.054 63.6362 53.054C63.4931 53.054 63.388 53.1323 63.3209 53.2889C63.2537 53.4455 63.2202 53.6177 63.2202 53.8056C63.2202 53.8503 63.2247 53.9085 63.2336 53.9801C63.247 54.0516 63.2672 54.1344 63.294 54.2284C63.3209 54.3223 63.3634 54.4006 63.4215 54.4632C63.4797 54.5259 63.549 54.5572 63.6295 54.5572ZM65.7298 54.7182C65.7656 54.7182 65.8059 54.716 65.8506 54.7115C65.8953 54.7026 65.9512 54.6668 66.0184 54.6042C66.0899 54.5415 66.1257 54.4543 66.1257 54.3424C66.1257 54.3156 66.1101 54.2932 66.0787 54.2753C66.0385 54.1366 65.8976 54.0516 65.656 54.0203L65.5218 54.0069C65.4815 54.0069 65.4524 54.0069 65.4345 54.0069C65.4211 54.0024 65.401 53.9957 65.3741 53.9868C65.3518 53.9734 65.3361 53.9532 65.3272 53.9264C65.3182 53.8995 65.3137 53.8615 65.3137 53.8123C65.3137 53.8078 65.3137 53.8011 65.3137 53.7922C65.3182 53.7788 65.3205 53.7676 65.3205 53.7586V53.5976C65.3205 53.5797 65.3227 53.564 65.3272 53.5506C65.3316 53.5327 65.3383 53.5193 65.3473 53.5103C65.3562 53.4969 65.3652 53.488 65.3741 53.4835C65.3831 53.4745 65.3965 53.4678 65.4144 53.4634C65.4323 53.4589 65.4457 53.4544 65.4547 53.4499C65.4636 53.4455 65.4793 53.4432 65.5016 53.4432C65.524 53.4432 65.5397 53.4432 65.5486 53.4432C65.562 53.4432 65.5799 53.4432 65.6023 53.4432C65.6291 53.4432 65.647 53.4432 65.656 53.4432C65.8886 53.4432 66.0049 53.356 66.0049 53.1815C66.0049 53.0473 65.8909 52.9802 65.6627 52.9802C65.6269 52.9802 65.5822 52.9824 65.5285 52.9869C65.4793 52.9869 65.448 52.9869 65.4345 52.9869H65.448C65.4122 52.9914 65.3652 52.9936 65.307 52.9936C65.2086 52.9936 65.1191 52.969 65.0386 52.9198C64.9581 52.8661 64.9178 52.7968 64.9178 52.7118C64.9178 52.7028 64.9178 52.6894 64.9178 52.6715C64.9223 52.6536 64.9379 52.6245 64.9648 52.5843C64.9961 52.544 65.0364 52.5082 65.0856 52.4769C65.1393 52.4456 65.2198 52.4187 65.3272 52.3964C65.439 52.3695 65.5687 52.3561 65.7164 52.3561H65.817C66.0497 52.3695 66.2465 52.4277 66.4076 52.5306C66.5731 52.6335 66.6603 52.7878 66.6693 52.9936C66.6693 53.0876 66.6559 53.1748 66.629 53.2553C66.6022 53.3314 66.5731 53.3918 66.5418 53.4365C66.5105 53.4768 66.4724 53.5148 66.4277 53.5506C66.3874 53.5819 66.3584 53.602 66.3405 53.611C66.3226 53.6155 66.3069 53.6199 66.2935 53.6244C66.3069 53.6244 66.3293 53.6289 66.3606 53.6378C66.3964 53.6423 66.4456 53.658 66.5082 53.6848C66.5709 53.7116 66.629 53.7474 66.6827 53.7922C66.7364 53.8369 66.7834 53.904 66.8236 53.9935C66.8639 54.0785 66.884 54.1791 66.884 54.2955C66.884 54.5997 66.7789 54.8346 66.5686 55.0001C66.3584 55.1656 66.0899 55.2484 65.7633 55.2484C65.4994 55.2484 65.2824 55.2103 65.1124 55.1343C64.9469 55.0538 64.8641 54.9643 64.8641 54.8659C64.8641 54.8077 64.882 54.7473 64.9178 54.6847C64.9581 54.622 65.0006 54.5773 65.0453 54.5505C65.0722 54.5013 65.0923 54.4767 65.1057 54.4767C65.1191 54.4767 65.1303 54.4789 65.1393 54.4834C65.1393 54.4923 65.1639 54.5147 65.2131 54.5505C65.2668 54.5863 65.3428 54.6243 65.4412 54.6645C65.5397 54.7003 65.6358 54.7182 65.7298 54.7182ZM68.5855 54.6243V54.584C68.5855 54.5482 68.5832 54.4878 68.5788 54.4028C68.5743 54.3178 68.572 54.2373 68.572 54.1613C68.572 53.6826 68.5743 53.3828 68.5788 53.262C68.5788 53.2084 68.5765 53.1658 68.572 53.1345C68.5273 53.1345 68.4647 53.1345 68.3842 53.1345C68.3036 53.1301 68.241 53.1278 68.1963 53.1278C68.1784 53.1994 68.1493 53.3895 68.109 53.6982C68.0732 54.0069 68.0464 54.2015 68.0285 54.282C67.9882 54.4431 67.9524 54.5572 67.9211 54.6243H68.5855ZM67.6191 55.1813L67.6057 55.604C67.6057 55.6398 67.6012 55.6689 67.5923 55.6913C67.5878 55.7136 67.5789 55.7315 67.5655 55.745C67.5565 55.7584 67.5386 55.7673 67.5118 55.7718C67.4849 55.7807 67.4626 55.7852 67.4447 55.7852C67.4268 55.7897 67.3977 55.7919 67.3574 55.7919C67.3172 55.7964 67.2881 55.7986 67.2702 55.7986L67.0555 55.7852C66.9883 55.7807 66.9436 55.7651 66.9212 55.7382C66.8944 55.7159 66.881 55.66 66.881 55.5705C66.881 55.5571 66.8832 55.5325 66.8877 55.4967C66.8877 55.4609 66.8877 55.434 66.8877 55.4161C66.8832 55.3982 66.881 55.3781 66.881 55.3557C66.881 55.3334 66.881 55.3132 66.881 55.2953V55.2282C66.881 55.2193 66.8832 55.2014 66.8877 55.1746C66.8877 55.1522 66.8877 55.1298 66.8877 55.1074V54.7786C66.8922 54.6713 66.9615 54.6176 67.0957 54.6176C67.1897 54.5594 67.259 54.4431 67.3037 54.2686C67.3574 53.9555 67.4201 53.488 67.4916 52.8661L67.5051 52.7319C67.5051 52.6022 67.5811 52.5373 67.7332 52.5373H67.8003C67.8361 52.5373 67.892 52.5351 67.9681 52.5306C68.0441 52.5261 68.1001 52.5239 68.1359 52.5239H68.3909C68.4535 52.5239 68.5027 52.5261 68.5385 52.5306C68.5788 52.5306 68.6056 52.5306 68.619 52.5306C68.6369 52.5306 68.6481 52.5306 68.6526 52.5306C68.6839 52.5306 68.7331 52.5283 68.8002 52.5239C68.8718 52.5194 68.9255 52.5172 68.9613 52.5172H68.9747C69.1178 52.5172 69.2096 52.5485 69.2498 52.6111C69.2946 52.6737 69.3169 52.7677 69.3169 52.893C69.3169 52.9645 69.3102 53.1055 69.2968 53.3157C69.2878 53.5215 69.2834 53.6759 69.2834 53.7788V53.819C69.2834 53.7788 69.2856 53.7497 69.2901 53.7318C69.2811 53.8034 69.2767 53.857 69.2767 53.8928C69.2767 53.8973 69.2834 53.9868 69.2968 54.1613L69.3102 54.4834C69.3102 54.4923 69.308 54.5124 69.3035 54.5438C69.3035 54.5751 69.3035 54.6042 69.3035 54.631H69.478H69.4914H69.525C69.5921 54.6444 69.6256 54.678 69.6256 54.7317C69.6256 54.7809 69.6234 54.8681 69.6189 54.9934C69.6189 55.1142 69.6189 55.1969 69.6189 55.2417V55.4765V55.6577C69.6189 55.7517 69.5607 55.7986 69.4444 55.7986H69.3639C69.346 55.7986 69.3169 55.7986 69.2767 55.7986C69.2409 55.8031 69.214 55.8053 69.1961 55.8053C69.1335 55.8053 69.0821 55.7919 69.0418 55.7651C69.0015 55.7382 68.9747 55.7025 68.9613 55.6577C68.9478 55.613 68.9367 55.5615 68.9277 55.5034C68.9232 55.4497 68.9232 55.3938 68.9277 55.3356C68.9322 55.2819 68.9322 55.2305 68.9277 55.1813H68.3238C68.3059 55.1813 68.2745 55.179 68.2298 55.1746C68.1895 55.1746 68.1582 55.1746 68.1359 55.1746C68.1269 55.1746 68.1157 55.1746 68.1023 55.1746L68.0889 55.1813H67.6191ZM70.8817 56.8992C70.8325 57.0289 70.7699 57.0938 70.6938 57.0938C70.6849 57.0938 70.6602 57.0938 70.62 57.0938C70.5797 57.0938 70.5417 57.0938 70.5059 57.0938C70.4746 57.0938 70.4343 57.0938 70.3851 57.0938C70.3404 57.0938 70.2979 57.0915 70.2576 57.0871C70.2218 57.0826 70.186 57.0759 70.1502 57.0669C70.1189 57.058 70.0921 57.0446 70.0697 57.0267C70.0518 57.0133 70.0406 56.9954 70.0362 56.973C70.0362 56.9372 70.0518 56.879 70.0831 56.7985L70.6401 55.1813C70.3091 54.3626 70.025 53.6289 69.7879 52.9802C69.7252 52.8236 69.6939 52.7319 69.6939 52.7051C69.6939 52.6872 69.6984 52.6715 69.7073 52.6581C69.7208 52.6447 69.7387 52.6335 69.761 52.6245C69.7834 52.6156 69.8058 52.6089 69.8281 52.6044C69.8505 52.5999 69.8796 52.5977 69.9154 52.5977C69.9512 52.5977 69.9802 52.5977 70.0026 52.5977C70.0295 52.5977 70.0608 52.5977 70.0966 52.5977C70.1323 52.5977 70.157 52.5977 70.1704 52.5977H70.3918C70.4142 52.5977 70.4321 52.6022 70.4455 52.6111C70.4634 52.6156 70.4791 52.629 70.4925 52.6514C70.5104 52.6693 70.5238 52.6916 70.5327 52.7185C70.5462 52.7408 70.5596 52.7744 70.573 52.8191C70.5909 52.8639 70.6066 52.9131 70.62 52.9668C70.6334 53.016 70.6513 53.0831 70.6737 53.1681C70.696 53.2486 70.7184 53.3314 70.7408 53.4164C70.7631 53.5014 70.7922 53.6065 70.828 53.7318C70.8638 53.857 70.9018 53.9823 70.9421 54.1076H70.9756C71.0204 53.9599 71.0875 53.7363 71.177 53.4365C71.2709 53.1368 71.3403 52.9108 71.385 52.7587C71.4074 52.6782 71.432 52.6268 71.4588 52.6044C71.4857 52.582 71.5393 52.5708 71.6199 52.5708H71.7339H71.7809C71.9196 52.5708 72.0314 52.5865 72.1164 52.6178C72.2059 52.6491 72.2507 52.6849 72.2507 52.7252C72.2507 52.752 72.2484 52.7722 72.2439 52.7856L72.2104 52.8862C72.1567 53.0518 72.065 53.3359 71.9353 53.7385C71.8055 54.1411 71.6512 54.6086 71.4722 55.141C71.2978 55.6734 71.1009 56.2594 70.8817 56.8992ZM73.7462 55.0672L73.4912 54.4028L73.2362 54.9934C73.1825 55.1321 73.1422 55.2059 73.1154 55.2148C73.102 55.2238 73.0863 55.2282 73.0684 55.2282C73.0505 55.2282 73.0237 55.226 72.9879 55.2215C72.9521 55.2215 72.9275 55.2215 72.9141 55.2215H72.7933C72.6456 55.2215 72.5405 55.2103 72.4779 55.188C72.4197 55.1701 72.3906 55.1298 72.3906 55.0672C72.3906 55.0582 72.4085 55.0001 72.4443 54.8927C72.4935 54.7853 72.545 54.6713 72.5987 54.5505C72.6523 54.4252 72.7105 54.291 72.7731 54.1478C72.8358 54.0002 72.885 53.8839 72.9208 53.7989C72.8045 53.5752 72.6859 53.3314 72.5651 53.0674C72.4443 52.799 72.3839 52.6402 72.3839 52.591C72.3839 52.5194 72.4488 52.4791 72.5785 52.4702L72.9677 52.4501C73.0304 52.4456 73.0729 52.4523 73.0952 52.4702C73.1176 52.4881 73.1445 52.5395 73.1758 52.6245C73.1981 52.6782 73.2295 52.7565 73.2697 52.8594C73.3145 52.9623 73.3503 53.0495 73.3771 53.1211L73.4174 53.2218C73.4308 53.2218 73.4576 53.1793 73.4979 53.0943C73.5381 53.0048 73.5851 52.8952 73.6388 52.7655C73.6925 52.6312 73.7305 52.5395 73.7529 52.4903C73.7887 52.4143 73.8468 52.3762 73.9274 52.3762C74.1242 52.4076 74.2674 52.4433 74.3568 52.4836C74.4463 52.5194 74.4911 52.5708 74.4911 52.6379C74.4911 52.6603 74.4799 52.7006 74.4575 52.7587C74.4351 52.8124 74.4061 52.8751 74.3703 52.9466C74.3345 53.0137 74.3121 53.0585 74.3032 53.0808L74.0012 53.7989L74.4575 54.8457C74.4575 54.8547 74.4687 54.8882 74.4911 54.9464C74.5179 55.0001 74.5313 55.0403 74.5313 55.0672C74.5313 55.1746 74.3546 55.2282 74.0012 55.2282C73.9922 55.2282 73.9788 55.2282 73.9609 55.2282C73.9475 55.2282 73.9363 55.2282 73.9274 55.2282C73.9229 55.2282 73.9139 55.2282 73.9005 55.2282C73.8871 55.2282 73.8782 55.226 73.8737 55.2215C73.8692 55.2171 73.8603 55.2126 73.8468 55.2081C73.8379 55.2036 73.8289 55.1969 73.82 55.188C73.8155 55.179 73.8088 55.1701 73.7999 55.1611C73.7909 55.1477 73.782 55.1343 73.773 55.1209C73.7641 55.103 73.7551 55.0851 73.7462 55.0672ZM75.9496 53.5372C75.9496 53.5282 75.9496 53.5059 75.9496 53.4701C75.9496 53.4298 75.9496 53.4052 75.9496 53.3962C75.9496 53.3873 75.9474 53.3694 75.9429 53.3426C75.9429 53.3112 75.9407 53.2934 75.9362 53.2889C75.9317 53.2799 75.925 53.2665 75.9161 53.2486C75.9116 53.2262 75.9026 53.2128 75.8892 53.2084C75.8758 53.2039 75.8601 53.1972 75.8422 53.1882C75.8243 53.1748 75.8042 53.1681 75.7818 53.1681C75.7595 53.1636 75.7326 53.1614 75.7013 53.1614C75.5582 53.1614 75.4172 53.2039 75.2786 53.2889C75.1443 53.3739 75.0728 53.4164 75.0638 53.4164C75.0101 53.4253 74.9497 53.3739 74.8826 53.262C74.8155 53.1502 74.7909 53.0518 74.8088 52.9668C74.8357 52.8057 74.9587 52.6782 75.1779 52.5843C75.4016 52.4903 75.5939 52.4433 75.755 52.4433C76.1129 52.4433 76.3791 52.5351 76.5536 52.7185C76.7325 52.8974 76.822 53.1502 76.822 53.4768C76.822 53.5305 76.8198 53.6177 76.8153 53.7385C76.8153 53.8593 76.8153 53.9532 76.8153 54.0203C76.8153 54.3648 76.8578 54.5863 76.9428 54.6847C76.983 54.7339 77.0323 54.7652 77.0904 54.7786C77.1486 54.7921 77.1776 54.8435 77.1776 54.933C77.1776 54.9956 77.1419 55.0694 77.0703 55.1544C76.9987 55.2349 76.9025 55.2752 76.7817 55.2752C76.6699 55.2752 76.5715 55.2461 76.4865 55.188C76.4015 55.1298 76.3433 55.0784 76.312 55.0336C76.2807 54.9844 76.265 54.9531 76.265 54.9397C76.265 54.9531 76.2449 54.9844 76.2046 55.0336C76.1643 55.0828 76.0861 55.1365 75.9697 55.1947C75.8534 55.2528 75.7192 55.2819 75.5671 55.2819C75.3479 55.2819 75.1533 55.2126 74.9833 55.0739C74.8178 54.9307 74.735 54.7406 74.735 54.5035C74.735 54.1859 74.8401 53.9465 75.0504 53.7855C75.2651 53.6199 75.5649 53.5372 75.9496 53.5372ZM75.9966 54.1009H75.8221C75.7147 54.1009 75.6163 54.1255 75.5268 54.1747C75.4418 54.2194 75.4016 54.2977 75.4061 54.4095C75.415 54.584 75.5313 54.6713 75.755 54.6713C75.934 54.6713 76.0234 54.6489 76.0234 54.6042C76.0011 54.3581 75.9899 54.2105 75.9899 54.1613C75.9899 54.1523 75.9899 54.1411 75.9899 54.1277C75.9943 54.1143 75.9966 54.1053 75.9966 54.1009Z" fill="#0B69B3"/>
</g>
<defs>
<clipPath id="clip0">
<rect width="83" height="73.821" fill="white"/>
</clipPath>
</defs>
</svg>
