<svg width="200" height="4460" viewBox="0 0 200 4460" fill="none" xmlns="http://www.w3.org/2000/svg">
<g clip-path="url(#clip0)">
<g opacity="0.16" clip-path="url(#clip1)">
<path d="M84.1 593.1C77.1 592.4 70.3 595.9 67 602.2C63.3 609.1 64.7 617.4 68.6 623.9C69.4 623 70.2 622.1 71 621.2C65.7 618 57 621.5 52.6 624.6C47.2 628.4 42.9 634.4 46.1 641C49.1 647.3 55.8 649.6 62.3 649.9C73.7 650.5 85.5 649.3 96.9 648.9C97.7 648.9 98.4 648.2 98.6 647.4C102 631.2 106.5 597.8 84.1 593.1C81.7 592.6 81 596.3 83.4 596.8C103 600.9 97.8 632.9 94.9 646.7C95.5 646.2 96 645.7 96.6 645.2C89.6 645.5 82.6 645.7 75.6 646C69.1 646.2 61 647.6 54.9 644.7C48.4 641.6 46.9 634.8 52.2 629.7C55.7 626.3 64.3 621.5 69.2 624.6C70.9 625.6 72.4 623.3 71.6 621.9C65.8 612 69.3 595.4 83.4 596.8C85.8 597 86.5 593.3 84.1 593.1Z" fill="#1770D9"/>
</g>
<g opacity="0.16" clip-path="url(#clip2)">
<path d="M78.1 2328.1C71.1 2327.4 64.3 2330.9 61 2337.2C57.3 2344.1 58.7 2352.4 62.6 2358.9C63.4 2358 64.2 2357.1 65 2356.2C59.7 2353 51 2356.5 46.6 2359.6C41.2 2363.4 36.9 2369.4 40.1 2376C43.1 2382.3 49.8 2384.6 56.3 2384.9C67.7 2385.5 79.5 2384.3 90.9 2383.9C91.7 2383.9 92.4 2383.2 92.6 2382.4C96 2366.2 100.5 2332.8 78.1 2328.1C75.7 2327.6 75 2331.3 77.4 2331.8C97 2335.9 91.8 2367.9 88.9 2381.7C89.5 2381.2 90 2380.7 90.6 2380.2C83.6 2380.5 76.6 2380.7 69.6 2381C63.1 2381.2 55 2382.6 48.9 2379.7C42.4 2376.6 40.9 2369.8 46.2 2364.7C49.7 2361.3 58.3 2356.5 63.2 2359.6C64.9 2360.6 66.4 2358.3 65.6 2356.9C59.8 2347 63.3 2330.4 77.4 2331.8C79.8 2332 80.5 2328.3 78.1 2328.1Z" fill="#1770D9"/>
</g>
<g opacity="0.07" clip-path="url(#clip3)">
<path d="M106.103 4238.83C104.99 4231.88 99.8675 4226.2 92.9331 4224.62C85.3163 4222.81 77.6503 4226.28 72.3638 4231.72C73.4385 4232.26 74.5131 4232.8 75.5878 4233.35C77.326 4227.4 71.7176 4219.89 67.5955 4216.43C62.5409 4212.18 55.6408 4209.56 50.0785 4214.34C44.7552 4218.85 44.245 4225.92 45.6172 4232.28C47.9525 4243.45 52.1301 4254.55 55.4321 4265.47C55.6367 4266.24 56.4924 4266.74 57.317 4266.73C73.8478 4265.87 107.288 4261.68 106.103 4238.83C105.973 4236.38 102.217 4236.65 102.347 4239.1C103.396 4259.09 71.1303 4262.25 57.0475 4262.97C57.6843 4263.43 58.2956 4263.78 58.9324 4264.23C56.8523 4257.54 54.8688 4250.83 52.7887 4244.14C50.9332 4237.9 47.5083 4230.43 48.752 4223.79C50.0867 4216.72 56.277 4213.53 62.5627 4217.35C66.7447 4219.86 73.5844 4226.95 71.8405 4232.48C71.3085 4234.38 73.9156 4235.24 75.0645 4234.11C83.1521 4225.97 100.095 4225.11 102.347 4239.1C102.768 4241.47 106.524 4241.2 106.103 4238.83Z" fill="#1770D9"/>
</g>
<g opacity="0.14">
<path d="M44.8396 357.855C48.3675 358.786 52.0399 358.502 55.0734 361.048C57.4742 363.148 58.923 366.214 59.7317 369.287C61.6195 376.091 60.1899 383.419 55.8546 388.983C53.4634 392.082 50.0194 394.648 45.9846 395.145C42.2473 395.584 38.9016 394 35.5036 392.759C30.1353 390.784 24.6549 389.946 19.5612 393.188C17.8267 394.284 19.6902 396.795 21.3923 395.777C29.6252 390.479 38.1089 399.59 46.7933 398.217C54.1328 397.009 59.5229 390.884 62.0953 384.308C64.4403 378.275 64.2275 371.17 61.6401 365.166C60.3914 362.274 58.5153 359.575 55.8296 357.721C52.6337 355.562 48.9938 355.768 45.3884 354.805C43.4306 354.258 42.9269 357.418 44.8396 357.855Z" fill="#1770D9"/>
<path d="M26.4369 363.723C21.6199 371.09 10.4788 362.232 4.41815 360.604C-1.565 359.009 -8.02994 359.217 -13.6013 362.076C-27.1385 369.162 -24.7518 385.651 -21.6269 397.985C-18.2966 411.133 -10.8487 424.458 2.81557 428.815C16.7124 433.269 29.4639 424.579 40.6611 417.425C44.9325 414.84 49.7779 409.581 46.4133 404.345C44.8923 401.885 42.082 400.982 39.5041 400.175C35.0011 398.744 31.3328 396.843 28.9036 392.637C27.8854 390.935 25.2961 392.766 26.3143 394.468C28.6534 398.454 32.372 401.106 36.6876 402.549C39.5755 403.485 42.6131 403.846 43.6869 406.938C45.1912 411.395 40.3897 413.94 37.0955 415.931C26.3131 422.53 14.3189 430.718 1.27149 424.888C-11.4658 419.188 -17.0189 405.473 -19.684 392.694C-20.9841 386.227 -22.1219 379.372 -19.6469 373.029C-17.0745 366.453 -10.4159 362.955 -3.60849 362.8C4.05893 362.549 9.62318 366.885 16.5491 369.057C21.0522 370.487 26.102 369.96 28.8703 365.744C29.9596 364.014 27.5263 361.992 26.4369 363.723Z" fill="#1770D9"/>
<path d="M47.511 367.357L47.556 367.467C47.8713 368.237 48.769 368.704 49.6164 368.421C50.3863 368.106 50.8534 367.208 50.5706 366.36L50.5256 366.25C50.2102 365.481 49.3126 365.013 48.4652 365.296C47.5853 365.657 47.1506 366.477 47.511 367.357Z" fill="#1770D9"/>
<path d="M27.4726 421.285C22.2645 420.014 21.9271 413.86 20.9654 409.63C20.254 406.325 18.9928 403.246 17.1816 400.391C14.1198 395.738 9.56843 392.465 3.88595 392.544C-8.18395 392.864 -18.2392 404.688 -12.9345 416.386C-12.0588 418.211 -9.15419 417.15 -9.99745 415.247C-16.2806 401.317 3.84183 388.517 13.5417 400.598C17.6563 405.784 17.4061 411.601 19.606 417.443C20.8924 420.898 23.3184 423.372 26.9238 424.335C28.914 424.804 29.4627 421.754 27.4726 421.285Z" fill="#1770D9"/>
<path d="M40.8114 368.559C42.6925 365.156 46.2067 363.074 46.15 358.859C46.1289 356.299 44.6457 354.403 42.9875 352.706C41.4969 351.261 39.7539 349.984 38.2633 348.54C36.2176 346.681 35.8142 344.599 34.3184 342.514C32.6225 340.255 30.0048 339.978 27.6879 341.377C20.802 345.417 22.6061 355.466 25.491 361.413C27.9055 366.524 35.457 376.339 40.714 368.792C41.7834 367.326 39.5501 365.48 38.5582 366.978C37.2165 368.876 34.0835 367.654 32.573 366.475C31.4627 365.645 30.5346 364.163 29.7416 363.011C27.943 360.344 26.7268 357.375 26.1381 354.212C25.7096 351.755 25.5534 348.865 26.605 346.572C27.799 344.157 29.9358 342.318 32.6195 345.265C33.0647 345.725 33.3727 346.947 33.6754 347.529C35.7118 350.934 39.6 352.745 42.0313 355.859C45.3655 360.08 40.3618 363.542 38.3184 367.333C37.339 369.018 39.942 370.199 40.8114 368.559Z" fill="#1770D9"/>
</g>
<g opacity="0.14">
<path d="M7.36481 1111.28C7.95921 1107.68 7.33033 1104.05 9.57933 1100.79C11.4427 1098.2 14.3594 1096.47 17.3417 1095.38C23.9377 1092.86 31.3679 1093.59 37.3161 1097.38C40.6261 1099.47 43.5057 1102.66 44.3805 1106.63C45.1698 1110.31 43.9086 1113.79 42.9933 1117.29C41.5327 1122.82 41.2153 1128.35 44.923 1133.12C46.1774 1134.74 48.5023 1132.65 47.3282 1131.05C41.2774 1123.35 49.5487 1114.05 47.3627 1105.53C45.4683 1098.34 38.8628 1093.55 32.0736 1091.61C25.8459 1089.84 18.7927 1090.73 13.0594 1093.87C10.2979 1095.38 7.78756 1097.51 6.19506 1100.35C4.3472 1103.74 4.89585 1107.34 4.27644 1111.02C3.9167 1113.02 7.11032 1113.23 7.36481 1111.28Z" fill="#1770D9"/>
<path d="M14.9408 1129.05C22.729 1133.15 14.9606 1145.08 13.9116 1151.26C12.8876 1157.37 13.7036 1163.79 17.0758 1169.07C25.4058 1181.87 41.5965 1177.94 53.5808 1173.67C66.357 1169.12 78.9201 1160.44 81.9697 1146.43C85.0944 1132.18 75.2409 1120.3 67.0628 1109.83C64.0874 1105.82 58.3947 1101.49 53.499 1105.33C51.1939 1107.08 50.559 1109.96 49.9991 1112.6C48.9992 1117.22 47.4524 1121.05 43.4936 1123.87C41.8951 1125.04 43.962 1127.45 45.5606 1126.27C49.3089 1123.57 51.5976 1119.62 52.6276 1115.19C53.2876 1112.22 53.3609 1109.16 56.338 1107.8C60.6333 1105.89 63.619 1110.43 65.912 1113.52C73.4983 1123.63 82.7798 1134.8 78.2059 1148.34C73.732 1161.56 60.6012 1168.38 48.1304 1172.23C41.8147 1174.14 35.0979 1175.92 28.5494 1174.05C21.7601 1172.11 17.6504 1165.81 16.8541 1159.05C15.8819 1151.44 19.6734 1145.49 21.1831 1138.39C22.1829 1133.77 21.1823 1128.8 16.724 1126.44C14.8985 1125.52 13.1154 1128.13 14.9408 1129.05Z" fill="#1770D9"/>
<path d="M16.5722 1107.73L16.6774 1107.67C17.4142 1107.29 17.7946 1106.35 17.4331 1105.53C17.0467 1104.79 16.1089 1104.41 15.292 1104.77L15.1867 1104.83C14.45 1105.22 14.0696 1106.15 14.431 1106.97C14.8727 1107.81 15.7302 1108.17 16.5722 1107.73Z" fill="#1770D9"/>
<path d="M72.1491 1122.59C71.3753 1127.9 65.2796 1128.81 61.1595 1130.17C57.9365 1131.19 54.9896 1132.74 52.3188 1134.81C47.9744 1138.29 45.1448 1143.13 45.7598 1148.78C47.216 1160.77 59.9353 1169.67 71.081 1163.28C72.815 1162.24 71.4848 1159.45 69.6706 1160.47C56.3948 1168.03 41.7544 1149.21 52.8674 1138.41C57.6424 1133.83 63.4577 1133.53 69.0659 1130.79C72.3838 1129.18 74.6181 1126.53 75.2375 1122.85C75.517 1120.83 72.4286 1120.57 72.1491 1122.59Z" fill="#1770D9"/>
<path d="M18.401 1114.28C14.8356 1112.73 12.4322 1109.43 8.2413 1109.88C5.69468 1110.14 3.94604 1111.8 2.41306 1113.61C1.11559 1115.23 0.00877513 1117.09 -1.28869 1118.71C-2.94676 1120.92 -4.98181 1121.52 -6.91593 1123.2C-9.00533 1125.1 -9.03381 1127.74 -7.4232 1129.91C-2.75183 1136.38 7.08267 1133.64 12.7306 1130.21C17.5918 1127.32 26.6508 1118.88 18.6417 1114.36C17.082 1113.43 15.4541 1115.83 17.0388 1116.68C19.0549 1117.83 18.1344 1121.07 17.1027 1122.68C16.3815 1123.86 14.9934 1124.93 13.9211 1125.83C11.4357 1127.87 8.59408 1129.36 5.50139 1130.24C3.09539 1130.9 0.233036 1131.33 -2.14881 1130.5C-4.66609 1129.54 -6.69768 1127.58 -4.01735 1124.63C-3.60154 1124.15 -2.41363 1123.73 -1.86238 1123.37C1.3347 1121.02 2.77106 1116.98 5.64205 1114.27C9.53013 1110.55 13.4484 1115.2 17.415 1116.88C19.1852 1117.7 20.116 1114.99 18.401 1114.28Z" fill="#1770D9"/>
</g>
<g opacity="0.14" clip-path="url(#clip4)">
<path d="M43.7475 3313.15C38.0125 3304.04 24.4092 3295.8 13.3285 3297.31C2.47001 3298.79 -7.7024 3311.27 -0.352467 3321.49C3.6729 3327.1 9.97034 3330.56 15.926 3333.79C20.8819 3336.55 26.2649 3338.72 32.1085 3337.86C44.4279 3336.17 49.0641 3323.7 43.7475 3313.15C42.7559 3311.19 39.6465 3312.72 40.732 3314.71C45.8434 3324.66 39.5666 3335.78 27.7676 3334.58C20.0696 3333.81 9.67907 3327.26 4.44908 3321.75C-5.02813 3311.81 6.36612 3299.78 17.6695 3300.59C25.5297 3301.21 36.356 3308.02 40.6038 3314.77C41.8516 3316.61 44.8671 3315.05 43.7475 3313.15Z" fill="#1770D9"/>
<path d="M23.5733 3337.63C27.8719 3342.49 32.965 3347.22 39.6805 3348.06C47.0281 3348.92 53.0417 3344.08 57.4232 3338.76C67.1943 3327.1 71.334 3310.73 65.2646 3296.39C58.9985 3281.13 43.6859 3270.57 27.5466 3268.43C11.3731 3266.38 -3.59325 3274.78 -11.9028 3288.57C-15.7117 3294.95 -19.4859 3303.58 -16.4597 3311.06C-13.5873 3318.38 -5.82897 3321.63 1.33102 3323.59C3.46704 3324.16 4.44023 3320.89 2.3042 3320.33C-5.64184 3318.19 -14.4513 3314.03 -14.0691 3304.48C-13.7123 3295.89 -7.81085 3286.97 -1.71209 3281.31C11.2712 3269 30.537 3268.98 45.2512 3278.27C59.9655 3287.55 68.3253 3304.95 62.9042 3321.92C60.4455 3329.86 54.9457 3339.14 47.4027 3343.21C38.9627 3347.69 31.4087 3341.54 26.0675 3335.45C24.6916 3333.68 22.1291 3336.04 23.5733 3337.63Z" fill="#1770D9"/>
<path d="M18.482 3269.07C14.5754 3260.2 2.16881 3254.53 -6.28782 3260.82C-13.7109 3266.31 -15.3313 3278.38 -8.96466 3285.17C-7.42643 3286.79 -4.86393 3284.42 -6.40216 3282.8C-11.4442 3277.35 -9.99427 3266.92 -3.46791 3263.01C3.47701 3258.83 12.5771 3263.95 15.4665 3270.64C16.3299 3272.65 19.3454 3271.09 18.482 3269.07Z" fill="#1770D9"/>
<path d="M-0.713184 3278.27C-1.9782 3275.89 -2.75635 3273.06 -0.67225 3270.84C1.60829 3268.37 5.19676 3269.03 6.66697 3272.01C7.62434 3274.06 10.674 3272.41 9.68248 3270.45C7.55407 3266.06 2.12001 3264.62 -1.9717 3267.38C-6.25985 3270.4 -6.05353 3275.69 -3.82267 3279.8C-2.73716 3281.79 0.372327 3280.26 -0.713184 3278.27Z" fill="#1770D9"/>
<path d="M65.8557 3302.67C74.5102 3301.98 82.1669 3309.02 80.2809 3318.02C78.5059 3326.42 70.4755 3328.61 63.0338 3327.71C60.7953 3327.43 60.7022 3330.91 62.9406 3331.19C72.6208 3332.37 82.667 3328.14 83.8434 3317.29C85.0114 3306.76 76.1839 3298.55 65.9147 3299.29C63.7276 3299.45 63.6344 3302.93 65.8557 3302.67Z" fill="#1770D9"/>
<path d="M66.9853 3310.1C69.9243 3310.21 73.513 3312.05 72.4374 3315.6C71.6008 3318.48 68.5681 3319.51 65.911 3319.5C63.6641 3319.54 63.6051 3322.92 65.8179 3322.98C70.4058 3322.94 75.3434 3320.48 75.9829 3315.5C76.631 3310.2 71.8458 3306.98 67.0442 3306.72C64.8656 3306.57 64.7725 3310.04 66.9853 3310.1Z" fill="#1770D9"/>
<path d="M19.0363 3300.34C17.3815 3311.34 29.7627 3317.96 38.262 3311.26C40.0387 3309.89 37.6715 3307.33 35.8948 3308.7C29.3687 3313.78 21.1997 3308.15 22.4196 3300.4C22.8548 3298.32 19.4117 3298.14 19.0363 3300.34Z" fill="#1770D9"/>
<path d="M24.1735 3310.51C21.7052 3314.08 19.237 3317.65 16.7688 3321.22C15.4877 3322.99 18.41 3324.9 19.7253 3323.04C22.1935 3319.47 24.6618 3315.9 27.13 3312.33C28.3171 3310.52 25.3606 3308.7 24.1735 3310.51Z" fill="#1770D9"/>
<path d="M7.73667 3314.75C9.96865 3323.54 21.5466 3329.45 30.0642 3327.97C32.2256 3327.58 31.5243 3324.24 29.2688 3324.59C22.6906 3325.71 12.7959 3320.74 11.1112 3313.95C10.5041 3311.82 7.22355 3312.65 7.73667 3314.75Z" fill="#1770D9"/>
<path d="M19.9226 3290.87C19.7944 3290.93 19.7005 3290.9 19.5723 3290.96C18.6497 3291.16 18.086 3292.12 18.2827 3293.04C18.4795 3293.97 19.445 3294.53 20.3677 3294.33C20.4958 3294.27 20.5898 3294.31 20.7179 3294.25C21.6406 3294.05 22.2042 3293.09 22.0075 3292.16C21.7168 3291.21 20.8452 3290.68 19.9226 3290.87Z" fill="#1770D9"/>
<path d="M40.542 3306.45C42.439 3307.67 44.2581 3304.72 42.3611 3303.5C40.524 3302.4 38.7049 3305.36 40.542 3306.45Z" fill="#1770D9"/>
<path d="M35.7415 3346.31C35.7279 3360.99 35.4925 3376.86 25.4652 3388.65C23.9961 3390.35 26.3633 3392.91 27.8324 3391.21C38.6712 3378.66 39.2995 3362.29 39.2786 3346.53C39.1841 3344.16 35.7068 3344.06 35.7415 3346.31Z" fill="#1770D9"/>
<path d="M0.0811609 3384.42C8.39272 3378.82 19.1832 3378.7 23.5857 3389.13C27.8684 3399.31 19.5157 3411.17 12.0415 3417.39C7.7706 3420.94 3.39693 3423.61 -2.39587 3422.57C-8.34249 3421.37 -14.247 3417.41 -15.12 3411.03C-15.9586 3405.73 -12.6876 3400.53 -10.0402 3396.17C-7.19625 3391.57 -3.79689 3387.48 0.49973 3384.15C2.27646 3382.77 -0.124872 3380.3 -1.86745 3381.59C-10.717 3388.37 -23.1612 3404.17 -17.2462 3416C-14.5451 3421.45 -8.59793 3425 -2.67699 3425.98C3.5259 3427.06 8.42935 3424.69 13.2128 3420.9C22.4552 3413.62 32.0036 3399.64 26.7293 3387.51C21.5149 3375.51 8.5711 3374.53 -1.3549 3381.35C-3.31961 3382.65 -1.75541 3385.67 0.0811609 3384.42Z" fill="#1770D9"/>
<path d="M-1.19681 3399.07C1.69055 3397.56 5.55223 3397.48 8.21832 3399.51C12.2174 3402.56 9.88637 3408.09 6.68317 3410.76C3.89854 3413.15 -3.35431 3415.84 -6.05511 3411.56C-8.69607 3407.41 -4.67351 3401.31 -1.19681 3399.07C0.605604 3397.91 -0.924441 3394.8 -2.76101 3396.05C-7.91199 3399.39 -12.5493 3407.18 -9.10477 3413.22C-5.81408 3419.09 3.14776 3417.56 7.69219 3414.43C12.5612 3410.98 16.1734 3403.68 11.9174 3398.41C8.49041 3394.07 1.95446 3393.62 -2.76101 3396.05C-4.71725 3397.04 -3.18721 3400.15 -1.19681 3399.07Z" fill="#1770D9"/>
<path d="M44.6612 3347.53C49.1752 3359.7 47.5043 3374.84 46.0891 3387.52C45.3047 3394.36 43.9482 3402.49 39.8401 3408.23C34.7157 3415.31 26.4369 3414.96 18.8326 3413.05C16.6966 3412.48 15.6893 3415.84 17.8595 3416.31C24.1736 3417.97 31.2991 3418.85 37.2446 3415.38C44.1895 3411.2 46.9214 3402.51 48.4489 3395.08C50.1983 3386.46 50.5635 3377.55 50.7665 3368.79C51.038 3361.02 50.515 3353.38 47.7707 3346C46.9757 3343.79 43.926 3345.45 44.6612 3347.53Z" fill="#1770D9"/>
<path d="M-5.73518 3320.49C-11.6801 3326.31 -17.992 3334.02 -18.887 3342.63C-19.7309 3350.52 -14.3894 3357.78 -8.27121 3362.02C-2.15299 3366.27 5.80999 3367.78 12.7809 3364.99C21.4774 3361.55 27.1223 3351.58 31.0334 3343.75C31.9727 3341.75 29.1102 3339.96 28.0769 3341.93C25.0368 3347.95 21.3476 3354.59 16.1371 3358.98C10.1151 3364.13 1.63982 3364.03 -4.93112 3360.15C-11.4081 3356.31 -17.0913 3348.82 -15.077 3340.93C-13.4382 3334.08 -8.21104 3327.89 -3.36799 3323.05C-1.83907 3321.48 -4.20626 3318.92 -5.73518 3320.49Z" fill="#1770D9"/>
<path d="M22.0358 3302.92C22.7798 3305.85 24.395 3308.14 26.7792 3310.07C28.2062 3311.12 30.0597 3309.24 29.2135 3307.76C28.8204 3307.09 27.8717 3305.89 28.1449 3305.14C27.6922 3305.51 27.3335 3305.91 26.8808 3306.28C26.6245 3306.4 27.5731 3307.59 27.5048 3307.78C27.7354 3307.44 28.06 3307.13 28.3247 3306.69C28.7605 3306.96 29.1365 3307.1 29.5723 3307.36C29.9141 3307.59 30.2217 3307.92 30.6575 3308.18C30.5977 3308.05 30.5977 3308.05 30.5378 3307.92C30.2646 3308.68 30.0854 3309.46 29.8122 3310.21C30.675 3309.89 31.6061 3309.38 32.4176 3308.61C32.5288 3309.18 32.64 3309.75 32.7853 3310.23C33.1613 3310.37 33.2211 3310.5 33.0331 3310.43C32.7255 3310.1 32.546 3309.72 32.2383 3309.39C32.2982 3309.52 32.358 3309.65 32.3239 3309.74C32.5288 3309.18 32.6397 3308.58 32.8105 3308.11C32.7763 3308.21 32.6482 3308.27 32.614 3308.36C31.1791 3309.97 33.4523 3312.49 34.9812 3310.92C36.7749 3308.91 35.0913 3306.81 32.682 3307C30.717 3307.14 27.9067 3309.31 30.2908 3311.24C32.1195 3312.65 35.323 3311.15 34.9123 3308.77C34.4672 3305.31 30.2384 3306.11 28.1198 3307.26C27.3168 3307.71 26.9412 3308.75 27.3942 3309.55C29.2062 3312.76 34.8271 3309.59 32.9553 3306.25C30.8441 3302.4 23.8221 3305.91 26.9925 3309.19C27.9753 3310.29 29.9062 3310.25 30.6064 3308.91C31.3408 3307.47 30.3834 3305.42 29.4007 3304.32C28.452 3303.12 26.3329 3301.93 25.0261 3303.47C23.6852 3305.12 25.1639 3307.78 26.01 3309.26C26.8215 3308.49 27.633 3307.72 28.4444 3306.95C26.8037 3305.61 25.8037 3303.97 25.2565 3301.96C24.8032 3299.99 21.4287 3300.78 22.0358 3302.92Z" fill="#1770D9"/>
</g>
<g opacity="0.14" clip-path="url(#clip5)">
<path d="M66.7156 884.645C62.9694 874.556 51.3446 863.701 40.1905 862.904C29.259 862.127 16.7449 872.252 21.8425 883.767C24.6318 890.085 30.0864 894.761 35.2538 899.142C39.5389 902.858 44.3629 906.084 50.2578 906.444C62.663 907.312 69.7564 896.061 66.7156 884.645C66.1462 882.527 62.7891 883.387 63.4435 885.557C66.4078 896.338 57.9835 905.94 46.6815 902.344C39.3061 900.007 30.4774 891.474 26.4897 885.001C19.2504 873.335 32.8694 863.895 43.7668 867.004C51.3326 869.224 60.5335 878.105 63.3058 885.59C64.1506 887.643 67.4227 886.73 66.7156 884.645Z" fill="#1770D9"/>
<path d="M41.9509 904.471C45.1617 910.109 49.1783 915.776 55.578 917.979C62.5931 920.329 69.4706 916.827 74.8505 912.515C86.8053 903.101 94.2133 887.927 91.2116 872.653C88.2066 856.435 75.3851 842.955 60.0275 837.551C44.6171 832.232 28.2479 837.379 17.2874 849.174C12.2508 854.641 6.78753 862.313 8.21527 870.258C9.52572 878.013 16.4541 882.779 23.0595 886.169C25.0346 887.158 26.6563 884.163 24.6811 883.174C17.3431 879.448 9.57337 873.571 11.9039 864.309C14.0152 855.97 21.6202 848.448 28.7493 844.162C43.9796 834.779 62.8406 838.707 75.3391 850.81C87.8376 862.913 92.4524 881.658 83.6676 897.155C79.6339 904.42 72.3484 912.375 64.1315 914.811C54.9508 917.473 48.818 909.905 44.8389 902.849C43.8564 900.828 40.863 902.62 41.9509 904.471Z" fill="#1770D9"/>
<path d="M51.0237 836.322C49.018 826.842 38.0391 818.741 28.4725 823.164C20.0805 827.02 16.0195 838.504 20.8605 846.448C22.0333 848.351 25.0267 846.56 23.8539 844.656C20.0362 838.288 23.594 828.375 30.7825 825.89C38.4368 823.223 46.2949 830.096 47.7515 837.235C48.1833 839.385 51.4554 838.472 51.0237 836.322Z" fill="#1770D9"/>
<path d="M30.3505 841.389C29.5992 838.805 29.4191 835.87 31.9144 834.122C34.6528 832.173 38.0286 833.56 38.8564 836.779C39.3731 838.982 42.698 837.984 42.1285 835.866C40.9455 831.133 35.9226 828.607 31.3501 830.478C26.5346 832.552 25.6523 837.77 26.9934 842.249C27.6478 844.42 31.0049 843.56 30.3505 841.389Z" fill="#1770D9"/>
<path d="M90.5028 878.92C99.114 880.023 105.165 888.481 101.475 896.901C98.0156 904.757 89.707 905.253 82.6069 902.851C80.4737 902.117 79.6696 905.501 81.8029 906.236C91.0362 909.372 101.735 907.298 105.111 896.919C108.414 886.848 101.456 877.004 91.2542 875.621C89.0801 875.332 88.2761 878.716 90.5028 878.92Z" fill="#1770D9"/>
<path d="M90.0846 886.426C92.9385 887.137 96.0746 889.67 94.2949 892.92C92.884 895.575 89.7054 895.957 87.1064 895.405C84.9 894.978 84.1487 898.277 86.3023 898.789C90.8 899.695 96.1374 898.298 97.7846 893.554C99.5049 888.502 95.4832 884.361 90.8359 883.127C88.735 882.53 87.9309 885.915 90.0846 886.426Z" fill="#1770D9"/>
<path d="M45.1556 867.041C41.2816 877.464 52.0412 886.489 61.7336 881.673C63.7546 880.691 61.9631 877.698 59.942 878.68C52.5138 882.311 45.6722 875.127 48.4549 867.793C49.3065 865.85 45.9749 864.961 45.1556 867.041Z" fill="#1770D9"/>
<path d="M48.0995 878.044C44.9514 881.034 41.8033 884.024 38.6553 887.014C37.0387 888.483 39.5068 890.954 41.176 889.401C44.3241 886.411 47.4722 883.421 50.6203 880.431C52.1518 878.91 49.631 876.523 48.0995 878.044Z" fill="#1770D9"/>
<path d="M31.1422 878.826C31.5245 887.887 41.6451 896.045 50.2852 896.342C52.4796 896.409 52.478 892.995 50.1985 892.876C43.5302 892.625 34.8664 885.724 34.6081 878.739C34.4517 876.524 31.0708 876.663 31.1422 878.826Z" fill="#1770D9"/>
<path d="M47.9637 857.958C47.826 857.99 47.741 857.937 47.6033 857.97C46.66 857.973 45.9103 858.802 45.9137 859.746C45.9171 860.689 46.7466 861.439 47.69 861.435C47.8277 861.403 47.9127 861.456 48.0504 861.424C48.9937 861.42 49.7434 860.591 49.74 859.647C49.6516 858.651 48.9071 857.954 47.9637 857.958Z" fill="#1770D9"/>
<path d="M64.9513 877.432C66.5576 879.016 68.9442 876.496 67.3379 874.911C65.7639 873.465 63.3773 875.986 64.9513 877.432Z" fill="#1770D9"/>
<path d="M13.9928 876.311C-1.31058 880.119 -17.0882 884.691 -26.6328 898.187C-27.8771 900.004 -24.8821 901.626 -23.6378 899.809C-14.6201 887.163 0.703654 883.133 14.9056 879.584C17.1085 879.067 16.1958 875.795 13.9928 876.311Z" fill="#1770D9"/>
<path d="M52.0816 915.458C49.0592 929.822 45.5744 945.31 33.3442 954.788C31.5577 956.151 33.3492 959.145 35.1357 957.782C48.3179 947.717 52.2888 931.824 55.4982 916.4C55.8926 914.056 52.5083 913.252 52.0816 915.458Z" fill="#1770D9"/>
<path d="M-9.7472 924.659C-5.62163 913.45 -9.60922 901.094 -22.475 898.883C-35.6162 896.736 -46.7756 909.231 -51.666 919.965C-54.1478 925.486 -55.2732 930.907 -52.783 936.569C-50.3575 941.955 -45.474 946.983 -39.5757 948.287C-26.6657 950.997 -14.3623 935.328 -9.873 925.051C-8.96867 923.023 -12.0487 921.349 -12.868 923.43C-16.3476 931.509 -24.8502 942.945 -34.0224 945.024C-40.3032 946.424 -45.9482 941.865 -48.8922 936.746C-52.0707 931.245 -50.5324 925.727 -47.8806 920.312C-43.7771 911.796 -34.7408 901.397 -24.3924 902.165C-12.5703 903.024 -9.4037 914.047 -12.9938 923.822C-13.8132 925.903 -10.5138 926.654 -9.7472 924.659Z" fill="#1770D9"/>
<path d="M9.36516 945.451C18.6478 941.676 29.2342 943.769 31.4047 954.88C33.5106 965.716 22.9037 975.613 14.3129 980.17C9.40378 982.774 4.57631 984.487 -0.880037 982.281C-6.45367 979.884 -11.4221 974.803 -10.9682 968.378C-10.7013 963.013 -6.4347 958.599 -2.95005 954.876C0.777675 950.952 4.94224 947.651 9.83091 945.269C11.852 944.287 10.0077 941.378 8.03936 942.276C-2.01336 947.103 -17.4325 960.016 -14.0687 972.809C-12.5424 978.697 -7.4481 983.385 -1.85407 985.56C3.99493 987.892 9.27964 986.58 14.7394 983.846C25.2783 978.615 37.4899 966.889 34.8145 953.935C32.1715 941.119 19.7035 937.506 8.59009 942.147C6.39903 943.024 7.31179 946.296 9.36516 945.451Z" fill="#1770D9"/>
<path d="M5.112 959.522C8.24645 958.641 12.0438 959.348 14.2365 961.885C17.5256 965.689 14.1089 970.63 10.4271 972.583C7.21106 974.354 -0.43807 975.495 -2.20411 970.752C-3.93785 966.147 1.24832 961.009 5.112 959.522C7.11268 958.762 6.25262 955.405 4.19924 956.25C-1.52743 958.464 -7.66211 965.133 -5.52894 971.75C-3.51305 978.177 5.5724 978.515 10.6633 976.377C16.1351 974.004 21.1683 967.594 18.0832 961.563C15.6168 956.622 9.31398 954.832 4.19924 956.25C2.08128 956.819 2.94134 960.176 5.112 959.522Z" fill="#1770D9"/>
<path d="M10.3332 869.689C-6.36734 868.159 -25.4409 872.923 -40.1035 881.011C-51.9836 887.647 -62.458 904.92 -49.0314 915.715C-47.3197 917.13 -44.9331 914.609 -46.6448 913.195C-53.087 908.024 -53.0444 899.226 -48.6792 892.755C-44.2086 886.113 -36.6105 882.588 -29.3166 879.933C-16.624 875.213 -3.24824 871.858 10.3876 873.017C12.5616 873.306 12.4223 869.925 10.3332 869.689Z" fill="#1770D9"/>
<path d="M60.5619 918.481C62.4842 931.321 57.745 945.797 53.7605 957.916C51.5897 964.454 48.5963 972.128 43.3982 976.906C36.9321 982.781 28.9005 980.742 21.8498 977.312C19.8746 976.323 18.2003 979.403 20.2281 980.307C26.0686 983.222 32.861 985.551 39.3934 983.365C47.0477 980.698 51.5029 972.754 54.5202 965.8C57.9998 957.721 60.1842 949.074 62.1781 940.544C64.0378 932.99 65.0918 925.407 63.919 917.621C63.5927 915.3 60.2679 916.298 60.5619 918.481Z" fill="#1770D9"/>
<path d="M16.7788 881.686C9.76704 886.164 2.00905 892.414 -0.632554 900.659C-3.07527 908.205 0.664193 916.406 5.78224 921.815C10.9003 927.224 18.3845 930.335 25.7787 929.036C34.995 927.456 42.5644 918.853 47.9987 911.986C49.328 910.221 46.8922 907.888 45.4779 909.599C41.2675 914.872 36.2955 920.614 30.2968 923.837C23.3463 927.646 15.0716 925.81 9.43513 920.668C3.88364 915.579 -0.143092 907.081 3.44529 899.775C6.45403 893.405 12.8386 888.421 18.5704 884.68C20.3892 883.454 18.5976 880.461 16.7788 881.686Z" fill="#1770D9"/>
<path d="M47.5624 870.181C47.6899 873.201 48.8015 875.773 50.7393 878.151C51.9206 879.472 54.1202 878.012 53.595 876.392C53.3485 875.651 52.6652 874.286 53.0868 873.606C52.5683 873.873 52.1349 874.192 51.6164 874.459C51.3411 874.524 52.0244 875.889 51.919 876.059C52.2147 875.771 52.5955 875.537 52.944 875.164C53.3162 875.513 53.6562 875.724 54.0284 876.072C54.3157 876.368 54.5503 876.749 54.9225 877.097C54.8902 876.96 54.8902 876.96 54.8579 876.822C54.4364 877.502 54.0998 878.234 53.6782 878.914C54.5893 878.773 55.6058 878.462 56.5577 877.876C56.5492 878.459 56.5407 879.042 56.5849 879.54C56.9248 879.751 56.9571 879.888 56.7872 879.783C56.5526 879.402 56.4557 878.989 56.2211 878.608C56.2534 878.746 56.2857 878.884 56.233 878.969C56.5492 878.459 56.7804 877.896 57.0439 877.471C56.9912 877.556 56.8535 877.588 56.8008 877.673C55.067 878.952 56.7735 881.892 58.5923 880.667C60.7596 879.069 59.5426 876.667 57.1459 876.358C55.1945 876.089 51.9988 877.638 53.9366 880.016C55.4375 881.77 58.8796 880.963 58.9663 878.545C59.24 875.068 54.9361 874.988 52.6278 875.674C51.749 875.953 51.1693 876.888 51.4481 877.767C52.5631 881.282 58.7148 879.331 57.5674 875.678C56.2909 871.474 48.6979 873.473 51.1285 877.333C51.8645 878.613 53.7632 878.967 54.7236 877.798C55.7367 876.543 55.22 874.34 54.484 873.06C53.8007 871.695 51.9717 870.091 50.3756 871.336C48.7268 872.667 49.6276 875.579 50.1529 877.199C51.1048 876.613 52.0567 876.026 53.0086 875.44C51.6776 873.791 51.0351 871.981 50.9111 869.904C50.872 867.879 47.4061 867.966 47.5624 870.181Z" fill="#1770D9"/>
</g>
<g opacity="0.09">
<path d="M85.7505 128.343C81.4387 125.45 76.7007 124.368 71.8374 126.68C72.7149 127.246 73.6575 127.887 74.6111 128.388C75.573 117.966 62.8196 110.579 56.0995 120.264C57.1941 120.776 58.3536 121.363 59.4482 121.875C62.1291 108.539 53.9096 94.9117 39.6812 93.6502C26.2226 92.5202 15.6371 104.454 17.8591 117.68C19.0314 117.205 20.1925 116.871 21.3648 116.396C16.6714 108.437 6.6143 97.4317 -3.65408 101.731C-13.7704 105.9 -14.4964 117.83 -9.9234 126.417C-9.01092 125.638 -8.16338 124.782 -7.2509 124.003C-15.2346 118.197 -26.6417 116.235 -31.4547 126.922C-35.4834 135.754 -30.3132 143.964 -22.011 147.525C-16.1689 149.9 -9.46654 150.356 -3.25208 150.703C4.57816 151.249 12.3973 151.935 20.2276 152.48C38.0567 153.954 56.5907 155.484 74.393 153.693C80.8261 153.064 88.1622 150.875 90.9395 144.426C93.6184 138.324 90.4726 132.331 85.7505 128.343C83.8877 126.777 81.8647 129.952 83.7275 131.517C87.3883 134.571 89.7547 139.652 86.9919 144.116C84.8817 147.496 80.8659 148.953 77.2636 149.663C69.484 151.178 61.0898 150.589 53.2912 150.543C36.8592 150.242 20.733 148.761 4.45475 147.409C-5.13226 146.654 -22.2835 148.284 -27.8085 138.274C-30.0467 134.267 -29.191 128.802 -26.0179 125.434C-20.9216 120.161 -14.2352 123.524 -9.27394 127.178C-7.73582 128.363 -5.73659 126.392 -6.60145 124.763C-10.3096 117.804 -10.1697 106.112 -0.134308 104.774C7.536 103.746 14.6467 112.533 18.0967 118.266C19.1564 120.123 21.935 119.065 21.6024 116.982C19.8318 106.132 28.7428 96.5487 39.5876 97.5439C51.1373 98.5947 58.1244 109.855 55.979 120.893C55.6067 122.92 58.0446 124.389 59.3278 122.504C64.0471 115.712 71.4985 121.972 70.9233 128.382C70.7363 129.856 72.4376 130.77 73.697 130.089C77.2359 128.382 80.694 129.505 83.7925 131.593C85.6775 132.876 87.7005 129.702 85.7505 128.343Z" fill="#1770D9"/>
</g>
<g opacity="0.09">
<path d="M71.7457 729.301C67.4338 726.408 62.6958 725.326 57.8325 727.639C58.71 728.204 59.6526 728.846 60.6062 729.346C61.5682 718.925 48.8148 711.537 42.0946 721.222C43.1892 721.734 44.3487 722.322 45.4433 722.834C48.1242 709.497 39.9048 695.87 25.6763 694.609C12.2177 693.479 1.63224 705.413 3.85422 718.639C5.02648 718.164 6.18765 717.829 7.35991 717.354C2.66651 709.395 -7.39058 698.39 -17.659 702.689C-27.7753 706.858 -28.5013 718.788 -23.9283 727.376C-23.0158 726.596 -22.1683 725.741 -21.2558 724.962C-29.2395 719.155 -40.6466 717.194 -45.4595 727.88C-49.4883 736.713 -44.3181 744.922 -36.0159 748.483C-30.1738 750.858 -23.4714 751.315 -17.257 751.662C-9.42672 752.207 -1.60757 752.893 6.22267 753.439C24.0518 754.913 42.5858 756.442 60.3882 754.651C66.8213 754.022 74.1574 751.833 76.9346 745.385C79.6135 739.283 76.4677 733.29 71.7457 729.301C69.8828 727.736 67.8598 730.91 69.7226 732.475C73.3834 735.53 75.7498 740.61 72.987 745.074C70.8768 748.454 66.861 749.912 63.2587 750.621C55.4791 752.137 47.0849 751.547 39.2863 751.501C22.8544 751.201 6.72815 749.719 -9.55013 748.367C-19.1371 747.613 -36.2884 749.242 -41.8134 739.232C-44.0516 735.226 -43.1959 729.761 -40.0228 726.393C-34.9265 721.12 -28.2401 724.483 -23.2788 728.136C-21.7407 729.321 -19.7415 727.35 -20.6063 725.722C-24.3145 718.763 -24.1746 707.071 -14.1392 705.732C-6.46888 704.705 0.641846 713.492 4.09181 719.225C5.15151 721.082 7.93008 720.023 7.5975 717.94C5.8269 707.091 14.7379 697.507 25.5827 698.502C37.1324 699.553 44.1195 710.813 41.9742 721.851C41.6018 723.879 44.0397 725.348 45.3229 723.462C50.0422 716.67 57.4937 722.931 56.9184 729.34C56.7314 730.815 58.4327 731.729 59.6921 731.048C63.2311 729.34 66.6891 730.464 69.7876 732.552C71.6726 733.835 73.6956 730.66 71.7457 729.301Z" fill="#1770D9"/>
</g>
<g opacity="0.12">
<path d="M165.746 1516.3C161.434 1513.41 156.696 1512.33 151.832 1514.64C152.71 1515.2 153.653 1515.85 154.606 1516.35C155.568 1505.92 142.815 1498.54 136.095 1508.22C137.189 1508.73 138.349 1509.32 139.443 1509.83C142.124 1496.5 133.905 1482.87 119.676 1481.61C106.218 1480.48 95.6322 1492.41 97.8542 1505.64C99.0265 1505.16 100.188 1504.83 101.36 1504.35C96.6665 1496.4 86.6094 1485.39 76.341 1489.69C66.2247 1493.86 65.4987 1505.79 70.0717 1514.38C70.9842 1513.6 71.8317 1512.74 72.7442 1511.96C64.7605 1506.16 53.3534 1504.19 48.5405 1514.88C44.5117 1523.71 49.6819 1531.92 57.9841 1535.48C63.8262 1537.86 70.5286 1538.31 76.743 1538.66C84.5733 1539.21 92.3924 1539.89 100.223 1540.44C118.052 1541.91 136.586 1543.44 154.388 1541.65C160.821 1541.02 168.157 1538.83 170.935 1532.38C173.614 1526.28 170.468 1520.29 165.746 1516.3C163.883 1514.74 161.86 1517.91 163.723 1519.48C167.383 1522.53 169.75 1527.61 166.987 1532.07C164.877 1535.45 160.861 1536.91 157.259 1537.62C149.479 1539.14 141.085 1538.55 133.286 1538.5C116.854 1538.2 100.728 1536.72 84.4499 1535.37C74.8629 1534.61 57.7116 1536.24 52.1866 1526.23C49.9484 1522.23 50.8041 1516.76 53.9772 1513.39C59.0735 1508.12 65.7599 1511.48 70.7212 1515.14C72.2593 1516.32 74.2585 1514.35 73.3937 1512.72C69.6855 1505.76 69.8254 1494.07 79.8608 1492.73C87.5311 1491.7 94.6418 1500.49 98.0918 1506.22C99.1515 1508.08 101.93 1507.02 101.598 1504.94C99.8269 1494.09 108.738 1484.51 119.583 1485.5C131.132 1486.55 138.119 1497.81 135.974 1508.85C135.602 1510.88 138.04 1512.35 139.323 1510.46C144.042 1503.67 151.494 1509.93 150.918 1516.34C150.731 1517.81 152.433 1518.73 153.692 1518.05C157.231 1516.34 160.689 1517.46 163.788 1519.55C165.673 1520.83 167.696 1517.66 165.746 1516.3Z" fill="#1770D9"/>
</g>
<g opacity="0.12">
<path d="M72.7457 2116.3C68.4338 2113.41 63.6958 2112.33 58.8325 2114.64C59.71 2115.2 60.6526 2115.85 61.6062 2116.35C62.5682 2105.92 49.8148 2098.54 43.0946 2108.22C44.1892 2108.73 45.3487 2109.32 46.4433 2109.83C49.1242 2096.5 40.9048 2082.87 26.6763 2081.61C13.2177 2080.48 2.63224 2092.41 4.85422 2105.64C6.02648 2105.16 7.18765 2104.83 8.35991 2104.35C3.66651 2096.4 -6.39058 2085.39 -16.659 2089.69C-26.7753 2093.86 -27.5013 2105.79 -22.9283 2114.38C-22.0158 2113.6 -21.1683 2112.74 -20.2558 2111.96C-28.2395 2106.16 -39.6466 2104.19 -44.4595 2114.88C-48.4883 2123.71 -43.3181 2131.92 -35.0159 2135.48C-29.1738 2137.86 -22.4714 2138.31 -16.257 2138.66C-8.42672 2139.21 -0.607574 2139.89 7.22267 2140.44C25.0518 2141.91 43.5858 2143.44 61.3882 2141.65C67.8213 2141.02 75.1574 2138.83 77.9346 2132.38C80.6135 2126.28 77.4677 2120.29 72.7457 2116.3C70.8828 2114.74 68.8598 2117.91 70.7226 2119.48C74.3834 2122.53 76.7498 2127.61 73.987 2132.07C71.8768 2135.45 67.861 2136.91 64.2587 2137.62C56.4791 2139.14 48.0849 2138.55 40.2863 2138.5C23.8544 2138.2 7.72815 2136.72 -8.55013 2135.37C-18.1371 2134.61 -35.2884 2136.24 -40.8134 2126.23C-43.0516 2122.23 -42.1959 2116.76 -39.0228 2113.39C-33.9265 2108.12 -27.2401 2111.48 -22.2788 2115.14C-20.7407 2116.32 -18.7415 2114.35 -19.6063 2112.72C-23.3145 2105.76 -23.1746 2094.07 -13.1392 2092.73C-5.46888 2091.7 1.64185 2100.49 5.09181 2106.22C6.15151 2108.08 8.93008 2107.02 8.5975 2104.94C6.8269 2094.09 15.7379 2084.51 26.5827 2085.5C38.1324 2086.55 45.1195 2097.81 42.9742 2108.85C42.6018 2110.88 45.0397 2112.35 46.3229 2110.46C51.0422 2103.67 58.4937 2109.93 57.9184 2116.34C57.7314 2117.81 59.4327 2118.73 60.6921 2118.05C64.2311 2116.34 67.6891 2117.46 70.7876 2119.55C72.6726 2120.83 74.6956 2117.66 72.7457 2116.3Z" fill="#1770D9"/>
</g>
<path d="M91.5999 486.2C87.9999 483.6 81.4999 487.3 78.1999 488.8C73.8999 490.8 69.5999 492.9 65.3999 495.3C66.1999 495.3 66.8999 495.4 67.6999 495.4C62.7999 491.7 47.5999 479.9 42.1999 487.5C38.5999 492.6 42.4999 501.2 44.1999 506.3C45.6999 510.6 46.1999 510.4 42.9999 513.4C40.0999 516.2 36.7999 518.7 33.7999 521.5C31.2999 523.9 26.1999 529.1 30.5999 532.3C34.4999 535.1 41.9999 532.3 46.0999 531.2C48.3999 530.6 50.6999 529.9 52.9999 529.2C51.2999 529.7 51.6999 528 51.9999 529.2C52.0999 529.7 52.4999 530.2 52.6999 530.6C53.3999 532.1 54.0999 533.5 54.8999 535C56.5999 538.2 59.7999 546.3 64.3999 546.3C68.8999 546.3 69.5999 538.1 70.1999 535C71.0999 529.6 71.5999 524.2 71.8999 518.8C71.1999 519.3 70.4999 519.8 69.6999 520.3C73.8999 521.1 78.1999 521.7 82.4999 522.1C85.9999 522.5 92.9999 524 96.0999 521.6C102.1 517 84.5999 506.5 81.5999 504.5C81.6999 505.4 81.7999 506.3 81.8999 507.1C84.3999 504 86.7999 500.7 88.8999 497.3C90.5999 494.6 94.0999 489.7 91.7999 486.5C90.3999 484.5 87.2999 486.7 88.6999 488.7C89.8999 490.4 84.3999 497.4 83.4999 498.6C82.0999 500.7 80.4999 502.7 78.8999 504.7C78.2999 505.4 78.2999 506.8 79.1999 507.3C81.7999 509 84.2999 510.8 86.6999 512.7C88.4999 514.1 90.2999 515.5 91.8999 517.1C92.4999 517.7 93.1999 519.5 93.8999 518.5C93.6999 518.8 92.3999 518.8 91.9999 518.8C84.6999 518.5 77.4999 517.8 70.2999 516.5C69.3999 516.3 68.1999 517 68.0999 518C67.8999 521.1 67.5999 524.3 67.2999 527.4C66.8999 531.5 66.8999 537.8 64.5999 541.4C63.7999 542.7 64.4999 542.3 63.6999 541.9C62.9999 541.6 62.2999 540.2 61.7999 539.6C60.0999 537.2 58.7999 534.6 57.4999 531.9C56.5999 530.1 55.4999 525.9 53.1999 525.4C50.1999 524.8 45.0999 527.5 42.2999 528.2C39.8999 528.8 37.2999 529.5 34.6999 529.4C30.9999 529.3 33.3999 527 34.9999 525.3C39.0999 521 44.4999 517.8 48.0999 513.1C50.8999 509.5 46.8999 503.7 45.6999 499.8C45.0999 497.6 42.6999 490.8 45.3999 489.1C47.4999 487.8 51.6999 490.2 53.4999 491.1C57.4999 493.1 61.2999 495.5 64.8999 498.2C65.5999 498.7 66.3999 498.7 67.1999 498.3C70.1999 496.6 73.1999 495.1 76.2999 493.6C78.0999 492.7 86.8999 487.7 88.7999 489.1C91.1999 490.5 93.5999 487.6 91.5999 486.2Z" fill="#1770D9" fill-opacity="0.13"/>
<g clip-path="url(#clip6)">
<path d="M109.435 1209.92C106.65 1207.93 101.62 1210.76 99.0672 1211.91C95.7401 1213.45 92.4131 1215.06 89.1635 1216.9C89.7825 1216.9 90.3241 1216.97 90.9431 1216.97C87.1518 1214.14 75.3912 1205.09 71.2131 1210.92C68.4277 1214.83 71.4453 1221.42 72.7606 1225.33C73.9212 1228.63 74.308 1228.47 71.8321 1230.77C69.5883 1232.92 67.035 1234.84 64.7139 1236.99C62.7796 1238.83 58.8336 1242.81 62.238 1245.27C65.2555 1247.41 71.0584 1245.27 74.2307 1244.42C76.0102 1243.96 77.7898 1243.43 79.5693 1242.89C78.254 1243.27 78.5635 1241.97 78.7956 1242.89C78.873 1243.27 79.1825 1243.66 79.3372 1243.96C79.8788 1245.11 80.4204 1246.19 81.0394 1247.34C82.3547 1249.79 84.8307 1256 88.3898 1256C91.8715 1256 92.4131 1249.71 92.8774 1247.34C93.5737 1243.2 93.9606 1239.06 94.1927 1234.92C93.6511 1235.3 93.1095 1235.68 92.4905 1236.07C95.7401 1236.68 99.0672 1237.14 102.394 1237.45C105.102 1237.75 110.518 1238.9 112.917 1237.06C117.559 1233.54 104.019 1225.48 101.698 1223.95C101.775 1224.64 101.853 1225.33 101.93 1225.94C103.864 1223.57 105.721 1221.04 107.346 1218.43C108.661 1216.36 111.369 1212.6 109.59 1210.15C108.507 1208.62 106.108 1210.3 107.191 1211.84C108.12 1213.14 103.864 1218.51 103.168 1219.43C102.085 1221.04 100.847 1222.57 99.6088 1224.1C99.1445 1224.64 99.1445 1225.71 99.8409 1226.1C101.853 1227.4 103.787 1228.78 105.644 1230.24C107.036 1231.31 108.429 1232.39 109.667 1233.61C110.131 1234.07 110.673 1235.45 111.215 1234.69C111.06 1234.92 110.054 1234.92 109.745 1234.92C104.096 1234.69 98.5255 1234.15 92.9547 1233.15C92.2584 1233 91.3299 1233.54 91.2526 1234.3C91.0978 1236.68 90.8657 1239.13 90.6336 1241.51C90.3241 1244.65 90.3241 1249.48 88.5445 1252.24C87.9255 1253.24 88.4672 1252.93 87.8482 1252.63C87.3066 1252.4 86.765 1251.32 86.3781 1250.86C85.0628 1249.02 84.0569 1247.03 83.0511 1244.96C82.3547 1243.58 81.5036 1240.36 79.7241 1239.98C77.4029 1239.52 73.4569 1241.59 71.2905 1242.12C69.4336 1242.58 67.4219 1243.12 65.4102 1243.04C62.5474 1242.97 64.4044 1241.2 65.6423 1239.9C68.8146 1236.6 72.9927 1234.15 75.7781 1230.54C77.9445 1227.78 74.8496 1223.34 73.9212 1220.35C73.4569 1218.66 71.6 1213.45 73.6891 1212.14C75.3139 1211.15 78.5635 1212.99 79.9562 1213.68C83.0511 1215.21 85.9912 1217.05 88.7766 1219.12C89.3182 1219.5 89.9372 1219.5 90.5562 1219.2C92.8774 1217.89 95.1985 1216.74 97.5971 1215.59C98.9898 1214.9 105.799 1211.07 107.269 1212.14C109.126 1213.22 110.982 1210.99 109.435 1209.92Z" fill="#1770D9" fill-opacity="0.13"/>
</g>
<g clip-path="url(#clip7)">
<path d="M46.6 1792.2C43 1789.6 36.5 1793.3 33.2 1794.8C28.9 1796.8 24.6 1798.9 20.4 1801.3C21.2 1801.3 21.9 1801.4 22.7 1801.4C17.8 1797.7 2.6 1785.9 -2.8 1793.5C-6.4 1798.6 -2.5 1807.2 -0.799999 1812.3C0.700001 1816.6 1.2 1816.4 -2 1819.4C-4.9 1822.2 -8.2 1824.7 -11.2 1827.5C-13.7 1829.9 -18.8 1835.1 -14.4 1838.3C-10.5 1841.1 -3 1838.3 1.1 1837.2C3.4 1836.6 5.7 1835.9 8 1835.2C6.3 1835.7 6.7 1834 7 1835.2C7.1 1835.7 7.5 1836.2 7.7 1836.6C8.4 1838.1 9.1 1839.5 9.9 1841C11.6 1844.2 14.8 1852.3 19.4 1852.3C23.9 1852.3 24.6 1844.1 25.2 1841C26.1 1835.6 26.6 1830.2 26.9 1824.8C26.2 1825.3 25.5 1825.8 24.7 1826.3C28.9 1827.1 33.2 1827.7 37.5 1828.1C41 1828.5 48 1830 51.1 1827.6C57.1 1823 39.6 1812.5 36.6 1810.5C36.7 1811.4 36.8 1812.3 36.9 1813.1C39.4 1810 41.8 1806.7 43.9 1803.3C45.6 1800.6 49.1 1795.7 46.8 1792.5C45.4 1790.5 42.3 1792.7 43.7 1794.7C44.9 1796.4 39.4 1803.4 38.5 1804.6C37.1 1806.7 35.5 1808.7 33.9 1810.7C33.3 1811.4 33.3 1812.8 34.2 1813.3C36.8 1815 39.3 1816.8 41.7 1818.7C43.5 1820.1 45.3 1821.5 46.9 1823.1C47.5 1823.7 48.2 1825.5 48.9 1824.5C48.7 1824.8 47.4 1824.8 47 1824.8C39.7 1824.5 32.5 1823.8 25.3 1822.5C24.4 1822.3 23.2 1823 23.1 1824C22.9 1827.1 22.6 1830.3 22.3 1833.4C21.9 1837.5 21.9 1843.8 19.6 1847.4C18.8 1848.7 19.5 1848.3 18.7 1847.9C18 1847.6 17.3 1846.2 16.8 1845.6C15.1 1843.2 13.8 1840.6 12.5 1837.9C11.6 1836.1 10.5 1831.9 8.2 1831.4C5.2 1830.8 0.100001 1833.5 -2.7 1834.2C-5.1 1834.8 -7.7 1835.5 -10.3 1835.4C-14 1835.3 -11.6 1833 -10 1831.3C-5.9 1827 -0.5 1823.8 3.1 1819.1C5.9 1815.5 1.9 1809.7 0.700001 1805.8C0.100001 1803.6 -2.3 1796.8 0.4 1795.1C2.5 1793.8 6.7 1796.2 8.5 1797.1C12.5 1799.1 16.3 1801.5 19.9 1804.2C20.6 1804.7 21.4 1804.7 22.2 1804.3C25.2 1802.6 28.2 1801.1 31.3 1799.6C33.1 1798.7 41.9 1793.7 43.8 1795.1C46.2 1796.5 48.6 1793.6 46.6 1792.2Z" fill="#1770D9" fill-opacity="0.13"/>
</g>
<path d="M99.5511 3522.42C101.285 3518.33 96.2312 3512.82 94.0346 3509.94C91.1279 3506.19 88.1237 3502.46 84.8493 3498.9C85.0273 3499.68 85.0856 3500.39 85.2636 3501.17C87.7805 3495.57 95.9024 3478.12 87.2914 3474.55C81.5182 3472.17 74.0016 3477.89 69.4077 3480.68C65.5493 3483.1 65.8556 3483.55 62.2187 3481.09C58.8436 3478.89 55.672 3476.23 52.2746 3473.93C49.3785 3472.02 43.1741 3468.21 41.0334 3473.21C39.1714 3477.63 43.57 3484.32 45.5548 3488.08C46.6515 3490.18 47.8458 3492.27 49.04 3494.36C48.1743 3492.81 49.9206 3492.82 48.8175 3493.38C48.3523 3493.59 47.9538 3494.09 47.6084 3494.38C46.3017 3495.39 45.0926 3496.39 43.8082 3497.5C41.0667 3499.87 33.8818 3504.79 34.9054 3509.28C35.9067 3513.66 44.0569 3512.52 47.2127 3512.42C52.6776 3512.09 58.0535 3511.38 63.3848 3510.47C62.7416 3509.9 62.0984 3509.33 61.4329 3508.66C61.5875 3512.93 61.9594 3517.26 62.5262 3521.54C62.9151 3525.04 63.0103 3532.2 66.0399 3534.69C71.8597 3539.51 78.2024 3520.11 79.4847 3516.74C78.6295 3517.04 77.7744 3517.34 77.0167 3517.62C80.5952 3519.36 84.3465 3520.97 88.1286 3522.26C91.1392 3523.32 96.6951 3525.64 99.3031 3522.68C100.941 3520.87 98.1068 3518.34 96.4685 3520.15C95.0781 3521.7 87.0298 3517.89 85.6596 3517.28C83.3007 3516.39 80.9948 3515.27 78.6889 3514.16C77.873 3513.73 76.5081 3514.04 76.2209 3515.03C75.142 3517.94 73.9435 3520.78 72.6251 3523.54C71.6608 3525.61 70.6964 3527.67 69.4925 3529.59C69.0411 3530.31 67.442 3531.39 68.5727 3531.85C68.2357 3531.72 67.9464 3530.46 67.8574 3530.07C66.5255 3522.88 65.6058 3515.71 65.2711 3508.4C65.2659 3507.48 64.3164 3506.46 63.3192 3506.59C60.2524 3507.08 57.0659 3507.5 53.9769 3507.9C49.8906 3508.42 43.7486 3509.82 39.7271 3508.38C38.2816 3507.89 38.8274 3508.48 39.0393 3507.62C39.1761 3506.87 40.3852 3505.87 40.8589 3505.25C42.8204 3503.06 45.066 3501.21 47.409 3499.35C48.9636 3498.07 52.8136 3496.06 52.7892 3493.71C52.7066 3490.65 48.9395 3486.28 47.634 3483.7C46.515 3481.5 45.254 3479.12 44.773 3476.56C44.0471 3472.93 46.8235 3474.76 48.8369 3475.94C53.9414 3478.98 58.2628 3483.53 63.646 3486C67.7788 3487.93 72.5433 3482.74 76.0785 3480.7C78.0899 3479.62 84.1854 3475.77 86.4435 3478.03C88.1782 3479.78 86.773 3484.41 86.2961 3486.37C85.2363 3490.71 83.742 3494.95 81.9108 3499.06C81.579 3499.86 81.7571 3500.64 82.325 3501.33C84.65 3503.87 86.7799 3506.46 88.9321 3509.15C90.2101 3510.71 97.0429 3518.17 96.1007 3520.34C95.2699 3522.99 98.6312 3524.68 99.5511 3522.42Z" fill="#1770D9" fill-opacity="0.08"/>
<path d="M89.7273 3123.2C86.1273 3120.6 79.6273 3124.3 76.3273 3125.8C72.0273 3127.8 67.7273 3129.9 63.5273 3132.3C64.3273 3132.3 65.0273 3132.4 65.8273 3132.4C60.9273 3128.7 45.7273 3116.9 40.3273 3124.5C36.7273 3129.6 40.6273 3138.2 42.3273 3143.3C43.8273 3147.6 44.3273 3147.4 41.1273 3150.4C38.2273 3153.2 34.9273 3155.7 31.9273 3158.5C29.4273 3160.9 24.3273 3166.1 28.7273 3169.3C32.6273 3172.1 40.1273 3169.3 44.2273 3168.2C46.5273 3167.6 48.8273 3166.9 51.1273 3166.2C49.4273 3166.7 49.8273 3165 50.1273 3166.2C50.2273 3166.7 50.6273 3167.2 50.8273 3167.6C51.5273 3169.1 52.2273 3170.5 53.0273 3172C54.7273 3175.2 57.9273 3183.3 62.5273 3183.3C67.0273 3183.3 67.7273 3175.1 68.3273 3172C69.2273 3166.6 69.7273 3161.2 70.0273 3155.8C69.3273 3156.3 68.6273 3156.8 67.8273 3157.3C72.0273 3158.1 76.3273 3158.7 80.6273 3159.1C84.1273 3159.5 91.1273 3161 94.2273 3158.6C100.227 3154 82.7273 3143.5 79.7273 3141.5C79.8273 3142.4 79.9273 3143.3 80.0273 3144.1C82.5273 3141 84.9273 3137.7 87.0273 3134.3C88.7273 3131.6 92.2273 3126.7 89.9273 3123.5C88.5273 3121.5 85.4273 3123.7 86.8273 3125.7C88.0273 3127.4 82.5273 3134.4 81.6273 3135.6C80.2273 3137.7 78.6273 3139.7 77.0273 3141.7C76.4273 3142.4 76.4273 3143.8 77.3273 3144.3C79.9273 3146 82.4273 3147.8 84.8273 3149.7C86.6273 3151.1 88.4273 3152.5 90.0273 3154.1C90.6273 3154.7 91.3273 3156.5 92.0273 3155.5C91.8273 3155.8 90.5273 3155.8 90.1273 3155.8C82.8273 3155.5 75.6273 3154.8 68.4273 3153.5C67.5273 3153.3 66.3273 3154 66.2273 3155C66.0273 3158.1 65.7273 3161.3 65.4273 3164.4C65.0273 3168.5 65.0273 3174.8 62.7273 3178.4C61.9273 3179.7 62.6273 3179.3 61.8273 3178.9C61.1273 3178.6 60.4273 3177.2 59.9273 3176.6C58.2273 3174.2 56.9273 3171.6 55.6273 3168.9C54.7273 3167.1 53.6273 3162.9 51.3273 3162.4C48.3273 3161.8 43.2273 3164.5 40.4273 3165.2C38.0273 3165.8 35.4273 3166.5 32.8273 3166.4C29.1273 3166.3 31.5273 3164 33.1273 3162.3C37.2273 3158 42.6273 3154.8 46.2273 3150.1C49.0273 3146.5 45.0273 3140.7 43.8273 3136.8C43.2273 3134.6 40.8273 3127.8 43.5273 3126.1C45.6273 3124.8 49.8273 3127.2 51.6273 3128.1C55.6273 3130.1 59.4273 3132.5 63.0273 3135.2C63.7273 3135.7 64.5273 3135.7 65.3273 3135.3C68.3273 3133.6 71.3273 3132.1 74.4273 3130.6C76.2273 3129.7 85.0273 3124.7 86.9273 3126.1C89.3273 3127.5 91.7273 3124.6 89.7273 3123.2Z" fill="#1770D9" fill-opacity="0.13"/>
<path d="M150.9 244.7C128 222.1 85.5 234.6 75.4 264.4C69.1 283.1 78 303.3 94.3 313.6C112.2 324.9 136.3 321.4 151.1 306.5C167.7 289.7 167 261.6 150.9 244.7C149.2 243 146.8 245.8 148.5 247.6C162 261.8 163.5 285.6 151 300.9C138.7 316 116.1 321.2 98.8 311.9C82.8 303.4 73 284.3 78.5 266.5C82.5 253.6 93.6 243.9 106.1 239.4C120.8 234.1 137.1 236.4 148.5 247.5C150.2 249.3 152.7 246.4 150.9 244.7Z" fill="#1770D9" fill-opacity="0.12"/>
<path d="M108.8 293C121.6 299.5 140.8 287.5 137.6 272.6C137.1 270.2 133.6 271.5 134.1 273.8C136.7 285.7 119.9 294.5 110.4 289.6C108.2 288.5 106.6 291.9 108.8 293Z" fill="#1770D9" fill-opacity="0.12"/>
<path d="M104.6 280.3C104.4 280 105 279 105.3 278.9C105.8 278.7 106.3 279.1 106.7 279.4C108.5 281 111 278.1 109.1 276.5C107.4 275 104.9 274.5 103 275.9C101.1 277.3 99.9 280.4 101.5 282.4C103 284.4 106.1 282.3 104.6 280.3Z" fill="#1770D9" fill-opacity="0.12"/>
<path d="M125 266.4C124.7 266.1 125.3 265.1 125.7 264.9C126.2 264.7 126.7 265.1 127.1 265.4C128.9 267 131.4 264.1 129.5 262.5C127.8 261 125.3 260.5 123.4 261.9C121.5 263.3 120.3 266.4 121.9 268.4C123.4 270.4 126.5 268.3 125 266.4Z" fill="#1770D9" fill-opacity="0.12"/>
<path d="M81.3999 229.4C83.4999 232.5 85.6999 235.6 87.7999 238.8C89.1999 240.8 92.2999 238.7 90.8999 236.7C88.7999 233.6 86.5999 230.5 84.4999 227.3C83.1999 225.3 80.0999 227.4 81.3999 229.4Z" fill="#1770D9" fill-opacity="0.12"/>
<path d="M143 319.3C145.1 322.4 147.3 325.5 149.4 328.7C150.8 330.7 153.9 328.6 152.5 326.6C150.4 323.5 148.2 320.4 146.1 317.2C144.7 315.2 141.6 317.3 143 319.3Z" fill="#1770D9" fill-opacity="0.12"/>
<path d="M68.4 313.5C71.5 311.4 74.6 309.2 77.8 307.1C79.8 305.7 77.7 302.6 75.7 304C72.6 306.1 69.5 308.3 66.3 310.4C64.3 311.8 66.4 314.9 68.4 313.5Z" fill="#1770D9" fill-opacity="0.12"/>
<path d="M158.3 251.9C161.4 249.8 164.5 247.6 167.7 245.5C169.7 244.1 167.6 241 165.6 242.4C162.5 244.5 159.4 246.7 156.2 248.8C154.2 250.2 156.3 253.3 158.3 251.9Z" fill="#1770D9" fill-opacity="0.12"/>
<path d="M57.5 268.7C61.2 269.4 64.9 270.1 68.7 270.8C71.1 271.2 71.8 267.6 69.4 267.1C65.6 266.4 61.9 265.7 58.2 265C55.8 264.6 55.1 268.3 57.5 268.7Z" fill="#1770D9" fill-opacity="0.12"/>
<path d="M164.6 288.8C168.3 289.5 172 290.2 175.8 290.9C178.2 291.3 178.9 287.7 176.5 287.2C172.8 286.5 169.1 285.8 165.3 285.1C162.9 284.7 162.2 288.3 164.6 288.8Z" fill="#1770D9" fill-opacity="0.12"/>
<path d="M107.7 337.4C108.4 333.7 109.1 330 109.8 326.2C110.2 323.8 106.6 323.1 106.1 325.5C105.4 329.2 104.7 332.9 104 336.7C103.6 339.1 107.3 339.8 107.7 337.4Z" fill="#1770D9" fill-opacity="0.12"/>
<path d="M127.8 230.3C128.5 226.6 129.2 222.9 129.9 219.1C130.3 216.7 126.7 216 126.2 218.4C125.5 222.1 124.8 225.8 124.1 229.6C123.7 232 127.3 232.7 127.8 230.3Z" fill="#1770D9" fill-opacity="0.12"/>
<path d="M65.8 245.9C68.9 248 72.1 250.1 75.2 252.2C77.2 253.5 79.6 250.7 77.6 249.3C74.5 247.2 71.3 245.1 68.2 243C66.2 241.7 63.8 244.5 65.8 245.9Z" fill="#1770D9" fill-opacity="0.12"/>
<path d="M156.3 306.6C159.4 308.7 162.6 310.8 165.7 312.9C167.7 314.2 170.1 311.4 168.1 310C165 307.9 161.8 305.8 158.7 303.7C156.7 302.4 154.3 305.2 156.3 306.6Z" fill="#1770D9" fill-opacity="0.12"/>
<path d="M84.9 329.1C87 326 89.1 322.8 91.2 319.7C92.5 317.7 89.7 315.3 88.3 317.3C86.2 320.4 84.1 323.6 82 326.7C80.7 328.7 83.5 331.2 84.9 329.1Z" fill="#1770D9" fill-opacity="0.12"/>
<path d="M145.6 238.6C147.7 235.5 149.8 232.3 151.9 229.2C153.2 227.2 150.4 224.8 149 226.8C146.9 229.9 144.8 233.1 142.7 236.2C141.4 238.2 144.2 240.6 145.6 238.6Z" fill="#1770D9" fill-opacity="0.12"/>
<path d="M58.1 291.5C61.8 290.8 65.5 290 69.2 289.3C71.5 288.8 71.3 285.1 68.9 285.6C65.2 286.3 61.5 287 57.8 287.7C55.5 288.2 55.7 292 58.1 291.5Z" fill="#1770D9" fill-opacity="0.12"/>
<path d="M165 270.4C168.7 269.7 172.4 268.9 176.1 268.2C178.4 267.7 178.2 264 175.8 264.5C172.1 265.2 168.4 266 164.7 266.7C162.4 267.1 162.6 270.8 165 270.4Z" fill="#1770D9" fill-opacity="0.12"/>
<path d="M130.5 336.9C129.8 333.2 129 329.5 128.3 325.8C127.8 323.5 124.1 323.7 124.6 326.1C125.3 329.8 126.1 333.5 126.8 337.2C127.2 339.5 131 339.2 130.5 336.9Z" fill="#1770D9" fill-opacity="0.12"/>
<path d="M109.4 229.9C108.7 226.2 107.9 222.5 107.2 218.8C106.7 216.5 103 216.7 103.5 219.1C104.2 222.8 105 226.5 105.7 230.2C106.1 232.5 109.8 232.3 109.4 229.9Z" fill="#1770D9" fill-opacity="0.12"/>
<path d="M59.9991 1312.56C33.9442 1293.69 -6.17617 1312.47 -11.6526 1343.46C-15.0516 1362.9 -3.19868 1381.52 14.4717 1389.23C33.8749 1397.7 57.1683 1390.59 69.5443 1373.62C83.4122 1354.51 78.47 1326.84 59.9991 1312.56C58.0615 1311.14 56.1126 1314.27 58.0653 1315.79C73.5578 1327.79 78.6404 1351.09 68.5984 1368.1C58.7239 1384.89 37.1704 1393.45 18.6628 1386.87C1.56122 1380.89 -11.015 1363.49 -8.27061 1345.06C-6.26782 1331.71 3.2373 1320.44 14.9128 1314.1C28.6421 1306.64 45.1024 1306.45 58.0502 1315.7C60.0029 1317.22 62.0355 1313.97 59.9991 1312.56Z" fill="#1770D9" fill-opacity="0.12"/>
<path d="M25.6891 1366.68C39.3249 1371.17 56.489 1356.4 51.0721 1342.16C50.2148 1339.86 46.9517 1341.67 47.7939 1343.87C52.1639 1355.24 36.8882 1366.48 26.7564 1363.07C24.4153 1362.32 23.348 1365.92 25.6891 1366.68Z" fill="#1770D9" fill-opacity="0.12"/>
<path d="M19.6164 1354.76C19.3734 1354.49 19.8152 1353.41 20.0966 1353.27C20.5606 1353 21.1154 1353.32 21.5561 1353.55C23.5774 1354.86 25.61 1351.62 23.4899 1350.32C21.5826 1349.1 19.0357 1348.98 17.3693 1350.65C15.7029 1352.32 14.9856 1355.57 16.8697 1357.3C18.655 1359.05 21.4017 1356.51 19.6164 1354.76Z" fill="#1770D9" fill-opacity="0.12"/>
<path d="M37.6793 1337.93C37.3374 1337.68 37.7792 1336.6 38.1443 1336.34C38.6083 1336.07 39.1631 1336.39 39.6039 1336.63C41.6252 1337.94 43.6578 1334.69 41.5376 1333.4C39.6303 1332.17 37.0834 1332.06 35.4171 1333.73C33.7507 1335.4 33.0334 1338.64 34.9175 1340.38C36.7027 1342.13 39.4494 1339.58 37.6793 1337.93Z" fill="#1770D9" fill-opacity="0.12"/>
<path d="M-11.0155 1307.95C-8.47074 1310.7 -5.82716 1313.43 -3.26731 1316.28C-1.5809 1318.04 1.1658 1315.5 -0.520604 1313.73C-3.06533 1310.99 -5.70891 1308.25 -8.26877 1305.41C-9.85632 1303.63 -12.603 1306.17 -11.0155 1307.95Z" fill="#1770D9" fill-opacity="0.12"/>
<path d="M63.4736 1387.5C66.0183 1390.25 68.6619 1392.98 71.2218 1395.83C72.9082 1397.59 75.6549 1395.05 73.9685 1393.28C71.4237 1390.53 68.7802 1387.8 66.2203 1384.96C64.5339 1383.19 61.7872 1385.74 63.4736 1387.5Z" fill="#1770D9" fill-opacity="0.12"/>
<path d="M-11.1454 1393.05C-8.39875 1390.51 -5.66718 1387.86 -2.82163 1385.3C-1.05639 1383.62 -3.60112 1380.87 -5.36635 1382.56C-8.11305 1385.1 -10.8446 1387.75 -13.6902 1390.31C-15.4554 1391.99 -12.9107 1394.74 -11.1454 1393.05Z" fill="#1770D9" fill-opacity="0.12"/>
<path d="M68.403 1318.56C71.1497 1316.02 73.8813 1313.37 76.7268 1310.82C78.4921 1309.13 75.9473 1306.38 74.1821 1308.07C71.4354 1310.61 68.7038 1313.26 65.8583 1315.82C64.0931 1317.5 66.6378 1320.25 68.403 1318.56Z" fill="#1770D9" fill-opacity="0.12"/>
<path d="M80.2117 1354.09C83.975 1354.22 87.7383 1354.35 91.6005 1354.47C94.0334 1354.5 94.1808 1350.84 91.7328 1350.7C87.9695 1350.57 84.2062 1350.44 80.344 1350.32C77.9111 1350.29 77.7637 1353.95 80.2117 1354.09Z" fill="#1770D9" fill-opacity="0.12"/>
<path d="M31.3173 1410.73C31.4496 1406.97 31.5819 1403.21 31.6991 1399.34C31.7315 1396.91 28.067 1396.76 27.9358 1399.21C27.8035 1402.97 27.6712 1406.74 27.554 1410.6C27.5216 1413.03 31.285 1413.17 31.3173 1410.73Z" fill="#1770D9" fill-opacity="0.12"/>
<path d="M34.9868 1301.82C35.1191 1298.06 35.2514 1294.3 35.3686 1290.44C35.401 1288 31.7365 1287.86 31.6053 1290.3C31.473 1294.07 31.3407 1297.83 31.2235 1301.69C31.1911 1304.13 34.8556 1304.27 34.9868 1301.82Z" fill="#1770D9" fill-opacity="0.12"/>
<path d="M74.6995 1372.94C78.0815 1374.54 81.5623 1376.13 84.9443 1377.74C87.1179 1378.72 89.0668 1375.59 86.878 1374.51C83.4961 1372.91 80.0152 1371.31 76.6333 1369.71C74.4597 1368.72 72.5108 1371.85 74.6995 1372.94Z" fill="#1770D9" fill-opacity="0.12"/>
<path d="M7.52443 1405.98C9.13138 1402.6 10.7232 1399.11 12.3301 1395.73C13.3127 1393.56 10.1819 1391.61 9.1005 1393.8C7.49355 1397.18 5.90173 1400.66 4.29478 1404.04C3.31225 1406.22 6.45817 1408.26 7.52443 1405.98Z" fill="#1770D9" fill-opacity="0.12"/>
<path d="M53.8374 1307.34C55.4444 1303.96 57.0362 1300.47 58.6431 1297.09C59.6257 1294.92 56.4949 1292.97 55.4135 1295.16C53.8065 1298.54 52.2147 1302.02 50.6078 1305.4C49.6252 1307.58 52.756 1309.53 53.8374 1307.34Z" fill="#1770D9" fill-opacity="0.12"/>
<path d="M77.824 1335.84C81.3756 1334.59 84.912 1333.23 88.4635 1331.98C90.6614 1331.14 89.9041 1327.51 87.6074 1328.37C84.0558 1329.62 80.5194 1330.97 76.9678 1332.22C74.7548 1332.97 75.5121 1336.6 77.824 1335.84Z" fill="#1770D9" fill-opacity="0.12"/>
<path d="M53.7795 1406.79C52.5279 1403.24 51.1775 1399.7 49.9259 1396.15C49.0838 1393.95 45.4566 1394.71 46.3139 1397.01C47.5655 1400.56 48.9159 1404.09 50.1675 1407.65C50.9108 1409.86 54.6217 1408.99 53.7795 1406.79Z" fill="#1770D9" fill-opacity="0.12"/>
<path d="M16.738 1304.21C15.4864 1300.66 14.136 1297.12 12.8844 1293.57C12.0423 1291.37 8.4151 1292.13 9.27236 1294.43C10.5239 1297.98 11.8744 1301.52 13.126 1305.07C13.8693 1307.28 17.4964 1306.52 16.738 1304.21Z" fill="#1770D9" fill-opacity="0.12"/>
<path d="M143.461 2879.53C121.983 2855.57 78.7993 2865.45 66.899 2894.58C59.4692 2912.86 67.1195 2933.57 82.7603 2944.84C99.9371 2957.22 124.206 2955.19 139.888 2941.23C157.482 2925.47 158.499 2897.38 143.461 2879.53C141.868 2877.73 139.301 2880.38 140.888 2882.28C153.496 2897.27 153.541 2921.12 140.13 2935.63C126.931 2949.95 104.056 2953.76 87.3557 2943.42C71.9044 2933.96 63.2887 2914.3 69.865 2896.87C74.645 2884.24 86.3165 2875.23 99.0679 2871.5C114.064 2867.11 130.193 2870.4 140.894 2882.18C142.481 2884.08 145.154 2881.33 143.461 2879.53Z" fill="#1770D9" fill-opacity="0.12"/>
<path d="M98.4908 2925.17C110.87 2932.44 130.767 2921.63 128.482 2906.56C128.13 2904.14 124.557 2905.22 124.916 2907.55C126.784 2919.58 109.478 2927.34 100.295 2921.87C98.1666 2920.64 96.362 2923.94 98.4908 2925.17Z" fill="#1770D9" fill-opacity="0.12"/>
<path d="M95.0739 2912.24C94.8926 2911.92 95.5526 2910.96 95.8581 2910.88C96.3694 2910.71 96.844 2911.14 97.225 2911.47C98.9239 2913.17 101.596 2910.43 99.7975 2908.72C98.1923 2907.12 95.7275 2906.46 93.7455 2907.75C91.7636 2909.03 90.3766 2912.05 91.8515 2914.14C93.2266 2916.23 96.4491 2914.32 95.0739 2912.24Z" fill="#1770D9" fill-opacity="0.12"/>
<path d="M116.284 2899.61C116.003 2899.29 116.663 2898.33 117.075 2898.15C117.586 2897.98 118.061 2898.41 118.442 2898.74C120.14 2900.44 122.813 2897.7 121.014 2895.99C119.409 2894.39 116.944 2893.74 114.962 2895.02C112.98 2896.3 111.593 2899.32 113.068 2901.41C114.443 2903.5 117.666 2901.59 116.284 2899.61Z" fill="#1770D9" fill-opacity="0.12"/>
<path d="M75.0244 2860.01C76.9313 2863.24 78.9379 2866.47 80.8387 2869.79C82.114 2871.87 85.3364 2869.96 84.0611 2867.88C82.1542 2864.66 80.1476 2861.43 78.2468 2858.11C77.0714 2856.03 73.849 2857.94 75.0244 2860.01Z" fill="#1770D9" fill-opacity="0.12"/>
<path d="M131.022 2953.51C132.928 2956.73 134.935 2959.96 136.836 2963.28C138.111 2965.36 141.334 2963.45 140.058 2961.37C138.151 2958.15 136.145 2954.92 134.244 2951.6C132.969 2949.52 129.746 2951.43 131.022 2953.51Z" fill="#1770D9" fill-opacity="0.12"/>
<path d="M56.9147 2943.16C60.1371 2941.26 63.3656 2939.25 66.6878 2937.35C68.7696 2936.07 66.8627 2932.85 64.781 2934.13C61.5586 2936.03 58.3301 2938.04 55.0078 2939.94C52.9261 2941.22 54.8329 2944.44 56.9147 2943.16Z" fill="#1770D9" fill-opacity="0.12"/>
<path d="M150.407 2887.17C153.63 2885.26 156.858 2883.25 160.181 2881.35C162.262 2880.08 160.355 2876.85 158.274 2878.13C155.051 2880.04 151.823 2882.04 148.501 2883.94C146.419 2885.22 148.326 2888.44 150.407 2887.17Z" fill="#1770D9" fill-opacity="0.12"/>
<path d="M48.7698 2897.78C52.4202 2898.71 56.0706 2899.63 59.8208 2900.56C62.1919 2901.11 63.1103 2897.56 60.7453 2896.91C56.9951 2895.98 53.3448 2895.06 49.6944 2894.13C47.3233 2893.59 46.3987 2897.24 48.7698 2897.78Z" fill="#1770D9" fill-opacity="0.12"/>
<path d="M154.443 2924.38C158.094 2925.31 161.744 2926.23 165.494 2927.16C167.865 2927.71 168.784 2924.16 166.419 2923.51C162.768 2922.59 159.118 2921.66 155.368 2920.73C152.997 2920.19 152.078 2923.74 154.443 2924.38Z" fill="#1770D9" fill-opacity="0.12"/>
<path d="M94.6825 2969.42C95.607 2965.77 96.5316 2962.12 97.4623 2958.37C98.008 2956 94.4575 2955.08 93.8119 2957.44C92.8873 2961.09 91.9628 2964.74 91.0321 2968.49C90.4863 2970.87 94.1367 2971.79 94.6825 2969.42Z" fill="#1770D9" fill-opacity="0.12"/>
<path d="M121.283 2863.75C122.208 2860.09 123.132 2856.44 124.063 2852.69C124.609 2850.32 121.058 2849.4 120.412 2851.77C119.488 2855.42 118.563 2859.07 117.633 2862.82C117.087 2865.19 120.637 2866.11 121.283 2863.75Z" fill="#1770D9" fill-opacity="0.12"/>
<path d="M58.4463 2875.53C61.4123 2877.82 64.4781 2880.11 67.4441 2882.39C69.3611 2883.81 71.9275 2881.16 70.0167 2879.65C67.0507 2877.36 63.9848 2875.07 61.0188 2872.78C59.1019 2871.36 56.5355 2874.01 58.4463 2875.53Z" fill="#1770D9" fill-opacity="0.12"/>
<path d="M145.072 2941.64C148.038 2943.93 151.104 2946.22 154.07 2948.5C155.987 2949.92 158.553 2947.28 156.642 2945.76C153.676 2943.47 150.611 2941.18 147.645 2938.89C145.728 2937.47 143.161 2940.12 145.072 2941.64Z" fill="#1770D9" fill-opacity="0.12"/>
<path d="M72.4315 2959.74C74.7168 2956.78 77.0083 2953.71 79.2936 2950.74C80.7133 2948.83 78.065 2946.26 76.5455 2948.17C74.2602 2951.14 71.9688 2954.2 69.6834 2957.17C68.2638 2959.09 70.9059 2961.75 72.4315 2959.74Z" fill="#1770D9" fill-opacity="0.12"/>
<path d="M138.543 2873.12C140.828 2870.15 143.12 2867.08 145.405 2864.12C146.825 2862.2 144.176 2859.63 142.657 2861.55C140.372 2864.51 138.08 2867.58 135.795 2870.54C134.375 2872.46 137.023 2875.03 138.543 2873.12Z" fill="#1770D9" fill-opacity="0.12"/>
<path d="M47.9769 2920.58C51.7128 2920.1 55.4547 2919.53 59.1905 2919.06C61.5168 2918.7 61.543 2914.99 59.117 2915.35C55.3811 2915.82 51.6453 2916.29 47.9095 2916.77C45.5832 2917.12 45.5509 2920.93 47.9769 2920.58Z" fill="#1770D9" fill-opacity="0.12"/>
<path d="M155.966 2906.04C159.702 2905.57 163.443 2905 167.179 2904.52C169.506 2904.16 169.532 2900.46 167.106 2900.81C163.37 2901.28 159.628 2901.86 155.892 2902.33C153.572 2902.59 153.546 2906.29 155.966 2906.04Z" fill="#1770D9" fill-opacity="0.12"/>
<path d="M117.47 2970.31C116.998 2966.58 116.425 2962.83 115.952 2959.1C115.593 2956.77 111.888 2956.75 112.241 2959.17C112.714 2962.91 113.286 2966.65 113.759 2970.38C114.018 2972.7 117.829 2972.64 117.47 2970.31Z" fill="#1770D9" fill-opacity="0.12"/>
<path d="M102.942 2862.22C102.469 2858.49 101.896 2854.75 101.423 2851.01C101.065 2848.68 97.3594 2848.66 97.7119 2851.08C98.1847 2854.82 98.7574 2858.56 99.2302 2862.3C99.4891 2864.62 103.194 2864.64 102.942 2862.22Z" fill="#1770D9" fill-opacity="0.12"/>
<path d="M43.4605 3749.53C21.9829 3725.57 -21.2009 3735.45 -33.1013 3764.58C-40.5311 3782.86 -32.8808 3803.57 -17.2399 3814.84C-0.063147 3827.22 24.2056 3825.19 39.8875 3811.23C57.4821 3795.47 58.4988 3767.38 43.4605 3749.53C41.8675 3747.73 39.301 3750.38 40.888 3752.28C53.4959 3767.27 53.5403 3791.12 40.1296 3805.63C26.9307 3819.95 4.05545 3823.76 -12.6446 3813.42C-28.0958 3803.96 -36.7116 3784.3 -30.1352 3766.87C-25.3552 3754.24 -13.6838 3745.23 -0.932385 3741.5C14.0637 3737.11 30.1929 3740.4 40.8941 3752.18C42.481 3754.08 45.1534 3751.33 43.4605 3749.53Z" fill="#1770D9" fill-opacity="0.12"/>
<path d="M-1.50949 3795.17C10.8698 3802.44 30.7666 3791.63 28.4821 3776.56C28.1296 3774.14 24.5567 3775.22 24.9154 3777.55C26.7841 3789.58 9.47824 3797.34 0.295082 3791.87C-1.83367 3790.64 -3.63824 3793.94 -1.50949 3795.17Z" fill="#1770D9" fill-opacity="0.12"/>
<path d="M-4.92629 3782.24C-5.10761 3781.92 -4.44768 3780.96 -4.14214 3780.88C-3.63086 3780.71 -3.15621 3781.14 -2.77527 3781.47C-1.0763 3783.17 1.59607 3780.43 -0.202714 3778.72C-1.80798 3777.12 -4.27279 3776.46 -6.25471 3777.75C-8.23663 3779.03 -9.62363 3782.05 -8.14871 3784.14C-6.7736 3786.23 -3.55118 3784.32 -4.92629 3782.24Z" fill="#1770D9" fill-opacity="0.12"/>
<path d="M16.2842 3769.61C16.003 3769.29 16.663 3768.33 17.0744 3768.15C17.5857 3767.98 18.0603 3768.41 18.4413 3768.74C20.1403 3770.44 22.8126 3767.7 21.0138 3765.99C19.4086 3764.39 16.9438 3763.74 14.9618 3765.02C12.9799 3766.3 11.5929 3769.32 13.0678 3771.41C14.443 3773.5 17.6654 3771.59 16.2842 3769.61Z" fill="#1770D9" fill-opacity="0.12"/>
<path d="M31.0214 3823.51C32.9282 3826.73 34.9349 3829.96 36.8356 3833.28C38.1109 3835.36 41.3333 3833.45 40.058 3831.37C38.1512 3828.15 36.1445 3824.92 34.2438 3821.6C32.9685 3819.52 29.7461 3821.43 31.0214 3823.51Z" fill="#1770D9" fill-opacity="0.12"/>
<path d="M50.4071 3757.17C53.6295 3755.26 56.858 3753.25 60.1803 3751.35C62.262 3750.08 60.3552 3746.85 58.2734 3748.13C55.051 3750.04 51.8225 3752.04 48.5003 3753.94C46.4185 3755.22 48.3254 3758.44 50.4071 3757.17Z" fill="#1770D9" fill-opacity="0.12"/>
<path d="M54.4429 3794.38C58.0933 3795.31 61.7436 3796.23 65.4938 3797.16C67.8649 3797.71 68.7834 3794.16 66.4184 3793.51C62.768 3792.59 59.1176 3791.66 55.3675 3790.73C52.9964 3790.19 52.0779 3793.74 54.4429 3794.38Z" fill="#1770D9" fill-opacity="0.12"/>
<path d="M21.2827 3733.75C22.2073 3730.09 23.1318 3726.44 24.0625 3722.69C24.6083 3720.32 21.0577 3719.4 20.4121 3721.77C19.4876 3725.42 18.563 3729.07 17.6323 3732.82C17.0866 3735.19 20.6371 3736.11 21.2827 3733.75Z" fill="#1770D9" fill-opacity="0.12"/>
<path d="M45.0718 3811.64C48.0378 3813.93 51.1036 3816.22 54.0696 3818.5C55.9865 3819.92 58.553 3817.28 56.6422 3815.76C53.6762 3813.47 50.6103 3811.18 47.6443 3808.89C45.7274 3807.47 43.1609 3810.12 45.0718 3811.64Z" fill="#1770D9" fill-opacity="0.12"/>
<path d="M38.5427 3743.12C40.8281 3740.15 43.1195 3737.08 45.4048 3734.12C46.8245 3732.2 44.1762 3729.63 42.6567 3731.55C40.3714 3734.51 38.08 3737.58 35.7946 3740.54C34.375 3742.46 37.0232 3745.03 38.5427 3743.12Z" fill="#1770D9" fill-opacity="0.12"/>
<path d="M55.9655 3776.04C59.7013 3775.57 63.4432 3775 67.1791 3774.52C69.5053 3774.16 69.5315 3770.46 67.1055 3770.81C63.3697 3771.28 59.6277 3771.86 55.8919 3772.33C53.5718 3772.59 53.5455 3776.29 55.9655 3776.04Z" fill="#1770D9" fill-opacity="0.12"/>
<path d="M17.4702 3840.31C16.9974 3836.58 16.4247 3832.83 15.9519 3829.1C15.5932 3826.77 11.8879 3826.75 12.2405 3829.17C12.7133 3832.91 13.286 3836.65 13.7588 3840.38C14.0176 3842.7 17.8289 3842.64 17.4702 3840.31Z" fill="#1770D9" fill-opacity="0.12"/>
<path d="M2.94138 3732.22C2.46855 3728.49 1.89591 3724.75 1.42309 3721.01C1.06442 3718.68 -2.64089 3718.66 -2.28833 3721.08C-1.8155 3724.82 -1.24286 3728.56 -0.770035 3732.3C-0.511186 3734.62 3.19412 3734.64 2.94138 3732.22Z" fill="#1770D9" fill-opacity="0.12"/>
<g opacity="0.13">
<path d="M-46.0634 1743.65C-50.6634 1740.25 -54.3634 1735.65 -56.9634 1730.65C-58.7634 1727.15 -59.6634 1723.85 -56.6634 1720.65C-54.5634 1718.35 -51.5634 1716.65 -48.9634 1715.15C-44.3634 1712.45 -39.3634 1710.75 -34.7634 1708.35C-31.8634 1706.85 -29.2634 1704.75 -28.5634 1701.35C-27.8634 1697.85 -29.2634 1694.45 -30.5634 1691.35C-32.7634 1686.35 -34.4634 1681.85 -34.2634 1676.25C-33.7634 1665.85 -28.2634 1656.45 -20.6634 1649.55C-12.6634 1642.25 -2.56336 1637.25 7.43664 1633.15C15.5366 1629.85 24.5366 1627.45 32.2366 1632.65C37.9366 1636.45 42.8366 1641.35 47.8366 1645.95C50.4366 1648.35 53.7366 1652.95 57.1366 1654.15C59.6366 1655.05 63.0366 1653.15 65.4366 1652.25C70.4366 1650.35 75.4366 1647.95 80.8366 1647.25C93.9366 1645.55 99.5366 1657.65 103.637 1667.85C104.437 1669.95 107.537 1668.45 106.737 1666.35C103.537 1658.45 99.5366 1648.75 91.1366 1645.05C82.5366 1641.35 73.3366 1645.35 65.2366 1648.55C63.6366 1649.15 59.8366 1651.25 58.5366 1650.95C57.8366 1650.75 56.8366 1649.65 56.3366 1649.15C53.7366 1646.85 51.3366 1644.45 48.8366 1642.15C43.6366 1637.35 38.4366 1632.05 32.2366 1628.55C25.4366 1624.55 17.3366 1625.85 10.2366 1628.35C-0.463359 1632.05 -11.3634 1637.45 -20.2634 1644.65C-28.0634 1650.95 -34.3634 1659.35 -36.7634 1669.25C-37.7634 1673.15 -38.0634 1677.25 -37.5634 1681.35C-36.8634 1686.95 -33.5634 1691.35 -32.2634 1696.65C-30.1634 1705.55 -42.1634 1707.45 -48.0634 1710.65C-52.4634 1713.05 -58.5634 1716.05 -61.1634 1720.65C-66.1634 1729.55 -54.4634 1741.75 -48.0634 1746.55C-46.2634 1747.85 -44.2634 1745.05 -46.0634 1743.65Z" fill="#1770D9"/>
<path d="M-2.66338 1714.05C-10.2634 1707.45 -20.2634 1708.85 -27.5634 1715.15C-34.4634 1721.15 -37.1634 1731.45 -31.0634 1739.05C-24.6634 1747.15 -11.6634 1745.85 -4.06338 1740.15C4.73662 1733.55 5.23662 1722.05 -2.26338 1714.35C-3.76338 1712.75 -6.46338 1715.05 -4.86338 1716.65C11.3366 1733.45 -21.4634 1751.95 -29.6634 1734.65C-32.8634 1727.85 -29.2634 1720.65 -23.6634 1716.65C-17.4634 1712.25 -10.3634 1711.85 -4.56338 1717.05C-2.96338 1718.35 -1.06338 1715.45 -2.66338 1714.05Z" fill="#1770D9"/>
<path d="M82.8366 1676.55C75.8366 1670.55 64.0366 1680.75 70.4366 1688.15C73.4366 1691.55 79.0366 1691.05 82.3366 1688.45C86.2366 1685.45 86.5366 1680.35 83.1366 1676.75C81.6366 1675.15 79.0367 1677.45 80.5367 1679.05C85.8367 1684.65 74.9366 1690.35 72.4366 1684.95C71.4366 1682.85 72.6366 1680.55 74.4366 1679.35C76.5366 1677.75 78.8366 1677.65 80.9366 1679.45C82.5366 1680.85 84.5366 1677.95 82.8366 1676.55Z" fill="#1770D9"/>
<path d="M90.2366 1669.25C82.6366 1662.65 72.6366 1664.05 65.3366 1670.35C58.4366 1676.35 55.7366 1686.65 61.8366 1694.25C68.2366 1702.35 81.2366 1701.05 88.8366 1695.35C97.6366 1688.75 98.1366 1677.25 90.6366 1669.55C89.1366 1667.95 86.4366 1670.25 88.0366 1671.85C104.237 1688.65 71.4366 1707.15 63.2366 1689.85C60.0366 1683.05 63.6366 1675.85 69.2366 1671.85C75.4366 1667.45 82.5366 1667.05 88.3366 1672.25C90.0366 1673.55 91.9366 1670.65 90.2366 1669.25Z" fill="#1770D9"/>
<path d="M2.73668 1722.45C22.6367 1712.85 42.4367 1703.25 62.3367 1693.75C64.3367 1692.75 62.8367 1689.65 60.8367 1690.65C40.9367 1700.15 21.0367 1709.75 1.23668 1719.35C-0.763319 1720.35 0.736681 1723.45 2.73668 1722.45Z" fill="#1770D9"/>
<path d="M94.5366 1677.25C98.9366 1675.05 102.937 1672.15 106.337 1668.55C107.837 1666.95 105.637 1664.35 104.037 1665.95C100.837 1669.35 97.1366 1672.05 93.0366 1674.15C91.0366 1675.15 92.5366 1678.25 94.5366 1677.25Z" fill="#1770D9"/>
<path d="M46.3366 1656.65C41.3366 1648.45 35.9366 1641.25 26.5366 1638.05C17.3366 1634.95 7.93663 1638.15 -0.663369 1641.75C-1.56337 1642.15 -1.86337 1643.25 -1.46337 1644.05C3.93663 1655.25 9.33663 1666.55 14.7366 1677.75C15.1366 1678.55 16.2366 1678.95 17.0366 1678.55C24.8366 1674.55 32.5366 1670.35 40.0366 1665.85C43.3366 1663.95 48.1366 1660.95 46.3366 1656.65C45.4366 1654.65 42.3366 1656.15 43.2366 1658.15C44.3366 1660.75 35.9366 1664.25 34.2366 1665.25C28.1366 1668.75 22.0366 1672.25 15.7366 1675.45C16.5366 1675.75 17.2366 1675.95 18.0366 1676.25C12.6366 1665.05 7.23663 1653.75 1.83663 1642.55C1.53663 1643.35 1.33663 1644.05 1.03663 1644.85C8.73663 1641.65 17.3366 1638.55 25.5366 1641.35C34.0366 1644.15 38.8366 1650.75 43.2366 1658.15C44.3366 1659.95 47.4366 1658.55 46.3366 1656.65Z" fill="#1770D9"/>
<path d="M-6.36338 1644.55C-20.6634 1652.85 -30.9634 1667.55 -25.3634 1684.65C-23.3634 1690.85 -19.2634 1695.25 -12.4634 1692.95C-9.46338 1691.95 -6.66338 1690.15 -3.76338 1688.75C1.33662 1686.35 6.43662 1683.95 11.4366 1681.45C12.2366 1681.05 12.6366 1679.95 12.2366 1679.15C6.73663 1667.85 1.33662 1656.65 -4.06338 1645.35C-5.06338 1643.35 -8.16338 1644.85 -7.16338 1646.85C-1.76338 1658.15 3.63662 1669.35 9.13662 1680.65C9.43662 1679.85 9.63662 1679.15 9.93662 1678.35C4.03662 1681.35 -2.16338 1683.95 -7.96338 1686.95C-10.0634 1688.05 -12.3634 1689.65 -14.7634 1690.05C-19.7634 1690.85 -21.5634 1685.75 -22.5634 1681.75C-26.1634 1666.95 -17.0634 1654.85 -4.76338 1647.75C-2.96338 1646.55 -4.46338 1643.45 -6.36338 1644.55Z" fill="#1770D9"/>
<path d="M99.2366 1652.95C100.237 1651.85 100.537 1651.25 101.937 1652.85C102.537 1653.55 102.937 1654.65 103.337 1655.35C103.937 1656.55 105.937 1659.85 104.137 1660.35C102.037 1661.05 102.637 1664.45 104.737 1663.75C106.337 1663.25 108.037 1662.45 108.437 1660.65C108.937 1658.55 107.337 1655.65 106.437 1653.85C105.537 1652.05 104.437 1649.35 102.437 1648.45C100.337 1647.45 98.2366 1648.85 96.9366 1650.25C95.4366 1651.95 97.7366 1654.65 99.2366 1652.95Z" fill="#1770D9"/>
<path d="M2.63658 1692.75C4.63658 1691.75 6.73659 1690.75 8.73659 1689.85C10.7366 1688.85 9.23659 1685.75 7.23659 1686.75C5.23659 1687.75 3.13658 1688.75 1.13658 1689.65C-0.863417 1690.55 0.636583 1693.65 2.63658 1692.75Z" fill="#1770D9"/>
<path d="M20.8367 1683.95C22.8367 1682.95 24.9367 1681.95 26.9367 1681.05C28.9367 1680.05 27.4367 1676.95 25.4367 1677.95C23.4367 1678.95 21.3367 1679.95 19.3367 1680.85C17.3367 1681.75 18.8367 1684.95 20.8367 1683.95Z" fill="#1770D9"/>
</g>
<g opacity="0.13">
<path d="M-75.0634 2622.65C-79.6634 2619.25 -83.3634 2614.65 -85.9634 2609.65C-87.7634 2606.15 -88.6634 2602.85 -85.6634 2599.65C-83.5634 2597.35 -80.5634 2595.65 -77.9634 2594.15C-73.3634 2591.45 -68.3634 2589.75 -63.7634 2587.35C-60.8634 2585.85 -58.2634 2583.75 -57.5634 2580.35C-56.8634 2576.85 -58.2634 2573.45 -59.5634 2570.35C-61.7634 2565.35 -63.4634 2560.85 -63.2634 2555.25C-62.7634 2544.85 -57.2634 2535.45 -49.6634 2528.55C-41.6634 2521.25 -31.5634 2516.25 -21.5634 2512.15C-13.4634 2508.85 -4.46336 2506.45 3.23664 2511.65C8.93664 2515.45 13.8366 2520.35 18.8366 2524.95C21.4366 2527.35 24.7366 2531.95 28.1366 2533.15C30.6366 2534.05 34.0366 2532.15 36.4366 2531.25C41.4366 2529.35 46.4366 2526.95 51.8366 2526.25C64.9366 2524.55 70.5366 2536.65 74.6366 2546.85C75.4366 2548.95 78.5366 2547.45 77.7366 2545.35C74.5366 2537.45 70.5366 2527.75 62.1366 2524.05C53.5366 2520.35 44.3366 2524.35 36.2366 2527.55C34.6366 2528.15 30.8366 2530.25 29.5366 2529.95C28.8366 2529.75 27.8366 2528.65 27.3366 2528.15C24.7366 2525.85 22.3366 2523.45 19.8366 2521.15C14.6366 2516.35 9.43664 2511.05 3.23664 2507.55C-3.56336 2503.55 -11.6634 2504.85 -18.7634 2507.35C-29.4634 2511.05 -40.3634 2516.45 -49.2634 2523.65C-57.0634 2529.95 -63.3634 2538.35 -65.7634 2548.25C-66.7634 2552.15 -67.0634 2556.25 -66.5634 2560.35C-65.8634 2565.95 -62.5634 2570.35 -61.2634 2575.65C-59.1634 2584.55 -71.1634 2586.45 -77.0634 2589.65C-81.4634 2592.05 -87.5634 2595.05 -90.1634 2599.65C-95.1634 2608.55 -83.4634 2620.75 -77.0634 2625.55C-75.2634 2626.85 -73.2634 2624.05 -75.0634 2622.65Z" fill="#1770D9"/>
<path d="M53.8366 2555.55C46.8366 2549.55 35.0366 2559.75 41.4366 2567.15C44.4366 2570.55 50.0366 2570.05 53.3366 2567.45C57.2366 2564.45 57.5366 2559.35 54.1366 2555.75C52.6366 2554.15 50.0367 2556.45 51.5367 2558.05C56.8367 2563.65 45.9366 2569.35 43.4366 2563.95C42.4366 2561.85 43.6366 2559.55 45.4366 2558.35C47.5366 2556.75 49.8366 2556.65 51.9366 2558.45C53.5366 2559.85 55.5366 2556.95 53.8366 2555.55Z" fill="#1770D9"/>
<path d="M61.2366 2548.25C53.6366 2541.65 43.6366 2543.05 36.3366 2549.35C29.4366 2555.35 26.7366 2565.65 32.8366 2573.25C39.2366 2581.35 52.2366 2580.05 59.8366 2574.35C68.6366 2567.75 69.1366 2556.25 61.6366 2548.55C60.1366 2546.95 57.4366 2549.25 59.0366 2550.85C75.2367 2567.65 42.4366 2586.15 34.2366 2568.85C31.0366 2562.05 34.6366 2554.85 40.2366 2550.85C46.4366 2546.45 53.5366 2546.05 59.3366 2551.25C61.0366 2552.55 62.9366 2549.65 61.2366 2548.25Z" fill="#1770D9"/>
<path d="M-26.2633 2601.45C-6.36332 2591.85 13.4367 2582.25 33.3367 2572.75C35.3367 2571.75 33.8367 2568.65 31.8367 2569.65C11.9367 2579.15 -7.96332 2588.75 -27.7633 2598.35C-29.7633 2599.35 -28.2633 2602.45 -26.2633 2601.45Z" fill="#1770D9"/>
<path d="M65.5366 2556.25C69.9366 2554.05 73.9366 2551.15 77.3366 2547.55C78.8366 2545.95 76.6366 2543.35 75.0366 2544.95C71.8366 2548.35 68.1366 2551.05 64.0366 2553.15C62.0366 2554.15 63.5366 2557.25 65.5366 2556.25Z" fill="#1770D9"/>
<path d="M17.3366 2535.65C12.3366 2527.45 6.93663 2520.25 -2.46337 2517.05C-11.6634 2513.95 -21.0634 2517.15 -29.6634 2520.75C-30.5634 2521.15 -30.8634 2522.25 -30.4634 2523.05C-25.0634 2534.25 -19.6634 2545.55 -14.2634 2556.75C-13.8634 2557.55 -12.7634 2557.95 -11.9634 2557.55C-4.16337 2553.55 3.53663 2549.35 11.0366 2544.85C14.3366 2542.95 19.1366 2539.95 17.3366 2535.65C16.4366 2533.65 13.3366 2535.15 14.2366 2537.15C15.3366 2539.75 6.93663 2543.25 5.23663 2544.25C-0.863367 2547.75 -6.96337 2551.25 -13.2634 2554.45C-12.4634 2554.75 -11.7634 2554.95 -10.9634 2555.25C-16.3634 2544.05 -21.7634 2532.75 -27.1634 2521.55C-27.4634 2522.35 -27.6634 2523.05 -27.9634 2523.85C-20.2634 2520.65 -11.6634 2517.55 -3.46337 2520.35C5.03663 2523.15 9.83663 2529.75 14.2366 2537.15C15.3366 2538.95 18.4366 2537.55 17.3366 2535.65Z" fill="#1770D9"/>
<path d="M70.2366 2531.95C71.2366 2530.85 71.5366 2530.25 72.9366 2531.85C73.5366 2532.55 73.9366 2533.65 74.3366 2534.35C74.9366 2535.55 76.9366 2538.85 75.1366 2539.35C73.0366 2540.05 73.6366 2543.45 75.7366 2542.75C77.3366 2542.25 79.0366 2541.45 79.4366 2539.65C79.9366 2537.55 78.3366 2534.65 77.4366 2532.85C76.5366 2531.05 75.4366 2528.35 73.4366 2527.45C71.3366 2526.45 69.2366 2527.85 67.9366 2529.25C66.4366 2530.95 68.7366 2533.65 70.2366 2531.95Z" fill="#1770D9"/>
</g>
<g opacity="0.12">
<path d="M62.7457 2744.3C58.4338 2741.41 53.6958 2740.33 48.8325 2742.64C49.71 2743.2 50.6526 2743.85 51.6062 2744.35C52.5682 2733.92 39.8148 2726.54 33.0946 2736.22C34.1892 2736.73 35.3487 2737.32 36.4433 2737.83C39.1242 2724.5 30.9048 2710.87 16.6763 2709.61C3.21775 2708.48 -7.36776 2720.41 -5.14578 2733.64C-3.97352 2733.16 -2.81235 2732.83 -1.64009 2732.35C-6.33349 2724.4 -16.3906 2713.39 -26.659 2717.69C-36.7753 2721.86 -37.5013 2733.79 -32.9283 2742.38C-32.0158 2741.6 -31.1683 2740.74 -30.2558 2739.96C-38.2395 2734.16 -49.6466 2732.19 -54.4595 2742.88C-58.4883 2751.71 -53.3181 2759.92 -45.0159 2763.48C-39.1738 2765.86 -32.4714 2766.31 -26.257 2766.66C-18.4267 2767.21 -10.6076 2767.89 -2.77733 2768.44C15.0518 2769.91 33.5858 2771.44 51.3882 2769.65C57.8213 2769.02 65.1574 2766.83 67.9346 2760.38C70.6135 2754.28 67.4677 2748.29 62.7457 2744.3C60.8828 2742.74 58.8598 2745.91 60.7226 2747.48C64.3834 2750.53 66.7498 2755.61 63.987 2760.07C61.8768 2763.45 57.861 2764.91 54.2587 2765.62C46.4791 2767.14 38.0849 2766.55 30.2863 2766.5C13.8544 2766.2 -2.27185 2764.72 -18.5501 2763.37C-28.1371 2762.61 -45.2884 2764.24 -50.8134 2754.23C-53.0516 2750.23 -52.1959 2744.76 -49.0228 2741.39C-43.9265 2736.12 -37.2401 2739.48 -32.2788 2743.14C-30.7407 2744.32 -28.7415 2742.35 -29.6063 2740.72C-33.3145 2733.76 -33.1746 2722.07 -23.1392 2720.73C-15.4689 2719.7 -8.35815 2728.49 -4.90819 2734.22C-3.84849 2736.08 -1.06992 2735.02 -1.4025 2732.94C-3.1731 2722.09 5.73791 2712.51 16.5827 2713.5C28.1324 2714.55 35.1195 2725.81 32.9742 2736.85C32.6018 2738.88 35.0397 2740.35 36.3229 2738.46C41.0422 2731.67 48.4937 2737.93 47.9184 2744.34C47.7314 2745.81 49.4327 2746.73 50.6921 2746.05C54.2311 2744.34 57.6891 2745.46 60.7876 2747.55C62.6726 2748.83 64.6956 2745.66 62.7457 2744.3Z" fill="#1770D9"/>
</g>
<g opacity="0.12">
<path d="M79.7457 3948.3C75.4338 3945.41 70.6958 3944.33 65.8325 3946.64C66.71 3947.2 67.6526 3947.85 68.6062 3948.35C69.5682 3937.92 56.8148 3930.54 50.0946 3940.22C51.1892 3940.73 52.3487 3941.32 53.4433 3941.83C56.1242 3928.5 47.9048 3914.87 33.6763 3913.61C20.2177 3912.48 9.63224 3924.41 11.8542 3937.64C13.0265 3937.16 14.1877 3936.83 15.3599 3936.35C10.6665 3928.4 0.609417 3917.39 -9.65897 3921.69C-19.7753 3925.86 -20.5013 3937.79 -15.9283 3946.38C-15.0158 3945.6 -14.1683 3944.74 -13.2558 3943.96C-21.2395 3938.16 -32.6466 3936.19 -37.4595 3946.88C-41.4883 3955.71 -36.3181 3963.92 -28.0159 3967.48C-22.1738 3969.86 -15.4714 3970.31 -9.25697 3970.66C-1.42672 3971.21 6.39243 3971.89 14.2227 3972.44C32.0518 3973.91 50.5858 3975.44 68.3882 3973.65C74.8213 3973.02 82.1574 3970.83 84.9346 3964.38C87.6135 3958.28 84.4677 3952.29 79.7457 3948.3C77.8828 3946.74 75.8598 3949.91 77.7226 3951.48C81.3834 3954.53 83.7498 3959.61 80.987 3964.07C78.8768 3967.45 74.861 3968.91 71.2587 3969.62C63.4791 3971.14 55.0849 3970.55 47.2863 3970.5C30.8544 3970.2 14.7281 3968.72 -1.55013 3967.37C-11.1371 3966.61 -28.2884 3968.24 -33.8134 3958.23C-36.0516 3954.23 -35.1959 3948.76 -32.0228 3945.39C-26.9265 3940.12 -20.2401 3943.48 -15.2788 3947.14C-13.7407 3948.32 -11.7415 3946.35 -12.6063 3944.72C-16.3145 3937.76 -16.1746 3926.07 -6.13919 3924.73C1.53112 3923.7 8.64185 3932.49 12.0918 3938.22C13.1515 3940.08 15.9301 3939.02 15.5975 3936.94C13.8269 3926.09 22.7379 3916.51 33.5827 3917.5C45.1324 3918.55 52.1195 3929.81 49.9742 3940.85C49.6018 3942.88 52.0397 3944.35 53.3229 3942.46C58.0422 3935.67 65.4937 3941.93 64.9184 3948.34C64.7314 3949.81 66.4327 3950.73 67.6921 3950.05C71.2311 3948.34 74.6891 3949.46 77.7876 3951.55C79.6726 3952.83 81.6956 3949.66 79.7457 3948.3Z" fill="#1770D9"/>
</g>
</g>
<defs>
<clipPath id="clip0">
<rect width="200" height="4460" fill="white"/>
</clipPath>
<clipPath id="clip1">
<rect width="56.4" height="57.1" fill="white" transform="translate(45 593)"/>
</clipPath>
<clipPath id="clip2">
<rect width="56.4" height="57.1" fill="white" transform="translate(39 2328)"/>
</clipPath>
<clipPath id="clip3">
<rect width="56.4" height="57.1" fill="white" transform="translate(96.2012 4201) rotate(75.1834)"/>
</clipPath>
<clipPath id="clip4">
<rect width="160.7" height="136.4" fill="white" transform="translate(94.0808 3290.58) rotate(109.969)"/>
</clipPath>
<clipPath id="clip5">
<rect width="160.7" height="136.4" fill="white" transform="translate(120.606 872.876) rotate(121.8)"/>
</clipPath>
<clipPath id="clip6">
<rect width="53" height="47" fill="white" transform="translate(61 1209)"/>
</clipPath>
<clipPath id="clip7">
<rect width="68.5" height="61.3" fill="white" transform="translate(-16 1791)"/>
</clipPath>
</defs>
</svg>
